<?xml version="1.0" standalone="no"?>
<!DOCTYPE svg PUBLIC "-//W3C//DTD SVG 1.1//EN" "http://www.w3.org/Graphics/SVG/1.1/DTD/svg11.dtd" >
<svg>
<metadata>
Created by FontForge 20090914 at Sat Apr  2 08:26:30 2016
 By www-data
Copyright (c) 2011 by Juan Pablo del Peral (huertatipografica.com.ar), , with Reserved Font Name "Acme"
</metadata>
<defs>
<font id="Acme-Regular" horiz-adv-x="244" >
  <font-face 
    font-family="Acme"
    font-weight="400"
    font-stretch="normal"
    units-per-em="1000"
    panose-1="2 0 7 6 5 0 0 2 0 4"
    ascent="800"
    descent="-200"
    x-height="509"
    cap-height="695"
    bbox="-79.0029 -307 948 959"
    underline-thickness="33"
    underline-position="-90"
    unicode-range="U+0020-U+FB02"
  />
<missing-glyph horiz-adv-x="154" 
 />
    <glyph glyph-name=".notdef" horiz-adv-x="154" 
 />
    <glyph glyph-name="space" unicode=" " horiz-adv-x="154" 
 />
    <glyph glyph-name="exclam" unicode="!" horiz-adv-x="247" 
d="M64 123.5c16 16.333 34.667 24.502 56 24.502s37.5 -5.83301 48.5 -17.5s16.5 -28.834 16.5 -51.501s-7.66699 -42.5 -23 -59.5s-33.5 -25.5 -54.5 -25.5s-37.5 6.33301 -49.5 19s-18 30.167 -18 52.5s8 41.666 24 57.999zM227 700.002l-56 -443l-95 -14v432z" />
    <glyph glyph-name="quotedbl" unicode="&#x22;" horiz-adv-x="348" 
d="M57 624l109 9.99902c-14.667 -89.333 -35.667 -170.666 -63 -243.999l-57 3c7.33301 84 11 161 11 231zM212 623.999l109 9.99902c-14.667 -89.333 -35.667 -170.666 -63 -243.999l-57 3c7.33301 84 11 161 11 231z" />
    <glyph glyph-name="numbersign" unicode="#" horiz-adv-x="425" 
d="M28 301l6 67h83l17 104l75 7l-18 -111h77l17 104l74 7l-18 -111h84l-6 -67h-89l-11 -74h78l-6 -68h-83l-17 -109l-75 -7l18 116h-76l-17 -109l-75 -7l18 116h-84l6 68h89l12 74h-79zM180 301l-11 -74h76l12 74h-77z" />
    <glyph glyph-name="dollar" unicode="$" horiz-adv-x="372" 
d="M33 351c0 44.667 18.499 83.1699 55.499 115.503s80.833 48.5 131.5 48.5h11l28 115l47 -6l-27 -115c28.667 -6 52.667 -13.667 72 -23l-51 -108c-12.667 9.33301 -28 18 -46 26l-25 -107c36.667 -15.333 62.667 -29.666 78 -42.999c28.667 -24 43 -56.833 43 -98.5
s-18.5 -79.834 -55.5 -114.501s-80.167 -52 -129.5 -52h-9l-29 -122l-47 7l29 123c-19.333 5.33301 -37.5 13.666 -54.5 24.999s-29.167 21.333 -36.5 30l-11 12l57 80c18.667 -20.667 41.334 -37.334 68.001 -50.001l28 119c-63.333 26 -102 54.667 -116 86
c-7.33301 15.333 -11 32.666 -11 51.999zM137.499 409.003c-11 -8.66699 -16.501 -19.833 -16.501 -33.5s5.33301 -25 16 -34s26.334 -17.833 47.001 -26.5l25 104c-10 2 -21.667 3 -35 3s-25.5 -4.33301 -36.5 -13zM261.998 137.004c0 20.667 -19 40 -57 58l-27 -114h12
c22 0 39.5 5.16699 52.5 15.5s19.5 23.833 19.5 40.5z" />
    <glyph glyph-name="percent" unicode="%" horiz-adv-x="975" 
d="M231 695c48.667 0 88.167 -18.832 118.5 -56.499s45.5 -86.834 45.5 -147.501c0 -76.667 -18.167 -137.167 -54.5 -181.5s-86.166 -66.5 -149.499 -66.5c-48 0 -87.333 19 -118 57s-46 90 -46 156s19.167 122.333 57.5 169s87.166 70 146.499 70zM273 349.501
c10.667 20.333 16 58 16 113s-5.5 93 -16.5 114s-31 31.5 -60 31.5s-49.5 -9.66699 -61.5 -29s-18 -55 -18 -107s6.5 -90.5 19.5 -115.5s33.667 -37.5 62 -37.5s47.833 10.167 58.5 30.5zM784 449.001c48.667 0 88.167 -18.832 118.5 -56.499s45.5 -86.834 45.5 -147.501
c0 -76.667 -18.167 -137.167 -54.5 -181.5s-86.166 -66.5 -149.499 -66.5c-48 0 -87.333 19 -118 57s-46 90 -46 156s19.167 122.333 57.5 169s87.166 70 146.499 70zM826 103.502c10.667 20.333 16 58 16 113s-5.5 93 -16.5 114s-31 31.5 -60 31.5
s-49.5 -9.66699 -61.5 -29s-18 -55 -18 -107s6.5 -90.5 19.5 -115.5s33.667 -37.5 62 -37.5s47.833 10.167 58.5 30.5zM306 -118.998l-79 32l421 845l79 -32z" />
    <glyph glyph-name="ampersand" unicode="&#x26;" horiz-adv-x="636" 
d="M467 326c8.66699 -54 12.998 -90.5029 12.998 -109.503s-1 -33.5 -3 -43.5l113 -111l-82 -73l-80 85c-22 -26 -48.667 -46.667 -80 -62s-64 -23 -98 -23c-60.667 0 -111 16.5 -151 49.5s-60 74.5 -60 124.5c0 67.333 39.333 124 118 170
c-53.333 55.333 -80 105.5 -80 150.5s20 84 60 117s88.333 49.5 145 49.5c34.667 0 66.834 -3.66699 96.501 -11s50.834 -14.333 63.501 -21l18 -11l-62 -118c-17.333 14.667 -38.833 27.834 -64.5 39.501s-50 17.5 -73 17.5s-41 -5.33301 -54 -16
s-19.5 -24.334 -19.5 -41.001c0 -23.333 8 -44.666 24 -63.999s54.333 -55.666 115 -108.999l69 -64c-3.33301 34.667 -12 85.334 -26 152.001l13 13h210l-8 -91h-117zM201.998 288.997c-31.333 -30 -47 -60.332 -47 -90.999s10.833 -56.334 32.5 -77.001s52.5 -31 92.5 -31
s70.667 13.667 92 41c-43.333 44 -84 83 -122 117c-16 12 -32 25.667 -48 41z" />
    <glyph glyph-name="quotesingle" unicode="'" horiz-adv-x="193" 
d="M57 624l109 9.99902c-14.667 -89.333 -35.667 -170.666 -63 -243.999l-57 3c7.33301 84 11 161 11 231z" />
    <glyph glyph-name="parenleft" unicode="(" horiz-adv-x="278" 
d="M107 -7.5c-26.667 62.333 -40 161.331 -40 296.998s13.333 236.167 40 301.5s75.334 115.333 146.001 150l30 -48c-46.667 -30 -78.5 -72.333 -95.5 -127s-25.5 -143.167 -25.5 -265.5s8.33301 -211.666 25 -267.999s48.667 -99.166 96 -128.499l-30 -48
c-70.667 28.667 -119.334 74.167 -146.001 136.5z" />
    <glyph glyph-name="parenright" unicode=")" horiz-adv-x="278" 
d="M171 604.5c26.667 -62.333 40 -161.331 40 -296.998s-13.333 -236.167 -40 -301.5s-75.334 -115.333 -146.001 -150l-30 48c46.667 30 78.5 72.333 95.5 127s25.5 143.167 25.5 265.5s-8.33301 211.666 -25 267.999s-48.667 99.166 -96 128.499l30 48
c70.667 -28.667 119.334 -74.167 146.001 -136.5z" />
    <glyph glyph-name="asterisk" unicode="*" horiz-adv-x="302" 
d="M11 537l15 73l99 -57l5 96l73 8l-23 -113l92 26l30 -67l-113 -13l53 -79l-55 -50l-48 104l-59 -75l-63 36l84 78z" />
    <glyph glyph-name="plus" unicode="+" horiz-adv-x="425" 
d="M162 306v147l100 9v-156h146l-8 -91h-138v-146l-100 -9v155h-145l8 91h137z" />
    <glyph glyph-name="comma" unicode="," horiz-adv-x="205" 
d="M165 67c0 -56.667 -41.333 -116.667 -124 -180l-41 30c39.333 46 59 85.667 59 119c0 20.667 -8.66699 47 -26 79l98 39c22.667 -28.667 34 -57.667 34 -87z" />
    <glyph glyph-name="hyphen" unicode="-" horiz-adv-x="270" 
d="M21 194l-8 91l236 42l8 -91z" />
    <glyph glyph-name="period" unicode="." horiz-adv-x="205" 
d="M53.5 123.5c15.667 16.333 34.5 24.501 56.5 24.501c43.333 0 65 -22 65 -66c0 -25.333 -7.83301 -46.333 -23.5 -63s-34 -25 -55 -25s-37.333 6.83301 -49 20.5s-17.5 31.167 -17.5 52.5s7.83301 40.166 23.5 56.499z" />
    <glyph glyph-name="slash" unicode="/" horiz-adv-x="302" 
d="M99 -133l-90 16l217 875l90 -16z" />
    <glyph glyph-name="zero" unicode="0" horiz-adv-x="571" 
d="M313 649c68.667 0 123.832 -27.167 165.499 -81.5s62.5 -126.166 62.5 -215.499c0 -112.667 -25.167 -201.334 -75.5 -266.001s-119.5 -97 -207.5 -97c-67.333 0 -122.166 27.5 -164.499 82.5s-63.5 126.833 -63.5 215.5c0 106 26.5 192.833 79.5 260.5
s120.833 101.5 203.5 101.5zM379.498 136c17 32.667 25.499 90.667 25.499 174s-8.66699 141.833 -26 175.5s-47.666 50.5 -90.999 50.5s-74.5 -15.833 -93.5 -47.5s-28.5 -86.667 -28.5 -165s10 -137.333 30 -177s51.333 -59.5 94 -59.5s72.5 16.333 89.5 49z" />
    <glyph glyph-name="one" unicode="1" horiz-adv-x="389" 
d="M285 650l-15 -390l12 -260h-140l12 243l-8 249l-140 -1v65z" />
    <glyph glyph-name="two" unicode="2" horiz-adv-x="509" 
d="M311 467c0 37.333 -22.667 56.001 -68 56.001c-28 0 -58.833 -5.83301 -92.5 -17.5s-60.5 -23.5 -80.5 -35.5l-29 -17l27 143c26 14 57.333 26.5 94 37.5s69 16.5 97 16.5c56.667 0 102.167 -14.5 136.5 -43.5s51.5 -67.5 51.5 -115.5c0 -64.667 -34 -132 -102 -202
l-174 -180l312 18l-17 -133l-208 9l-236 -7l16 105l210 242c42 47.333 63 88.666 63 123.999z" />
    <glyph glyph-name="three" unicode="3" horiz-adv-x="488" 
d="M61 620c56 20 111.664 29.998 166.997 29.998s100.666 -14 135.999 -42s53 -63.333 53 -106c0 -33.333 -8.66699 -62.5 -26 -87.5s-42 -43.833 -74 -56.5c46.667 -17.333 80.334 -38.833 101.001 -64.5s31 -58.167 31 -97.5c0 -60 -23.167 -109.5 -69.5 -148.5
s-105.166 -58.5 -176.499 -58.5c-34 0 -67.167 4.5 -99.5 13.5s-56.166 18.167 -71.499 27.5l-23 14l42 121c6 -5.33301 14 -12 24 -20s29.167 -18.833 57.5 -32.5s56.833 -20.5 85.5 -20.5s53.667 7.83301 75 23.5s32 37.834 32 66.501s-12.5 52.334 -37.5 71.001
s-59.5 28 -103.5 28h-86l18 97h55c36.667 0 65.334 8.33301 86.001 25s31 38 31 64s-8.66699 46.167 -26 60.5s-38.166 21.5 -62.499 21.5s-49.333 -4.16699 -75 -12.5s-53.834 -20.833 -84.501 -37.5z" />
    <glyph glyph-name="four" unicode="4" horiz-adv-x="536" 
d="M10 248l238 375l165 20l-14 -387l96 4l-10 -101l-80 2l6 -161h-140l10 163l-279 -1zM278 514l-159 -257l164 1z" />
    <glyph glyph-name="five" unicode="5" horiz-adv-x="487" 
d="M457 214c0 -62 -24.833 -115 -74.5 -159s-110.167 -66 -181.5 -66c-33.333 0 -65.333 4.16699 -96 12.5s-53 16.5 -67 24.5l-21 13l42 117c20.667 -16 46.5 -30.667 77.5 -44s60 -20 87 -20s51.167 8.5 72.5 25.5s32 37.833 32 62.5c0 60.667 -40.667 97.667 -122 111
l-133 22v331l172 -12l203 11l-22 -138l-257 23v-117l109 -19c56 -10 99.833 -31 131.5 -63s47.5 -70.333 47.5 -115z" />
    <glyph glyph-name="six" unicode="6" horiz-adv-x="499" 
d="M176 357c41.333 32 86.001 48 134.001 48s88.167 -18 120.5 -54s48.5 -83.667 48.5 -143s-23 -110.666 -69 -153.999s-101.167 -65 -165.5 -65s-115.833 21.333 -154.5 64s-58 98.667 -58 168s19.833 137.666 59.5 204.999s102.167 142 187.5 224l139 -59
c-126.667 -82 -207.334 -160 -242.001 -234zM266.001 302c-42.667 0 -81 -11.666 -115 -34.999c-1.33301 -14.667 -2 -26 -2 -34c0 -42.667 10.333 -76.834 31 -102.501s46.5 -38.5 77.5 -38.5s55.5 9.33301 73.5 28s27 43.167 27 73.5s-8.66699 56 -26 77
s-39.333 31.5 -66 31.5z" />
    <glyph glyph-name="seven" unicode="7" horiz-adv-x="444" 
d="M55 34l251 494l-301 -23l22 138l211 -11l200 12l-15 -107l-162 -335l-64 -213z" />
    <glyph glyph-name="eight" unicode="8" horiz-adv-x="531" 
d="M40 155c0 35.333 12.332 65.835 36.999 91.502s52 46.167 82 61.5c-64 38 -96 85.833 -96 143.5s20.667 105.167 62 142.5s90.333 56 147 56s102.834 -13.667 138.501 -41s53.5 -61.333 53.5 -102c0 -52.667 -31.333 -104.334 -94 -155.001
c40 -18.667 71.5 -40.334 94.5 -65.001s34.5 -55.667 34.5 -93c0 -56 -23.833 -104.167 -71.5 -144.5s-103 -60.5 -166 -60.5s-115.667 16.333 -158 49s-63.5 71.667 -63.5 117zM272.999 256.502c-28 11 -47 18.833 -57 23.5c-43.333 -28.667 -65 -57.667 -65 -87
s11.667 -53 35 -71s52.5 -27 87.5 -27s63 6.5 84 19.5s31.5 30 31.5 51s-12.333 38.667 -37 53s-51 27 -79 38zM188.999 443.002c10.667 -9.33301 19 -16.168 25 -20.501s16 -9.83301 30 -16.5c24.667 -11.333 46.667 -20.666 66 -27.999c30.667 38.667 46 69.5 46 92.5
s-8.83301 41.333 -26.5 55s-40 20.5 -67 20.5s-48.667 -6 -65 -18s-24.5 -26.833 -24.5 -44.5s5.33301 -31.167 16 -40.5z" />
    <glyph glyph-name="nine" unicode="9" horiz-adv-x="499" 
d="M323 282c-40 -32 -84.333 -48 -133 -48s-89.167 18 -121.5 54s-48.5 83.667 -48.5 143s23 110.666 69 153.999s101.167 65 165.5 65s115.833 -21.333 154.5 -64s58 -98.667 58 -168s-19.833 -137.666 -59.5 -204.999s-102.167 -142 -187.5 -224l-139 59
c126 82 206.667 160 242 234zM233 337c43.333 0 81.667 11.666 115 34.999c1.33301 14.667 2 26 2 34c0 42.667 -10.333 76.834 -31 102.501s-46.5 38.5 -77.5 38.5s-55.5 -9.33301 -73.5 -28s-27 -43.167 -27 -73.5s8.66699 -56 26 -77s39.333 -31.5 66 -31.5z" />
    <glyph glyph-name="colon" unicode=":" horiz-adv-x="205" 
d="M53.5 123.5c15.667 16.333 34.5 24.501 56.5 24.501c43.333 0 65 -22 65 -66c0 -25.333 -7.83301 -46.333 -23.5 -63s-34 -25 -55 -25s-37.333 6.83301 -49 20.5s-17.5 31.167 -17.5 52.5s7.83301 40.166 23.5 56.499zM53.5 386.501
c15.667 16.333 34.5 24.501 56.5 24.501c43.333 0 65 -22 65 -66c0 -25.333 -7.83301 -46.333 -23.5 -63s-34 -25 -55 -25s-37.333 6.83301 -49 20.5s-17.5 31.167 -17.5 52.5s7.83301 40.166 23.5 56.499z" />
    <glyph glyph-name="semicolon" unicode=";" horiz-adv-x="205" 
d="M53.5 386.5c15.667 16.333 34.5 24.501 56.5 24.501c43.333 0 65 -22 65 -66c0 -25.333 -7.83301 -46.333 -23.5 -63s-34 -25 -55 -25s-37.333 6.83301 -49 20.5s-17.5 31.167 -17.5 52.5s7.83301 40.166 23.5 56.499zM165 67.001c0 -56.667 -41.333 -116.667 -124 -180
l-41 30c39.333 46 59 85.667 59 119c0 20.667 -8.66699 47 -26 79l98 39c22.667 -28.667 34 -57.667 34 -87z" />
    <glyph glyph-name="less" unicode="&#x3c;" horiz-adv-x="395" 
d="M21 252l247 223l59 -67l-164 -152l172 -149l-64 -71z" />
    <glyph glyph-name="equal" unicode="=" horiz-adv-x="425" 
d="M17 299l8 91h383l-8 -91h-383zM17 129l8 91h383l-8 -91h-383z" />
    <glyph glyph-name="greater" unicode="&#x3e;" horiz-adv-x="395" 
d="M374 259l-247 -223l-59 67l164 152l-172 149l64 71z" />
    <glyph glyph-name="question" unicode="?" horiz-adv-x="354" 
d="M102 123.5c16 16.333 34.667 24.502 56 24.502s37.5 -5.83301 48.5 -17.5s16.5 -28.834 16.5 -51.501s-7.66699 -42.5 -23 -59.5s-33.5 -25.5 -54.5 -25.5s-37.5 6.33301 -49.5 19s-18 30.167 -18 52.5s8 41.666 24 57.999zM220 478.002c0 70 -73.333 106.667 -220 110
l50 112c98.667 -8.66699 174 -29.667 226 -63s78 -77.666 78 -132.999c0 -76.667 -63 -162.334 -189 -257.001l-77 69c88 56.667 132 110.667 132 162z" />
    <glyph glyph-name="at" unicode="@" horiz-adv-x="713" 
d="M260.5 137.5c-25 25 -37.5 58.6709 -37.5 101.004s19.333 79 58 110s85.667 46.5 141 46.5h68v18c0 33.333 -8.83301 57.833 -26.5 73.5s-45.5 23.5 -83.5 23.5c-80 0 -143 -23.5 -189 -70.5s-69 -110 -69 -189s26.167 -145.167 78.5 -198.5s118.833 -80 199.5 -80
c43.333 0 88.166 6.66699 134.499 20s81.5 26.666 105.5 39.999l37 21l16 -102c-10 -6 -24.333 -13.5 -43 -22.5s-55.5 -21 -110.5 -36s-109.167 -22.5 -162.5 -22.5c-104 0 -187.833 33.667 -251.5 101s-95.5 156.166 -95.5 266.499s36.333 201.666 109 273.999
s165.334 108.5 278.001 108.5c59.333 0 105.333 -15.333 138 -46s49 -73.667 49 -129v-178c0 -46.667 11.667 -88.334 35 -125.001l-106 -45c-16.667 32 -29 60.667 -37 86c-36.667 -55.333 -83 -83 -139 -83c-39.333 0 -71.5 12.5 -96.5 37.5zM399 202.004
c26.667 0 57 13.667 91 41v67c-35.333 8 -64 12 -86 12c-42 0 -63 -18.667 -63 -56c0 -19.333 5.33301 -34.833 16 -46.5s24.667 -17.5 42 -17.5z" />
    <glyph glyph-name="A" unicode="A" horiz-adv-x="643" 
d="M484 -5l-49 195h-239l-53 -190l-128 10l88 243l134 430l179 13l129 -428l83 -251zM326 566h-13l-86 -270h178z" />
    <glyph glyph-name="B" unicode="B" horiz-adv-x="580" 
d="M297 690c64 0 114.667 -14.5 152 -43.5s56 -67.833 56 -116.5c0 -78 -32 -132.333 -96 -163c86.667 -30 130 -85.333 130 -166c0 -60.667 -26 -111.167 -78 -151.5s-117.333 -60.5 -196 -60.5c-41.333 0 -103 3.66699 -185 11l12 243l-12 447h217zM284 297h-81.001
l-1 -37l7 -163c38.667 -3.33301 68.334 -5 89.001 -5c35.333 0 62.833 8.83301 82.5 26.5s29.5 43.5 29.5 77.5s-10 59.333 -30 76s-52 25 -96 25zM260.999 589h-49l-6 -195h65c34 0 60 9.16699 78 27.5s27 44.5 27 78.5c0 59.333 -38.333 89 -115 89z" />
    <glyph glyph-name="C" unicode="C" horiz-adv-x="551" 
d="M293 -11c-74 0 -136.336 31 -187.003 93s-76 138 -76 228c0 110 30.5 202.667 91.5 278s135.833 113 224.5 113c34.667 0 66.834 -3.5 96.501 -10.5s50.834 -14.167 63.501 -21.5l18 -11l-68 -139c-15.333 13.333 -37 25.833 -65 37.5s-53.333 17.5 -76 17.5
c-46 0 -82.833 -19 -110.5 -57s-41.5 -92.167 -41.5 -162.5s14.333 -128 43 -173s67.667 -67.5 117 -67.5c32 0 61 10 87 30s44.333 46.667 55 80l83 -48c-22 -58.667 -55.667 -104.5 -101 -137.5s-96.666 -49.5 -153.999 -49.5z" />
    <glyph glyph-name="D" unicode="D" horiz-adv-x="664" 
d="M285 -11c-47.333 0 -115.667 3.66699 -205 11l12 243l-12 447h267c90 0 160.333 -27 211 -81s76 -129 76 -225c0 -121.333 -31.333 -217.5 -94 -288.5s-147.667 -106.5 -255 -106.5zM310.999 582c-44 0 -75 -0.332031 -93 -0.999023l-10 -321l7 -162
c56 -4 93.667 -6 113 -6c52.667 0 94.167 21.333 124.5 64s45.5 104.667 45.5 186s-14.833 141.666 -44.5 180.999s-77.167 59 -142.5 59z" />
    <glyph glyph-name="E" unicode="E" horiz-adv-x="492" 
d="M80 0l12 243l-12 447h375l-11 -107h-225l-6 -177h200l-11 -106h-193l-1 -40l7 -154h242l-11 -106h-366z" />
    <glyph glyph-name="F" unicode="F" horiz-adv-x="442" 
d="M431 583h-213l-6 -184h191l-11 -106h-183l-1 -33l12 -260h-140l12 243l-12 447h362z" />
    <glyph glyph-name="G" unicode="G" horiz-adv-x="636" 
d="M321 -11c-87.333 0 -157.667 29.332 -211 87.999s-80 136.334 -80 233.001c0 110 33.333 202.667 100 278s148.667 113 246 113c38.667 0 74.5 -3.5 107.5 -10.5s56.5 -14.167 70.5 -21.5l20 -11l-58 -139c-20 13.333 -47 25.833 -81 37.5s-64 17.5 -90 17.5
c-54 0 -97.333 -19 -130 -57s-49 -88.333 -49 -151c0 -84.667 15.5 -150.667 46.5 -198s74.167 -71 129.5 -71c36 0 70 5 102 15v155h-129l10 101h240l-9 -163l7 -173c-98 -28.667 -178.667 -43 -242 -43z" />
    <glyph glyph-name="H" unicode="H" horiz-adv-x="690" 
d="M610 695l-14 -435l12 -260h-140l12 243l-2 53h-269l-1 -36l12 -260h-140l12 243l-12 427l142 25l-10 -293h263l-7 268z" />
    <glyph glyph-name="I" unicode="I" horiz-adv-x="302" 
d="M222 695l-14 -435l12 -260h-140l12 243l-12 427z" />
    <glyph glyph-name="J" unicode="J" horiz-adv-x="353" 
d="M82 -10c-27.333 0 -54.668 3 -82.001 9l32 120c22 -7.33301 43.333 -11 64 -11c40.667 0 61 33.667 61 101l-14 461l142 25l-14 -451c0 -72.667 -17.667 -133.167 -53 -181.5s-80.666 -72.5 -135.999 -72.5z" />
    <glyph glyph-name="K" unicode="K" horiz-adv-x="578" 
d="M222 695l-11 -326l255 324l102 -68l-230 -267l244 -289l-128 -80l-244 345l-2 -74l12 -260h-140l12 243l-12 427z" />
    <glyph glyph-name="L" unicode="L" horiz-adv-x="426" 
d="M80 0l12 243l-12 427l142 25l-14 -435l7 -162l205 16l-11 -114h-329z" />
    <glyph glyph-name="M" unicode="M" horiz-adv-x="747" 
d="M370 312h10l146 380l138 -4l4 -430l19 -258h-135l5 260l-11 263l-120 -331l-123 -6l-112 337l-9 -263l7 -260h-124l14 243l6 429l159 25z" />
    <glyph glyph-name="N" unicode="N" horiz-adv-x="689" 
d="M609 692l-13 -432l11 -238l-118 -25l-298 482v-219l14 -260h-125l12 243l-12 444l120 6l297 -489l-10 473z" />
    <glyph glyph-name="O" unicode="O" horiz-adv-x="661" 
d="M360 700c78.667 0 143.501 -30 194.501 -90s76.5 -136.333 76.5 -229c0 -117.333 -30.333 -212 -91 -284s-140.334 -108 -239.001 -108c-76.667 0 -141 30.833 -193 92.5s-78 137.834 -78 228.501c0 113.333 31 206.666 93 279.999s141 110 237 110zM495.001 325
c0 168.667 -55.333 253 -166 253c-50.667 0 -90.5 -18.833 -119.5 -56.5s-43.5 -94 -43.5 -169s15.5 -136.667 46.5 -185s72 -72.5 123 -72.5s90.333 20.5 118 61.5s41.5 97.167 41.5 168.5z" />
    <glyph glyph-name="P" unicode="P" horiz-adv-x="509" 
d="M297 690c64 0 115 -18.168 153 -54.501s57 -86.166 57 -149.499s-24 -117.5 -72 -162.5s-106.667 -67.5 -176 -67.5h-57l12 -256h-134l12 243l-12 447h217zM261 588.999h-48.999l-7 -236h68c33.333 0 59.166 11 77.499 33s27.5 53.333 27.5 94c0 72.667 -39 109 -117 109
z" />
    <glyph glyph-name="Q" unicode="Q" horiz-adv-x="680" 
d="M360 700c78.667 0 143.5 -30 194.5 -90s76.5 -136.333 76.5 -229c0 -108 -33.333 -201.333 -100 -280l132 -157l-99 -73l-115 160c-46.667 -28 -96 -42 -148 -42c-76.667 0 -141 30.833 -193 92.5s-78 137.834 -78 228.501c0 113.333 31 206.666 93 279.999
s141 110 237 110zM495 325c0 168.667 -55.333 252.999 -166 252.999c-50.667 0 -90.5 -18.833 -119.5 -56.5s-43.5 -94 -43.5 -169s15.5 -136.667 46.5 -185s73.5 -72.5 127.5 -72.5c20 0 38.667 4 56 12l-119 167l69 48l120 -143c19.333 40.667 29 89.334 29 146.001z" />
    <glyph glyph-name="R" unicode="R" horiz-adv-x="579" 
d="M259 266l-57 0.000976562v-6l12 -260h-134l12 243l-12 447h217c64 0 115 -17.333 153 -52s57 -80.667 57 -138c0 -43.333 -11.167 -82.833 -33.5 -118.5s-52.5 -63.834 -90.5 -84.501l174 -246l-121 -62l-156 278c-4.66699 -0.666992 -11.667 -1 -21 -1zM261 589.001
h-48.999l-7 -226h68c33.333 0 59.166 11 77.499 33s27.5 53.333 27.5 94c0 66 -39 99 -117 99z" />
    <glyph glyph-name="S" unicode="S" horiz-adv-x="503" 
d="M91 199c56.667 -56.667 113.336 -84.998 170.003 -84.998c29.333 0 52.833 6.83301 70.5 20.5s26.5 31.334 26.5 53.001s-10.667 40 -32 55s-47.166 28.167 -77.499 39.5s-60.5 24.166 -90.5 38.499s-55.667 34.833 -77 61.5s-32 59 -32 97c0 60 25 111.833 75 155.5
s109.333 65.5 178 65.5c31.333 0 61.666 -3.33301 90.999 -10s57.666 -16.334 84.999 -29.001l-68 -146c-18.667 14.667 -44.167 28.167 -76.5 40.5s-60.666 18.5 -84.999 18.5s-44 -5.83301 -59 -17.5s-22.5 -27.167 -22.5 -46.5s10.667 -36.5 32 -51.5
s47.166 -28.167 77.499 -39.5s60.666 -23.833 90.999 -37.5s56.166 -33.834 77.499 -60.501s32 -59 32 -97c0 -62.667 -25 -117.5 -75 -164.5s-108.333 -70.5 -175 -70.5c-50 0 -94.333 12 -133 36c-34 20.667 -58 39 -72 55l-9 11z" />
    <glyph glyph-name="T" unicode="T" horiz-adv-x="486" 
d="M0 575l11 115h475l-11 -115l-174 15l-4 -330l12 -260h-140l12 243l-4 346z" />
    <glyph glyph-name="U" unicode="U" horiz-adv-x="651" 
d="M291 -11c-60 0 -110.5 18.333 -151.5 55s-61.5 82 -61.5 136l-10 490l144 25l-16 -438c0 -46.667 10.833 -83 32.5 -109s55.167 -39 100.5 -39s78 12.667 98 38s30 69 30 131l-12 392l140 25l-11 -440c0 -78.667 -26.333 -142.667 -79 -192s-120.667 -74 -204 -74z" />
    <glyph glyph-name="V" unicode="V" horiz-adv-x="599" 
d="M296 125h12l50 172l105 399l121 -18l-119 -397l-78 -273l-185 -13l-71 267l-116 409l142 25l91 -386z" />
    <glyph glyph-name="W" unicode="W" horiz-adv-x="925" 
d="M641 125h11l47 172l96 399l113 -18l-109 -397l-67 -273l-183 -13l-57 267l-34 132l-30 -113l-67 -273l-180 -13l-60 267l-104 409l130 25l81 -386l45 -185h11l53 185l73 270l-23 91l132 25l79 -386z" />
    <glyph glyph-name="X" unicode="X" horiz-adv-x="598" 
d="M463 -9l-167 259l-161 -260l-108 53l197 300l-212 272l124 81l161 -250l155 254l105 -62l-183 -285l212 -284z" />
    <glyph glyph-name="Y" unicode="Y" horiz-adv-x="569" 
d="M283 395h12l74 136l75 165l122 -18l-92 -167l-130 -254l11 -257h-140l10 240l-126 256l-96 175l141 25l65 -152z" />
    <glyph glyph-name="Z" unicode="Z" horiz-adv-x="542" 
d="M39 102l322 476l-326 -22l24 138l228 -11l229 12l-15 -107l-323 -478l351 22l-20 -138l-241 11l-246 -11z" />
    <glyph glyph-name="bracketleft" unicode="[" horiz-adv-x="278" 
d="M278 -132l-209 -12l9 368l-9 517l208 -12v-57l-112 -14v-719l113 -14v-57z" />
    <glyph glyph-name="backslash" unicode="\" horiz-adv-x="302" 
d="M293 -117l-90 -16l-217 875l90 16z" />
    <glyph glyph-name="bracketright" unicode="]" horiz-adv-x="278" 
d="M209 -144l-209 12v57l113 14v719l-112 14v57l208 12l-9 -517z" />
    <glyph glyph-name="asciicircum" unicode="^" horiz-adv-x="425" 
d="M17 299l8 91h383l-8 -91h-383zM17 129l8 91h383l-8 -91h-383z" />
    <glyph glyph-name="underscore" unicode="_" horiz-adv-x="425" 
d="M-8 -220l8 89h433l-8 -89h-433z" />
    <glyph glyph-name="grave" unicode="`" 
d="M39 623l11.001 102c85.333 -32 161.666 -58 228.999 -78l-5 -72z" />
    <glyph glyph-name="a" unicode="a" horiz-adv-x="469" 
d="M61.5 37.5c-25 25 -37.5 58.666 -37.5 100.999s19.333 79 58 110s85.667 46.5 141 46.5h68v17c0 32.667 -6.66699 55 -20 67s-38.333 18 -75 18c-15.333 0 -33.5 -3.16699 -54.5 -9.5s-44.5 -16.166 -70.5 -29.499l-29 79c28.667 20 63.5 38 104.5 54s74.833 24 101.5 24
c104.667 0 157 -50.667 157 -152v-196c0 -37.333 11.667 -79 35 -125l-106 -45c-16.667 32 -29 60.667 -37 86c-36.667 -55.333 -83 -83 -139 -83c-39.333 0 -71.5 12.5 -96.5 37.5zM200 101.999c26.667 0 57 13.667 91 41v67c-35.333 8 -64 12 -86 12
c-42 0 -63 -18.667 -63 -56c0 -19.333 5.33301 -34.833 16 -46.5s24.667 -17.5 42 -17.5z" />
    <glyph glyph-name="b" unicode="b" horiz-adv-x="499" 
d="M323 505c44.667 0 81 -19.332 109 -57.999s42 -88.334 42 -149.001c0 -87.333 -22.833 -158.833 -68.5 -214.5s-104.834 -83.5 -177.501 -83.5c-33.333 -0 -89.333 5.33301 -168 16l10 227l-12 506l137 25l-13 -258v-108c7.33301 10.667 16.333 22 27 34
s27.334 25.5 50.001 40.5s44 22.5 64 22.5zM284 375.001c-30.667 0 -64.667 -9.33301 -102 -28v-87l6 -147c28 -3.33301 54.333 -5 79 -5c64 0 96 44.5 96 133.5s-26.333 133.5 -79 133.5z" />
    <glyph glyph-name="c" unicode="c" horiz-adv-x="385" 
d="M162 353.5c-16 -21 -23.9961 -53.166 -23.9961 -96.499s8.16699 -78.166 24.5 -104.499s40.166 -39.5 71.499 -39.5c16 0 31.667 5 47 15s27 20 35 30l11 16l50 -52c-2 -3.33301 -4.5 -8 -7.5 -14s-10.333 -16.667 -22 -32s-24 -28.833 -37 -40.5
s-29.833 -22.334 -50.5 -32.001s-42.334 -14.5 -65.001 -14.5c-50 0 -90.667 20.333 -122 61s-47 93.667 -47 159c0 81.333 23.667 152.666 71 213.999s102.666 92 165.999 92c19.333 0 38.666 -2.83301 57.999 -8.5s39 -14.5 59 -26.5l-70 -123
c-24 18.667 -50.667 28 -80 28s-52 -10.5 -68 -31.5z" />
    <glyph glyph-name="d" unicode="d" horiz-adv-x="502" 
d="M322 98c-52 -65.333 -97 -98 -135 -98c-47.333 -0 -86.166 19.333 -116.499 58s-45.5 88.334 -45.5 149.001c0 83.333 23.167 153.666 69.5 210.999s103.166 86 170.499 86l56 -8v19l-12 234l137 25l-13 -514v-88c0 -40 10 -86 30 -138l-108 -45
c-19.333 40 -30.333 76.333 -33 109zM160.5 159c15.667 -24 38.333 -36 68 -36s60.5 12 92.5 36v216c-40 8 -69.667 12 -89 12c-30 0 -53.333 -10.667 -70 -32s-25 -53.333 -25 -96s7.83301 -76 23.5 -100z" />
    <glyph glyph-name="e" unicode="e" horiz-adv-x="446" 
d="M238 102c19.333 0 39.6689 4.99805 61.002 14.998s38 20 50 30l18 15l46 -56c-6.66699 -11.333 -17 -24.333 -31 -39s-28.167 -27.167 -42.5 -37.5s-33.333 -19.666 -57 -27.999s-48.167 -12.5 -73.5 -12.5c-54 0 -98 20.5 -132 61.5s-51 93.833 -51 158.5
c0 81.333 23.667 152.666 71 213.999s102.666 92 165.999 92c48.667 0 86.5 -13.667 113.5 -41s40.5 -65.666 40.5 -114.999c0 -29.333 -5 -62.666 -15 -99.999l-20 -21l-250 -23c11.333 -75.333 46.666 -113 105.999 -113zM238.003 411.998
c-29.333 0 -54 -11.832 -74 -35.499s-31.667 -53.834 -35 -90.501l170 21c2 15.333 3 28 3 38c0 44.667 -21.333 67 -64 67z" />
    <glyph glyph-name="f" unicode="f" horiz-adv-x="303" 
d="M325 651c-24.667 6 -47.001 9 -67.001 9s-34.5 -6 -43.5 -18s-13.5 -33 -13.5 -63l-1 -95h108l-11 -82h-97l-1 -142l11 -235l-135 -25l12 243l-4 159h-66l11 82h53l-1 76c0 59.333 18.333 109.833 55 151.5s81.334 62.5 134.001 62.5c28 0 57 -3 87 -9z" />
    <glyph glyph-name="g" unicode="g" horiz-adv-x="508" 
d="M23 -99c0 58.667 54.667 104.666 164 137.999c-26 13.333 -39 30.666 -39 51.999c0 8.66699 3.33301 17.334 10 26.001s16.334 17.667 29.001 27v8c-48 0 -86.167 13.333 -114.5 40s-42.5 62.334 -42.5 107.001c0 58 23.667 108.5 71 151.5s103.333 64.5 168 64.5
c16.667 0 41 -3.33301 73 -10s63.333 -10 94 -10h77l-10 -87l-75 9c6.66699 -19.333 10 -41.333 10 -66s-5.83301 -49.167 -17.5 -73.5s-25.667 -43.833 -42 -58.5s-32.666 -27.5 -48.999 -38.5l-42 -29c-11.667 -8.33301 -17.5 -15.833 -17.5 -22.5
c0 -12.667 13.333 -23.667 40 -33c70.667 -28.667 118.5 -53 143.5 -73s37.5 -44.667 37.5 -74c0 -49.333 -24.833 -89.833 -74.5 -121.5s-108.834 -47.5 -177.501 -47.5s-121.834 11 -159.501 33s-56.5 51.333 -56.5 88zM325 320.999c0 32.667 -7.33301 56.667 -22 72
s-37.667 23 -69 23c-60.667 0 -91 -29.833 -91 -89.5s32.333 -89.5 97 -89.5c56.667 0 85 28 85 84zM361 -66.001c0 12 -6.33301 23.166 -19 33.499s-35.334 22.5 -68.001 36.5c-48.667 -13.333 -82.167 -25.666 -100.5 -36.999s-27.5 -25.333 -27.5 -42
s9.16699 -30.167 27.5 -40.5s43.833 -15.5 76.5 -15.5s59.334 6 80.001 18s31 27.667 31 47z" />
    <glyph glyph-name="h" unicode="h" horiz-adv-x="525" 
d="M338 345c-8 15.333 -26.6689 23.001 -56.002 23.001s-62.666 -11.667 -99.999 -35v-73l11 -235l-135 -25l12 243l-12 506l137 25l-13 -259v-117c10 13.333 21.333 26.333 34 39s32.334 27 59.001 43s55.167 24 85.5 24s55.833 -11.833 76.5 -35.5s31 -55.834 31 -96.501
l-6 -112l11 -240l-135 -25l12 258c0 46 -4 76.667 -12 92z" />
    <glyph glyph-name="i" unicode="i" 
d="M192 509l-12 -249l11 -235l-134 -25l12 243l-11 241zM77 715.5c17.333 17.667 37.333 26.501 60 26.501s40 -6.16699 52 -18.5s18 -30.833 18 -55.5s-8.5 -45.834 -25.5 -63.501s-36.667 -26.5 -59 -26.5s-39.833 7.33301 -52.5 22s-19 33.167 -19 55.5
s8.66699 42.333 26 60z" />
    <glyph glyph-name="j" unicode="j" horiz-adv-x="247" 
d="M3 -220c-27.333 0 -54.6699 3 -82.0029 9l31 114c22.667 -6 43.834 -9 63.501 -9s33.834 7.33301 42.501 22s13 41 13 79l-1 248l-11 241l134 25l-12 -249l11 -226c0 -69.333 -18.667 -129 -56 -179s-81.666 -75 -132.999 -75zM77.9961 715.5
c17.333 17.667 37.5 26.499 60.5 26.499s40.333 -6.16699 52 -18.5s17.5 -30.666 17.5 -54.999s-8.33301 -45.5 -25 -63.5s-36.167 -27 -58.5 -27s-40 7 -53 21s-19.5 32.5 -19.5 55.5s8.66699 43.333 26 61z" />
    <glyph glyph-name="k" unicode="k" horiz-adv-x="482" 
d="M370 -10l-188 277v-7l11 -235l-135 -25l12 243l-12 506l137 25l-13 -483l200 219l94 -64l-175 -164l183 -216z" />
    <glyph glyph-name="l" unicode="l" horiz-adv-x="253" 
d="M195 774l-13 -514l11 -235l-135 -25l12 243l-12 506z" />
    <glyph glyph-name="m" unicode="m" horiz-adv-x="803" 
d="M336 345c-8 15.333 -26.667 23.002 -56 23.002s-62.666 -11.667 -99.999 -35v-73l11 -235l-134 -25l12 243c-2.66699 89.333 -10 169.333 -22 240l121 26c4.66699 -38.667 8 -76.334 10 -113.001c10 13.333 21.333 26.5 34 39.5s32.667 27.667 60 44s55 24.5 83 24.5
s51.667 -9 71 -27s31.666 -42.667 36.999 -74c55.333 67.333 111.333 101 168 101c35.333 0 63.333 -11.833 84 -35.5s31 -55.834 31 -96.501l-6 -112l11 -240l-135 -25l12 258c0 46 -4 76.667 -12 92s-26.333 23 -55 23s-61 -11 -97 -33l-4 -75l11 -240l-135 -25l12 258
c0 46 -4 76.667 -12 92z" />
    <glyph glyph-name="n" unicode="n" horiz-adv-x="523" 
d="M336 345c-8 15.333 -26.667 23.002 -56 23.002s-62.666 -11.667 -99.999 -35v-73l11 -235l-134 -25l12 243c-2.66699 89.333 -10 169.333 -22 240l121 26c4.66699 -38.667 8 -76.334 10 -113.001c10 13.333 21.333 26.5 34 39.5s32.667 27.667 60 44
s56.166 24.5 86.499 24.5s55.833 -11.833 76.5 -35.5s31 -55.834 31 -96.501l-6 -112l11 -240l-135 -25l12 258c0 46 -4 76.667 -12 92z" />
    <glyph glyph-name="o" unicode="o" horiz-adv-x="482" 
d="M97 426c46 59.333 99.8311 89.001 161.498 89.001s109.667 -20 144 -60s51.5 -93 51.5 -159c0 -88 -22.167 -161.167 -66.5 -219.5s-100.166 -87.5 -167.499 -87.5c-55.333 0 -101.166 20.833 -137.499 62.5s-54.5 94.167 -54.5 157.5c0 85.333 23 157.666 69 216.999z
M341.998 244.001c0 96.667 -33 145 -99 145c-68.667 0 -103 -45.333 -103 -136c0 -47.333 9.66699 -84.333 29 -111s44.833 -40 76.5 -40s55.667 12.167 72 36.5s24.5 59.5 24.5 105.5z" />
    <glyph glyph-name="p" unicode="p" horiz-adv-x="501" 
d="M325 505c42.667 0 78.501 -18.668 107.501 -56.001s43.5 -87.666 43.5 -150.999c0 -88.667 -22.833 -160.5 -68.5 -215.5s-102.5 -82.5 -170.5 -82.5c-14 0 -29.667 1 -47 3l5 -191l-137 -25l13 456h1c-2.66699 89.333 -10 169.333 -22 240l121 26
c4 -35.333 7.33301 -70.333 10 -105c1.33301 3.33301 8.16602 12.5 20.499 27.5s30.5 31 54.5 48s47 25.5 69 25.5zM286.001 374.999c-35.333 0 -69.667 -9.66699 -103 -29v-86l4 -143c36 -6 63.333 -9 82 -9c64 0 96 44.5 96 133.5s-26.333 133.5 -79 133.5z" />
    <glyph glyph-name="q" unicode="q" horiz-adv-x="503" 
d="M321 96c-49.333 -64 -95.332 -95.998 -137.999 -95.998s-79.667 18.667 -111 56s-47 87.666 -47 150.999c0 83.333 23.167 153.666 69.5 210.999s103.166 86 170.499 86l95 -13l85 24l-12 -255l12 -448l-137 -25l13 202v107zM137.001 263.002
c0 -93.333 30.332 -140 90.999 -140c30 0 61 12 93 36v84l-7 134c-41.333 6.66699 -68.666 10 -81.999 10c-29.333 0 -52.5 -10.167 -69.5 -30.5s-25.5 -51.5 -25.5 -93.5z" />
    <glyph glyph-name="r" unicode="r" horiz-adv-x="356" 
d="M47 483l120.999 26c6 -51.333 10 -100 12 -146c60.667 94 117.667 141 171 141l-11 -156c-38.667 0 -69.167 -3.5 -91.5 -10.5s-45.166 -20.833 -68.499 -41.5v-36l11 -235l-134 -25l12 243c-2.66699 89.333 -10 169.333 -22 240z" />
    <glyph glyph-name="s" unicode="s" horiz-adv-x="394" 
d="M209 93c34.667 0 52.001 15.3311 52.001 45.998c0 10.667 -7.5 20.667 -22.5 30s-33.333 18.666 -55 27.999s-43.334 19.833 -65.001 31.5s-40 27.834 -55 48.501s-22.5 44.334 -22.5 71.001c0 44.667 19.667 83.667 59 117s84.666 50 135.999 50
c24 0 47.5 -2.83301 70.5 -8.5s45.167 -14.5 66.5 -26.5l-67 -122l-18 15c-7.33301 6 -21.166 13.833 -41.499 23.5s-38.333 14.5 -54 14.5s-27.667 -3.5 -36 -10.5s-12.5 -16.667 -12.5 -29s11.5 -24.666 34.5 -36.999s48.167 -23.666 75.5 -33.999s52.5 -27.333 75.5 -51
s34.5 -51.834 34.5 -84.501c0 -46.667 -19.167 -87.667 -57.5 -123s-82.5 -53 -132.5 -53c-32 0 -61.833 7 -89.5 21s-47.5 28 -59.5 42l-18 21l79 92c4 -5.33301 9.66699 -12 17 -20s21.833 -18.667 43.5 -32s42.5 -20 62.5 -20z" />
    <glyph glyph-name="t" unicode="t" horiz-adv-x="355" 
d="M97 484l-0.000976562 109l135 26l-13 -135h121l-11 -82h-114l-5 -209c0 -31.333 3 -52.166 9 -62.499s17 -15.5 33 -15.5s37.333 3.66699 64 11l6 -71c-44 -36.667 -82.667 -55 -116 -55s-60.666 12.167 -81.999 36.5s-32 56.166 -32 95.499l6 112l-1 158h-69l11 82h58z
" />
    <glyph glyph-name="u" unicode="u" horiz-adv-x="510" 
d="M178 0c-36 0 -65.167 11.832 -87.5 35.499s-33.5 54.834 -33.5 93.501l6 115l-11 240l134 25l-13 -304c0 -28.667 5.16699 -49.667 15.5 -63s26.833 -20 49.5 -20s54 11.333 94 34v60l-11 263l135 25l-12 -250l1 -82c0 -42.667 11 -85.667 33 -129l-104 -46
c-22 43.333 -35.333 78 -40 104c-60 -67.333 -112 -101 -156 -101z" />
    <glyph glyph-name="v" unicode="v" horiz-adv-x="460" 
d="M228 125h13l33 137l54 247l124 -15l-75 -248l-63 -234l-171 -15l-59 243l-72 243l136 25l43 -220z" />
    <glyph glyph-name="w" unicode="w" horiz-adv-x="731" 
d="M504 125h13l32 137l52 247l122 -15l-73 -248l-61 -234l-164 -15l-55 243l-5 16l-67 -244l-159 -15l-58 243l-69 243l131 25l41 -220l36 -163h13l86 285l-21 73l129 25l42 -220z" />
    <glyph glyph-name="x" unicode="x" horiz-adv-x="473" 
d="M353 -10l-119 177l-123 -177l-99 55l157 203l-149 184l111 76l109 -169l118 171l97 -60l-149 -194l158 -190z" />
    <glyph glyph-name="y" unicode="y" horiz-adv-x="465" 
d="M72 -193l103 231l-74 202l-101 243l133 25l64 -213l33 -101h13l24 73l72 242l123 -15l-177 -465l-84 -249z" />
    <glyph glyph-name="z" unicode="z" horiz-adv-x="417" 
d="M41 99l211 301l-221 -15l23 126l171 -11l167 12l-17 -104l-212 -302l243 14l-22 -126l-170 11l-190 -11z" />
    <glyph glyph-name="braceleft" unicode="{" horiz-adv-x="278" 
d="M83 350c9.33301 9.33301 13.999 22.502 13.999 39.502s-7.16699 49.5 -21.5 97.5s-21.5 80 -21.5 96c0 52.667 17.167 91.667 51.5 117s86.833 38 157.5 38l-10 -74c-38.667 0 -64.667 -4.83301 -78 -14.5s-20 -27.5 -20 -53.5s5.83301 -56.833 17.5 -92.5
s17.5 -65.334 17.5 -89.001s-5.5 -46.5 -16.5 -68.5s-25.167 -38.333 -42.5 -49c17.333 -10.667 31.5 -27 42.5 -49s16.5 -44.833 16.5 -68.5s-5.83301 -53.334 -17.5 -89.001s-17.5 -66.5 -17.5 -92.5s7.33301 -43.833 22 -53.5s43.334 -14.5 86.001 -14.5l-10 -74
c-67.333 0 -117.333 12.667 -150 38s-49 64.333 -49 117c0 16 7.16699 48 21.5 96s21.5 80.333 21.5 97c0 36.667 -24 57.334 -72 62.001l10 62c22.667 5.33301 38.667 12.666 48 21.999z" />
    <glyph glyph-name="bar" unicode="|" horiz-adv-x="251" 
d="M80 753l91 8v-897l-91 -8v897z" />
    <glyph glyph-name="braceright" unicode="}" horiz-adv-x="278" 
d="M181 204c0 -16.667 7.16797 -49 21.501 -97s21.5 -80 21.5 -96c0 -52.667 -17.167 -91.667 -51.5 -117s-86.833 -38 -157.5 -38l10 74c38.667 0 64.667 4.83301 78 14.5s20 27.5 20 53.5s-5.83301 56.833 -17.5 92.5s-17.5 65.167 -17.5 88.5s5.5 46 16.5 68
s25.167 38.667 42.5 50c-17.333 10.667 -31.5 26.834 -42.5 48.501s-16.5 44.5 -16.5 68.5s5.83301 53.833 17.5 89.5s17.5 66.5 17.5 92.5s-7.33301 43.833 -22 53.5s-43.334 14.5 -86.001 14.5l10 74c67.333 0 117.333 -12.667 150 -38s49 -64.333 49 -117
c0 -16 -7.16699 -48 -21.5 -96s-21.5 -80.333 -21.5 -97c0 -36.667 24 -57.334 72 -62.001l-10 -62c-22.667 -6 -38.667 -13.667 -48 -23s-14 -22.333 -14 -39z" />
    <glyph glyph-name="asciitilde" unicode="~" horiz-adv-x="425" 
d="M131 324l173 -42l76 44l28 -45c-20.667 -22 -42 -41.833 -64 -59.5s-39 -26.5 -51 -26.5l-173 42l-76 -44l-28 45c20.667 22 42 41.833 64 59.5s39 26.5 51 26.5z" />
    <glyph glyph-name="nbspace" unicode="&#xa0;" horiz-adv-x="154" 
 />
    <glyph glyph-name="exclamdown" unicode="&#xa1;" horiz-adv-x="247" 
d="M183 385.5c-16 -16.333 -34.667 -24.502 -56 -24.502s-37.5 5.83301 -48.5 17.5s-16.5 28.834 -16.5 51.501s7.66699 42.5 23 59.5s33.5 25.5 54.5 25.5s37.5 -6.33301 49.5 -19s18 -30.167 18 -52.5s-8 -41.666 -24 -57.999zM20 -191.002l56 443l95 14v-432z" />
    <glyph glyph-name="cent" unicode="&#xa2;" horiz-adv-x="369" 
d="M28 225c0 71.333 19.833 135.165 59.5 191.498s87.167 88.5 142.5 96.5l19 131l47 -2l-19 -129c31.333 -4 60.333 -14.333 87 -31l-67 -117c-10.667 8 -23.667 14.667 -39 20l-36 -252h3c15.333 0 30.5 4.83301 45.5 14.5s26.167 19.167 33.5 28.5l10 15l47 -49
c-2.66699 -7.33301 -10 -19.166 -22 -35.499s-23.667 -29.833 -35 -40.5c-30.667 -29.333 -63.667 -45.666 -99 -48.999l-21 -143l-47 3l21 142c-39.333 8 -70.833 30.5 -94.5 67.5s-35.5 83.167 -35.5 138.5zM134 279.999c0 -65.333 14.334 -109.332 43.001 -131.999
l35 243c-24.667 -2 -43.834 -12.833 -57.501 -32.5s-20.5 -45.834 -20.5 -78.501z" />
    <glyph glyph-name="sterling" unicode="&#xa3;" horiz-adv-x="469" 
d="M157 109l23.0039 1c24.667 0 52.667 -4 84 -12s53.5 -12 66.5 -12s28.5 3.5 46.5 10.5s37.667 17.5 59 31.5l33 -75c-33.333 -33.333 -67.333 -56 -102 -68c-15.333 -5.33301 -32.333 -8 -51 -8s-46 7 -82 21s-63.333 21 -82 21c-32 0 -77.333 -10 -136 -30l15 95
c24 16 41.333 31.667 52 47c22.667 33.333 34 67.333 34 102l-7 46h-66l11 82h44l-9 65c0 62.667 21.167 115.667 63.5 159s94.166 65 155.499 65c33.333 0 75.666 -5 126.999 -15l-31 -114c-40.667 10 -76.334 15 -107.001 15s-52.834 -7 -66.501 -21
s-20.5 -37.333 -20.5 -70l8 -84h164l-11 -82h-146l3 -29c0 -54 -24 -101 -72 -141z" />
    <glyph glyph-name="currency" unicode="&#xa4;" horiz-adv-x="468" 
d="M93 186c-12 22 -18.001 46.5 -18.001 73.5s6.66699 51.833 20 74.5l-86 84l81 58l70 -76c22.667 12 46.834 18 72.501 18s50.5 -6 74.5 -18l80 89l61 -84l-76 -70c14 -24 21 -49.333 21 -76s-6.33301 -51 -19 -73l88 -82l-84 -60l-70 76
c-22.667 -13.333 -47.5 -20 -74.5 -20s-52.833 7 -77.5 21l-80 -89l-60 86zM152.999 259c0 -22 7.83301 -41 23.5 -57s34.5 -24 56.5 -24s41.167 8 57.5 24s24.5 35 24.5 57s-8.16699 41 -24.5 57s-35.5 24 -57.5 24s-40.833 -8 -56.5 -24s-23.5 -35 -23.5 -57z" />
    <glyph glyph-name="yen" unicode="&#xa5;" horiz-adv-x="569" 
d="M525 198l-4 -47h-173l7 -151h-140l7 151h-180l5 47h177l1 20l-28 57h-155l5 47h126l-61 124l-97 175l141 25l66 -152l61 -121h12l57 108l78 165l122 -18l-95 -167l-70 -139h138l-4 -47h-157l-20 -40l1 -37h180z" />
    <glyph glyph-name="brokenbar" unicode="&#xa6;" horiz-adv-x="251" 
d="M80 753l91 8v-333l-91 -8v333zM80 187l91 8v-331l-91 -8v331z" />
    <glyph glyph-name="section" unicode="&#xa7;" horiz-adv-x="426" 
d="M149 -14c22.667 -13.333 42.6719 -20.001 60.0049 -20.001s30.5 3.5 39.5 10.5s13.5 16.5 13.5 28.5s-8.16699 24 -24.5 36s-36.333 23.333 -60 34s-47.334 22.5 -71.001 35.5s-43.667 30.333 -60 52s-24.5 46.167 -24.5 73.5c0 58 30 107.667 90 149
c-34.667 28.667 -52 64.334 -52 107.001s17.667 79.667 53 111s79.666 47 132.999 47c22 0 44.167 -2.83301 66.5 -8.5s45.166 -14.5 68.499 -26.5l-57 -122c-42.667 35.333 -82 53 -118 53c-14 0 -25 -3.16699 -33 -9.5s-12 -14.833 -12 -25.5s8.16699 -21.667 24.5 -33
s36.166 -22.333 59.499 -33s46.833 -22.5 70.5 -35.5s43.667 -30.333 60 -52s24.5 -46.5 24.5 -74.5c0 -55.333 -28.667 -106 -86 -152c32.667 -28 49 -63.333 49 -106s-17.333 -80.5 -52 -113.5s-76.667 -49.5 -126 -49.5c-30.667 0 -60.334 7 -89.001 21
s-49.667 28 -63 42l-20 21l71 92c4.66699 -5.33301 11 -12 19 -20s23.333 -18.667 46 -32zM124.005 265.999c0 -16 9.33398 -30.333 28.001 -43c17.333 -11.333 36.666 -21.833 57.999 -31.5s36.333 -16.834 45 -21.501c29.333 31.333 44 58.666 44 81.999
c0 16.667 -9.33301 31.334 -28 44.001c-13.333 9.33301 -31.333 19.333 -54 30l-46 22c-31.333 -29.333 -47 -56.666 -47 -81.999z" />
    <glyph glyph-name="dieresis" unicode="&#xa8;" 
d="M-2 706c14 14.667 30.332 21.998 48.999 21.998s33 -5.16699 43 -15.5s15 -25.666 15 -45.999s-7 -37.833 -21 -52.5s-30.167 -22 -48.5 -22s-32.666 6 -42.999 18s-15.5 27.333 -15.5 46s7 35.334 21 50.001zM159.999 705.998c14 14.667 30.667 22 50 22
c38 0 57 -19.333 57 -58c0 -22.667 -6.83301 -41.334 -20.5 -56.001s-29.667 -22 -48 -22s-32.833 6 -43.5 18s-16 27.333 -16 46s7 35.334 21 50.001z" />
    <glyph glyph-name="copyright" unicode="&#xa9;" horiz-adv-x="761" 
d="M380 700c99.333 0 184.166 -34.667 254.499 -104s105.5 -153 105.5 -251s-35.167 -181.833 -105.5 -251.5s-155.166 -104.5 -254.499 -104.5s-184.166 34.833 -254.499 104.5s-105.5 153.5 -105.5 251.5s35.167 181.667 105.5 251s155.166 104 254.499 104zM588 135.5
c57.333 57.667 86 127.334 86 209.001s-28.667 151.334 -86 209.001s-126.666 86.5 -207.999 86.5s-150.666 -28.833 -207.999 -86.5s-86 -127.334 -86 -209.001s28.667 -151.334 86 -209.001s126.666 -86.5 207.999 -86.5s150.666 28.833 207.999 86.5zM375 147
c-42 0 -77.334 17.332 -106.001 51.999s-43 80.5 -43 137.5s17.167 106.667 51.5 149s76.5 63.5 126.5 63.5c19.333 0 37.333 -2 54 -6s32 -10 46 -18l-37 -79c-24.667 20.667 -50.5 31 -77.5 31s-48.167 -10.667 -63.5 -32s-23 -51.833 -23 -91.5s7.83301 -72 23.5 -97
s37.167 -37.5 64.5 -37.5c17.333 0 33.333 5.5 48 16.5s25.334 25.5 32.001 43.5l47 -27c-13.333 -33.333 -32.5 -59.166 -57.5 -77.499s-53.5 -27.5 -85.5 -27.5z" />
    <glyph glyph-name="ordfeminine" unicode="&#xaa;" horiz-adv-x="349" 
d="M44 342.5c-18.667 17.667 -28 41.668 -28 72.001s14.5 56.5 43.5 78.5s64.5 33 106.5 33h47v9c0 22 -4.66699 36.833 -14 44.5s-23.333 11.5 -42 11.5c-29.333 0 -64.666 -9.33301 -105.999 -28l-23 61c58.667 36 111 54 157 54c79.333 0 119 -36 119 -108v-135
c0 -26.667 9 -56.334 27 -89.001l-84 -33c-11.333 20.667 -20.333 40 -27 58c-27.333 -36.667 -61.333 -55 -102 -55c-30.667 0 -55.334 8.83301 -74.001 26.5zM120.5 404.001c7.66699 -8 18.832 -12 33.499 -12s34.334 9.33301 59.001 28v42
c-26.667 4.66699 -46.667 7 -60 7c-29.333 0 -44 -11.667 -44 -35c0 -12 3.83301 -22 11.5 -30z" />
    <glyph glyph-name="guillemotleft" unicode="&#xab;" horiz-adv-x="437" 
d="M127 265l105 -136l-58 -48l-167 177l167 187l58 -48zM317 265l105 -136l-58 -48l-167 177l167 187l58 -48z" />
    <glyph glyph-name="logicalnot" unicode="&#xac;" horiz-adv-x="425" 
d="M371 336v-247l-100 -9v165h-271l8 91h363z" />
    <glyph glyph-name="registered" unicode="&#xae;" horiz-adv-x="426" 
d="M76.5 641c37.667 37.333 83 56 136 56s98.5 -18.667 136.5 -56s57 -82.166 57 -134.499s-19 -97.333 -57 -135s-83.5 -56.5 -136.5 -56.5s-98.333 18.833 -136 56.5s-56.5 82.667 -56.5 135s18.833 97.166 56.5 134.499zM313 405.5
c28 27.667 42.001 61.334 42.001 101.001s-14 73.334 -42 101.001s-61.5 41.5 -100.5 41.5s-72.333 -13.833 -100 -41.5s-41.5 -61.334 -41.5 -101.001s13.667 -73.334 41 -101.001s60.666 -41.5 99.999 -41.5s73 13.833 101 41.5zM216.001 620
c20 0 36.333 -5.66797 49 -17.001s19 -25.666 19 -42.999c0 -26.667 -11.667 -47 -35 -61l52 -71l-45 -23l-47 82h-16l4 -77h-50l3 75l-3 135h69zM206.001 580.999h-9l-3 -56h16c16.667 0 25 10.333 25 31c0 16.667 -9.66699 25 -29 25z" />
    <glyph glyph-name="macron" unicode="&#xaf;" 
d="M0 603l8 85h236l-8 -85h-236z" />
    <glyph glyph-name="degree" unicode="&#xb0;" horiz-adv-x="291" 
d="M57 663.5c24.667 24.333 54.167 36.5 88.5 36.5s63.833 -12.167 88.5 -36.5s37 -53.5 37 -87.5s-12.333 -63.167 -37 -87.5s-54.167 -36.5 -88.5 -36.5s-63.833 12.167 -88.5 36.5s-37 53.5 -37 87.5s12.333 63.167 37 87.5zM191 529.5
c13.333 13 20.001 28.333 20.001 46s-6.5 33 -19.5 46s-28.333 19.5 -46 19.5s-33 -6.5 -46 -19.5s-19.5 -28.333 -19.5 -46s6.5 -33 19.5 -46s28.167 -19.5 45.5 -19.5s32.666 6.5 45.999 19.5z" />
    <glyph glyph-name="plusminus" unicode="&#xb1;" horiz-adv-x="425" 
d="M162 306v147l100 9v-156h146l-8 -91h-138v-146l-100 -9v155h-145l8 91h137zM17 -91l8 91h383l-8 -91h-383z" />
    <glyph glyph-name="twosuperior" unicode="&#xb2;" horiz-adv-x="379" 
d="M219 643c0 10.667 -2.83203 18.001 -8.49902 22.001s-16.667 6 -33 6s-35.833 -3.83301 -58.5 -11.5s-47.334 -18.834 -74.001 -33.501h-6l-9 6l19 100l3 4c50.667 25.333 97.167 38 139.5 38s76.5 -10.5 102.5 -31.5s39 -48.833 39 -83.5
c0 -44.667 -24.333 -92 -73 -142l-105 -103l205 11l-14 -108l-155 6l-176 -5l14 84l149 164c27.333 29.333 41 55 41 77z" />
    <glyph glyph-name="threesuperior" unicode="&#xb3;" horiz-adv-x="364" 
d="M50 754c40.667 13.333 81.167 19.998 121.5 19.998s74 -10.167 101 -30.5s40.5 -46.166 40.5 -77.499c0 -41.333 -19 -73 -57 -95c52 -24 78 -59 78 -105s-17.167 -82.833 -51.5 -110.5s-77.5 -41.5 -129.5 -41.5c-24.667 0 -48.667 3.33301 -72 10
s-46.333 16.334 -69 29.001l-4 8l31 84l10 3l4 -1c35.333 -30.667 70.666 -46 105.999 -46c21.333 0 38.5 4.33301 51.5 13s19.5 19.667 19.5 33c0 41.333 -30 62 -90 62h-71l16 83h46c48.667 0 73 18 73 54c0 13.333 -5.16699 23.833 -15.5 31.5s-23.166 11.5 -38.499 11.5
c-30 0 -60.667 -8 -92 -24l-15 -8h-5l-8 6l14 85l4 5z" />
    <glyph glyph-name="acute" unicode="&#xb4;" 
d="M198 725l11 -102c-87.333 -20 -165.666 -36 -234.999 -48l-5 72c57.333 16.667 133.666 42.667 228.999 78z" />
    <glyph glyph-name="mu" unicode="&#xb5;" horiz-adv-x="521" 
d="M200 139c10.667 -11.333 27.167 -17.001 49.5 -17.001s53.5 11.333 93.5 34v60l-11 263l135 25l-12 -250l1 -82c0 -42.667 11 -85.667 33 -129l-104 -46c-22 43.333 -35.333 78 -40 104c-10 -11.333 -21.5 -23.166 -34.5 -35.499s-32.833 -26.333 -59.5 -42
s-51 -23.5 -73 -23.5l10 -189l-122 -24l8 457l-11 240l134 25l-13 -304c0 -32.667 5.33301 -54.667 16 -66z" />
    <glyph glyph-name="mu" unicode="&#x3bc;" horiz-adv-x="521" 
d="M200 139c10.667 -11.333 27.167 -17.001 49.5 -17.001s53.5 11.333 93.5 34v60l-11 263l135 25l-12 -250l1 -82c0 -42.667 11 -85.667 33 -129l-104 -46c-22 43.333 -35.333 78 -40 104c-10 -11.333 -21.5 -23.166 -34.5 -35.499s-32.833 -26.333 -59.5 -42
s-51 -23.5 -73 -23.5l10 -189l-122 -24l8 457l-11 240l134 25l-13 -304c0 -32.667 5.33301 -54.667 16 -66z" />
    <glyph glyph-name="paragraph" unicode="&#xb6;" horiz-adv-x="514" 
d="M79 323.5c-48 45 -72 99.168 -72 162.501s19 113.166 57 149.499s89 54.5 153 54.5h25l13 -434c-69.333 0 -128 22.5 -176 67.5zM243 -9.99902c-27.333 0 -54.668 3 -82.001 9l32 120c22 -7.33301 43 -11 63 -11c41.333 0 62 33.667 62 101l-14 461l142 25l-14 -451
c0 -72.667 -17.667 -133.167 -53 -181.5s-80.666 -72.5 -135.999 -72.5z" />
    <glyph glyph-name="periodcentered" unicode="&#xb7;" horiz-adv-x="205" 
d="M53.5 311.5c15.667 16.333 34.5 24.501 56.5 24.501c43.333 0 65 -22 65 -66c0 -25.333 -7.83301 -46.333 -23.5 -63s-34 -25 -55 -25s-37.333 6.83301 -49 20.5s-17.5 31.167 -17.5 52.5s7.83301 40.166 23.5 56.499z" />
    <glyph glyph-name="cedilla" unicode="&#xb8;" 
d="M134 -125c0 20.667 -23.001 34 -69.001 40l21 105h62l-11 -60c26.667 -6.66699 47.167 -16.5 61.5 -29.5s21.5 -28.167 21.5 -45.5c0 -24.667 -13.667 -47 -41 -67s-61.666 -32.667 -102.999 -38l-32 44c60 10.667 90 27.667 90 51z" />
    <glyph glyph-name="onesuperior" unicode="&#xb9;" horiz-adv-x="295" 
d="M220 778l-10 -274l8 -183h-116l8 172l-6 157l-98 -1v60z" />
    <glyph glyph-name="ordmasculine" unicode="&#xba;" horiz-adv-x="361" 
d="M71 615.5c34.667 41.667 75.3301 62.5 121.997 62.5s82.834 -13.833 108.501 -41.5s38.5 -65.167 38.5 -112.5c0 -62 -16.667 -113.5 -50 -154.5s-73.166 -61.5 -119.499 -61.5s-83.166 14.667 -110.499 44s-41 66.333 -41 111c0 60 17.333 110.833 52 152.5z
M180.996 585c-48.667 0 -73.001 -30.334 -73.001 -91.001c0 -31.333 6.83301 -56.166 20.5 -74.499s31.834 -27.5 54.501 -27.5c45.333 0 68 32.167 68 96.5s-23.333 96.5 -70 96.5z" />
    <glyph glyph-name="guillemotright" unicode="&#xbb;" horiz-adv-x="437" 
d="M120 261l-105 136l58 48l167 -177l-167 -187l-58 48zM310 261l-105 136l58 48l167 -177l-167 -187l-58 48z" />
    <glyph glyph-name="onequarter" unicode="&#xbc;" horiz-adv-x="855" 
d="M223 703l-10 -274l8 -183h-116l8 172l-6 157l-98 -1v60zM464 178l171 257l130 16l-11 -262l69 3l-8 -86l-56 2l4 -108h-116l7 109l-197 -1zM652 324l-86 -134l89 1zM225 -119l-79 32l421 845l79 -32z" />
    <glyph glyph-name="onehalf" unicode="&#xbd;" horiz-adv-x="867" 
d="M223 703l-10 -274l8 -183h-116l8 172l-6 157l-98 -1v60zM704 322c0 10.667 -2.83203 17.999 -8.49902 21.999s-16.667 6 -33 6s-35.833 -3.66699 -58.5 -11s-47.334 -18.666 -74.001 -33.999h-6l-9 6l19 100l3 4c50.667 25.333 97.167 38 139.5 38
s76.5 -10.5 102.5 -31.5s39 -48.833 39 -83.5c0 -44.667 -24.333 -92 -73 -142l-105 -103l205 11l-14 -108l-155 6l-176 -5l14 84l149 164c27.333 29.333 41 55 41 77zM225.001 -119.001l-79 32l421 845l79 -32z" />
    <glyph glyph-name="threequarters" unicode="&#xbe;" horiz-adv-x="884" 
d="M493 178l171 257l130 16l-11 -262l69 3l-8 -86l-56 2l4 -108h-116l7 109l-197 -1zM53 679c40.667 13.333 81.167 20 121.5 20s74 -10.167 101 -30.5s40.5 -46.166 40.5 -77.499c0 -41.333 -19 -73 -57 -95c52 -24 78 -59 78 -105s-17.167 -82.833 -51.5 -110.5
s-77.5 -41.5 -129.5 -41.5c-24.667 0 -48.667 3.16699 -72 9.5s-46.333 16.166 -69 29.499l-4 8l31 84l10 3l4 -1c35.333 -30.667 70.666 -46 105.999 -46c21.333 0 38.5 4.33301 51.5 13s19.5 19.667 19.5 33c0 41.333 -30 62 -90 62h-71l16 83h46c48.667 0 73 18 73 54
c0 13.333 -5.16699 23.833 -15.5 31.5s-23.166 11.5 -38.499 11.5c-30 0 -60.333 -8 -91 -24l-16 -8h-5l-8 6l14 85l4 5zM254 -119l-79 32l421 845l79 -32zM681 324l-86 -134l89 1z" />
    <glyph glyph-name="questiondown" unicode="&#xbf;" horiz-adv-x="354" 
d="M252 385.5c-16 -16.333 -34.667 -24.502 -56 -24.502s-37.5 5.83301 -48.5 17.5s-16.5 28.834 -16.5 51.501s7.66699 42.5 23 59.5s33.5 25.5 54.5 25.5s37.5 -6.33301 49.5 -19s18 -30.167 18 -52.5s-8 -41.666 -24 -57.999zM134 30.998
c0 -70 73.333 -106.666 220 -109.999l-50 -112c-98.667 8.66699 -174 29.667 -226 63s-78 77.666 -78 132.999c0 76 63 161.667 189 257l77 -69c-88 -56.667 -132 -110.667 -132 -162z" />
    <glyph glyph-name="Agrave" unicode="&#xc0;" horiz-adv-x="643" 
d="M484 -5l-49 195h-239l-53 -190l-128 10l88 243l134 430l179 13l129 -428l83 -251zM326 566h-13l-86 -270h178zM204 808l11.001 102c85.333 -32 161.666 -58 228.999 -78l-5 -72z" />
    <glyph glyph-name="Aacute" unicode="&#xc1;" horiz-adv-x="643" 
d="M484 -5l-49 195h-239l-53 -190l-128 10l88 243l134 430l179 13l129 -428l83 -251zM326 566h-13l-86 -270h178zM433 910l11 -102c-87.333 -20 -165.666 -36 -234.999 -48l-5 72c57.333 16.667 133.666 42.667 228.999 78z" />
    <glyph glyph-name="Acircumflex" unicode="&#xc2;" horiz-adv-x="643" 
d="M484 -5l-49 195h-239l-53 -190l-128 10l88 243l134 430l179 13l129 -428l83 -251zM326 566h-13l-86 -270h178zM322 751l-144 85l15 62l129 -47l131 47l15 -62z" />
    <glyph glyph-name="Atilde" unicode="&#xc3;" horiz-adv-x="643" 
d="M484 -5l-49 195h-239l-53 -190l-128 10l88 243l134 430l179 13l129 -428l83 -251zM460 888l28 -43c-18.667 -22.667 -38.167 -42.667 -58.5 -60s-35.833 -26 -46.5 -26c-10 1.33301 -32.167 8.33301 -66.5 21s-56.5 19.667 -66.5 21l-66 -42l-28 43
c18.667 22.667 38.167 42.667 58.5 60s35.833 26 46.5 26c10 -1.33301 32.167 -8.33301 66.5 -21s56.5 -19.667 66.5 -21zM326 566h-13l-86 -270h178z" />
    <glyph glyph-name="Adieresis" unicode="&#xc4;" horiz-adv-x="643" 
d="M484 -5l-49 195h-239l-53 -190l-128 10l88 243l134 430l179 13l129 -428l83 -251zM326 566h-13l-86 -270h178zM360 891c14 14.667 30.667 22 50 22c38 0 57 -19.333 57 -58c0 -22.667 -6.83301 -41.334 -20.5 -56.001s-29.667 -22 -48 -22s-32.833 6 -43.5 18
s-16 27.333 -16 46s7 35.334 21 50.001zM198 891c14 14.667 30.332 21.998 48.999 21.998s33 -5.16699 43 -15.5s15 -25.666 15 -45.999s-7 -37.833 -21 -52.5s-30.167 -22 -48.5 -22s-32.666 6 -42.999 18s-15.5 27.333 -15.5 46s7 35.334 21 50.001z" />
    <glyph glyph-name="Aring" unicode="&#xc5;" horiz-adv-x="643" 
d="M484 -5l-49 195h-239l-53 -190l-128 10l88 243l134 430l179 13l129 -428l83 -251zM243 925c22 22.667 49.333 34 82 34s59 -9.33301 79 -28s30 -45 30 -79s-11 -62.667 -33 -86s-49 -35 -81 -35s-58.333 10.5 -79 31.5s-31 47.667 -31 80s11 59.833 33 82.5zM326 566h-13
l-86 -270h178zM361 888.5c-9.33301 9.66699 -21.833 14.5 -37.5 14.5s-28.667 -5.5 -39 -16.5s-15.5 -24.833 -15.5 -41.5s4.83301 -30.5 14.5 -41.5s22 -16.5 37 -16.5s27.833 6 38.5 18s16 26.5 16 43.5s-4.66699 30.333 -14 40z" />
    <glyph glyph-name="AE" unicode="&#xc6;" horiz-adv-x="853" 
d="M462 0l-35 190h-239l-66 -190l-127 10l105 243l167 437h500l-11 -107h-296l41 -177h244l-11 -106h-209l50 -194h235l-11 -106h-337zM345 566h-13l-104 -270h177z" />
    <glyph glyph-name="Ccedilla" unicode="&#xc7;" horiz-adv-x="551" 
d="M321 -125c0 20.667 -23.0039 34.001 -69.0039 40.001l15 76c-68 7.33301 -124.5 41.166 -169.5 101.499s-67.5 132.833 -67.5 217.5c0 110 30.5 202.667 91.5 278s135.833 113 224.5 113c34.667 0 66.834 -3.5 96.501 -10.5s50.834 -14.167 63.501 -21.5l18 -11l-68 -139
c-15.333 13.333 -37 25.833 -65 37.5s-53.333 17.5 -76 17.5c-46 0 -82.833 -19 -110.5 -57s-41.5 -92.167 -41.5 -162.5s14.333 -128 43 -173s67.667 -67.5 117 -67.5c32 0 61 10 87 30s44.333 46.667 55 80l83 -48c-20 -52.667 -49.167 -95 -87.5 -127
s-82.166 -51 -131.499 -57l-5 -32c26.667 -6.66699 47.167 -16.5 61.5 -29.5s21.5 -28.167 21.5 -45.5c0 -24.667 -13.667 -47 -41 -67s-61.666 -32.667 -102.999 -38l-32 44c60 10.667 90 27.667 90 51z" />
    <glyph glyph-name="Egrave" unicode="&#xc8;" horiz-adv-x="492" 
d="M80 0l12 243l-12 447h375l-11 -107h-225l-6 -177h200l-11 -106h-193l-1 -40l7 -154h242l-11 -106h-366zM161 808l11.001 102c85.333 -32 161.666 -58 228.999 -78l-5 -72z" />
    <glyph glyph-name="Eacute" unicode="&#xc9;" horiz-adv-x="492" 
d="M80 0l12 243l-12 447h375l-11 -107h-225l-6 -177h200l-11 -106h-193l-1 -40l7 -154h242l-11 -106h-366zM390 910l10.999 -102c-87.333 -20 -165.666 -36 -234.999 -48l-5 72c56.667 16.667 133 42.667 229 78z" />
    <glyph glyph-name="Ecircumflex" unicode="&#xca;" horiz-adv-x="492" 
d="M279 751l-144 85l15 62l129 -47l131 47l15 -62zM80 0l12 243l-12 447h375l-11 -107h-225l-6 -177h200l-11 -106h-193l-1 -40l7 -154h242l-11 -106h-366z" />
    <glyph glyph-name="Edieresis" unicode="&#xcb;" horiz-adv-x="492" 
d="M80 0l12 243l-12 447h375l-11 -107h-225l-6 -177h200l-11 -106h-193l-1 -40l7 -154h242l-11 -106h-366zM155 891c14 14.667 30.332 21.998 48.999 21.998s33 -5.16699 43 -15.5s15 -25.666 15 -45.999s-7 -37.833 -21 -52.5s-30.167 -22 -48.5 -22s-32.666 6 -42.999 18
s-15.5 27.333 -15.5 46s7 35.334 21 50.001zM316.999 890.998c14 14.667 30.333 22 49 22c38.667 0 58 -19.333 58 -58c0 -22.667 -6.83301 -41.334 -20.5 -56.001s-29.667 -22 -48 -22s-32.833 6 -43.5 18s-16 27.333 -16 46s7 35.334 21 50.001z" />
    <glyph glyph-name="Igrave" unicode="&#xcc;" horiz-adv-x="302" 
d="M222 695l-14 -435l12 -260h-140l12 243l-12 427zM34 808l11.001 102c85.333 -32 161.666 -58 228.999 -78l-5 -72z" />
    <glyph glyph-name="Iacute" unicode="&#xcd;" horiz-adv-x="302" 
d="M222 695l-14 -435l12 -260h-140l12 243l-12 427zM263 910l11 -102c-87.333 -20 -165.666 -36 -234.999 -48l-5 72c57.333 16.667 133.666 42.667 228.999 78z" />
    <glyph glyph-name="Icircumflex" unicode="&#xce;" horiz-adv-x="302" 
d="M152 751l-144 85l15 62l129 -47l131 47l15 -62zM222 695l-14 -435l12 -260h-140l12 243l-12 427z" />
    <glyph glyph-name="Idieresis" unicode="&#xcf;" horiz-adv-x="302" 
d="M222 695l-14 -435l12 -260h-140l12 243l-12 427zM28 891c14 14.667 30.332 21.998 48.999 21.998s33 -5.16699 43 -15.5s15 -25.666 15 -45.999s-7 -37.833 -21 -52.5s-30.167 -22 -48.5 -22s-32.666 6 -42.999 18s-15.5 27.333 -15.5 46s7 35.334 21 50.001z
M189.999 890.998c14 14.667 30.667 22 50 22c38 0 57 -19.333 57 -58c0 -22.667 -6.83301 -41.334 -20.5 -56.001s-29.667 -22 -48 -22s-32.833 6 -43.5 18s-16 27.333 -16 46s7 35.334 21 50.001z" />
    <glyph glyph-name="Eth" unicode="&#xd0;" horiz-adv-x="679" 
d="M362 690c90 0 160.332 -27 210.999 -81s76 -129 76 -225c0 -121.333 -31.333 -217.5 -94 -288.5s-147.667 -106.5 -255 -106.5c-47.333 0 -115.666 3.66699 -204.999 11l12 243l-2 76h-101l5 47h94l-8 324h267zM342.999 92c52.667 0 94.167 21.334 124.5 64.001
s45.5 104.667 45.5 186s-14.833 141.666 -44.5 180.999s-77.167 59 -142.5 59c-44 0 -75 -0.333008 -93 -1l-7 -215h141l-4 -47h-138l-2 -59l7 -162c56 -4 93.667 -6 113 -6z" />
    <glyph glyph-name="Ntilde" unicode="&#xd1;" horiz-adv-x="689" 
d="M609 692l-13 -432l11 -238l-118 -25l-298 482v-219l14 -260h-125l12 243l-12 444l120 6l297 -489l-10 473zM483 888l28 -43c-18.667 -22.667 -38.167 -42.667 -58.5 -60s-35.833 -26 -46.5 -26c-10 1.33301 -32.167 8.33301 -66.5 21s-56.5 19.667 -66.5 21l-66 -42
l-28 43c18.667 22.667 38.167 42.667 58.5 60s35.833 26 46.5 26c10 -1.33301 32.167 -8.33301 66.5 -21s56.5 -19.667 66.5 -21z" />
    <glyph glyph-name="Ograve" unicode="&#xd2;" horiz-adv-x="661" 
d="M360 700c78.667 0 143.501 -30 194.501 -90s76.5 -136.333 76.5 -229c0 -117.333 -30.333 -212 -91 -284s-140.334 -108 -239.001 -108c-76.667 0 -141 30.833 -193 92.5s-78 137.834 -78 228.501c0 113.333 31 206.666 93 279.999s141 110 237 110zM495.001 325
c0 168.667 -55.333 253 -166 253c-50.667 0 -90.5 -18.833 -119.5 -56.5s-43.5 -94 -43.5 -169s15.5 -136.667 46.5 -185s72 -72.5 123 -72.5s90.333 20.5 118 61.5s41.5 97.167 41.5 168.5zM211.001 808l11.001 102c85.333 -32 161.666 -58 228.999 -78l-5 -72z" />
    <glyph glyph-name="Oacute" unicode="&#xd3;" horiz-adv-x="661" 
d="M360 700c78.667 0 143.501 -30 194.501 -90s76.5 -136.333 76.5 -229c0 -117.333 -30.333 -212 -91 -284s-140.334 -108 -239.001 -108c-76.667 0 -141 30.833 -193 92.5s-78 137.834 -78 228.501c0 113.333 31 206.666 93 279.999s141 110 237 110zM495.001 325
c0 168.667 -55.333 253 -166 253c-50.667 0 -90.5 -18.833 -119.5 -56.5s-43.5 -94 -43.5 -169s15.5 -136.667 46.5 -185s72 -72.5 123 -72.5s90.333 20.5 118 61.5s41.5 97.167 41.5 168.5zM440.001 910l11 -102c-87.333 -20 -165.666 -36 -234.999 -48l-5 72
c57.333 16.667 133.666 42.667 228.999 78z" />
    <glyph glyph-name="Ocircumflex" unicode="&#xd4;" horiz-adv-x="661" 
d="M329 751l-144 85l15 62l129 -47l131 47l15 -62zM360 700c78.667 0 143.501 -30 194.501 -90s76.5 -136.333 76.5 -229c0 -117.333 -30.333 -212 -91 -284s-140.334 -108 -239.001 -108c-76.667 0 -141 30.833 -193 92.5s-78 137.834 -78 228.501
c0 113.333 31 206.666 93 279.999s141 110 237 110zM495.001 325c0 168.667 -55.333 253 -166 253c-50.667 0 -90.5 -18.833 -119.5 -56.5s-43.5 -94 -43.5 -169s15.5 -136.667 46.5 -185s72 -72.5 123 -72.5s90.333 20.5 118 61.5s41.5 97.167 41.5 168.5z" />
    <glyph glyph-name="Otilde" unicode="&#xd5;" horiz-adv-x="661" 
d="M360 700c78.667 0 143.501 -30 194.501 -90s76.5 -136.333 76.5 -229c0 -117.333 -30.333 -212 -91 -284s-140.334 -108 -239.001 -108c-76.667 0 -141 30.833 -193 92.5s-78 137.834 -78 228.501c0 113.333 31 206.666 93 279.999s141 110 237 110zM495.001 325
c0 168.667 -55.333 253 -166 253c-50.667 0 -90.5 -18.833 -119.5 -56.5s-43.5 -94 -43.5 -169s15.5 -136.667 46.5 -185s72 -72.5 123 -72.5s90.333 20.5 118 61.5s41.5 97.167 41.5 168.5zM467.001 888l28 -43c-18.667 -22.667 -38.167 -42.667 -58.5 -60
s-35.833 -26 -46.5 -26c-10 1.33301 -32.167 8.33301 -66.5 21s-56.5 19.667 -66.5 21l-66 -42l-28 43c18.667 22.667 38.167 42.667 58.5 60s35.833 26 46.5 26c10 -1.33301 32.167 -8.33301 66.5 -21s56.5 -19.667 66.5 -21z" />
    <glyph glyph-name="Odieresis" unicode="&#xd6;" horiz-adv-x="661" 
d="M360 700c78.667 0 143.501 -30 194.501 -90s76.5 -136.333 76.5 -229c0 -117.333 -30.333 -212 -91 -284s-140.334 -108 -239.001 -108c-76.667 0 -141 30.833 -193 92.5s-78 137.834 -78 228.501c0 113.333 31 206.666 93 279.999s141 110 237 110zM495.001 325
c0 168.667 -55.333 253 -166 253c-50.667 0 -90.5 -18.833 -119.5 -56.5s-43.5 -94 -43.5 -169s15.5 -136.667 46.5 -185s72 -72.5 123 -72.5s90.333 20.5 118 61.5s41.5 97.167 41.5 168.5zM205.001 891c14 14.667 30.332 21.998 48.999 21.998s33 -5.16699 43 -15.5
s15 -25.666 15 -45.999s-7 -37.833 -21 -52.5s-30.167 -22 -48.5 -22s-32.666 6 -42.999 18s-15.5 27.333 -15.5 46s7 35.334 21 50.001zM367 890.998c14 14.667 30.333 22 49 22c38.667 0 58 -19.333 58 -58c0 -22.667 -6.83301 -41.334 -20.5 -56.001s-29.667 -22 -48 -22
s-32.833 6 -43.5 18s-16 27.333 -16 46s7 35.334 21 50.001z" />
    <glyph glyph-name="multiply" unicode="&#xd7;" horiz-adv-x="425" 
d="M107 90l-59 70l97 97l-104 104l64 77l110 -111l104 104l59 -70l-98 -98l103 -103l-64 -77l-110 109z" />
    <glyph glyph-name="Oslash" unicode="&#xd8;" horiz-adv-x="667" 
d="M363 700c42.667 0 83 -9.99805 121 -29.998l61 110l44 -18l-66 -119c34.667 -28.667 61.834 -65.667 81.501 -111s29.5 -95.666 29.5 -150.999c0 -117.333 -30.333 -212 -91 -284s-140.334 -108 -239.001 -108c-44 0 -85.333 11 -124 33l-67 -121l-43 19l72 130
c-34 29.333 -60.667 66.666 -80 111.999s-29 94.666 -29 147.999c0 113.333 31 206.666 93 279.999s141 110 237 110zM456.5 156.502c27.667 41 41.499 100.832 41.499 179.499s-14.667 139.334 -44 182.001l-212 -384c28 -26 63.833 -39 107.5 -39
s79.334 20.5 107.001 61.5zM212.499 521.501c-29 -37.667 -43.501 -92.833 -43.501 -165.5s14 -133 42 -181l209 378c-23.333 16.667 -52.666 25 -87.999 25c-50.667 0 -90.5 -18.833 -119.5 -56.5z" />
    <glyph glyph-name="Ugrave" unicode="&#xd9;" horiz-adv-x="651" 
d="M291 -11c-60 0 -110.5 18.333 -151.5 55s-61.5 82 -61.5 136l-10 490l144 25l-16 -438c0 -46.667 10.833 -83 32.5 -109s55.167 -39 100.5 -39s78 12.667 98 38s30 69 30 131l-12 392l140 25l-11 -440c0 -78.667 -26.333 -142.667 -79 -192s-120.667 -74 -204 -74z
M206 808l11.001 102c85.333 -32 161.666 -58 228.999 -78l-5 -72z" />
    <glyph glyph-name="Uacute" unicode="&#xda;" horiz-adv-x="651" 
d="M291 -11c-60 0 -110.5 18.333 -151.5 55s-61.5 82 -61.5 136l-10 490l144 25l-16 -438c0 -46.667 10.833 -83 32.5 -109s55.167 -39 100.5 -39s78 12.667 98 38s30 69 30 131l-12 392l140 25l-11 -440c0 -78.667 -26.333 -142.667 -79 -192s-120.667 -74 -204 -74z
M435 910l10.999 -102c-87.333 -20 -165.666 -36 -234.999 -48l-5 72c56.667 16.667 133 42.667 229 78z" />
    <glyph glyph-name="Ucircumflex" unicode="&#xdb;" horiz-adv-x="651" 
d="M324 751l-144 85l15 62l129 -47l131 47l15 -62zM291 -11c-60 0 -110.5 18.333 -151.5 55s-61.5 82 -61.5 136l-10 490l144 25l-16 -438c0 -46.667 10.833 -83 32.5 -109s55.167 -39 100.5 -39s78 12.667 98 38s30 69 30 131l-12 392l140 25l-11 -440
c0 -78.667 -26.333 -142.667 -79 -192s-120.667 -74 -204 -74z" />
    <glyph glyph-name="Udieresis" unicode="&#xdc;" horiz-adv-x="651" 
d="M291 -11c-60 0 -110.5 18.333 -151.5 55s-61.5 82 -61.5 136l-10 490l144 25l-16 -438c0 -46.667 10.833 -83 32.5 -109s55.167 -39 100.5 -39s78 12.667 98 38s30 69 30 131l-12 392l140 25l-11 -440c0 -78.667 -26.333 -142.667 -79 -192s-120.667 -74 -204 -74z
M200 891c14 14.667 30.332 21.998 48.999 21.998s33 -5.16699 43 -15.5s15 -25.666 15 -45.999s-7 -37.833 -21 -52.5s-30.167 -22 -48.5 -22s-32.666 6 -42.999 18s-15.5 27.333 -15.5 46s7 35.334 21 50.001zM361.999 890.998c14 14.667 30.667 22 50 22
c38 0 57 -19.333 57 -58c0 -22.667 -6.83301 -41.334 -20.5 -56.001s-29.667 -22 -48 -22s-32.833 6 -43.5 18s-16 27.333 -16 46s7 35.334 21 50.001z" />
    <glyph glyph-name="Yacute" unicode="&#xdd;" horiz-adv-x="569" 
d="M283 395h12l74 136l75 165l122 -18l-92 -167l-130 -254l11 -257h-140l10 240l-126 256l-96 175l141 25l65 -152zM398 910l11 -102c-87.333 -20 -165.666 -36 -234.999 -48l-5 72c57.333 16.667 133.666 42.667 228.999 78z" />
    <glyph glyph-name="Thorn" unicode="&#xde;" horiz-adv-x="509" 
d="M292 568c64 0 115 -18.168 153 -54.501s57 -86.166 57 -149.499s-24 -117.5 -72 -162.5s-106.667 -67.5 -176 -67.5h-51l6 -134h-134l12 243l-12 447h136l-4 -122h85zM256 466.999h-52.999l-6 -207l1 -29h70c33.333 0 59.166 11 77.499 33s27.5 53.333 27.5 94
c0 72.667 -39 109 -117 109z" />
    <glyph glyph-name="germandbls" unicode="&#xdf;" horiz-adv-x="607" 
d="M147.5 712c45 41.333 98.332 62.001 159.999 62.001s110.167 -14.5 145.5 -43.5s53 -68.5 53 -118.5c0 -24.667 -6 -48 -18 -70s-25.333 -39.667 -40 -53c-38.667 -35.333 -58 -66.333 -58 -93c0 -14 7.5 -26.833 22.5 -38.5s33 -22.667 54 -33
s42.167 -21.833 63.5 -34.5s39.5 -29.667 54.5 -51s22.5 -46 22.5 -74c0 -46.667 -19.167 -87.667 -57.5 -123s-82.5 -53 -132.5 -53c-32 0 -61.833 7 -89.5 21s-47.5 28 -59.5 42l-18 21l79 92c4 -5.33301 9.66699 -12 17 -20s21.833 -18.667 43.5 -32s42.5 -20 62.5 -20
c34.667 0 52 15.333 52 46c0 12 -7.5 23.167 -22.5 33.5s-33 20.666 -54 30.999s-42.167 22.166 -63.5 35.499s-39.5 31.333 -54.5 54s-22.5 47.667 -22.5 75s6 52 18 74s25.333 39.667 40 53c38.667 35.333 58 65 58 89s-10.333 42.667 -31 56s-47.167 20 -79.5 20
s-55.666 -6.16699 -69.999 -18.5s-21.5 -33.166 -21.5 -62.499l-2 -319l11 -235l-135 -25l12 243l-4 159h-66l11 82h53l-1 76c0 60 22.5 110.667 67.5 152z" />
    <glyph glyph-name="agrave" unicode="&#xe0;" horiz-adv-x="469" 
d="M61.5 37.5c-25 25 -37.5 58.666 -37.5 100.999s19.333 79 58 110s85.667 46.5 141 46.5h68v17c0 32.667 -6.66699 55 -20 67s-38.333 18 -75 18c-15.333 0 -33.5 -3.16699 -54.5 -9.5s-44.5 -16.166 -70.5 -29.499l-29 79c28.667 20 63.5 38 104.5 54s74.833 24 101.5 24
c104.667 0 157 -50.667 157 -152v-196c0 -37.333 11.667 -79 35 -125l-106 -45c-16.667 32 -29 60.667 -37 86c-36.667 -55.333 -83 -83 -139 -83c-39.333 0 -71.5 12.5 -96.5 37.5zM119 622.999l11.001 102c85.333 -32 161.666 -58 228.999 -78l-5 -72zM200.001 101.999
c26.667 0 57 13.667 91 41v67c-35.333 8 -64 12 -86 12c-42 0 -63 -18.667 -63 -56c0 -19.333 5.33301 -34.833 16 -46.5s24.667 -17.5 42 -17.5z" />
    <glyph glyph-name="aacute" unicode="&#xe1;" horiz-adv-x="469" 
d="M61.5 37.5c-25 25 -37.5 58.666 -37.5 100.999s19.333 79 58 110s85.667 46.5 141 46.5h68v17c0 32.667 -6.66699 55 -20 67s-38.333 18 -75 18c-15.333 0 -33.5 -3.16699 -54.5 -9.5s-44.5 -16.166 -70.5 -29.499l-29 79c28.667 20 63.5 38 104.5 54s74.833 24 101.5 24
c104.667 0 157 -50.667 157 -152v-196c0 -37.333 11.667 -79 35 -125l-106 -45c-16.667 32 -29 60.667 -37 86c-36.667 -55.333 -83 -83 -139 -83c-39.333 0 -71.5 12.5 -96.5 37.5zM348 724.999l10.999 -102c-87.333 -20 -165.666 -36 -234.999 -48l-5 72
c56.667 16.667 133 42.667 229 78zM199.999 101.999c26.667 0 57 13.667 91 41v67c-35.333 8 -64 12 -86 12c-42 0 -63 -18.667 -63 -56c0 -19.333 5.33301 -34.833 16 -46.5s24.667 -17.5 42 -17.5z" />
    <glyph glyph-name="acircumflex" unicode="&#xe2;" horiz-adv-x="469" 
d="M61.5 37.5c-25 25 -37.5 58.666 -37.5 100.999s19.333 79 58 110s85.667 46.5 141 46.5h68v17c0 32.667 -6.66699 55 -20 67s-38.333 18 -75 18c-15.333 0 -33.5 -3.16699 -54.5 -9.5s-44.5 -16.166 -70.5 -29.499l-29 79c28.667 20 63.5 38 104.5 54s74.833 24 101.5 24
c104.667 0 157 -50.667 157 -152v-196c0 -37.333 11.667 -79 35 -125l-106 -45c-16.667 32 -29 60.667 -37 86c-36.667 -55.333 -83 -83 -139 -83c-39.333 0 -71.5 12.5 -96.5 37.5zM237 565.999l-144 85l15 62l129 -47l131 47l15 -62zM200 101.999
c26.667 0 57 13.667 91 41v67c-35.333 8 -64 12 -86 12c-42 0 -63 -18.667 -63 -56c0 -19.333 5.33301 -34.833 16 -46.5s24.667 -17.5 42 -17.5z" />
    <glyph glyph-name="atilde" unicode="&#xe3;" horiz-adv-x="469" 
d="M61.5 37.5c-25 25 -37.5 58.666 -37.5 100.999s19.333 79 58 110s85.667 46.5 141 46.5h68v17c0 32.667 -6.66699 55 -20 67s-38.333 18 -75 18c-15.333 0 -33.5 -3.16699 -54.5 -9.5s-44.5 -16.166 -70.5 -29.499l-29 79c28.667 20 63.5 38 104.5 54s74.833 24 101.5 24
c104.667 0 157 -50.667 157 -152v-196c0 -37.333 11.667 -79 35 -125l-106 -45c-16.667 32 -29 60.667 -37 86c-36.667 -55.333 -83 -83 -139 -83c-39.333 0 -71.5 12.5 -96.5 37.5zM375 702.999l28 -43c-18.667 -22.667 -38.167 -42.667 -58.5 -60s-35.833 -26 -46.5 -26
c-10 1.33301 -32.167 8.33301 -66.5 21s-56.5 19.667 -66.5 21l-66 -42l-28 43c18.667 22.667 38.167 42.667 58.5 60s35.833 26 46.5 26c10 -1.33301 32.167 -8.33301 66.5 -21s56.5 -19.667 66.5 -21zM200 101.999c26.667 0 57 13.667 91 41v67c-35.333 8 -64 12 -86 12
c-42 0 -63 -18.667 -63 -56c0 -19.333 5.33301 -34.833 16 -46.5s24.667 -17.5 42 -17.5z" />
    <glyph glyph-name="adieresis" unicode="&#xe4;" horiz-adv-x="469" 
d="M61.5 37.5c-25 25 -37.5 58.666 -37.5 100.999s19.333 79 58 110s85.667 46.5 141 46.5h68v17c0 32.667 -6.66699 55 -20 67s-38.333 18 -75 18c-15.333 0 -33.5 -3.16699 -54.5 -9.5s-44.5 -16.166 -70.5 -29.499l-29 79c28.667 20 63.5 38 104.5 54s74.833 24 101.5 24
c104.667 0 157 -50.667 157 -152v-196c0 -37.333 11.667 -79 35 -125l-106 -45c-16.667 32 -29 60.667 -37 86c-36.667 -55.333 -83 -83 -139 -83c-39.333 0 -71.5 12.5 -96.5 37.5zM200 101.999c26.667 0 57 13.667 91 41v67c-35.333 8 -64 12 -86 12
c-42 0 -63 -18.667 -63 -56c0 -19.333 5.33301 -34.833 16 -46.5s24.667 -17.5 42 -17.5zM275 705.999c14 14.667 30.333 22 49 22c38.667 0 58 -19.333 58 -58c0 -22.667 -6.83301 -41.334 -20.5 -56.001s-29.667 -22 -48 -22s-32.833 6 -43.5 18s-16 27.333 -16 46
s7 35.334 21 50.001zM113 705.999c14 14.667 30.332 21.998 48.999 21.998s33 -5.16699 43 -15.5s15 -25.666 15 -45.999s-7 -37.833 -21 -52.5s-30.167 -22 -48.5 -22s-32.666 6 -42.999 18s-15.5 27.333 -15.5 46s7 35.334 21 50.001z" />
    <glyph glyph-name="aring" unicode="&#xe5;" horiz-adv-x="469" 
d="M61.5 37.5c-25 25 -37.5 58.666 -37.5 100.999s19.333 79 58 110s85.667 46.5 141 46.5h68v17c0 32.667 -6.66699 55 -20 67s-38.333 18 -75 18c-15.333 0 -33.5 -3.16699 -54.5 -9.5s-44.5 -16.166 -70.5 -29.499l-29 79c28.667 20 63.5 38 104.5 54s74.833 24 101.5 24
c104.667 0 157 -50.667 157 -152v-196c0 -37.333 11.667 -79 35 -125l-106 -45c-16.667 32 -29 60.667 -37 86c-36.667 -55.333 -83 -83 -139 -83c-39.333 0 -71.5 12.5 -96.5 37.5zM158 739.999c22 22.667 49.333 34 82 34s59 -9.33301 79 -28s30 -45 30 -79
s-11 -62.667 -33 -86s-49 -35 -81 -35s-58.333 10.5 -79 31.5s-31 47.667 -31 80s11 59.833 33 82.5zM200 101.999c26.667 0 57 13.667 91 41v67c-35.333 8 -64 12 -86 12c-42 0 -63 -18.667 -63 -56c0 -19.333 5.33301 -34.833 16 -46.5s24.667 -17.5 42 -17.5z
M276 703.499c-9.33301 9.66699 -21.833 14.5 -37.5 14.5s-28.667 -5.5 -39 -16.5s-15.5 -24.833 -15.5 -41.5s4.83301 -30.5 14.5 -41.5s22 -16.5 37 -16.5s27.833 6 38.5 18s16 26.5 16 43.5s-4.66699 30.333 -14 40z" />
    <glyph glyph-name="ae" unicode="&#xe6;" horiz-adv-x="699" 
d="M491 102c19.333 0 39.668 4.99805 61.001 14.998s38 20 50 30l18 15l46 -56c-6.66699 -11.333 -17 -24.333 -31 -39s-28.167 -27.167 -42.5 -37.5s-33.333 -19.666 -57 -27.999s-48.167 -12.5 -73.5 -12.5c-66 0 -116 29.333 -150 88
c-38.667 -58.667 -86.667 -88 -144 -88c-42.667 0 -77.334 12.5 -104.001 37.5s-40 58.667 -40 101s16.167 77.166 48.5 104.499s77.5 43 135.5 47l73 6v27c0 32.667 -6 55 -18 67s-34.333 18 -67 18c-15.333 0 -33.5 -3.16699 -54.5 -9.5s-44.5 -16.166 -70.5 -29.499
l-29 79c8.66699 6 20 13.333 34 22s39 20.167 75 34.5s67.333 21.5 94 21.5c64 0 105 -23.667 123 -71c44 47.333 91.833 71 143.5 71s91 -13.667 118 -41s40.5 -65.666 40.5 -114.999c0 -24 -5 -56.667 -15 -98l-20 -21l-251 -18c10 -80 45.667 -120 107 -120z
M491.002 411.998c-27.333 0 -50.832 -11 -70.499 -33s-31.834 -50.333 -36.501 -85l168 15c2 14 3 26 3 36c0 44.667 -21.333 67 -64 67zM281.003 208.998v5.99902l-75 -5c-24 -1.33301 -40.667 -6 -50 -14s-14 -21.667 -14 -41s6.16699 -34.833 18.5 -46.5
s29.833 -17.5 52.5 -17.5s48.667 12.667 78 38c-6.66699 22.667 -10 49.334 -10 80.001z" />
    <glyph glyph-name="ccedilla" unicode="&#xe7;" horiz-adv-x="385" 
d="M222 -125c0 20.667 -22.998 33.999 -68.998 39.999l15 76c-42.667 7.33301 -77 30.833 -103 70.5s-39 88.834 -39 147.501c0 81.333 23.667 152.666 71 213.999s102.666 92 165.999 92c19.333 0 38.666 -2.83301 57.999 -8.5s39 -14.5 59 -26.5l-70 -123
c-24 18.667 -50.667 28 -80 28s-52 -10.5 -68 -31.5s-24 -53.167 -24 -96.5s8.16699 -78.166 24.5 -104.499s40.166 -39.5 71.499 -39.5c16 0 31.667 5 47 15s27 20 35 30l11 16l50 -52c-22 -44 -53.333 -79.333 -94 -106c-16.667 -11.333 -34 -19 -52 -23l-6 -33
c26.667 -6.66699 47.167 -16.5 61.5 -29.5s21.5 -28.167 21.5 -45.5c0 -24.667 -13.667 -47 -41 -67s-61.666 -32.667 -102.999 -38l-32 44c60 10.667 90 27.667 90 51z" />
    <glyph glyph-name="egrave" unicode="&#xe8;" horiz-adv-x="446" 
d="M238 102c19.333 0 39.6689 4.99805 61.002 14.998s38 20 50 30l18 15l46 -56c-6.66699 -11.333 -17 -24.333 -31 -39s-28.167 -27.167 -42.5 -37.5s-33.333 -19.666 -57 -27.999s-48.167 -12.5 -73.5 -12.5c-54 0 -98 20.5 -132 61.5s-51 93.833 -51 158.5
c0 81.333 23.667 152.666 71 213.999s102.666 92 165.999 92c48.667 0 86.5 -13.667 113.5 -41s40.5 -65.666 40.5 -114.999c0 -29.333 -5 -62.666 -15 -99.999l-20 -21l-250 -23c11.333 -75.333 46.666 -113 105.999 -113zM128.003 622.998l11.001 102
c85.333 -32 161.666 -58 228.999 -78l-5 -72zM238.004 411.998c-29.333 0 -54 -11.832 -74 -35.499s-31.667 -53.834 -35 -90.501l170 21c2 15.333 3 28 3 38c0 44.667 -21.333 67 -64 67z" />
    <glyph glyph-name="eacute" unicode="&#xe9;" horiz-adv-x="446" 
d="M238 102c19.333 0 39.6689 4.99805 61.002 14.998s38 20 50 30l18 15l46 -56c-6.66699 -11.333 -17 -24.333 -31 -39s-28.167 -27.167 -42.5 -37.5s-33.333 -19.666 -57 -27.999s-48.167 -12.5 -73.5 -12.5c-54 0 -98 20.5 -132 61.5s-51 93.833 -51 158.5
c0 81.333 23.667 152.666 71 213.999s102.666 92 165.999 92c48.667 0 86.5 -13.667 113.5 -41s40.5 -65.666 40.5 -114.999c0 -29.333 -5 -62.666 -15 -99.999l-20 -21l-250 -23c11.333 -75.333 46.666 -113 105.999 -113zM357.003 724.998l11 -102
c-87.333 -20 -165.666 -36 -234.999 -48l-5 72c57.333 16.667 133.666 42.667 228.999 78zM238.003 411.998c-29.333 0 -54 -11.832 -74 -35.499s-31.667 -53.834 -35 -90.501l170 21c2 15.333 3 28 3 38c0 44.667 -21.333 67 -64 67z" />
    <glyph glyph-name="ecircumflex" unicode="&#xea;" horiz-adv-x="446" 
d="M238 102c19.333 0 39.6689 4.99805 61.002 14.998s38 20 50 30l18 15l46 -56c-6.66699 -11.333 -17 -24.333 -31 -39s-28.167 -27.167 -42.5 -37.5s-33.333 -19.666 -57 -27.999s-48.167 -12.5 -73.5 -12.5c-54 0 -98 20.5 -132 61.5s-51 93.833 -51 158.5
c0 81.333 23.667 152.666 71 213.999s102.666 92 165.999 92c48.667 0 86.5 -13.667 113.5 -41s40.5 -65.666 40.5 -114.999c0 -29.333 -5 -62.666 -15 -99.999l-20 -21l-250 -23c11.333 -75.333 46.666 -113 105.999 -113zM246.003 565.998l-144 85l15 62l129 -47l131 47
l15 -62zM238.003 411.998c-29.333 0 -54 -11.832 -74 -35.499s-31.667 -53.834 -35 -90.501l170 21c2 15.333 3 28 3 38c0 44.667 -21.333 67 -64 67z" />
    <glyph glyph-name="edieresis" unicode="&#xeb;" horiz-adv-x="446" 
d="M238 102c19.333 0 39.6689 4.99805 61.002 14.998s38 20 50 30l18 15l46 -56c-6.66699 -11.333 -17 -24.333 -31 -39s-28.167 -27.167 -42.5 -37.5s-33.333 -19.666 -57 -27.999s-48.167 -12.5 -73.5 -12.5c-54 0 -98 20.5 -132 61.5s-51 93.833 -51 158.5
c0 81.333 23.667 152.666 71 213.999s102.666 92 165.999 92c48.667 0 86.5 -13.667 113.5 -41s40.5 -65.666 40.5 -114.999c0 -29.333 -5 -62.666 -15 -99.999l-20 -21l-250 -23c11.333 -75.333 46.666 -113 105.999 -113zM238.003 411.998
c-29.333 0 -54 -11.832 -74 -35.499s-31.667 -53.834 -35 -90.501l170 21c2 15.333 3 28 3 38c0 44.667 -21.333 67 -64 67zM284.003 705.999c14 14.667 30.667 22 50 22c38 0 57 -19.333 57 -58c0 -22.667 -6.83301 -41.334 -20.5 -56.001s-29.667 -22 -48 -22
s-32.833 6 -43.5 18s-16 27.333 -16 46s7 35.334 21 50.001zM122.003 705.999c14 14.667 30.332 21.998 48.999 21.998s33 -5.16699 43 -15.5s15 -25.666 15 -45.999s-7 -37.833 -21 -52.5s-30.167 -22 -48.5 -22s-32.666 6 -42.999 18s-15.5 27.333 -15.5 46
s7 35.334 21 50.001z" />
    <glyph glyph-name="igrave" unicode="&#xec;" 
d="M192 509l-12 -249l11 -235l-134 -25l12 243l-11 241zM5 623l11.001 102c85.333 -32 161.666 -58 228.999 -78l-5 -72z" />
    <glyph glyph-name="iacute" unicode="&#xed;" 
d="M192 509l-12 -249l11 -235l-134 -25l12 243l-11 241zM234 725l10.999 -102c-87.333 -20 -165.666 -36 -234.999 -48l-5 72c56.667 16.667 133 42.667 229 78z" />
    <glyph glyph-name="icircumflex" unicode="&#xee;" 
d="M123 566l-144 85l15 62l129 -47l131 47l15 -62zM192 509l-12 -249l11 -235l-134 -25l12 243l-11 241z" />
    <glyph glyph-name="idieresis" unicode="&#xef;" 
d="M192 509l-12 -249l11 -235l-134 -25l12 243l-11 241zM-1 706c14 14.667 30.332 21.998 48.999 21.998s33 -5.16699 43 -15.5s15 -25.666 15 -45.999s-7 -37.833 -21 -52.5s-30.167 -22 -48.5 -22s-32.666 6 -42.999 18s-15.5 27.333 -15.5 46s7 35.334 21 50.001z
M160.999 705.998c14 14.667 30.333 22 49 22c38.667 0 58 -19.333 58 -58c0 -22.667 -6.83301 -41.334 -20.5 -56.001s-29.667 -22 -48 -22s-32.833 6 -43.5 18s-16 27.333 -16 46s7 35.334 21 50.001z" />
    <glyph glyph-name="eth" unicode="&#xf0;" horiz-adv-x="514" 
d="M485 261c0 -77.333 -23.334 -142 -70.001 -194s-105.334 -78 -176.001 -78c-58 0 -107.667 21.667 -149 65s-62 95.666 -62 156.999c0 76.667 19.333 138.5 58 185.5s88.667 70.5 150 70.5c28.667 0 55.334 -7.33301 80.001 -22c-25.333 48 -60.666 95.333 -105.999 142
l-143 -75l-9 45l119 62c-39.333 36 -80 70 -122 102l128 59c26 -26 59 -61 99 -105l135 71l11 -46l-116 -60c60.667 -72.667 104.667 -139.167 132 -199.5s41 -120.166 41 -179.499zM340.499 127c19 22 28.499 54.166 28.499 96.499s-5 83.5 -15 123.5
c-33.333 16 -65.666 24 -96.999 24c-72 0 -108 -46.333 -108 -139c0 -41.333 10 -74.666 30 -99.999s47.167 -38 81.5 -38s61 11 80 33z" />
    <glyph glyph-name="ntilde" unicode="&#xf1;" horiz-adv-x="523" 
d="M336 345c-8 15.333 -26.667 23.002 -56 23.002s-62.666 -11.667 -99.999 -35v-73l11 -235l-134 -25l12 243c-2.66699 89.333 -10 169.333 -22 240l121 26c4.66699 -38.667 8 -76.334 10 -113.001c10 13.333 21.333 26.5 34 39.5s32.667 27.667 60 44
s56.166 24.5 86.499 24.5s55.833 -11.833 76.5 -35.5s31 -55.834 31 -96.501l-6 -112l11 -240l-135 -25l12 258c0 46 -4 76.667 -12 92zM414 703.002l28 -43c-18.667 -22.667 -38.167 -42.667 -58.5 -60s-35.833 -26 -46.5 -26c-10 1.33301 -32.167 8.33301 -66.5 21
s-56.5 19.667 -66.5 21l-66 -42l-28 43c18.667 22.667 38.167 42.667 58.5 60s35.833 26 46.5 26c10 -1.33301 32.167 -8.33301 66.5 -21s56.5 -19.667 66.5 -21z" />
    <glyph glyph-name="ograve" unicode="&#xf2;" horiz-adv-x="482" 
d="M97 426c46 59.333 99.8311 89.001 161.498 89.001s109.667 -20 144 -60s51.5 -93 51.5 -159c0 -88 -22.167 -161.167 -66.5 -219.5s-100.166 -87.5 -167.499 -87.5c-55.333 0 -101.166 20.833 -137.499 62.5s-54.5 94.167 -54.5 157.5c0 85.333 23 157.666 69 216.999z
M341.998 244.001c0 96.667 -33 145 -99 145c-68.667 0 -103 -45.333 -103 -136c0 -47.333 9.66699 -84.333 29 -111s44.833 -40 76.5 -40s55.667 12.167 72 36.5s24.5 59.5 24.5 105.5zM125.998 623.001l11.001 102c85.333 -32 161.666 -58 228.999 -78l-5 -72z" />
    <glyph glyph-name="oacute" unicode="&#xf3;" horiz-adv-x="482" 
d="M97 426c46 59.333 99.8311 89.001 161.498 89.001s109.667 -20 144 -60s51.5 -93 51.5 -159c0 -88 -22.167 -161.167 -66.5 -219.5s-100.166 -87.5 -167.499 -87.5c-55.333 0 -101.166 20.833 -137.499 62.5s-54.5 94.167 -54.5 157.5c0 85.333 23 157.666 69 216.999z
M341.998 244.001c0 96.667 -33 145 -99 145c-68.667 0 -103 -45.333 -103 -136c0 -47.333 9.66699 -84.333 29 -111s44.833 -40 76.5 -40s55.667 12.167 72 36.5s24.5 59.5 24.5 105.5zM354.998 725.001l11 -102c-87.333 -20 -165.666 -36 -234.999 -48l-5 72
c57.333 16.667 133.666 42.667 228.999 78z" />
    <glyph glyph-name="ocircumflex" unicode="&#xf4;" horiz-adv-x="482" 
d="M244 566l-144 85l15 62l129 -47l131 47l15 -62zM97 426c46 59.333 99.8311 89.001 161.498 89.001s109.667 -20 144 -60s51.5 -93 51.5 -159c0 -88 -22.167 -161.167 -66.5 -219.5s-100.166 -87.5 -167.499 -87.5c-55.333 0 -101.166 20.833 -137.499 62.5
s-54.5 94.167 -54.5 157.5c0 85.333 23 157.666 69 216.999zM341.998 244.001c0 96.667 -33 145 -99 145c-68.667 0 -103 -45.333 -103 -136c0 -47.333 9.66699 -84.333 29 -111s44.833 -40 76.5 -40s55.667 12.167 72 36.5s24.5 59.5 24.5 105.5z" />
    <glyph glyph-name="otilde" unicode="&#xf5;" horiz-adv-x="482" 
d="M97 426c46 59.333 99.8311 89.001 161.498 89.001s109.667 -20 144 -60s51.5 -93 51.5 -159c0 -88 -22.167 -161.167 -66.5 -219.5s-100.166 -87.5 -167.499 -87.5c-55.333 0 -101.166 20.833 -137.499 62.5s-54.5 94.167 -54.5 157.5c0 85.333 23 157.666 69 216.999z
M341.998 244.001c0 96.667 -33 145 -99 145c-68.667 0 -103 -45.333 -103 -136c0 -47.333 9.66699 -84.333 29 -111s44.833 -40 76.5 -40s55.667 12.167 72 36.5s24.5 59.5 24.5 105.5zM381.998 703.001l28 -43c-18.667 -22.667 -38.167 -42.667 -58.5 -60
s-35.833 -26 -46.5 -26c-10 1.33301 -32.167 8.33301 -66.5 21s-56.5 19.667 -66.5 21l-66 -42l-28 43c18.667 22.667 38.167 42.667 58.5 60s35.833 26 46.5 26c10 -1.33301 32.167 -8.33301 66.5 -21s56.5 -19.667 66.5 -21z" />
    <glyph glyph-name="odieresis" unicode="&#xf6;" horiz-adv-x="482" 
d="M97 426c46 59.333 99.8311 89.001 161.498 89.001s109.667 -20 144 -60s51.5 -93 51.5 -159c0 -88 -22.167 -161.167 -66.5 -219.5s-100.166 -87.5 -167.499 -87.5c-55.333 0 -101.166 20.833 -137.499 62.5s-54.5 94.167 -54.5 157.5c0 85.333 23 157.666 69 216.999z
M341.998 244.001c0 96.667 -33 145 -99 145c-68.667 0 -103 -45.333 -103 -136c0 -47.333 9.66699 -84.333 29 -111s44.833 -40 76.5 -40s55.667 12.167 72 36.5s24.5 59.5 24.5 105.5zM119.998 706.001c14 14.667 30.332 21.998 48.999 21.998s33 -5.16699 43 -15.5
s15 -25.666 15 -45.999s-7 -37.833 -21 -52.5s-30.167 -22 -48.5 -22s-32.666 6 -42.999 18s-15.5 27.333 -15.5 46s7 35.334 21 50.001zM281.997 705.999c14 14.667 30.667 22 50 22c38 0 57 -19.333 57 -58c0 -22.667 -6.83301 -41.334 -20.5 -56.001s-29.667 -22 -48 -22
s-32.833 6 -43.5 18s-16 27.333 -16 46s7 35.334 21 50.001z" />
    <glyph glyph-name="divide" unicode="&#xf7;" horiz-adv-x="425" 
d="M17 215l8 91h383l-8 -91h-383zM162.5 478.5c15.667 16.333 34.167 24.501 55.5 24.501c44 0 66 -22 66 -66c0 -25.333 -7.83301 -46.333 -23.5 -63s-34 -25 -55 -25s-37.333 6.83301 -49 20.5s-17.5 31.167 -17.5 52.5s7.83301 40.166 23.5 56.499zM162.5 146.501
c15.667 16.333 34.167 24.501 55.5 24.501c44 0 66 -22 66 -66c0 -25.333 -7.83301 -46.333 -23.5 -63s-34 -25 -55 -25s-37.333 6.83301 -49 20.5s-17.5 31.167 -17.5 52.5s7.83301 40.166 23.5 56.499z" />
    <glyph glyph-name="oslash" unicode="&#xf8;" horiz-adv-x="482" 
d="M265 515c30.667 0 58.666 -6.33105 83.999 -18.998l64 115l44 -18l-69 -124c44 -40 66 -100.833 66 -182.5s-22.167 -151.667 -66.5 -210s-100.166 -87.5 -167.499 -87.5c-29.333 0 -58 7 -86 21l-60 -109l-43 19l65 117c-45.333 43.333 -68 100.666 -68 171.999
c0 85.333 23 157.666 69 216.999s102 89 168 89zM317.499 138.502c16.333 24.333 24.499 59.333 24.499 105s-7 80.5 -21 104.5l-127 -231c14.667 -10 34.834 -15 60.501 -15s46.667 12.167 63 36.5zM139.998 253.002c0 -40.667 7 -73.333 21 -98l125 226
c-12.667 5.33301 -27 8 -43 8c-68.667 0 -103 -45.333 -103 -136z" />
    <glyph glyph-name="ugrave" unicode="&#xf9;" horiz-adv-x="510" 
d="M178 0c-36 0 -65.167 11.832 -87.5 35.499s-33.5 54.834 -33.5 93.501l6 115l-11 240l134 25l-13 -304c0 -28.667 5.16699 -49.667 15.5 -63s26.833 -20 49.5 -20s54 11.333 94 34v60l-11 263l135 25l-12 -250l1 -82c0 -42.667 11 -85.667 33 -129l-104 -46
c-22 43.333 -35.333 78 -40 104c-60 -67.333 -112 -101 -156 -101zM140 622.999l11.001 102c85.333 -32 161.666 -58 228.999 -78l-5 -72z" />
    <glyph glyph-name="uacute" unicode="&#xfa;" horiz-adv-x="510" 
d="M178 0c-36 0 -65.167 11.832 -87.5 35.499s-33.5 54.834 -33.5 93.501l6 115l-11 240l134 25l-13 -304c0 -28.667 5.16699 -49.667 15.5 -63s26.833 -20 49.5 -20s54 11.333 94 34v60l-11 263l135 25l-12 -250l1 -82c0 -42.667 11 -85.667 33 -129l-104 -46
c-22 43.333 -35.333 78 -40 104c-60 -67.333 -112 -101 -156 -101zM369 724.999l10.999 -102c-87.333 -20 -165.666 -36 -234.999 -48l-5 72c56.667 16.667 133 42.667 229 78z" />
    <glyph glyph-name="ucircumflex" unicode="&#xfb;" horiz-adv-x="510" 
d="M178 0c-36 0 -65.167 11.832 -87.5 35.499s-33.5 54.834 -33.5 93.501l6 115l-11 240l134 25l-13 -304c0 -28.667 5.16699 -49.667 15.5 -63s26.833 -20 49.5 -20s54 11.333 94 34v60l-11 263l135 25l-12 -250l1 -82c0 -42.667 11 -85.667 33 -129l-104 -46
c-22 43.333 -35.333 78 -40 104c-60 -67.333 -112 -101 -156 -101zM258 565.999l-144 85l15 62l129 -47l131 47l15 -62z" />
    <glyph glyph-name="udieresis" unicode="&#xfc;" horiz-adv-x="510" 
d="M178 0c-36 0 -65.167 11.832 -87.5 35.499s-33.5 54.834 -33.5 93.501l6 115l-11 240l134 25l-13 -304c0 -28.667 5.16699 -49.667 15.5 -63s26.833 -20 49.5 -20s54 11.333 94 34v60l-11 263l135 25l-12 -250l1 -82c0 -42.667 11 -85.667 33 -129l-104 -46
c-22 43.333 -35.333 78 -40 104c-60 -67.333 -112 -101 -156 -101zM296 705.999c14 14.667 30.667 22 50 22c38 0 57 -19.333 57 -58c0 -22.667 -6.83301 -41.334 -20.5 -56.001s-29.667 -22 -48 -22s-32.833 6 -43.5 18s-16 27.333 -16 46s7 35.334 21 50.001zM134 705.999
c14 14.667 30.332 21.998 48.999 21.998s33 -5.16699 43 -15.5s15 -25.666 15 -45.999s-7 -37.833 -21 -52.5s-30.167 -22 -48.5 -22s-32.666 6 -42.999 18s-15.5 27.333 -15.5 46s7 35.334 21 50.001z" />
    <glyph glyph-name="yacute" unicode="&#xfd;" horiz-adv-x="465" 
d="M72 -193l103 231l-74 202l-101 243l133 25l64 -213l33 -101h13l24 73l72 242l123 -15l-177 -465l-84 -249zM344 725l10.999 -102c-87.333 -20 -165.666 -36 -234.999 -48l-5 72c56.667 16.667 133 42.667 229 78z" />
    <glyph glyph-name="thorn" unicode="&#xfe;" horiz-adv-x="499" 
d="M323 505c42.667 0 78.499 -18.667 107.499 -56s43.5 -87.666 43.5 -150.999c0 -88.667 -22.833 -160.5 -68.5 -215.5s-102.5 -82.5 -170.5 -82.5c-14 0 -29.667 1 -47 3l5 -191l-137 -25l13 456l-12 506l137 25l-13 -258v-109
c6.66699 9.33301 15.334 20.166 26.001 32.499s27.5 26.333 50.5 42s44.833 23.5 65.5 23.5zM283.999 375c-35.333 0 -69.667 -9.66699 -103 -29v-86l4 -143c36 -6 63.333 -9 82 -9c64 0 96 44.5 96 133.5s-26.333 133.5 -79 133.5zM180.998 260l-111 -17z" />
    <glyph glyph-name="ydieresis" unicode="&#xff;" horiz-adv-x="465" 
d="M72 -193l103 231l-74 202l-101 243l133 25l64 -213l33 -101h13l24 73l72 242l123 -15l-177 -465l-84 -249zM109 706c14 14.667 30.332 21.998 48.999 21.998s33 -5.16699 43 -15.5s15 -25.666 15 -45.999s-7 -37.833 -21 -52.5s-30.167 -22 -48.5 -22
s-32.666 6 -42.999 18s-15.5 27.333 -15.5 46s7 35.334 21 50.001zM270.999 705.998c14 14.667 30.333 22 49 22c38.667 0 58 -19.333 58 -58c0 -22.667 -6.83301 -41.334 -20.5 -56.001s-29.667 -22 -48 -22s-32.833 6 -43.5 18s-16 27.333 -16 46s7 35.334 21 50.001z" />
    <glyph glyph-name="hbar" unicode="&#x127;" horiz-adv-x="525" 
d="M275 480c26.667 16 55.165 24.001 85.498 24.001s55.833 -11.833 76.5 -35.5s31 -55.834 31 -96.501l-6 -112l11 -240l-135 -25l12 258c0 46 -4 76.667 -12 92s-26.667 23 -56 23s-62.666 -11.667 -99.999 -35v-73l11 -235l-135 -25l12 243l-8 331h-70l5 47h64l-3 128
l137 25l-8 -153h118l-4 -47h-116l-3 -59v-117c10 13.333 21.333 26.333 34 39s32.334 27 59.001 43z" />
    <glyph glyph-name="Itilde" unicode="&#x128;" horiz-adv-x="302" 
d="M222 695l-14 -435l12 -260h-140l12 243l-12 427zM290 888l28 -43c-18.667 -22.667 -38.167 -42.667 -58.5 -60s-35.833 -26 -46.5 -26c-10 1.33301 -32.167 8.33301 -66.5 21s-56.5 19.667 -66.5 21l-66 -42l-28 43c18.667 22.667 38.167 42.667 58.5 60
s35.833 26 46.5 26c10 -1.33301 32.167 -8.33301 66.5 -21s56.5 -19.667 66.5 -21z" />
    <glyph glyph-name="itilde" unicode="&#x129;" 
d="M192 509l-12 -249l11 -235l-134 -25l12 243l-11 241zM261 703l28 -43c-18.667 -22.667 -38.167 -42.667 -58.5 -60s-35.833 -26 -46.5 -26c-10 1.33301 -32.167 8.33301 -66.5 21s-56.5 19.667 -66.5 21l-66 -42l-28 43c18.667 22.667 38.167 42.667 58.5 60
s35.833 26 46.5 26c10 -1.33301 32.167 -8.33301 66.5 -21s56.5 -19.667 66.5 -21z" />
    <glyph glyph-name="dotlessi" unicode="&#x131;" 
d="M192 509l-12 -249l11 -235l-134 -25l12 243l-11 241z" />
    <glyph glyph-name="ij" unicode="&#x133;" horiz-adv-x="491" 
d="M192 509l-12 -249l11 -235l-134 -25l12 243l-11 241zM77 715.5c17.333 17.667 37.333 26.501 60 26.501s40 -6.16699 52 -18.5s18 -30.833 18 -55.5s-8.5 -45.834 -25.5 -63.501s-36.667 -26.5 -59 -26.5s-39.833 7.33301 -52.5 22s-19 33.167 -19 55.5
s8.66699 42.333 26 60zM247 -219.999c-27.333 0 -54.6699 3 -82.0029 9l31 114c22.667 -6 43.834 -9 63.501 -9s33.834 7.33301 42.501 22s13 41 13 79l-1 248l-11 241l134 25l-12 -249l11 -226c0 -69.333 -18.667 -129 -56 -179s-81.666 -75 -132.999 -75zM321.996 715.501
c17.333 17.667 37.5 26.499 60.5 26.499s40.333 -6.16699 52 -18.5s17.5 -30.666 17.5 -54.999s-8.33301 -45.5 -25 -63.5s-36.167 -27 -58.5 -27s-40 7 -53 21s-19.5 32.5 -19.5 55.5s8.66699 43.333 26 61z" />
    <glyph glyph-name="Jcircumflex" unicode="&#x134;" horiz-adv-x="353" 
d="M215 751l-144 85l15 62l129 -47l131 47l15 -62zM82 -10c-27.333 0 -54.668 3 -82.001 9l32 120c22 -7.33301 43.333 -11 64 -11c40.667 0 61 33.667 61 101l-14 461l142 25l-14 -451c0 -72.667 -17.667 -133.167 -53 -181.5s-80.666 -72.5 -135.999 -72.5z" />
    <glyph glyph-name="jcircumflex" unicode="&#x135;" horiz-adv-x="247" 
d="M3 -220c-27.333 0 -54.6699 3 -82.0029 9l31 114c22.667 -6 43.834 -9 63.501 -9s33.834 7.33301 42.501 22s13 41 13 79l-1 248l-11 241l134 25l-12 -249l11 -226c0 -69.333 -18.667 -129 -56 -179s-81.666 -75 -132.999 -75zM121.996 566l-144 85l15 62l129 -47l131 47
l15 -62z" />
    <glyph glyph-name="kcedilla" unicode="&#x137;" horiz-adv-x="482" 
d="M147 -125c0 20.667 -23.001 34 -69.001 40l18 92l-38 -7l12 243l-12 506l137 25l-13 -483l200 219l94 -64l-175 -164l183 -216l-114 -76l-188 277v-7l11 -235l-32 -6l-11 -59c26.667 -6.66699 47.167 -16.5 61.5 -29.5s21.5 -28.167 21.5 -45.5
c0 -24.667 -13.667 -47 -41 -67s-61.666 -32.667 -102.999 -38l-32 44c60 10.667 90 27.667 90 51z" />
    <glyph glyph-name="kgreenlandic" unicode="&#x138;" horiz-adv-x="482" 
d="M192 509l-11 -219l201 220l94 -64l-175 -164l183 -216l-114 -76l-190 280v-10l11 -235l-134 -25l12 243l-11 241z" />
    <glyph glyph-name="ldot" unicode="&#x140;" horiz-adv-x="377" 
d="M195 774l-13 -514l11 -235l-135 -25l12 243l-12 506zM245.5 351.5c15.667 16.333 34.5 24.501 56.5 24.501c43.333 0 65 -22 65 -66c0 -25.333 -7.83301 -46.333 -23.5 -63s-34 -25 -55 -25s-37.333 6.83301 -49 20.5s-17.5 31.167 -17.5 52.5
s7.83301 40.166 23.5 56.499z" />
    <glyph glyph-name="Lslash" unicode="&#x141;" horiz-adv-x="446" 
d="M242 695l-8 -244l115 64l20 -44l-137 -76l-4 -135l7 -162l205 16l-11 -114h-329l12 243l-3 85l-88 -49l-18 44l105 58l-8 289z" />
    <glyph glyph-name="lslash" unicode="&#x142;" horiz-adv-x="273" 
d="M205 774l-8 -304l81 45l20 -44l-102 -57l-4 -154l11 -235l-135 -25l12 243l-3 106l-78 -43l-18 44l95 53l-8 346z" />
    <glyph glyph-name="Nacute" unicode="&#x143;" horiz-adv-x="689" 
d="M609 692l-13 -432l11 -238l-118 -25l-298 482v-219l14 -260h-125l12 243l-12 444l120 6l297 -489l-10 473zM456 910l10.999 -102c-87.333 -20 -165.666 -36 -234.999 -48l-5 72c56.667 16.667 133 42.667 229 78z" />
    <glyph glyph-name="nacute" unicode="&#x144;" horiz-adv-x="523" 
d="M336 345c-8 15.333 -26.667 23.002 -56 23.002s-62.666 -11.667 -99.999 -35v-73l11 -235l-134 -25l12 243c-2.66699 89.333 -10 169.333 -22 240l121 26c4.66699 -38.667 8 -76.334 10 -113.001c10 13.333 21.333 26.5 34 39.5s32.667 27.667 60 44
s56.166 24.5 86.499 24.5s55.833 -11.833 76.5 -35.5s31 -55.834 31 -96.501l-6 -112l11 -240l-135 -25l12 258c0 46 -4 76.667 -12 92zM387 725.002l11 -102c-87.333 -20 -165.666 -36 -234.999 -48l-5 72c57.333 16.667 133.666 42.667 228.999 78z" />
    <glyph glyph-name="OE" unicode="&#x152;" horiz-adv-x="893" 
d="M301 0c-76.667 0 -141.001 29.833 -193.001 89.5s-78 133.167 -78 220.5c0 106.667 31.833 196.667 95.5 270s141.834 110 234.501 110h477l-11 -107h-260l-6 -177h235l-11 -106h-228l-1 -40l7 -154h277l-11 -106h-527zM338.999 573c-54 0 -96.333 -18.332 -127 -54.999
s-46 -87.334 -46 -152.001c0 -84.667 16 -150 48 -196s77.333 -69 136 -69c34 0 57.167 5 69.5 15s18.5 29.333 18.5 58l-3 319c0 34 -6 55.833 -18 65.5s-38 14.5 -78 14.5z" />
    <glyph glyph-name="oe" unicode="&#x153;" horiz-adv-x="777" 
d="M569 102c19.333 0 39.6699 4.99902 61.0029 14.999s38 20 50 30l18 15l46 -56c-6.66699 -11.333 -17 -24.333 -31 -39s-28.167 -27.167 -42.5 -37.5s-33.333 -19.666 -57 -27.999s-48.167 -12.5 -73.5 -12.5c-68.667 0 -119.667 32.667 -153 98
c-42.667 -65.333 -98.334 -98 -167.001 -98c-55.333 0 -101.166 20.833 -137.499 62.5s-54.5 94.167 -54.5 157.5c0 85.333 23 157.666 69 216.999s102 89 168 89c35.333 0 66.666 -9.16699 93.999 -27.5s48.333 -43.833 63 -76.5c47.333 69.333 104.666 104 171.999 104
c48.667 0 86.5 -13.667 113.5 -41s40.5 -65.666 40.5 -114.999c0 -24 -5 -57.333 -15 -100l-20 -21l-250 -22c11.333 -76 46.666 -114 105.999 -114zM243.004 388.999c-68.667 0 -103 -45.333 -103 -136c0 -47.333 9.66699 -84.333 29 -111s45 -40 77 -40
c64 0 96 47.833 96 143.5s-33 143.5 -99 143.5zM569.004 411.999c-28.667 0 -53 -11.833 -73 -35.5s-31.667 -54.167 -35 -91.5l169 22c2 15.333 3 28 3 38c0 44.667 -21.333 67 -64 67z" />
    <glyph glyph-name="Racute" unicode="&#x154;" horiz-adv-x="579" 
d="M259 266l-57 0.000976562v-6l12 -260h-134l12 243l-12 447h217c64 0 115 -17.333 153 -52s57 -80.667 57 -138c0 -43.333 -11.167 -82.833 -33.5 -118.5s-52.5 -63.834 -90.5 -84.501l174 -246l-121 -62l-156 278c-4.66699 -0.666992 -11.667 -1 -21 -1zM261 589.001
h-48.999l-7 -226h68c33.333 0 59.166 11 77.499 33s27.5 53.333 27.5 94c0 66 -39 99 -117 99zM395.001 910.001l11 -102c-87.333 -20 -165.666 -36 -234.999 -48l-5 72c57.333 16.667 133.666 42.667 228.999 78z" />
    <glyph glyph-name="Rcommaaccent" unicode="&#x156;" horiz-adv-x="579" 
d="M259 266l-57 0.000976562v-6l12 -260h-134l12 243l-12 447h217c64 0 115 -17.333 153 -52s57 -80.667 57 -138c0 -43.333 -11.167 -82.833 -33.5 -118.5s-52.5 -63.834 -90.5 -84.501l174 -246l-121 -62l-156 278c-4.66699 -0.666992 -11.667 -1 -21 -1zM261 589.001
h-48.999l-7 -226h68c33.333 0 59.166 11 77.499 33s27.5 53.333 27.5 94c0 66 -39 99 -117 99z" />
    <glyph glyph-name="rcommaaccent" unicode="&#x157;" horiz-adv-x="356" 
d="M47 483l120.999 26c6 -51.333 10 -100 12 -146c60.667 94 117.667 141 171 141l-11 -156c-38.667 0 -69.167 -3.5 -91.5 -10.5s-45.166 -20.833 -68.499 -41.5v-36l11 -235l-134 -25l12 243c-2.66699 89.333 -10 169.333 -22 240zM199.999 -127
c0 -56.667 -41.333 -116.667 -124 -180l-41 30c39.333 46 59 85.667 59 119c0 20.667 -8.66699 47 -26 79l98 39c22.667 -28.667 34 -57.667 34 -87z" />
    <glyph glyph-name="Rcaron" unicode="&#x158;" horiz-adv-x="579" 
d="M259 266l-57 0.000976562v-6l12 -260h-134l12 243l-12 447h217c64 0 115 -17.333 153 -52s57 -80.667 57 -138c0 -43.333 -11.167 -82.833 -33.5 -118.5s-52.5 -63.834 -90.5 -84.501l174 -246l-121 -62l-156 278c-4.66699 -0.666992 -11.667 -1 -21 -1zM261 589.001
h-48.999l-7 -226h68c33.333 0 59.166 11 77.499 33s27.5 53.333 27.5 94c0 66 -39 99 -117 99zM284.001 751.001l-144 85l15 62l129 -47l131 47l15 -62z" />
    <glyph glyph-name="rcaron" unicode="&#x159;" horiz-adv-x="356" 
d="M47 483l120.999 26c6 -51.333 10 -100 12 -146c60.667 94 117.667 141 171 141l-11 -156c-38.667 0 -69.167 -3.5 -91.5 -10.5s-45.166 -20.833 -68.499 -41.5v-36l11 -235l-134 -25l12 243c-2.66699 89.333 -10 169.333 -22 240zM116.999 566l-115 85l12 62l103 -47
l105 47l12 -62z" />
    <glyph glyph-name="circumflex" unicode="&#x2c6;" 
d="M121 566l-144 85l15 62l129 -47l131 47l15 -62z" />
    <glyph glyph-name="tilde" unicode="&#x2dc;" 
d="M260 703l28 -43c-18.667 -22.667 -38.167 -42.667 -58.5 -60s-35.833 -26 -46.5 -26c-10 1.33301 -32.167 8.33301 -66.5 21s-56.5 19.667 -66.5 21l-66 -42l-28 43c18.667 22.667 38.167 42.667 58.5 60s35.833 26 46.5 26c10 -1.33301 32.167 -8.33301 66.5 -21
s56.5 -19.667 66.5 -21z" />
    <glyph glyph-name="endash" unicode="&#x2013;" horiz-adv-x="425" 
d="M-8 215l8 91h433l-8 -91h-433z" />
    <glyph glyph-name="emdash" unicode="&#x2014;" horiz-adv-x="551" 
d="M-8 215l8 91h559l-8 -91h-559z" />
    <glyph glyph-name="quoteleft" unicode="&#x2018;" horiz-adv-x="193" 
d="M18 464c0 56.667 41.333 116.667 124 180l41 -30c-39.333 -46 -59 -85.667 -59 -119c0 -20.667 8.66699 -47 26 -79l-98 -39c-22.667 28.667 -34 57.667 -34 87z" />
    <glyph glyph-name="quoteright" unicode="&#x2019;" horiz-adv-x="193" 
d="M175 557c0 -56.667 -41.333 -116.667 -124 -180l-41 30c39.333 46 59 85.667 59 119c0 20.667 -8.66699 47 -26 79l98 39c22.667 -28.667 34 -57.667 34 -87z" />
    <glyph glyph-name="quotesinglbase" unicode="&#x201a;" horiz-adv-x="205" 
d="M165 67c0 -56.667 -41.333 -116.667 -124 -180l-41 30c39.333 46 59 85.667 59 119c0 20.667 -8.66699 47 -26 79l98 39c22.667 -28.667 34 -57.667 34 -87z" />
    <glyph glyph-name="quotedblleft" unicode="&#x201c;" horiz-adv-x="363" 
d="M18 464c0 56.667 41.333 116.667 124 180l41 -30c-39.333 -46 -59 -85.667 -59 -119c0 -20.667 8.66699 -47 26 -79l-98 -39c-22.667 28.667 -34 57.667 -34 87zM188 464c0 56.667 41.333 116.667 124 180l41 -30c-39.333 -46 -59 -85.667 -59 -119
c0 -20.667 8.66699 -47 26 -79l-98 -39c-22.667 28.667 -34 57.667 -34 87z" />
    <glyph glyph-name="quotedblright" unicode="&#x201d;" horiz-adv-x="363" 
d="M175 557c0 -56.667 -41.333 -116.667 -124 -180l-41 30c39.333 46 59 85.667 59 119c0 20.667 -8.66699 47 -26 79l98 39c22.667 -28.667 34 -57.667 34 -87zM345 557c0 -56.667 -41.333 -116.667 -124 -180l-41 30c39.333 46 59 85.667 59 119
c0 20.667 -8.66699 47 -26 79l98 39c22.667 -28.667 34 -57.667 34 -87z" />
    <glyph glyph-name="quotedblbase" unicode="&#x201e;" horiz-adv-x="375" 
d="M165 67c0 -56.667 -41.333 -116.667 -124 -180l-41 30c39.333 46 59 85.667 59 119c0 20.667 -8.66699 47 -26 79l98 39c22.667 -28.667 34 -57.667 34 -87zM335 67c0 -56.667 -41.333 -116.667 -124 -180l-41 30c39.333 46 59 85.667 59 119
c0 20.667 -8.66699 47 -26 79l98 39c22.667 -28.667 34 -57.667 34 -87z" />
    <glyph glyph-name="bullet" unicode="&#x2022;" horiz-adv-x="298" 
d="M75.5 340c23.667 24.667 51.5 37 83.5 37s56.333 -8.66699 73 -26s25 -43.333 25 -78s-11.667 -64.5 -35 -89.5s-50.833 -37.5 -82.5 -37.5s-56.167 10.167 -73.5 30.5s-26 46.5 -26 78.5s11.833 60.333 35.5 85z" />
    <glyph glyph-name="guilsinglleft" unicode="&#x2039;" horiz-adv-x="247" 
d="M127 265l105 -136l-58 -48l-167 177l167 187l58 -48z" />
    <glyph glyph-name="guilsinglright" unicode="&#x203a;" horiz-adv-x="247" 
d="M120 261l-105 136l58 48l167 -177l-167 -187l-58 48z" />
    <glyph glyph-name="Euro" unicode="&#x20ac;" horiz-adv-x="586" 
d="M280 142.5c23.333 -23 50.999 -34.4971 82.999 -34.4971s59.667 9.16699 83 27.5s40 42.833 50 73.5l80 -46c-20.667 -54.667 -52 -97.334 -94 -128.001s-91.833 -46 -149.5 -46s-109.167 24 -154.5 72s-72.333 108.667 -81 182h-84l5 47h77c0 28 2.33301 53.667 7 77
h-89l5 47h95c20.667 70.667 55.834 127.667 105.501 171s106.167 65 169.5 65c32 0 61.833 -3.33301 89.5 -10s47.167 -13.334 58.5 -20.001l18 -10l-65 -132c-16 13.333 -36.167 25.166 -60.5 35.499s-50 15.5 -77 15.5s-51.667 -10 -74 -30s-38.166 -48.333 -47.499 -85
h226l-4 -47h-229c-0.666992 -6 -1 -17.833 -1 -35.5s0.666992 -31.5 2 -41.5h232l-4 -47h-221c9.33301 -44 25.666 -77.5 48.999 -100.5z" />
    <glyph glyph-name="fi" unicode="&#xfb01;" horiz-adv-x="547" 
d="M269 774c28 0 56.999 -3 86.999 -9l-31 -114c-24.667 6 -47 9 -67 9s-34.5 -6 -43.5 -18s-13.5 -33 -13.5 -63l-1 -94h166l129 24l-12 -249l11 -235l-134 -25l12 243l-8 160h-164l-1 -143l11 -235l-135 -25l12 243l-4 160h-66l11 82h53l-1 75
c0 59.333 18.333 109.833 55 151.5s81.334 62.5 134.001 62.5zM379.999 715.5c17.333 17.667 37.333 26.501 60 26.501s40 -6.16699 52 -18.5s18 -30.833 18 -55.5s-8.5 -45.834 -25.5 -63.501s-36.667 -26.5 -59 -26.5s-39.833 7.33301 -52.5 22s-19 33.167 -19 55.5
s8.66699 42.333 26 60z" />
    <glyph glyph-name="fl" unicode="&#xfb02;" horiz-adv-x="564" 
d="M367 646c-51.333 9.33301 -87.333 14.001 -108 14.001s-35.5 -5.83301 -44.5 -17.5s-13.5 -32.834 -13.5 -63.501l-1 -95h108l-11 -82h-97l-1 -142l11 -235l-135 -25l12 243l-4 159h-66l11 82h53l-1 76c0 60 18.333 110.667 55 152s82.667 62 138 62
c33.333 0 79 -5.66699 137 -17l92 17l-13 -514l11 -235l-135 -25l12 243z" />
    <glyph glyph-name=".null" horiz-adv-x="0" 
 />
    <glyph glyph-name="nonmarkingreturn" horiz-adv-x="333" 
 />
    <glyph glyph-name="foundryicon" horiz-adv-x="783" 
d="M265 342l0.00195312 116h-74v-344h74v180c0 8 8 12 24 12c28.667 0 43 -18.667 43 -56v-136h74v178c0 21.333 -7.33301 38.833 -22 52.5s-33.334 20.5 -56.001 20.5c-36.667 -21.333 -56.334 -32 -59.001 -32s-4 3 -4 9zM435.002 323h25.999
c6.66699 0 10 -3.33301 10 -10v-132c0 -21.333 7.33301 -38.833 22 -52.5s33.334 -20.5 56.001 -20.5l63 37v25c-8 -2.66699 -16.667 -4 -26 -4c-27.333 0 -41 19 -41 57v90c0 6.66699 3.33301 10 10 10h58v36h-58c-6.66699 0 -10 3.33301 -10 10v28h-21l-89 -56v-18z
M180.001 -38c-53.333 0 -80 26.667 -80 80v423c0 53.333 26.667 80 80 80h423c53.333 0 80 -26.667 80 -80v-423c0 -53.333 -26.667 -80 -80 -80h-423z" />
  </font>
</defs>
</svg>
