<?xml version="1.0" standalone="no"?>
<!DOCTYPE svg PUBLIC "-//W3C//DTD SVG 1.1//EN" "http://www.w3.org/Graphics/SVG/1.1/DTD/svg11.dtd" >
<svg>
<metadata>
Created by FontForge 20090914 at Fri Jun 17 00:52:31 2016
 By www-data
&#194;&#169; 2011 Microsoft Corporation. All Rights Reserved.
</metadata>
<defs>
<font id="ComicSansMS-Italic" horiz-adv-x="1087" >
  <font-face 
    font-family="Comic Sans MS"
    font-weight="400"
    font-style="italic"
    font-stretch="normal"
    units-per-em="2048"
    panose-1="3 15 7 2 3 3 2 6 2 4"
    ascent="1638"
    descent="-410"
    x-height="1036"
    cap-height="1569"
    bbox="-719 -621 6120 2257"
    underline-thickness="175"
    underline-position="-185"
    slope="-10"
    unicode-range="U+0020-U+FB02"
  />
<missing-glyph horiz-adv-x="1024" 
d="M127 0l258 1638h768l-258 -1638h-768zM274 127h512l220 1382h-512z" />
    <glyph glyph-name=".notdef" horiz-adv-x="1024" 
d="M127 0l258 1638h768l-258 -1638h-768zM274 127h512l220 1382h-512z" />
    <glyph glyph-name="space" unicode=" " horiz-adv-x="612" 
 />
    <glyph glyph-name="exclam" unicode="!" horiz-adv-x="487" 
d="M390 403c-9.33301 -60 -43.998 -90 -103.998 -90c-50.667 0 -76 22 -76 66l8 75c7.33301 70.667 17.666 145.667 30.999 225l79 483c38.667 242.667 61.667 372.5 69 389.5s18.666 30.333 33.999 40s35.333 14.5 60 14.5c59.333 0 84.333 -30 75 -90zM222.002 -66
c-23.333 0 -45.333 14.8311 -66 44.498s-31 57.5 -31 83.5c0 26.667 11.167 50.334 33.5 71.001s47.166 31 74.499 31c25.333 0 47.833 -14.167 67.5 -42.5s29.5 -56.166 29.5 -83.499c0 -29.333 -11.667 -54 -35 -74s-47.666 -30 -72.999 -30z" />
    <glyph glyph-name="quotedbl" unicode="&#x22;" horiz-adv-x="869" 
d="M338 932c-50 0 -74.999 34.667 -74.999 104c0 43.333 13 131.333 39 264l34 199c4.66699 25.333 16.667 46.333 36 63s41.666 25 66.999 25c50 0 75 -24 75 -72c0 -11.333 -10.667 -80.666 -32 -207.999c-22.667 -108.667 -34.334 -179.334 -35.001 -212.001
c-2.66699 -62 -12.667 -104.667 -30 -128s-43.666 -35 -78.999 -35zM881.001 1407l-72 -389.001c-11.333 -60 -45.333 -90 -102 -90c-54 0 -75.667 29.333 -65 88l63 397c11.333 73.333 27.5 120 48.5 140s45.167 30 72.5 30c50 0 75 -24 75 -72
c0 -15.333 -5.33301 -43.666 -16 -84.999c-2 -8 -3.33301 -14.333 -4 -19z" />
    <glyph glyph-name="numbersign" unicode="#" horiz-adv-x="1726" 
d="M440 578l188 413.002h-268c-53.333 0 -80 24.333 -80 73c0 68.667 54 103 162 103h264c24.667 52.667 46.667 105.667 66 159c40.667 112.667 72.334 182.667 95.001 210s55.667 41 99 41c18 0 33.167 -7.16699 45.5 -21.5s18.5 -30.833 18.5 -49.5
c0 -20.667 -16 -69.334 -48 -146.001l-82 -193h486l145 324c25.333 57.333 61.666 86 108.999 86c50 0 75 -20.667 75 -62c0 -38.667 -45.667 -154.667 -137 -348h195c60.667 0 91 -19.333 91 -58c0 -81.333 -43.333 -122 -130 -122l-94 4h-146l-172 -413h205
c95.333 0 143 -24.667 143 -74c0 -74 -34.667 -111 -104 -111h-321l-142 -323c-29.333 -66 -72.333 -99 -129 -99c-47.333 0 -71 19.667 -71 59c0 37.333 21 101.666 63 192.999l76 170h-500c-34.667 -89.333 -72.167 -173.5 -112.5 -252.5s-69 -125.5 -86 -139.5
s-40.167 -21 -69.5 -21c-46.667 0 -70 19.333 -70 58c0 27.333 13 68.333 39 123l109 232h-191c-46 0 -69 22.333 -69 67s13.333 75.5 40 92.5s52.667 25.5 78 25.5h230zM628 578.002h500l178 413h-487z" />
    <glyph glyph-name="dollar" unicode="$" horiz-adv-x="1420" 
d="M960 1466l3.99707 -0.000976562c75.333 0 154 -13 236 -39s123 -58.333 123 -97c0 -20.667 -8.16699 -41.334 -24.5 -62.001s-43.166 -31 -80.499 -31c-30.667 0 -76.334 6.66699 -137.001 20c-73.333 16.667 -123.666 23.667 -150.999 21l-64 -408
c124.667 -10 222.334 -47.5 293.001 -112.5s106 -145.833 106 -242.5c0 -126 -45.667 -240.667 -137 -344s-227 -174 -407 -212l-41 -264c-4 -25.333 -16 -46.666 -36 -63.999s-43 -26 -69 -26c-59.333 0 -83.666 29.333 -72.999 88l39 254c-300 5.33301 -450 78 -450 218
c0 84 33 126 99 126c32 0 60 -12.333 84 -37c46.667 -46.667 89.5 -77.334 128.5 -92.001s95.167 -23.667 168.5 -27l90 567h-8c-90.667 0 -173.667 23.667 -249 71s-113 113 -113 197c0 98 48.167 191.333 144.5 280s210.5 151.334 342.5 188.001l31 192
c4 24.667 16.333 45.834 37 63.501s43.667 26.5 69 26.5c56 0 80 -28 72 -84zM746.997 1245c-88.667 -31.333 -150.167 -70.167 -184.5 -116.5s-51.5 -89.166 -51.5 -128.499c0 -56.667 59.667 -94.334 179 -113.001zM753.997 155.998
c90.667 30.667 163.667 74.666 219 131.999s83 117 83 179c0 98.667 -73.667 168.334 -221 209.001z" />
    <glyph glyph-name="percent" unicode="%" horiz-adv-x="1680" 
d="M351 1298c0 100 41.5 182.332 124.5 246.999s158.5 97 226.5 97c84 0 149.167 -24.333 195.5 -73s69.5 -113.667 69.5 -195c0 -103.333 -38 -184.833 -114 -244.5s-160 -89.5 -252 -89.5c-80.667 0 -142.5 24.333 -185.5 73s-64.5 110.334 -64.5 185.001zM519 1324
c0 -77.333 36.333 -116 109 -116c31.333 0 67.333 9.33301 108 28s61 57 61 115c0 82.667 -42 124 -126 124c-28.667 0 -61.167 -11.333 -97.5 -34s-54.5 -61.667 -54.5 -117zM1357 1309l-97.999 -162.001l-564 -897l-59 -103c-60 -101.333 -98.833 -156.333 -116.5 -165
s-32.834 -13 -45.501 -13c-20.667 0 -38.167 6.83301 -52.5 20.5s-21.5 29.834 -21.5 48.501c0 34 75.333 167.333 226 400c110.667 164.667 185 280.667 223 348l367 600c54.667 89.333 95 148 121 176s51.667 42 77 42c20 0 37.167 -7.33301 51.5 -22
s21.5 -31.667 21.5 -51c0 -18.667 -8.66699 -39.667 -26 -63c-38 -50.667 -72.667 -103.667 -104 -159zM974.001 228.998c0 102 35.999 194.833 107.999 278.5s161.667 125.5 269 125.5c84.667 0 157.5 -24.167 218.5 -72.5s91.5 -109.166 91.5 -182.499
c0 -94.667 -38 -184.334 -114 -269.001s-175 -127 -297 -127c-85.333 0 -152.666 23 -201.999 69s-74 105.333 -74 178zM1144 254.998c0 -72 51.999 -108 155.999 -108c66.667 0 115.167 23.667 145.5 71s45.5 92.333 45.5 135c0 30.667 -16.333 57 -49 79s-72 33 -118 33
c-55.333 0 -99.166 -23 -131.499 -69s-48.5 -93 -48.5 -141z" />
    <glyph glyph-name="ampersand" unicode="&#x26;" horiz-adv-x="1340" 
d="M869 909c35.333 -118.667 91.332 -260 167.999 -424c22 41.333 38.333 79 49 113c22.667 76.667 43.834 131 63.501 163s43.5 48 71.5 48c46 0 69 -30.333 69 -91c0 -45.333 -13.167 -106.333 -39.5 -183s-68.166 -154 -125.499 -232c78.667 -166 118 -266.333 118 -301
c0 -22 -11.333 -43.5 -34 -64.5s-47.334 -31.5 -74.001 -31.5c-30.667 0 -53.667 17 -69 51l-82 199c-156.667 -131.333 -318 -197 -484 -197c-116 0 -210.833 33.667 -284.5 101s-110.5 150 -110.5 248c0 88.667 30 184.5 90 287.5s215.667 229.5 467 379.5
c-11.333 52.667 -17 105 -17 157c0 132 34 237.167 102 315.5s143.333 117.5 226 117.5c62 0 111.167 -20 147.5 -60s54.5 -92.333 54.5 -157c0 -154 -102 -300.333 -306 -439zM829.999 1083c109.333 82 164 161.665 164 238.998c0 41.333 -16.333 62 -49 62
c-30 0 -57.333 -18.667 -82 -56s-37 -91.666 -37 -162.999c0 -25.333 1.33301 -52.666 4 -81.999zM710.999 810.998c-283.333 -160 -424.999 -317 -424.999 -471c0 -57.333 22.667 -105.5 68 -144.5s103.666 -58.5 174.999 -58.5c135.333 0 261 57.333 377 172
c-40 78.667 -105 246 -195 502z" />
    <glyph glyph-name="quotesingle" unicode="'" horiz-adv-x="795" 
d="M562 1141c-50.667 0 -75.998 19.666 -75.998 58.999c0 10.667 3 37.334 9 80.001c3.33301 14.667 7.66602 58.334 12.999 131.001c11.333 166.667 56 250 134 250c50 0 75 -24 75 -72c0 -12.667 -4.66699 -39 -14 -79c-10.667 -43.333 -18.334 -94.333 -23.001 -153
c-6 -80.667 -17.833 -136.834 -35.5 -168.501s-45.167 -47.5 -82.5 -47.5z" />
    <glyph glyph-name="parenleft" unicode="(" horiz-adv-x="750" 
d="M768 1411l-107.999 -92.001c-86 -73.333 -169.833 -211.166 -251.5 -413.499s-122.5 -410.833 -122.5 -625.5c0 -91.333 13.667 -186 41 -284s87 -182.667 179 -254c28 -26.667 42 -52.667 42 -78c0 -26 -10.333 -48.5 -31 -67.5s-43.334 -28.5 -68.001 -28.5
c-59.333 0 -134.333 56.667 -225 170s-136 286.333 -136 519c0 269.333 51.5 514 154.5 734s207.333 377.5 313 472.5s177.167 142.5 214.5 142.5c20.667 0 38.667 -8.16699 54 -24.5s23 -35.833 23 -58.5c0 -24.667 -26.333 -62 -79 -112z" />
    <glyph glyph-name="parenright" unicode=")" horiz-adv-x="750" 
d="M130 -432c-19.333 0 -36.667 7.16895 -52 21.502s-23 31.5 -23 51.5c0 12.667 5.66699 28.167 17 46.5s48 48.166 110 89.499c133.333 88.667 236.333 231.167 309 427.5s109 390.5 109 582.5c0 108 -8.83301 201.5 -26.5 280.5s-36.667 138.167 -57 177.5
s-59.833 94.666 -118.5 165.999c-30.667 40.667 -46 72 -46 94c0 24 11 46.833 33 68.5s45.667 32.5 71 32.5c31.333 0 78.333 -36 141 -108s112.667 -172.333 150 -301s56 -259.667 56 -393c0 -182 -35.833 -379.333 -107.5 -592s-169.167 -373.167 -292.5 -481.5
s-214.333 -162.5 -273 -162.5z" />
    <glyph glyph-name="asterisk" unicode="*" horiz-adv-x="1085" 
d="M604 1313c11.333 110.667 19.502 177.338 24.502 200.005s17.333 41.667 37 57s41.5 23 65.5 23c51.333 0 77 -24 77 -72l-21 -186c160 24.667 259.667 37 299 37c46.667 0 70 -24.667 70 -74c0 -46.667 -14.5 -76.334 -43.5 -89.001s-128.167 -29.334 -297.5 -50.001
c113.333 -124.667 170 -218.334 170 -281.001c0 -22.667 -10.667 -44.667 -32 -66s-46 -32 -74 -32c-25.333 0 -46.666 12.333 -63.999 37c-22.667 42 -76.334 120.667 -161.001 236c-162 -156 -267.333 -234 -316 -234c-21.333 0 -39.5 7.5 -54.5 22.5
s-22.5 33.5 -22.5 55.5c0 32 18.667 62 56 90s104.333 82.667 201 164c-144.667 49.333 -226.334 80.666 -245.001 93.999s-28 31.666 -28 54.999c0 26.667 10.5 51.5 31.5 74.5s44.833 34.5 71.5 34.5c17.333 0 102.666 -32 255.999 -96z" />
    <glyph glyph-name="plus" unicode="+" horiz-adv-x="984" 
d="M629 557l-38.998 -235.001c-10 -60.667 -44.667 -91 -104 -91c-57.333 0 -82 30.333 -74 91l35 231c-80 -4 -137.333 -6 -172 -6c-95.333 0 -143 25.667 -143 77c0 36 11.167 61.833 33.5 77.5s68.166 23.5 137.499 23.5c35.333 0 92.666 2 171.999 6l17 117
c9.33301 62.667 22.833 111.5 40.5 146.5s45.834 52.5 84.501 52.5c23.333 0 42.333 -7 57 -21s22 -31.333 22 -52c0 -13.333 -7 -46.666 -21 -99.999c-2.66699 -10 -4.33398 -18 -5.00098 -24l-16 -115l73 -4c4.66699 0 37.334 1.66699 98.001 5
c117.333 6.66699 176 -19.333 176 -78c0 -26.667 -9.83301 -51.167 -29.5 -73.5s-43.834 -33.5 -72.501 -33.5l-71 8l-101 -2c-61.333 -1.33301 -94 -1.33301 -98 0z" />
    <glyph glyph-name="comma" unicode="," horiz-adv-x="567" 
d="M155 -271c0 22.667 30.6699 86.834 92.0029 192.501s101.666 168.667 120.999 189s40 30.5 62 30.5c21.333 0 39.166 -7.66699 53.499 -23s21.5 -33 21.5 -53c0 -12 -10 -36 -30 -72s-55 -95.833 -105 -179.5s-81.167 -130.834 -93.5 -141.501s-28.833 -16 -49.5 -16
s-37.834 7 -51.501 21s-20.5 31.333 -20.5 52z" />
    <glyph glyph-name="hyphen" unicode="-" horiz-adv-x="853" 
d="M254 461c-48.667 0 -72.999 19 -72.999 57c0 65.333 32.667 98 98 98c66 0 145.667 2.33301 239 7c84 5.33301 163.333 8 238 8c51.333 0 77 -20 77 -60c0 -47.333 -21.333 -77.5 -64 -90.5s-214.334 -19.5 -515.001 -19.5z" />
    <glyph glyph-name="period" unicode="." horiz-adv-x="510" 
d="M143 11c0 36.667 14.998 70 44.998 100s63.667 45 101 45c31.333 0 56.833 -10.667 76.5 -32s29.5 -46 29.5 -74c0 -37.333 -15.167 -70.333 -45.5 -99s-64.166 -43 -101.499 -43c-31.333 0 -56.666 10.167 -75.999 30.5s-29 44.5 -29 72.5z" />
    <glyph glyph-name="slash" unicode="/" horiz-adv-x="1048" 
d="M1192 1483l-155.999 -273.001c-107.333 -187.333 -193.333 -329.333 -258 -426l-284 -413l-244 -402c-24 -39.333 -54 -59 -90 -59c-22.667 0 -41.834 7.16699 -57.501 21.5s-23.5 31.833 -23.5 52.5c0 52.667 135.333 274.334 406 665.001
c189.333 274 320.666 481.667 393.999 623c124 236 208.667 354 254 354c18.667 0 36.334 -6.66699 53.001 -20s25 -31.333 25 -54c0 -18 -6.33301 -41 -19 -69z" />
    <glyph glyph-name="zero" unicode="0" horiz-adv-x="1250" 
d="M132 527c0 293.333 69.499 537.833 208.499 733.5s310.833 293.5 515.5 293.5c146.667 0 256.834 -50.167 330.501 -150.5s110.5 -227.833 110.5 -382.5c0 -128.667 -27.833 -286.667 -83.5 -474s-137.5 -331.833 -245.5 -433.5s-240.333 -152.5 -397 -152.5
c-292.667 0 -439 188.667 -439 566zM327.999 544c0 -260 91.333 -389.999 274 -389.999c159.333 0 281.333 95.667 366 287s127 384.666 127 579.999c0 227.333 -90 341 -270 341c-139.333 0 -257 -76.5 -353 -229.5s-144 -349.167 -144 -588.5z" />
    <glyph glyph-name="one" unicode="1" horiz-adv-x="922" 
d="M299 0c-54 0 -90.501 4.33105 -109.501 12.998s-28.5 27 -28.5 55c0 78.667 58.333 118 175 118l88 -4c6.66699 56.667 11.334 104.667 14.001 144c10 122 42.333 297.333 97 526c46.667 185.333 74 314.333 82 387c-98 -69.333 -160.333 -104 -187 -104
c-26 0 -46.333 8 -61 24s-22 35.667 -22 59c0 38 35.333 81.333 106 130c38 25.333 94.667 66 170 122c68 59.333 128.667 89 182 89c38 0 57 -18 57 -54c0 -17.333 -9.33301 -60.333 -28 -129c-10 -38 -18.667 -101 -26 -189c-4.66699 -60 -32.334 -187.333 -83.001 -382
c-56 -203.333 -86.667 -363.666 -92 -480.999c-5.33301 -70.667 -10 -116 -14 -136l106 2c24 0.666992 43.833 -6.5 59.5 -21.5s23.5 -34.167 23.5 -57.5c0 -31.333 -10.667 -57.666 -32 -78.999s-47.666 -32 -78.999 -32h-398z" />
    <glyph glyph-name="two" unicode="2" horiz-adv-x="1250" 
d="M383 190l210.997 19c88.667 8 190.334 12 305.001 12c55.333 0 104.833 -10 148.5 -30s65.5 -47 65.5 -81c0 -26 -11.167 -51.167 -33.5 -75.5s-48.166 -36.5 -77.499 -36.5c-8.66699 0 -31 5.33301 -67 16c-36 10 -58.333 15 -67 15c-34.667 0 -86.334 -2 -155.001 -6
c-59.333 -4.66699 -110.666 -7 -153.999 -7c-27.333 0 -67 -3.33301 -119 -10c-40.667 -5.33301 -79.334 -8 -116.001 -8l-62 6c-54.667 0 -82 31.667 -82 95c0 84 16.667 167.333 50 250s74.833 148.667 124.5 198s173.834 136 372.501 260
c158.667 96 254.667 176.667 288 242s50 116.666 50 153.999c0 35.333 -22.333 67.5 -67 96.5s-90 43.5 -136 43.5c-61.333 0 -122.666 -17.667 -183.999 -53l-158 -110c-33.333 -23.333 -58.333 -35 -75 -35c-61.333 0 -92 22 -92 66c0 56.667 65.167 125 195.5 205
s245.166 120 344.499 120c108 0 198.5 -28.5 271.5 -85.5s109.5 -126.5 109.5 -208.5c0 -69.333 -24.667 -155.666 -74 -258.999s-178.333 -215.333 -387 -336c-149.333 -85.333 -254.666 -157.833 -315.999 -217.5s-99.333 -139.5 -114 -239.5z" />
    <glyph glyph-name="three" unicode="3" horiz-adv-x="1250" 
d="M930 815c139.333 -52 208.999 -152.001 208.999 -300.001c0 -154 -55.833 -285.833 -167.5 -395.5s-242.5 -164.5 -392.5 -164.5c-112 0 -204.5 24.167 -277.5 72.5s-116.833 112.833 -131.5 193.5l-2 18c-2.66699 26 7.83301 51 31.5 75s52.834 36 87.501 36
c26.667 0 47 -12.333 61 -37l35 -69c33.333 -66 109 -99 227 -99c82 0 156.167 28 222.5 84s99.5 127.667 99.5 215c0 81.333 -28.833 146 -86.5 194s-136.167 77 -235.5 87c-64.667 6.66699 -97 31.667 -97 75c0 48 33.667 83 101 105l248 60
c46.667 11.333 86.667 35.5 120 72.5s50 82.833 50 137.5c0 48 -21.5 86.333 -64.5 115s-102.833 43 -179.5 43c-46 0 -91.667 -11 -137 -33l-125 -69c-28 -15.333 -46.333 -23 -55 -23c-24 0 -43.833 8.33301 -59.5 25s-23.5 36.667 -23.5 60
c0 57.333 53.5 110.5 160.5 159.5s189.167 73.5 246.5 73.5c134.667 0 238.5 -27.667 311.5 -83s109.5 -132.333 109.5 -231c0 -203.333 -95.333 -335.666 -286 -396.999z" />
    <glyph glyph-name="four" unicode="4" horiz-adv-x="1250" 
d="M967 68c-10 -63.333 -46.333 -95.001 -109 -95.001c-56 0 -84 32 -84 96c0 11.333 7 60 21 146l37 227l-439 11c-110 2.66699 -182.667 7.83398 -218 15.501s-53 25.5 -53 53.5c0 31.333 25 73 75 125l100 103l608 716c54 63.333 115.667 95 185 95
c75.333 0 108 -33 98 -99l-133 -831l18 2c30 3.33301 69.833 -0.166992 119.5 -10.5s74.5 -35.5 74.5 -75.5c0 -83.333 -81 -120.333 -243 -111zM965 1282c-190.667 -244 -364 -456.333 -520 -637l417 -10z" />
    <glyph glyph-name="five" unicode="5" horiz-adv-x="1250" 
d="M598 1331c-4 -32 -33.3359 -142.667 -88.0029 -332c102.667 72.667 229.667 109 381 109c120 0 210 -37.5 270 -112.5s90 -172.833 90 -293.5c0 -207.333 -65.167 -386.666 -195.5 -537.999s-299.166 -227 -506.499 -227c-127.333 0 -224.833 29.833 -292.5 89.5
s-101.5 114.167 -101.5 163.5c0 28.667 12.667 54 38 76s51.666 33 78.999 33c28.667 0 52 -14.333 70 -43c33.333 -48.667 63.833 -82 91.5 -100s75.834 -27 144.501 -27c131.333 0 243.5 52.833 336.5 158.5s139.5 233.5 139.5 383.5c0 162.667 -64.667 244 -194 244
c-62 0 -115.5 -7.16699 -160.5 -21.5s-91.833 -42.5 -140.5 -84.5l-127 -121c-31.333 -30 -64 -45 -98 -45c-23.333 0 -42.666 8.16699 -57.999 24.5s-23 35.833 -23 58.5c0 9.33301 5 33 15 71c88.667 343.333 133 528.666 133 555.999c0 14 -2.66699 33 -8 57
c-6 26.667 -9 43.667 -9 51c0 47.333 38.667 71 116 71c6.66699 0 37.667 -1.66699 93 -5l376 7l164 -4c12 0 30.333 2.33301 55 7s43 7 55 7c22.667 0 42.5 -8.16699 59.5 -24.5s25.5 -35.833 25.5 -58.5c0 -84 -85 -126 -255 -126h-35
c-13.333 0 -27.666 0.666992 -42.999 2l-38 2h-19l-170 -2z" />
    <glyph glyph-name="six" unicode="6" horiz-adv-x="1250" 
d="M529 874c122.667 52 212.668 78 270.001 78c136 0 239.833 -32 311.5 -96s107.5 -154.333 107.5 -271c0 -180 -57.333 -334.5 -172 -463.5s-260 -193.5 -436 -193.5c-270 0 -405 148.333 -405 445c0 182.667 46 362.334 138 539.001s229.667 337.667 413 483l110 96
c49.333 43.333 87.666 65 114.999 65c22.667 0 42.5 -8.16699 59.5 -24.5s25.5 -35.833 25.5 -58.5c0 -31.333 -41.333 -82 -124 -152l-235 -199c-60 -50.667 -119.333 -133.334 -178 -248.001zM436.001 641c-22 -78.667 -33 -156 -33 -232c0 -204.667 79.333 -307 238 -307
c119.333 0 211.833 45.833 277.5 137.5s98.5 191.167 98.5 298.5c0 141.333 -92.667 212 -278 212c-29.333 0 -63.333 -4.33301 -102 -13s-105.667 -40.667 -201 -96z" />
    <glyph glyph-name="seven" unicode="7" horiz-adv-x="1250" 
d="M1245 1200c-100 -98 -198.999 -220.999 -296.999 -368.999l-245 -399c-16 -26 -56.333 -102.333 -121 -229c-56 -111.333 -98.667 -184 -128 -218s-59.666 -51 -90.999 -51c-23.333 0 -43.333 7.66699 -60 23s-25 34.333 -25 57c0 29.333 31.667 99 95 209l311 551
c25.333 45.333 76.166 122 152.499 230s153.833 200 232.5 276l25 20l-725 17c-56 1.33301 -84 25.666 -84 72.999c0 34 11.167 62 33.5 84s49.5 33 81.5 33c117.333 0 242.666 -2.66699 375.999 -8c168 -4 294.333 -6 379 -6h182c65.333 0 98 -18 98 -54
c0 -32 -27 -76 -81 -132z" />
    <glyph glyph-name="eight" unicode="8" horiz-adv-x="1250" 
d="M462 782c-90 60.667 -135.002 141.333 -135.002 242c0 136 53.667 253.667 161 353s230.333 149 369 149c242.667 0 364 -103 364 -309c0 -72 -12.667 -143 -38 -213s-97 -133 -215 -189c70.667 -39.333 124.667 -83 162 -131s56 -112.667 56 -194
c0 -170 -54.167 -303 -162.5 -399s-251.166 -144 -428.499 -144c-132 0 -237.167 28.167 -315.5 84.5s-117.5 136.833 -117.5 241.5c0 88.667 23.333 183 70 283s123.334 175.333 230.001 226zM725.998 890.999c100.667 26 175.333 58.668 224 98.001s73 104 73 194
c0 58 -14.333 100 -43 126s-79.667 39 -153 39c-101.333 0 -176.5 -30.667 -225.5 -92s-73.5 -125.333 -73.5 -192c0 -80.667 66 -138.334 198 -173.001zM707.997 715c-109.333 -48.667 -183.833 -89.333 -223.5 -122s-70.5 -74 -92.5 -124s-33 -101.333 -33 -154
c0 -60.667 25.667 -108.167 77 -142.5s114 -51.5 188 -51.5c130.667 0 221.667 33.5 273 100.5s77 143.167 77 228.5c0 118 -88.667 206.333 -266 265z" />
    <glyph glyph-name="nine" unicode="9" horiz-adv-x="1250" 
d="M989 614c-120.667 -57.333 -221.668 -85.998 -303.001 -85.998c-121.333 0 -222.666 34.5 -303.999 103.5s-122 159.833 -122 272.5c0 172.667 56.833 321.167 170.5 445.5s273.167 186.5 478.5 186.5c128 0 228.5 -39 301.5 -117s109.5 -182 109.5 -312
c0 -158 -55.5 -348.333 -166.5 -571s-268.5 -383.334 -472.5 -482.001s-336.667 -148 -398 -148c-52.667 0 -79 27.333 -79 82c0 48 27.667 83.333 83 106l176 58c74 24.667 150.5 63.167 229.5 115.5s158.833 139.166 239.5 260.499zM1079 864.002c28 78 42 145 42 201
c0 86.667 -24 158.5 -72 215.5s-113 85.5 -195 85.5c-142 0 -244 -43.833 -306 -131.5s-93 -180.5 -93 -278.5c0 -71.333 26.333 -129 79 -173s124 -66 214 -66c114 0 224.333 49 331 147z" />
    <glyph glyph-name="colon" unicode=":" horiz-adv-x="612" 
d="M425 854c-59.333 0 -89 28.333 -89 85l3 55c0 41.333 11 74 33 98s51.333 36 88 36c58 0 87 -36.667 87 -110c0 -109.333 -40.667 -164 -122 -164zM325 123c-58 0 -87 27.667 -87 83l4 106c0 38.667 12.667 68.667 38 90s53.333 32 84 32c58 0 87 -41.667 87 -125
c0 -124 -42 -186 -126 -186z" />
    <glyph glyph-name="semicolon" unicode=";" horiz-adv-x="612" 
d="M428 848c-58.667 0 -87.999 27.001 -87.999 81.001c0 43.333 1 75.166 3 95.499s13.667 42 35 65s49.666 34.5 84.999 34.5c60 0 90 -37 90 -111c0 -110 -41.667 -165 -125 -165zM50.001 -126.999c0 52.667 37.999 124.167 113.999 214.5s132.667 135.5 170 135.5
c22.667 0 41.5 -7.5 56.5 -22.5s22.5 -32.5 22.5 -52.5c0 -28 -29.667 -72 -89 -132c-58 -58 -90.667 -99.667 -98 -125c-15.333 -57.333 -49.666 -86 -102.999 -86c-48.667 0 -73 22.667 -73 68z" />
    <glyph glyph-name="semicolon" unicode="&#x37e;" horiz-adv-x="612" 
d="M428 848c-58.667 0 -87.999 27.001 -87.999 81.001c0 43.333 1 75.166 3 95.499s13.667 42 35 65s49.666 34.5 84.999 34.5c60 0 90 -37 90 -111c0 -110 -41.667 -165 -125 -165zM50.001 -126.999c0 52.667 37.999 124.167 113.999 214.5s132.667 135.5 170 135.5
c22.667 0 41.5 -7.5 56.5 -22.5s22.5 -32.5 22.5 -52.5c0 -28 -29.667 -72 -89 -132c-58 -58 -90.667 -99.667 -98 -125c-15.333 -57.333 -49.666 -86 -102.999 -86c-48.667 0 -73 22.667 -73 68z" />
    <glyph glyph-name="less" unicode="&#x3c;" horiz-adv-x="781" 
d="M393 614c32.667 -26 71.668 -68.333 117.001 -127c53.333 -68 90.333 -112.333 111 -133c18 -18 27 -36.667 27 -56c0 -25.333 -10.833 -48.833 -32.5 -70.5s-45.834 -32.5 -72.501 -32.5c-18.667 0 -36 6.16699 -52 18.5s-64.333 68.166 -145 167.499
c-58 71.333 -115.333 118.333 -172 141c-42.667 16 -64 40.333 -64 73c0 37.333 28.333 68.333 85 93c67.333 31.333 143.666 85.333 228.999 162l194 171c30.667 26.667 59 40 85 40c21.333 0 39 -7.66699 53 -23s21 -33.666 21 -54.999c0 -18 -4.66699 -34.167 -14 -48.5
s-50.166 -52.833 -122.499 -115.5z" />
    <glyph glyph-name="equal" unicode="=" horiz-adv-x="1045" 
d="M935 997c51.333 0 77 -22.667 77 -68c0 -73.333 -35 -110 -105 -110l-467 2c-11.333 0 -47.333 -1.66699 -108 -5c-70 -4 -105 19.667 -105 71c0 44 16 73.667 48 89s96.333 23 193 23zM636 459l116 -2c28.667 -0.666992 55.334 -0.666992 80.001 0
s44.167 -4.5 58.5 -15.5s21.5 -29.167 21.5 -54.5c0 -72 -35.333 -108 -106 -108h-82l-311 6c-22.667 0 -53.334 -1.33301 -92.001 -4c-48 -3.33301 -77.333 -5 -88 -5c-53.333 0 -80 22 -80 66c0 46.667 15.333 78.5 46 95.5s111 25.5 241 25.5
c42.667 0 108 -1.33301 196 -4z" />
    <glyph glyph-name="greater" unicode="&#x3e;" horiz-adv-x="781" 
d="M584 645c-57.333 41.333 -125.166 105.501 -203.499 192.501s-117.5 150.167 -117.5 189.5c0 21.333 11.167 42.833 33.5 64.5s47.166 32.5 74.499 32.5c26.667 0 47.667 -10.667 63 -32c127.333 -173.333 247 -291 359 -353c30.667 -16.667 46 -38.334 46 -65.001
c0 -19.333 -9 -39.5 -27 -60.5s-82.833 -72.5 -194.5 -154.5s-209.5 -148 -293.5 -198s-134 -75 -150 -75c-20.667 0 -38.667 7.66699 -54 23s-23 34 -23 56c0 33.333 17 61 51 83z" />
    <glyph glyph-name="question" unicode="?" horiz-adv-x="1073" 
d="M482 582l268.999 180.001c110 73.333 165 154.333 165 243c0 65.333 -29.167 126.5 -87.5 183.5s-124.5 85.5 -198.5 85.5c-40.667 0 -98 -22 -172 -66c-69.333 -42 -112.333 -63 -129 -63c-24.667 0 -45 8.83301 -61 26.5s-24 39.167 -24 64.5
c0 57.333 55 112.166 165 164.499s194.667 78.5 254 78.5c122.667 0 228.667 -45 318 -135s134 -191.667 134 -305c0 -74.667 -19.833 -151.167 -59.5 -229.5s-145.5 -172.166 -317.5 -281.499c-115.333 -74.667 -195.666 -134.667 -240.999 -180
c-27.333 -27.333 -54.666 -41 -81.999 -41c-24.667 0 -45.334 8.66699 -62.001 26s-25 38.666 -25 63.999c0 49.333 51.333 111 154 185zM200.999 14.001c0 36.667 14.834 76.333 44.501 119s66.834 64 111.501 64c54 0 81 -27.333 81 -82
c0 -47.333 -13.833 -90.333 -41.5 -129s-59.834 -58 -96.501 -58c-26.667 0 -49.834 8.66699 -69.501 26s-29.5 37.333 -29.5 60z" />
    <glyph glyph-name="at" unicode="@" horiz-adv-x="1907" 
d="M1033 535c-86 -71.333 -160.337 -107 -223.004 -107c-68.667 0 -130 26.333 -184 79s-81 110.334 -81 173.001c0 119.333 59.667 237.166 179 353.499s245 174.5 377 174.5c55.333 0 83 -29.333 83 -88c0 -50.667 -38.667 -86 -116 -106c-150.667 -44 -241 -99 -271 -165
s-45 -113 -45 -141c0 -18 7.83301 -35 23.5 -51s35.5 -24 59.5 -24c62.667 0 127.334 54 194.001 162c60.667 92.667 108 139 142 139c51.333 0 77 -28 77 -84c0 -15.333 -8.66699 -54.666 -26 -117.999c-4.66699 -16 -7 -30.667 -7 -44
c0 -32.667 12.167 -52.834 36.5 -60.501s58.166 -11.5 101.499 -11.5c194 0 291 117.333 291 352c0 134.667 -52.333 244.5 -157 329.5s-234.667 127.5 -390 127.5c-216.667 0 -392.334 -87.333 -527.001 -262s-202 -365.667 -202 -573
c0 -150.667 49.333 -277.834 148 -381.501s232.334 -155.5 401.001 -155.5c55.333 0 118 11 188 33l184 64c30.667 10.667 50.667 16 60 16c24 0 44.167 -9.16699 60.5 -27.5s24.5 -40.166 24.5 -65.499c0 -64 -62.667 -115.333 -188 -154s-244.666 -58 -357.999 -58
s-226.166 26.5 -338.499 79.5s-205.166 136.5 -278.499 250.5s-110 241 -110 381c0 145.333 34.833 298.833 104.5 460.5s179.834 301.667 330.501 420s328.667 177.5 534 177.5c210.667 0 383.667 -59.833 519 -179.5s203 -267.5 203 -443.5
c0 -168 -44.5 -309.167 -133.5 -423.5s-221.833 -171.5 -398.5 -171.5c-139.333 0 -235 41 -287 123z" />
    <glyph glyph-name="A" unicode="A" horiz-adv-x="1498" 
d="M1114 520c-73.333 -8.66699 -164.664 -25.001 -273.997 -49.001l-275 -55c-137.333 -241.333 -219.333 -374.833 -246 -400.5s-57.334 -38.5 -92.001 -38.5c-24.667 0 -45.5 8.33301 -62.5 25s-25.5 36.334 -25.5 59.001c0 35.333 70.333 162.333 211 381
c-7.33301 12.667 -11 27.667 -11 45c0 62.667 38.667 102.334 116 119.001c86 127.333 218.667 304.666 398 531.999s287.666 341 324.999 341c52 0 82 -37 90 -111l8 -336l41 -694l31 -160c8.66699 -43.333 13 -75.333 13 -96c0 -28.667 -12.333 -54.667 -37 -78
s-52.334 -35 -83.001 -35c-43.333 0 -75 44.167 -95 132.5s-30.667 227.833 -32 418.5zM1081 1112l-360 -460.999c66 17.333 193 42.666 381 75.999z" />
    <glyph glyph-name="B" unicode="B" horiz-adv-x="1291" 
d="M1023 705c168 -77.333 252.003 -170.668 252.003 -280.001c0 -108 -81.5 -213.667 -244.5 -317s-404.5 -155 -724.5 -155c-28 0 -53 13.167 -75 39.5s-31 54.166 -27 83.499l47 291c17.333 106.667 47.166 252.334 89.499 437.001s71.166 323.667 86.499 417
s29.333 165.5 42 216.5s27.167 80.833 43.5 89.5s57.666 18.167 123.999 28.5s132.166 15.5 197.499 15.5c114.667 0 219.834 -39 315.501 -117s143.5 -170.667 143.5 -278c0 -74 -20.5 -154.167 -61.5 -240.5s-110.5 -163.166 -208.5 -230.499zM648.003 1360
l-30.999 -173.999l-79 -387l149 -13c43.333 0 100.5 14 171.5 42s127.333 72.333 169 133s62.5 119.667 62.5 177c0 55.333 -29.833 107.166 -89.5 155.499s-125.834 72.5 -198.501 72.5c-72 0 -123.333 -2 -154 -6zM685.004 583.999l-82 -4.00098
c-34 0 -71.667 3.33301 -113 10l-41 -225l-32 -207c237.333 10.667 406.5 46 507.5 106s151.5 104.667 151.5 134c0 27.333 -29.5 57.333 -88.5 90s-125.833 58.334 -200.5 77.001z" />
    <glyph glyph-name="C" unicode="C" horiz-adv-x="1234" 
d="M1232 1473c28.667 34 61.333 51.001 98 51.001c50 0 75 -39.333 75 -118c0 -112.667 -12 -188.167 -36 -226.5s-56.667 -57.5 -98 -57.5c-42 0 -70 24.667 -84 74c-14 50 -29.167 77.5 -45.5 82.5s-48.166 7.5 -95.499 7.5c-117.333 0 -261.833 -101.833 -433.5 -305.5
s-257.5 -383.834 -257.5 -540.501c0 -68 22 -128.333 66 -181s102 -79 174 -79c58.667 0 115.834 11.167 171.501 33.5s136.5 68.5 242.5 138.5c43.333 27.333 74 41 92 41c25.333 0 46.166 -8.66699 62.499 -26s24.5 -38.333 24.5 -63c0 -19.333 -6.66699 -39.5 -20 -60.5
s-60.666 -58 -141.999 -111s-160.333 -92.5 -237 -118.5s-151.667 -39 -225 -39c-122.667 0 -222.167 42.667 -298.5 128s-114.5 186 -114.5 302c0 214 108.167 448.5 324.5 703.5s417.166 382.5 602.499 382.5c73.333 0 124.666 -6 153.999 -18z" />
    <glyph glyph-name="D" unicode="D" horiz-adv-x="1478" 
d="M288 -6h-10.001c-26.667 0 -48 8.16699 -64 24.5s-24 36.166 -24 59.499c0 16 8.66699 66 26 150l70 364c16 82.667 51.333 312 106 688l20 138c4.66699 34.667 23.5 66.334 56.5 95.001s63.5 43 91.5 43c14.667 0 64.667 -22.333 150 -67
c92.667 -50 147.334 -77.333 164.001 -82c174 -64 317.167 -161 429.5 -291s168.5 -270.667 168.5 -422c0 -138 -41 -273.167 -123 -405.5s-180.833 -229.833 -296.5 -292.5s-263.5 -94 -443.5 -94c-52.667 0 -112 8.83301 -178 26.5s-113.667 39.5 -143 65.5zM594.999 1294
l-83.998 -573.003l-102 -547c2 -1.33301 4.33301 -2.66602 7 -3.99902c62.667 -45.333 137.334 -68 224.001 -68c171.333 0 297.166 30.667 377.499 92s141.833 133.333 184.5 216s64 166.667 64 252c0 86 -23.833 165.333 -71.5 238s-111.834 133.834 -192.501 183.501
s-216.334 119.834 -407.001 210.501z" />
    <glyph glyph-name="E" unicode="E" horiz-adv-x="1279" 
d="M576 1337c0 -64 -28.667 -225.669 -86 -485.002l446 43c124.667 12 204 18 238 18c60 0 90 -27.667 90 -83c0 -71.333 -37 -111.666 -111 -120.999l-710 -64c-45.333 -207.333 -68 -356 -68 -446c0 -40.667 8.5 -66.667 25.5 -78s63.167 -17 138.5 -17l375 9
c8.66699 0 39.667 3.33301 93 10c78 10 117 -15.667 117 -77s-24.167 -100.666 -72.5 -117.999s-194.833 -26 -439.5 -26c-189.333 0 -309.5 19.833 -360.5 59.5s-76.5 112.834 -76.5 219.501c0 118 26.333 289.667 79 515c-3.33301 15.333 -5 27 -5 35
c0 29.333 10.667 54.666 32 75.999c40.667 184.667 66.167 308.167 76.5 370.5s15.5 116.833 15.5 163.5c4.66699 89.333 16 150 34 182s49 48 93 48c28 0 51 -10.333 69 -31c170.667 44 316.334 66 437.001 66c102 0 190.333 -8.33301 265 -25s121 -33.5 139 -50.5
s27 -37.833 27 -62.5c0 -32 -11.833 -60.333 -35.5 -85s-50.5 -37 -80.5 -37c-8 0 -18.333 2 -31 6c-110.667 31.333 -216.334 47 -317.001 47c-110.667 0 -243 -20.667 -397 -62z" />
    <glyph glyph-name="F" unicode="F" horiz-adv-x="1243" 
d="M591 1329l-69.998 -432.003c134.667 34 234.334 51 299.001 51c61.333 0 137.166 -3 227.499 -9s140.666 -17.5 150.999 -34.5s15.5 -34.833 15.5 -53.5c0 -36 -11.333 -66 -34 -90s-50.334 -36 -83.001 -36c-47.333 0 -99.333 2.66699 -156 8
c-54.667 5.33301 -105.667 8 -153 8c-49.333 0 -151.333 -19 -306 -57l-116 -688c-5.33301 -30 -19.333 -54.5 -42 -73.5s-47.667 -28.5 -75 -28.5c-26.667 0 -47.5 8.16699 -62.5 24.5s-22.5 36.5 -22.5 60.5c0 16.667 14 104.334 42 263.001l119 680
c31.333 180 52.333 309.667 63 389c3.33301 30 7 56 11 78l8 55c5.33301 30 18.5 54.833 39.5 74.5s46.5 29.5 76.5 29.5c22 0 40.667 -6 56 -18c159.333 28.667 293.666 43 402.999 43c92 0 188.5 -13.667 289.5 -41s151.5 -61.666 151.5 -102.999
c0 -25.333 -11.333 -50.666 -34 -75.999s-49.667 -38 -81 -38c-14 0 -26.333 2.66699 -37 8c-76.667 30 -184 45 -322 45c-89.333 0 -208.666 -13 -357.999 -39z" />
    <glyph glyph-name="G" unicode="G" horiz-adv-x="1392" 
d="M1319 604c-72.667 -200 -185.001 -362.334 -337.001 -487.001s-318.333 -187 -499 -187c-278 0 -417 131.333 -417 394c0 126 29.167 267.667 87.5 425s139.166 300.5 242.499 429.5s200.333 226.667 291 293s181 99.5 271 99.5c60 0 139.667 -21.333 239 -64
s149 -89.334 149 -140.001c0 -29.333 -11.833 -56.666 -35.5 -81.999s-50.834 -38 -81.501 -38c-15.333 0 -35.333 8.33301 -60 25c-89.333 62.667 -170.666 94 -243.999 94c-96 0 -229.5 -111.167 -400.5 -333.5s-256.5 -449.166 -256.5 -680.499
c0 -84.667 20.667 -142 62 -172s103.333 -45 186 -45c122.667 0 235.834 40.833 339.501 122.5s182.167 193.167 235.5 334.5c-186 -10 -349.667 -45.667 -491 -107c-17.333 -8 -33 -12 -47 -12c-24 0 -43.833 8.83301 -59.5 26.5s-23.5 38.5 -23.5 62.5
c0 40 22.5 75.333 67.5 106s130.5 60.5 256.5 89.5s295.333 43.5 508 43.5c26.667 0 48.334 -8.16699 65.001 -24.5s25 -36.5 25 -60.5c0 -52.667 -24.333 -90 -73 -112z" />
    <glyph glyph-name="H" unicode="H" horiz-adv-x="1573" 
d="M1319 659c-125.333 -3.33301 -268.003 -20.334 -428.003 -51.001l-434 -82c-5.33301 -44 -25.333 -129.333 -60 -256c-32 -123.333 -51 -208.666 -57 -255.999c-5.33301 -27.333 -18.5 -50.5 -39.5 -69.5s-45.5 -28.5 -73.5 -28.5c-54 0 -81 25.667 -81 77
c0 34.667 22.333 147.667 67 339c45.333 185.333 75.333 345.666 90 480.999l14 99c4 27.333 7 50.333 9 69c4 26.667 10.333 60 19 100c44 200.667 69.667 325.667 77 375c4 27.333 17 50.5 39 69.5s46.667 28.5 74 28.5c54 0 81 -27 81 -81
c0 -18.667 -16.333 -104 -49 -256c-26.667 -120 -43 -200 -49 -240l-32 -252l440 80c180 32.667 326.667 49 440 49c23.333 99.333 50 243.333 80 432c9.33301 57.333 28.833 115 58.5 173s62.834 87 99.501 87c24 0 44.167 -7.66699 60.5 -23s24.5 -35 24.5 -59
c0 -14 -6 -32.333 -18 -55c-15.333 -28.667 -28 -82.667 -38 -162c-16 -130.667 -44.333 -276.667 -85 -438c-32.667 -134.667 -53 -225.667 -61 -273s-18.333 -131.666 -31 -252.999c-8 -117.333 -15.167 -192.333 -21.5 -225s-20.166 -57.667 -41.499 -75
s-45.333 -26 -72 -26c-23.333 0 -42.666 8.16699 -57.999 24.5s-23 35.833 -23 58.5l26 243c14 136.667 27.333 237.667 40 303c4.66699 24 9 48.333 13 73z" />
    <glyph glyph-name="I" unicode="I" horiz-adv-x="1119" 
d="M834 1280c-56 -242.667 -96.3301 -453.998 -120.997 -633.998c-36.667 -270 -60.667 -416.333 -72 -439l318 4c25.333 0 45.5 -7.83301 60.5 -23.5s22.5 -35.167 22.5 -58.5c0 -31.333 -11 -59.666 -33 -84.999s-49.667 -38 -83 -38c-36 0 -92 -1.33301 -168 -4l-99 -2
c-106.667 -2 -197.334 -8 -272.001 -18c-86 -12.667 -152.333 -19 -199 -19c-26 0 -46.833 8.33301 -62.5 25s-23.5 36.334 -23.5 59.001c0 31.333 11.833 59.666 35.5 84.999s51.5 38 83.5 38c51.333 0 123.666 6.66699 216.999 20
c20.667 64.667 43.667 213.334 69 446.001c14 130.667 57.333 348 130 652l-262 -8c-24 -0.666992 -44 6.66602 -60 21.999s-24 35.333 -24 60c0 35.333 9 64 27 86s45.333 35 82 39s138.334 6 305.001 6c92.667 0 196 -6.33301 310 -19s180.167 -21.334 198.5 -26.001
s32.666 -13.334 42.999 -26.001s15.5 -30.334 15.5 -53.001c0 -39.333 -12.667 -69.833 -38 -91.5s-53 -32.5 -83 -32.5c-46.667 0 -99.334 5 -158.001 15z" />
    <glyph glyph-name="J" unicode="J" horiz-adv-x="1362" 
d="M1134 1307l-13.998 -119c-12 -100 -39.333 -251.5 -82 -454.5s-88.667 -372.667 -138 -509s-99 -228 -149 -275s-106 -70.5 -168 -70.5c-112.667 0 -218.834 40.333 -318.501 121s-149.5 172 -149.5 274c0 118 41.333 177 124 177c58 0 87 -29 87 -87l-4 -52
c0 -53.333 32.833 -104.333 98.5 -153s130.834 -73 195.501 -73c57.333 0 121.166 166 191.499 498s109.166 546.667 116.499 644c1.33301 17.333 3.66602 39.333 6.99902 66h-111c-19.333 0 -41.666 0.666992 -66.999 2l-69 2c-19.333 0.666992 -35.5 0.666992 -48.5 0
s-27 2 -42 8s-27 16 -36 30s-13.5 30 -13.5 48c0 80.667 52.667 121 158 121c24 0 57.333 -1.33301 100 -4l57 -2c60.667 -2 138 0.666992 232 8c86 6 149.667 9 191 9c141.333 0 212 -33.667 212 -101c0 -29.333 -11.667 -56.833 -35 -82.5s-51 -38.5 -83 -38.5l-127 15
h-52c-19.333 0 -40.333 -0.666992 -63 -2z" />
    <glyph glyph-name="K" unicode="K" horiz-adv-x="1251" 
d="M502 526l-85.999 -535.998c-10.667 -67.333 -45 -101 -103 -101c-34 0 -59.333 12.667 -76 38s-25 51 -25 77c0 40.667 42.667 281.667 128 723c50 259.333 91.667 492.666 125 699.999c4 29.333 17.5 54.166 40.5 74.499s48.5 30.5 76.5 30.5c26 0 46.333 -8.5 61 -25.5
s22 -37.5 22 -61.5c0 -18.667 -20.333 -125 -61 -319c-26 -124 -45.667 -225 -59 -303c94.667 76 212.667 182.667 354 320l340 332c26 25.333 53.333 38 82 38c25.333 0 46.166 -8.5 62.499 -25.5s24.5 -37.5 24.5 -61.5c0 -72.667 -251.667 -326 -755 -760
c61.333 -78 168 -199 320 -363l90 -88c26.667 -26 64.334 -47.667 113.001 -65c50 -18.667 75 -42.667 75 -72c0 -30 -11 -57.333 -33 -82s-47 -37 -75 -37c-102.667 0 -232.334 88.667 -389.001 266z" />
    <glyph glyph-name="L" unicode="L" horiz-adv-x="1128" 
d="M301 113c174.667 -2 402 39 682 123c10.667 2.66699 21 4 31 4c55.333 0 83 -29 83 -87c0 -41.333 -22 -76.333 -66 -105s-154.167 -59.167 -330.5 -91.5s-318.166 -48.5 -425.499 -48.5c-68 0 -114.833 10.833 -140.5 32.5s-38.5 54.5 -38.5 98.5
c0 16 1.66699 33.667 5 53l71 332c70 326.667 133 665.334 189 1016c4 28.667 17.167 52.834 39.5 72.501s47.166 29.5 74.499 29.5c57.333 0 86 -27.667 86 -83c0 -18.667 -21.167 -148.334 -63.5 -389.001s-85.166 -460 -128.499 -658l-39 -154
c-3.33301 -12.667 -8.33301 -38.334 -15 -77.001c-4.66699 -24 -9.33398 -46.667 -14.001 -68z" />
    <glyph glyph-name="M" unicode="M" horiz-adv-x="1808" 
d="M1483 1094l-309.002 -686.001l-97 -191c-48.667 -96 -87.667 -163.333 -117 -202s-64.666 -58 -105.999 -58c-50.667 0 -84 56.667 -100 170l-37 416c-10 124.667 -18.333 302.667 -25 534l-73 -180l-226 -608l-51 -158c-21.333 -64.667 -38.833 -109 -52.5 -133
s-27.667 -40.667 -42 -50s-31.166 -14 -50.499 -14c-53.333 0 -80 27.667 -80 83c0 26.667 11 80.334 33 161.001s56 173 102 277l162 401l112 315c43.333 122 84.166 210.667 122.499 266s80.166 83 125.499 83c41.333 0 68.833 -27 82.5 -81s21.834 -173.333 24.501 -358
c0 -206.667 15 -470.667 45 -792c130.667 268 262.334 562 395.001 882l53 148c51.333 143.333 114.333 215 189 215c69.333 0 104 -95 104 -285l-5 -305c0 -210.667 10.667 -405.334 32 -584.001l22 -172c8.66699 -65.333 13 -114.333 13 -147
c0 -36 -13.5 -65.833 -40.5 -89.5s-55.167 -35.5 -84.5 -35.5c-66 0 -101.667 72.333 -107 217l-10 172c-7.33301 130.667 -11 256 -11 376c0 134.667 2.33301 272.334 7 413.001z" />
    <glyph glyph-name="N" unicode="N" horiz-adv-x="1632" 
d="M527 1145l-78.9961 -456.999c-15.333 -90 -34 -221 -56 -393c-32 -250 -86.667 -375 -164 -375c-32 0 -56.5 9.83301 -73.5 29.5s-25.5 41.167 -25.5 64.5c0 22.667 9.33301 70 28 142c5.33301 20.667 22.666 109.5 51.999 266.5s47.666 262.167 54.999 315.5l32 233
c16 109.333 25.667 199.333 29 270l15 172c4.66699 40 23.167 72.833 55.5 98.5s64.166 38.5 95.499 38.5c34.667 0 72.667 -38 114 -114c245.333 -488.667 505.666 -882 780.999 -1180c5.33301 18 12 60.333 20 127l52 381c12 84 22 169.5 30 256.5s12 148.833 12 185.5
c0 18 -4 53.667 -12 107c-2.66699 32 -4 56.333 -4 73c0 98.667 41.667 148 125 148c72.667 0 109 -86.333 109 -259c0 -116 -15.333 -263 -46 -441l-86 -505c-26 -158.667 -49 -259.667 -69 -303s-57.667 -65 -113 -65c-30 0 -70.167 23.833 -120.5 71.5
s-147 170.667 -290 369s-298.5 446.166 -466.5 743.499z" />
    <glyph glyph-name="O" unicode="O" horiz-adv-x="1635" 
d="M161 460c0 126.667 36.333 270.999 109 432.999s184 306.333 334 433s314 190 492 190c378.667 0 568 -157.667 568 -473c0 -259.333 -89.833 -508.166 -269.5 -746.499s-392.5 -357.5 -638.5 -357.5c-176.667 0 -320 49.5 -430 148.5s-165 223.167 -165 372.5z
M367 495.999c0 -104.667 39.332 -189.666 117.999 -254.999s179.667 -98 303 -98c176.667 0 332.334 94.167 467.001 282.5s202 383.166 202 584.499c0 113.333 -32.167 191.833 -96.5 235.5s-163.5 65.5 -297.5 65.5c-180 0 -341 -93 -483 -279s-213 -364.667 -213 -536z
" />
    <glyph glyph-name="P" unicode="P" horiz-adv-x="1066" 
d="M385 600c-10.667 -40 -41.332 -216.002 -91.999 -528.002c-4 -28 -16 -51.167 -36 -69.5s-43 -27.5 -69 -27.5c-28 0 -49 9.16699 -63 27.5s-18.667 41.5 -14 69.5l47 293c17.333 108.667 45.333 246.334 84 413.001c2 8 30.667 146.667 86 416l20 137
c23.333 160.667 72 233.667 146 219c43.333 14 123 21 239 21c121.333 0 227.333 -39.667 318 -119s136 -171.666 136 -276.999c0 -153.333 -65.833 -289.5 -197.5 -408.5s-292.834 -178.5 -483.501 -178.5c-20 0 -60.333 4 -121 12zM543.002 1372l-31 -182.002l-84 -399
l109 -13c42.667 -5.33301 104.667 4.83398 186 30.501s147.833 71.334 199.5 137.001s77.5 133.167 77.5 202.5c0 61.333 -32 115.333 -96 162s-138.667 70 -224 70c-68 0 -113.667 -2.66699 -137 -8z" />
    <glyph glyph-name="Q" unicode="Q" horiz-adv-x="1795" 
d="M1147 -47c-120 -46.667 -235.333 -70 -346 -70c-188 0 -342.167 68.833 -462.5 206.5s-180.5 290.5 -180.5 458.5c0 252.667 103.5 477.167 310.5 673.5s445.5 294.5 715.5 294.5c200 0 351.333 -60.5 454 -181.5s154 -283.833 154 -488.5
c0 -194 -34.5 -350.5 -103.5 -469.5s-178.5 -225.5 -328.5 -319.5l185 -200l112 -111c17.333 -17.333 26 -39 26 -65c0 -30 -12.5 -57.333 -37.5 -82s-52.5 -37 -82.5 -37s-100.333 57.333 -211 172zM979 109c-101.333 104 -151.999 186.334 -151.999 247.001
c0 31.333 12.667 59 38 83s53.333 36 84 36c33.333 0 59 -16.333 77 -49c62 -94.667 125 -171 189 -229c113.333 59.333 202.5 132.166 267.5 218.499s97.5 214.833 97.5 385.5c0 154.667 -35.833 278 -107.5 370s-178.834 138 -321.501 138
c-205.333 0 -387.333 -74.333 -546 -223s-238 -316 -238 -502c0 -126 44.667 -239.833 134 -341.5s200.333 -152.5 333 -152.5c46.667 0 95 6.33301 145 19z" />
    <glyph glyph-name="R" unicode="R" horiz-adv-x="1287" 
d="M393 510l-25.999 -245.999l-27 -196c-3.33301 -26 -15.833 -49.667 -37.5 -71s-48.167 -32 -79.5 -32c-26 0 -46.833 8.33301 -62.5 25s-23.5 36.334 -23.5 59.001l31 254c22 191.333 53.333 361.333 94 510c44.667 156 70.667 297.333 78 424
c5.33301 86.667 11.833 145.5 19.5 176.5s26 59.833 55 86.5s62.167 38.667 99.5 36l240 -18c121.333 -9.33301 242.666 -65.333 363.999 -168s182 -220 182 -352c0 -226 -161.667 -388 -485 -486c112 -64 211.167 -136.5 297.5 -217.5s129.5 -143.5 129.5 -187.5
c0 -28.667 -12 -55.334 -36 -80.001s-52 -37 -84 -37c-24.667 0 -47 10 -67 30c-220 261.333 -440.667 424.666 -662 489.999zM549.001 1323l-17.001 -194.001c-1.33301 -22 -6.16602 -54.167 -14.499 -96.5s-20.5 -92.166 -36.5 -149.499l-53 -201h88
c194.667 0 340.167 30.667 436.5 92s144.5 124 144.5 188c0 80 -41.667 155.333 -125 226s-176 111.667 -278 123z" />
    <glyph glyph-name="S" unicode="S" horiz-adv-x="1420" 
d="M270 344c33.333 0 59.3301 -18.335 77.9971 -55.002c26.667 -50.667 49.834 -84.667 69.501 -102s50.667 -31.333 93 -42s91.833 -16 148.5 -16c130 0 247.333 32.333 352 97s157 145.334 157 242.001c0 68 -36.333 123 -109 165s-170 65 -292 69
c-115.333 6 -205.5 31.167 -270.5 75.5s-97.5 104.5 -97.5 180.5c0 128 76.5 244.667 229.5 350s302.5 158 448.5 158c76.667 0 155.5 -13 236.5 -39s121.5 -58.333 121.5 -97c0 -20.667 -8.16699 -41.334 -24.5 -62.001s-42.833 -31 -79.5 -31
c-30 0 -75.333 6.66699 -136 20c-64 14.667 -110 22 -138 22c-122 0 -224.833 -29.667 -308.5 -89s-125.5 -122.333 -125.5 -189c0 -37.333 22.833 -65.166 68.5 -83.499s136.5 -33.5 272.5 -45.5c130.667 -9.33301 232.334 -47.166 305.001 -113.499
s109 -147.833 109 -244.5c0 -160.667 -74.5 -296 -223.5 -406s-324.5 -165 -526.5 -165c-129.333 0 -241.166 25.167 -335.499 75.5s-141.5 116.833 -141.5 199.5c0 44 12.167 76 36.5 96s51.833 30 82.5 30z" />
    <glyph glyph-name="T" unicode="T" horiz-adv-x="1392" 
d="M1464 1284h-48.0039c-68 0 -128 1.33301 -180 4l-80 2h-112c-13.333 0 -25.666 -0.666992 -36.999 -2l-70 -2c-4 -46 -11 -106.333 -21 -181c-10.667 -74.667 -20 -163.667 -28 -267c-17.333 -210.667 -33.666 -361 -48.999 -451l-10 -106
c-10.667 -192.667 -60 -289 -148 -289c-23.333 0 -44.166 8 -62.499 24s-27.5 35.667 -27.5 59c0 11.333 4.66699 32.333 14 63c9.33301 31.333 19 94.666 29 189.999c8 76 13.667 125.667 17 149c14 83.333 27.333 217.333 40 402c7.33301 93.333 15 172.666 23 237.999
l18 157l-143 -4c-115.333 -4.66699 -204.166 0.666016 -266.499 15.999s-93.5 42 -93.5 80c0 36.667 11.333 67.334 34 92.001s50 37 82 37c11.333 0 30.333 -1 57 -3c114.667 -10.667 191.334 -16 230.001 -16c71.333 0 163 4 275 12c66 4.66699 123.333 7 172 7
c45.333 0 105.333 -1.33301 180 -4l133 -2c28.667 -0.666992 58.667 -0.666992 90 0s55.166 -5.66602 71.499 -18.999s24.5 -32.333 24.5 -57c0 -33.333 -10.5 -63.166 -31.5 -89.499s-48.5 -39.5 -82.5 -39.5z" />
    <glyph glyph-name="U" unicode="U" horiz-adv-x="1509" 
d="M540 1329l-92 -588.002c-12 -75.333 -18 -143 -18 -203c0 -268.667 115 -403 345 -403c265.333 0 452.666 340 561.999 1020l28 178c20 113.333 63.667 170 131 170c54.667 0 82 -30.333 82 -91c0 -14 -1.33301 -29.333 -4 -46l-39 -248
c-119.333 -772.667 -380 -1159 -782 -1159c-176 0 -307.5 43.333 -394.5 130s-130.5 228.334 -130.5 425.001c0 78.667 18.5 241.167 55.5 487.5s68.833 390.5 95.5 432.5s58.334 63 95.001 63c48 0 72 -33.667 72 -101c0 -19.333 -2 -41.666 -6 -66.999z" />
    <glyph glyph-name="V" unicode="V" horiz-adv-x="1331" 
d="M709 285l388.999 741.001l125 246c18 35.333 51.667 88.166 101 158.499s95.333 105.5 138 105.5c26 0 47.167 -8.5 63.5 -25.5s24.5 -37.167 24.5 -60.5c0 -28.667 -10 -55.334 -30 -80.001c-52 -64.667 -96.333 -129.334 -133 -194.001l-111 -220l-383 -727
c-35.333 -67.333 -71.166 -129.166 -107.499 -185.499s-63.166 -91 -80.499 -104s-38 -19.5 -62 -19.5c-30.667 0 -54.334 9.66699 -71.001 29s-39.667 111 -69 275s-57.666 380 -84.999 648l-35 277c-12.667 98 -19 173.333 -19 226c0 54.667 13.667 92.834 41 114.501
s54 32.5 80 32.5c49.333 0 77.333 -27.333 84 -82l11 -174l80 -665c13.333 -112 29.666 -217.333 48.999 -316z" />
    <glyph glyph-name="W" unicode="W" horiz-adv-x="2129" 
d="M1308 4c-19.333 81.333 -28.998 147 -28.998 197c0 88 -3.33301 232 -10 432c-10 219.333 -12.333 381.666 -7 486.999c-88.667 -210 -210.667 -465.333 -366 -766c-54.667 -104.667 -96.334 -192.667 -125.001 -264c4.66699 -10.667 7 -22 7 -34
c0 -30.667 -14.667 -56.834 -44 -78.501s-61.333 -32.5 -96 -32.5c-90.667 0 -129 40.333 -115 121l-12 127l-31 489c-6.66699 101.333 -43.334 338.333 -110.001 711c-6.66699 26.667 -1.33398 55.5 15.999 86.5s51.333 46.5 102 46.5c27.333 0 50.666 -10.667 69.999 -32
s38.833 -96.166 58.5 -224.499s36.5 -281.166 50.5 -458.499l34 -461c92.667 159.333 200.667 373 324 641c88.667 198.667 156.5 332.334 203.5 401.001s90.5 103 130.5 103c40.667 0 67.834 -15.5 81.501 -46.5s20.5 -104.5 20.5 -220.5c0 -59.333 -2 -130 -6 -212
c-1.33301 -56.667 0.666992 -188.334 6 -395.001l14 -412l334 607l156 295c10.667 20.667 35.334 79.667 74.001 177c62 158.667 128.667 238 200 238c58.667 0 88 -25 88 -75c0 -21.333 -16.333 -63.333 -49 -126l-57 -108l-84 -179l-412 -721l-111 -202
c-48 -86 -78.333 -137.667 -91 -155s-28.5 -31 -47.5 -41s-40.167 -15 -63.5 -15c-34 0 -61.333 9.83301 -82 29.5s-28 43.167 -22 70.5z" />
    <glyph glyph-name="X" unicode="X" horiz-adv-x="1482" 
d="M1022 723l170 -321.998c60 -113.333 120.667 -217.666 182 -312.999c12 -16 18 -33.333 18 -52c0 -30.667 -12.167 -58.334 -36.5 -83.001s-52.166 -37 -83.499 -37c-40.667 0 -98.667 73.667 -174 221l-101 205l-122 225l-406 -397l-217 -207
c-23.333 -22 -55.333 -33 -96 -33c-25.333 0 -46.166 8.66699 -62.499 26s-24.5 38.666 -24.5 63.999c0 30.667 12.667 58 38 82l213 201l444 436c-68.667 114.667 -131.334 213 -188.001 295l-91 158c-30 52.667 -65.333 100.334 -106 143.001
c-21.333 19.333 -32 41.666 -32 66.999c0 30 12.167 57.5 36.5 82.5s51.5 37.5 81.5 37.5c49.333 0 101.833 -49.833 157.5 -149.5s153.5 -258.834 293.5 -477.501l278 317c181.333 206.667 296.666 310 345.999 310c25.333 0 46.5 -9 63.5 -27s25.5 -39 25.5 -63
c0 -27.333 -13.333 -54.666 -40 -81.999c-101.333 -102.667 -184 -192.334 -248 -269.001l-153 -184c-50 -60 -105.333 -118 -166 -174z" />
    <glyph glyph-name="Y" unicode="Y" horiz-adv-x="1301" 
d="M668 469c-97.333 154.667 -155.999 276.329 -175.999 364.996c-18.667 76 -54.334 166 -107.001 270l-95 191c-27.333 56.667 -41 93.667 -41 111c0 28.667 12.5 55.167 37.5 79.5s52.5 36.5 82.5 36.5c31.333 0 56.333 -15.667 75 -47l62 -125
c68.667 -138.667 113.667 -233 135 -283s38.333 -103.333 51 -160c12 -50.667 47 -125.667 105 -225l317 557l107 162c36.667 56 62.5 89.833 77.5 101.5s35.5 17.5 61.5 17.5c24.667 0 45.5 -8.16699 62.5 -24.5s25.5 -36.166 25.5 -59.499
c0 -31.333 -37.667 -99.666 -113 -204.999l-47 -70l-237 -424c-58 -104 -143.333 -243.333 -256 -418l-160 -223l-70 -108c-25.333 -38.667 -58 -58 -98 -58c-24.667 0 -45.5 8.33301 -62.5 25s-25.5 36.334 -25.5 59.001c0 26.667 42.333 103.334 127 230.001z" />
    <glyph glyph-name="Z" unicode="Z" horiz-adv-x="1420" 
d="M1299 1159c-113.333 -70 -274.667 -220 -484 -450l-491 -582l391 14c242 8.66699 372.333 13 391 13c103.333 0 173.333 -5.5 210 -16.5s55 -32.5 55 -64.5c0 -36.667 -12 -65.167 -36 -85.5s-53 -30.5 -87 -30.5c-20 0 -49.333 1.33301 -88 4l-49 2l-951 -14
c-68 0 -102 25.667 -102 77c0 50 30 113 90 189l571 651c160.667 183.333 324 336.333 490 459l-355 -20h-405l-74 -1c-25.333 0 -45.333 6.5 -60 19.5s-22 32.167 -22 57.5c0 34.667 11 64.667 33 90s71.667 38 149 38c58.667 0 126.334 -4.66699 203.001 -14
c79.333 -9.33301 147.666 -14 204.999 -14c70.667 0 147.667 2.66699 231 8c104 6.66699 181.333 10 232 10c163.333 0 245 -28.667 245 -86c0 -44.667 -47.667 -98.667 -143 -162z" />
    <glyph glyph-name="bracketleft" unicode="[" horiz-adv-x="771" 
d="M570 1323c-6 -60 -15 -127.667 -27 -203l-244 -1341l91 4h35l137 -6c49.333 0 74 -26 74 -78c0 -30 -9.5 -57 -28.5 -81s-44.5 -36 -76.5 -36c-20 0 -48.667 1.33301 -86 4l-51 2c-19.333 0.666992 -66.666 -1 -141.999 -5c-95.333 -5.33301 -143 25 -143 91
c0 36.667 43 279.667 129 729l125 705l31 301l4 14c18.667 64.667 52.667 97 102 97h38c15.333 0 32.666 -0.666992 51.999 -2l54 -2l151 4c52.667 0 79 -25.333 79 -76c0 -50 -16 -83.833 -48 -101.5s-117.333 -24.167 -256 -19.5z" />
    <glyph glyph-name="backslash" unicode="\" horiz-adv-x="1126" 
d="M747 160l-173 745.001c-17.333 75.333 -72.333 231.666 -165 468.999c-6.66699 13.333 -10 27 -10 41c0 26.667 12 51.5 36 74.5s50 34.5 78 34.5c21.333 0 39.833 -8.33301 55.5 -25s41.5 -72.667 77.5 -168s71.667 -209.333 107 -342l123 -514
c48 -201.333 90.333 -359 127 -473c3.33301 -14 5 -25.333 5 -34c0 -26.667 -11.833 -51.5 -35.5 -74.5s-49.167 -34.5 -76.5 -34.5c-32.667 0 -58 20 -76 60s-42.333 120.333 -73 241z" />
    <glyph glyph-name="bracketright" unicode="]" horiz-adv-x="771" 
d="M368 -412l-37 -0.000976562l-141 -6c-47.333 0 -71 26.333 -71 79c0 31.333 10.167 58.5 30.5 81.5s43.833 34.5 70.5 34.5c18.667 0 48.667 1.33301 90 4l51 2h37l84 -4l185 1341c10.667 78.667 24.334 146.334 41.001 203.001c-131.333 -4.66699 -210 -1.5 -236 9.5
s-39 32.833 -39 65.5c0 81.333 36.333 122 109 122l112 -4h39c15.333 0 32.666 0.666992 51.999 2l53 2c88.667 3.33301 126 -29 112 -97l-6 -14l-61 -301c-16.667 -82 -48.667 -317 -96 -705c-53.333 -407.333 -87.333 -646 -102 -716s-62.667 -105 -144 -105z" />
    <glyph glyph-name="asciicircum" unicode="^" horiz-adv-x="1190" 
d="M839 1434c-204 -208 -329.002 -312.001 -375.002 -312.001c-21.333 0 -39.5 8 -54.5 24s-22.5 35.333 -22.5 58c0 27.333 14 52 42 74c50.667 40.667 169.334 153.334 356.001 338.001c24 20.667 46.667 31 68 31c47.333 0 98.666 -35.667 153.999 -107
c14.667 -19.333 34.334 -44 59.001 -74l131 -170c13.333 -17.333 20 -33.333 20 -48c0 -24.667 -11 -48 -33 -70s-47 -33 -75 -33c-23.333 0 -43 9.66699 -59 29c-45.333 64 -115.666 150.667 -210.999 260z" />
    <glyph glyph-name="underscore" unicode="_" horiz-adv-x="1284" 
d="M918 -344c-47.333 0 -118.331 1.33301 -212.998 4c-96 2.66699 -166.333 4 -211 4h-445l-137 -8l29 184h122c49.333 0 107.666 0.666992 174.999 2h301c47.333 0 117.666 -1.33301 210.999 -4c94 -4 164.333 -6 211 -6l335 8l-28 -184h-350z" />
    <glyph glyph-name="grave" unicode="`" horiz-adv-x="1139" 
d="M599 1221l-78 146.999c-25.333 47.333 -59.333 90.333 -102 129c-18.667 16.667 -28 36.334 -28 59.001c0 28 11.333 52.5 34 73.5s46 31.5 70 31.5c40 0 96.5 -52 169.5 -156s109.5 -179.333 109.5 -226c0 -24.667 -11.333 -47.667 -34 -69s-47.667 -32 -75 -32
c-30 0 -52 14.333 -66 43z" />
    <glyph glyph-name="a" unicode="a" horiz-adv-x="1048" 
d="M764 51c-144 -69.333 -246.669 -104.002 -308.002 -104.002c-249.333 0 -374 118.667 -374 356c0 220.667 69.833 399.334 209.5 536.001s292.834 205 459.501 205c64.667 0 131.5 -16.5 200.5 -49.5s103.5 -71.5 103.5 -115.5c0 -27.333 -9 -48.666 -27 -63.999
c-13.333 -26 -32.166 -101.167 -56.499 -225.5s-36.5 -213.833 -36.5 -268.5c0 -67.333 17.333 -160 52 -278l4 -16c-14.667 -62 -51.667 -93 -111 -93c-10 0 -28.667 13.5 -56 40.5s-47.333 52.5 -60 76.5zM836.998 828.998c-42 24.667 -75.334 37 -100.001 37
c-111.333 0 -215.166 -50.167 -311.499 -150.5s-144.5 -225.166 -144.5 -374.499c0 -146.667 63.333 -220 190 -220c99.333 0 192.666 36.667 279.999 110c10.667 279.333 39.334 478.666 86.001 597.999z" />
    <glyph glyph-name="b" unicode="b" horiz-adv-x="1215" 
d="M325 18c-27.333 -32.667 -55.999 -49 -85.999 -49c-22.667 0 -41.167 7.16699 -55.5 21.5s-21.5 32.833 -21.5 55.5c0 9.33301 2.66699 26 8 50c20 93.333 37.333 200.333 52 321s34.667 265.667 60 435l92 564c5.33301 34.667 21.166 69.834 47.499 105.501
s56.833 53.5 91.5 53.5c44 0 66 -21.333 66 -64c0 -18 -7.33301 -47 -22 -87c-2.66699 -7.33301 -4.33398 -13 -5.00098 -17l-78 -475c126.667 79.333 236.667 119 330 119c122.667 0 219.5 -41 290.5 -123s106.5 -184.667 106.5 -308
c0 -184.667 -61.167 -341.334 -183.5 -470.001s-263.833 -193 -424.5 -193c-101.333 0 -190.666 20.333 -267.999 61zM439.001 717l-30.0029 -174l-47 -320c74.667 -36 126.834 -57.667 156.501 -65s64.834 -11 105.501 -11c108 0 200.667 42.333 278 127
s116 189.667 116 315c0 80.667 -21.667 146 -65 196s-103.333 75 -180 75c-85.333 0 -196.666 -47.667 -333.999 -143z" />
    <glyph glyph-name="c" unicode="c" horiz-adv-x="1052" 
d="M716 158l125 61.001c23.333 11.333 39 17 47 17c21.333 0 39.166 -8 53.499 -24s21.5 -35.667 21.5 -59c0 -54 -53.5 -103.5 -160.5 -148.5s-189.5 -67.5 -247.5 -67.5c-130 0 -232.667 36 -308 108s-113 162.333 -113 271c0 155.333 65 318.666 195 489.999
s259.667 257 389 257c72.667 0 148 -17.167 226 -51.5s117 -75.833 117 -124.5c0 -26.667 -10.5 -51.834 -31.5 -75.501s-44.833 -35.5 -71.5 -35.5c-26 0 -53.5 16.333 -82.5 49s-91.5 49 -187.5 49c-70 0 -149.5 -64.333 -238.5 -193s-133.5 -239 -133.5 -331
c0 -65.333 23.833 -119.166 71.5 -161.499s112.834 -63.5 195.501 -63.5c40.667 0 85 11 133 33z" />
    <glyph glyph-name="d" unicode="d" horiz-adv-x="1203" 
d="M877 61c-105.333 -70.667 -214.334 -105.999 -327.001 -105.999c-126.667 0 -227 38.5 -301 115.5s-111 172.5 -111 286.5c0 175.333 57 333.333 171 474s260.333 211 439 211c108 0 193.333 -34.667 256 -104c62 318 102.667 506.667 122 566s55.333 89 108 89
c50 0 75 -23 75 -69c0 -45.333 -45.667 -259 -137 -641c-33.333 -139.333 -60 -285.333 -80 -438s-29.333 -272.334 -28 -359.001v-13c0 -22 -10.667 -44.5 -32 -67.5s-47.666 -34.5 -78.999 -34.5c-40.667 0 -66 30 -76 90zM884.999 289.001l23 172l41 233
c-32.667 108 -107.667 162 -225 162c-142.667 0 -245.667 -49.5 -309 -148.5s-95 -199.833 -95 -302.5c0 -69.333 24 -130.333 72 -183s110.667 -79 188 -79c103.333 0 205 48.667 305 146z" />
    <glyph glyph-name="e" unicode="e" horiz-adv-x="1122" 
d="M290 301c58 -110.667 160.667 -166.001 308 -166.001c52 0 113.667 10.667 185 32s120 48.333 146 81c27.333 35.333 54.666 53 81.999 53c22 0 40.333 -7.5 55 -22.5s22 -32.5 22 -52.5c0 -68 -58.167 -130.167 -174.5 -186.5s-231.166 -84.5 -344.499 -84.5
c-142.667 0 -254 33.5 -334 100.5s-120 157.167 -120 270.5c0 164 55.667 324.667 167 482s255.333 236 432 236c117.333 0 207 -19.667 269 -59s93 -95 93 -167c0 -59.333 -20.167 -110.166 -60.5 -152.499s-84 -75 -131 -98s-108.5 -51.167 -184.5 -84.5zM303 484.999
l327.001 148c138 62.667 232.333 113 283 151c-48.667 53.333 -124.334 80 -227.001 80c-164 0 -291.667 -126.333 -383 -379z" />
    <glyph glyph-name="f" unicode="f" horiz-adv-x="1041" 
d="M1032 1407c-81.333 0 -148.497 -27.998 -201.497 -83.998s-93.5 -140.667 -121.5 -254l-15 -61c114.667 8 189.334 12 224.001 12c105.333 0 153 -33.333 143 -100c-8 -47.333 -38.667 -76 -92 -86c-11.333 -2.66699 -24 -4.5 -38 -5.5s-28.667 -1.5 -44 -1.5
c-30 2 -106.667 -2 -230 -12l-45 -227c-3.33301 -21.333 -7 -47.666 -11 -78.999s-9 -68 -15 -110l-14 -107.5c-4 -30.333 -7.66699 -55.833 -11 -76.5c-20 -124.667 -43 -223 -69 -295c-19.333 -53.333 -54.333 -80 -105 -80c-14 0 -26.667 2.33301 -38 7
s-20.833 11.167 -28.5 19.5s-13.334 18.166 -17.001 29.499s-4.5 23.333 -2.5 36c1.33301 3.33301 2.16602 6.66602 2.49902 9.99902s1.5 7 3.5 11c14.667 44 27.5 89.5 38.5 136.5s20.833 95.833 29.5 146.5l39 274l45 289l-103 -8c-26.667 -2 -45.667 -3 -57 -3
c-34 0 -57.833 8.16699 -71.5 24.5s-17.834 41.166 -12.501 74.499c10 66 73.667 100 191 102l96 4c4 18.667 9.16699 40.667 15.5 66s14.166 54 23.499 86c40.667 146 95.334 255.333 164.001 328c84 84 199.333 126 346 126c94.667 0 137 -32.667 127 -98
c-10.667 -62.667 -59.334 -94 -146.001 -94z" />
    <glyph glyph-name="g" unicode="g" 
d="M1019 430l-117.002 -502.002c-14 -54 -32 -107.667 -54 -161s-48.667 -100.333 -80 -141s-67.5 -74.667 -108.5 -102s-90.5 -48.666 -148.5 -63.999s-126.333 -23 -205 -23c-220 0 -330 35.667 -330 107c0 23.333 7.5 46.5 22.5 69.5s41.167 34.5 78.5 34.5
c12 0 28 -1.66699 48 -5c100.667 -18.667 179.334 -28 236.001 -28c117.333 0 208.166 41.333 272.499 124s114.5 227.667 150.5 435c-96.667 -132.667 -206.667 -199 -330 -199c-107.333 0 -192.166 31.833 -254.499 95.5s-93.5 147.5 -93.5 251.5
c0 178 62 339.5 186 484.5s294 217.5 510 217.5c124.667 0 203.334 -32 236.001 -96c60.667 -2 91 -31.333 91 -88c0 -32.667 -30 -145 -90 -337c-10 -31.333 -16.667 -55.666 -20 -72.999zM764.998 863.998c-143.333 0 -256.166 -53 -338.499 -159
s-123.5 -227.667 -123.5 -365c0 -132.667 60 -199 180 -199c60 0 123.5 30.667 190.5 92s113.667 124.333 140 189s64.833 191.667 115.5 381c-48.667 40.667 -103.334 61 -164.001 61z" />
    <glyph glyph-name="h" unicode="h" horiz-adv-x="1183" 
d="M442 492c-41.333 -256 -75.1699 -405.838 -101.503 -449.505s-59.166 -65.5 -98.499 -65.5c-25.333 0 -46.5 8.33301 -63.5 25s-25.5 36.334 -25.5 59.001c0 16 5.66699 35.333 17 58c8.66699 18 20.334 66.333 35.001 145l143 883l29 138c8 43.333 12 85.333 12 126
c0 70 9.66699 119.333 29 148s49.333 43 90 43c56 0 84 -29.667 84 -89c0 -94 -17.667 -225 -53 -393c-18 -90 -31.667 -163 -41 -219l-13 -88c131.333 146 267.333 219 408 219c69.333 0 125 -15.167 167 -45.5s63 -92.166 63 -185.499c0 -38 -3 -82.333 -9 -133l-22 -191
l-13 -209c-0.666992 -14 -1.16699 -50.667 -1.5 -110s0.333984 -94.666 2.00098 -105.999s-0.833008 -25.666 -7.5 -42.999s-20 -33.333 -40 -48s-42.333 -22 -67 -22c-34 0 -57.167 11.5 -69.5 34.5s-18.5 79.833 -18.5 170.5c0 165.333 9 290.666 27 375.999
c19.333 94.667 29 162.334 29 203.001c0 72 -23.667 108 -71 108c-62.667 0 -124.167 -21.167 -184.5 -63.5s-138.833 -134.166 -235.5 -275.499z" />
    <glyph glyph-name="i" unicode="i" horiz-adv-x="574" 
d="M422 1363c0 35.333 14.001 66.499 42.001 93.499s59.667 40.5 95 40.5c30.667 0 55.167 -9.5 73.5 -28.5s27.5 -41.5 27.5 -67.5c0 -35.333 -13.833 -66.666 -41.5 -93.999s-59.834 -41 -96.501 -41c-28.667 0 -52.5 9.33301 -71.5 28s-28.5 41.667 -28.5 69z
M277.001 -4.00098c-56 0 -83.999 25.666 -83.999 76.999l40 306c9.33301 80 28.666 183 57.999 309c24 114.667 39.667 193.334 47 236.001c12 66.667 50.333 100 115 100c56 0 84 -26 84 -78c0 -17.333 -16.333 -103.333 -49 -258c-32 -140.667 -51.667 -243.667 -59 -309
c-13.333 -118 -26.5 -211.333 -39.5 -280s-50.5 -103 -112.5 -103z" />
    <glyph glyph-name="j" unicode="j" horiz-adv-x="826" 
d="M436 1361c0 34.667 14.168 65.667 42.501 93s60.166 41 95.499 41c30 0 54.5 -9.66699 73.5 -29s28.5 -42 28.5 -68c0 -34 -14.333 -64.5 -43 -91.5s-60.667 -40.5 -96 -40.5c-29.333 0 -53.5 9.33301 -72.5 28s-28.5 41 -28.5 67zM354.001 367l52.001 550.999
c2.66699 27.333 15.667 55.666 39 84.999s50.333 44 81 44c24.667 0 47 -8.66699 67 -26s29.333 -34 28 -50l-60 -578l-71 -614c-10 -84 -50 -167.833 -120 -251.5s-150.333 -125.5 -241 -125.5c-94.667 0 -167.834 45 -219.501 135s-77.5 153 -77.5 189
c0 28 12.333 53.667 37 77s52.667 35 84 35c36.667 0 74 -52 112 -156c18.667 -52.667 51 -79 97 -79c28.667 0 57 17.833 85 53.5s47.333 99.834 58 192.501s27 265.334 49 518.001z" />
    <glyph glyph-name="k" unicode="k" horiz-adv-x="1106" 
d="M614 498c-28 -20.667 -95.0049 -63.6689 -201.005 -129.002c-26 -120 -45 -221 -57 -303c-5.33301 -30 -18.666 -54.333 -39.999 -73s-46.333 -28 -75 -28c-56 0 -84 31 -84 93c0 26 17.667 122.667 53 290c26 108.667 61.5 294.334 106.5 557.001
s70.833 426.667 77.5 492c6 60 11.333 100.833 16 122.5s17.334 41.167 38.001 58.5s45.334 26 74.001 26c55.333 0 83 -27.667 83 -83l-15 -127c-5.33301 -54.667 -9.66602 -90.667 -12.999 -108l-57 -321c-26.667 -148.667 -46 -265 -58 -349
c84.667 57.333 183.667 133.333 297 228l256 227c26 23.333 52 35 78 35c23.333 0 43.333 -9 60 -27s25 -39 25 -63c0 -18.667 -5.33301 -36 -16 -52s-55.5 -60.167 -134.5 -132.5s-159.5 -140.5 -241.5 -204.5l172 -297c72.667 -125.333 109 -212.666 109 -261.999
c0 -27.333 -12.167 -52.333 -36.5 -75s-51.833 -34 -82.5 -34c-37.333 0 -62.666 19 -75.999 57c-28 76 -68.333 156 -121 240z" />
    <glyph glyph-name="l" unicode="l" horiz-adv-x="561" 
d="M503 786l-122.001 -653.999c-11.333 -58 -21.166 -96.167 -29.499 -114.5s-21 -33 -38 -44s-37.833 -16.5 -62.5 -16.5c-56 0 -84 25.667 -84 77c0 15.333 10 74 30 176l109 576l124 713c7.33301 47.333 21.5 77.666 42.5 90.999s44.833 20 71.5 20
c57.333 0 86 -24.667 86 -74c0 -28 -32.667 -221.667 -98 -581c-11.333 -60 -21 -116.333 -29 -169z" />
    <glyph glyph-name="m" unicode="m" horiz-adv-x="1591" 
d="M971 692c-10.667 -64.667 -17.999 -126.664 -21.999 -185.997l-14 -268c-7.33301 -136 -14 -221.167 -20 -255.5s-19.667 -60.833 -41 -79.5s-46.333 -28 -75 -28c-55.333 0 -83 26.667 -83 80c0 2.66699 3.5 31.834 10.5 87.501s14.167 152.834 21.5 291.501
c10 159.333 21 278.666 33 357.999c5.33301 32.667 8 61.334 8 86.001c0 30.667 -4 56.667 -12 78c-51.333 -20 -104 -54 -158 -102l-141 -133l-57 -64c-4.66699 -27.333 -18.334 -86 -41.001 -176c-28 -118 -42 -203.667 -42 -257c0 -44.667 -2.16699 -76.334 -6.5 -95.001
s-17.166 -36.667 -38.499 -54s-46.333 -26 -75 -26c-56.667 0 -85 46.667 -85 140c0 55.333 16.667 154 50 296c26 104 40.667 169.333 44 196s7 74 11 142c15.333 165.333 36 271.166 62 317.499s56.667 69.5 92 69.5c24 0 44.833 -9.66699 62.5 -29s26.5 -41.333 26.5 -66
c0 -12.667 -8 -48 -24 -106c-3.33301 -10.667 -5.33301 -19.334 -6 -26.001l-14 -107c44.667 71.333 105.667 136 183 194s139.333 87 186 87c104.667 0 168 -52 190 -156c89.333 97.333 198.666 146 327.999 146c135.333 0 203 -77.667 203 -233
c0 -126 -3.66699 -280.333 -11 -463c-8.66699 -228 -14.667 -347 -18 -357c-6.66699 -20.667 -20.5 -38.834 -41.5 -54.501s-44.167 -23.5 -69.5 -23.5c-54.667 0 -82 29.333 -82 88c0 106 5 209 15 309l14 312c2 41.333 -3.33301 89.166 -16 143.499s-32 81.5 -58 81.5
c-21.333 0 -67 -19.333 -137 -58s-120.667 -72 -152 -100z" />
    <glyph glyph-name="n" unicode="n" horiz-adv-x="1072" 
d="M475 846c134.667 148.667 261.668 223 381.001 223c144 0 216 -89.667 216 -269c0 -43.333 -3.66699 -93.666 -11 -150.999l-33 -192c-9.33301 -50.667 -14 -122.334 -14 -215.001c0 -138 -9.16699 -224.833 -27.5 -260.5s-51.5 -53.5 -99.5 -53.5
c-58.667 0 -86 31.667 -82 95l6 219c1.33301 58.667 9.33301 133.5 24 224.5s26.667 152.5 36 184.5c6.66699 41.333 10 76.666 10 105.999c0 72.667 -19.333 109 -58 109c-88 0 -177.667 -57.667 -269 -173s-147 -218.333 -167 -309c-4 -16.667 -8.66699 -34.667 -14 -54
c-14 -46 -22.333 -91 -25 -135l-10 -126c-3.33301 -36 -15.833 -64.333 -37.5 -85s-48.167 -31 -79.5 -31c-56 0 -84 26 -84 78l15 164c4 64.667 25 172.334 63 323.001c37.333 154.667 60.666 281.667 69.999 381l9 84c3.33301 32 16 58.167 38 78.5s48.667 30.5 80 30.5
c61.333 0 88 -43 80 -129z" />
    <glyph glyph-name="o" unicode="o" horiz-adv-x="1077" 
d="M121 342c0 176.667 57.333 336.5 172 479.5s259.667 214.5 435 214.5c100 0 176.5 -35 229.5 -105s79.5 -163 79.5 -279c0 -190 -53.333 -356 -160 -498s-239 -213 -397 -213c-108.667 0 -195.667 38.333 -261 115s-98 172 -98 286zM675 834
c-104 0 -189.333 -51.501 -256 -154.501s-100 -206.833 -100 -311.5c0 -69.333 18.167 -124.166 54.5 -164.499s82.833 -60.5 139.5 -60.5c88 0 165.667 40 233 120s101 198.333 101 355c0 144 -55.333 216 -166 216h-6z" />
    <glyph glyph-name="p" unicode="p" horiz-adv-x="1095" 
d="M342 -2l-77.999 -479.002c-10.667 -67.333 -48 -101 -112 -101c-29.333 0 -51.833 9.5 -67.5 28.5s-21.167 43.167 -16.5 72.5l131 798c17.333 108.667 33 242 47 400l18 203c3.33301 40.667 18.166 80.834 44.499 120.501s58.833 59.5 97.5 59.5c50.667 0 76 -26 76 -78
c0 -25.333 -8.33301 -61.666 -25 -108.999c126 79.333 238.667 119 338 119c201.333 0 302 -126 302 -378c0 -209.333 -51 -376.5 -153 -501.5s-231 -187.5 -387 -187.5c-67.333 0 -139 11 -215 33zM440.001 683.998c-9.33301 -99.333 -29.667 -257.666 -61 -474.999
c64 -28.667 133.667 -43 209 -43c100.667 0 177.667 41.5 231 124.5s80 195.5 80 337.5c0 135.333 -45 203 -135 203c-46.667 0 -92.667 -8.33301 -138 -25s-107.333 -57.334 -186 -122.001z" />
    <glyph glyph-name="q" unicode="q" horiz-adv-x="1065" 
d="M823 -70c-37.333 -134 -66.0029 -263 -86.0029 -387c-4 -28.667 -16.333 -52.167 -37 -70.5s-46 -27.5 -76 -27.5c-56.667 0 -85 27.667 -85 83c0 32 8.66699 74.667 26 128l86 332c-65.333 -15.333 -107.666 -23 -126.999 -23c-136 0 -242.5 33.167 -319.5 99.5
s-115.5 154.166 -115.5 263.499c0 90.667 24.833 194.667 74.5 312s131.334 217.166 245.001 299.499s248.5 123.5 404.5 123.5c46.667 0 76 -14.333 88 -43c32 26 59.333 39 82 39c23.333 0 43 -8.66699 59 -26s24 -38.666 24 -63.999c0 -20 -12.667 -95.667 -38 -227
s-57.666 -273.666 -96.999 -426.999zM867.997 891c-8 -4 -20 -6 -36 -6l-92 7c-50.667 0 -116.334 -25 -197.001 -75s-142.667 -121.5 -186 -214.5s-65 -175.167 -65 -246.5c0 -62.667 20.333 -114.5 61 -155.5s101 -61.5 181 -61.5c78.667 0 138.334 42.5 179.001 127.5
s74 203.833 100 356.5z" />
    <glyph glyph-name="r" unicode="r" horiz-adv-x="984" 
d="M1034 739c-4 -26.667 -16.168 -54.1641 -36.501 -82.4971s-48.5 -42.5 -84.5 -42.5c-47.333 0 -71 23.667 -71 71l5 54c0 11.333 1 25.666 3 42.999l10 84c-199.333 -20.667 -348 -115.334 -446 -284.001l-84 -547c-10.667 -68.667 -49 -103 -115 -103
c-58 0 -82 34.333 -72 103l111 700c25.333 159.333 46.5 249 63.5 269s42.167 30 75.5 30c53.333 0 80 -37.333 80 -112c0 -16 -1.33301 -34 -4 -54c144.667 124.667 296.334 187 455.001 187c85.333 0 128 -52.333 128 -157c0 -26.667 -2.66699 -56.334 -8 -89.001z" />
    <glyph glyph-name="s" unicode="s" horiz-adv-x="997" 
d="M840 915c-25.333 -7.33301 -58.334 -16.3301 -99.001 -26.9971c-118 -32 -200.667 -63.167 -248 -93.5s-74.333 -66.5 -81 -108.5c16.667 -6 35 -10.667 55 -14c156.667 -28 270.167 -70.167 340.5 -126.5s105.5 -131.833 105.5 -226.5c0 -120 -45 -213 -135 -279
s-209.333 -99 -358 -99c-96.667 0 -183.167 16.667 -259.5 50s-114.5 76.666 -114.5 129.999c0 31.333 12.833 59 38.5 83s52.834 36 81.501 36c20 0 44 -15.667 72 -47c14 -14.667 45 -27 93 -37s88 -15 120 -15c174.667 0 262 46.667 262 140
c0 76 -54.667 128.333 -164 157l-100 23c-104 24 -169 52.167 -195 84.5s-39 68.5 -39 108.5c0 60.667 15.667 118.667 47 174s75.5 99.666 132.5 132.999s146.833 66.666 269.5 99.999c96 25.333 162.333 46.333 199 63c26.667 12.667 57.334 19 92.001 19
c56 0 84 -27 84 -81l-5 -73l2 -68c1.33301 -60.667 -10.834 -101 -36.501 -121s-52.167 -30 -79.5 -30c-34.667 0 -56.667 9.5 -66 28.5s-14 57.833 -14 116.5z" />
    <glyph glyph-name="t" unicode="t" horiz-adv-x="965" 
d="M631 846c-8 -32 -18.333 -69.3301 -31 -111.997c-56 -184.667 -84 -325.667 -84 -423c0 -114.667 26.667 -172 80 -172c52.667 0 91.667 16.333 117 49c34.667 45.333 66.667 68 96 68c22 0 43.167 -8.33301 63.5 -25s30.5 -38.334 30.5 -65.001
c0 -58.667 -36.833 -108.834 -110.5 -150.501s-146.834 -62.5 -219.501 -62.5c-172 0 -258 107 -258 321c0 117.333 26.333 260.666 79 429.999c14 44.667 27.333 89.334 40 134.001c-144.667 7.33301 -227.5 19.5 -248.5 36.5s-31.5 43.5 -31.5 79.5
c0 29.333 10 53.833 30 73.5s47.333 29.5 82 29.5l207 -17c4 17.333 7 37.333 9 60c1.33301 22.667 3.66602 48 6.99902 76l17 124c4 27.333 16.5 50.333 37.5 69s45.833 28 74.5 28c56 0 84 -45 84 -135c0 -26 -4 -59.667 -12 -101l-20 -121c89.333 11.333 137 17 143 17
c69.333 0 117 -6.83301 143 -20.5s39 -38.834 39 -75.501c0 -32.667 -11.167 -59 -33.5 -79s-49.166 -30 -80.499 -30l-99 4c-49.333 0 -99.666 -3.33301 -150.999 -10z" />
    <glyph glyph-name="u" unicode="u" horiz-adv-x="1065" 
d="M1044 584l-34.9922 -216.998c-22.667 -139.333 -35.667 -233.333 -39 -282c-4 -48.667 -8.83301 -80.5 -14.5 -95.5s-18.834 -30.333 -39.501 -46s-43.667 -23.5 -69 -23.5c-50.667 0 -78 31.333 -82 94c-90 -42 -189.667 -63 -299 -63
c-92.667 0 -164.334 20.5 -215.001 61.5s-76 99.167 -76 174.5c0 99.333 5 206.666 15 321.999s29.667 228.166 59 338.499s54.166 174.5 74.499 192.5s45.166 27 74.499 27c26.667 0 48 -7.33301 64 -22s24 -33.334 24 -56.001c0 -21.333 -13.333 -77.333 -40 -168
c-22 -69.333 -40.167 -156.166 -54.5 -260.499s-21.5 -194.5 -21.5 -270.5c0 -38.667 2 -72 6 -100c38.667 -24 79 -36 121 -36c89.333 0 187 14.333 293 43l57 397c5.33301 34.667 19.166 110.5 41.499 227.5s44.666 186.167 66.999 207.5s50.166 32 83.499 32
c29.333 0 51.666 -9.33301 66.999 -28s20.333 -42 15 -70z" />
    <glyph glyph-name="v" unicode="v" horiz-adv-x="996" 
d="M606 51c-10 -61.333 -44.666 -92.001 -103.999 -92.001c-47.333 0 -78 28.667 -92 86l-88 408l-107 458c-2.66699 11.333 -4 26.333 -4 45c0 18 11.833 39.333 35.5 64s52.167 37 85.5 37c39.333 0 64.666 -20.667 75.999 -62l143 -698c74.667 118 162 272.333 262 463
c71.333 142.667 118.833 226.834 142.5 252.501s49.167 38.5 76.5 38.5c26 0 47.333 -8.66699 64 -26s25 -37.333 25 -60c0 -26 -78 -173 -234 -441z" />
    <glyph glyph-name="w" unicode="w" horiz-adv-x="1401" 
d="M805 647l-113.001 -190l-217 -414c-13.333 -25.333 -29.666 -44.333 -48.999 -57c-28.667 -41.333 -63.667 -62 -105 -62c-38 0 -66 50.667 -84 152s-25.333 290.333 -22 567v150c0 118 14.333 188.667 43 212s56.667 35 84 35c24.667 0 44.834 -6.83301 60.501 -20.5
s23.5 -50.167 23.5 -109.5c0 -23.333 -1.33301 -56.333 -4 -99l-8 -145l-13 -451c89.333 170.667 203.333 407.667 342 711c35.333 73.333 79.666 110 132.999 110c42 0 68.333 -23.833 79 -71.5s16 -184.834 16 -411.501c0 -167.333 3.33301 -298.333 10 -393l115 272
l215 545c16 40.667 48 61 96 61c26.667 0 48.167 -8 64.5 -24s24.5 -35.667 24.5 -59c0 -14 -25.333 -82.667 -76 -206s-108.167 -256.166 -172.5 -398.499s-113.833 -241 -148.5 -296s-64.667 -91.5 -90 -109.5s-51 -27 -77 -27c-34.667 0 -65.167 27 -91.5 81
s-39.5 195.667 -39.5 425z" />
    <glyph glyph-name="x" unicode="x" horiz-adv-x="1209" 
d="M1022 721l-205.001 -176.001l260 -426c10.667 -17.333 16 -34.666 16 -51.999c0 -27.333 -12.667 -52.5 -38 -75.5s-51.333 -34.5 -78 -34.5c-16 0 -29.667 4.16699 -41 12.5s-42.5 52.166 -93.5 131.499l-187.5 305l-227 -201l-169 -144
c-45.333 -39.333 -79.666 -59 -102.999 -59c-22 0 -41.333 8.83301 -58 26.5s-25 37.834 -25 60.501c0 39.333 45.333 94.333 136 165c62 48 97.333 76 106 84l248 223l-102 189c-42 78 -79 133 -111 165c-18 19.333 -27 40 -27 62c0 27.333 12 53.333 36 78s49 37 75 37
c38 0 89.333 -51.333 154 -154l135 -240l223 181c95.333 77.333 160.333 137.333 195 180c26 31.333 54 47 84 47c23.333 0 43.333 -8.66699 60 -26s25 -37.333 25 -60c0 -38.667 -39.333 -92.667 -118 -162z" />
    <glyph glyph-name="y" unicode="y" horiz-adv-x="1066" 
d="M707 143c-129.333 -209.333 -219.668 -361.334 -271.001 -456.001l-96 -195c-23.333 -48 -56.666 -72 -99.999 -72c-25.333 0 -46.5 7.5 -63.5 22.5s-25.5 34.833 -25.5 59.5c0 60.667 102.667 258.667 308 594l-250 688l-33 74c-10 22.667 -15 43.334 -15 62.001
c0 31.333 12.833 58.833 38.5 82.5s52.834 35.5 81.501 35.5c21.333 0 40.666 -8 57.999 -24s53.833 -90.833 109.5 -224.5s107.5 -286.167 155.5 -457.5l203 344c34 58 78.5 127.833 133.5 209.5s91.5 127.834 109.5 138.501s35.333 16 52 16
c25.333 0 46.5 -8.33301 63.5 -25s25.5 -36.667 25.5 -60c0 -18.667 -6.33301 -39.334 -19 -62.001z" />
    <glyph glyph-name="z" unicode="z" horiz-adv-x="1102" 
d="M513 166c70.667 2.66699 132.337 4 185.004 4c25.333 0 62.666 -5.33301 111.999 -16c47.333 -10 85.666 -15 114.999 -15c56.667 0 85 -27.333 85 -82c0 -31.333 -10.833 -58.833 -32.5 -82.5s-49.5 -35.5 -83.5 -35.5c-32.667 0 -70.667 4.66699 -114 14
c-44 9.33301 -82.333 14 -115 14c-144.667 0 -288.667 -13.667 -432 -41c-14.667 -2.66699 -27.667 -4 -39 -4c-55.333 0 -83 22.667 -83 68c0 41.333 22 79.333 66 114c201.333 160 428.666 405.333 681.999 736c-88 -6 -152 -9 -192 -9
c-51.333 0 -120.333 3.66699 -207 11s-136.5 19 -149.5 35s-19.5 34.333 -19.5 55c0 32.667 11 61.667 33 87s49 38 81 38c37.333 0 85.666 -4.33301 144.999 -13c66.667 -8 116 -12 148 -12c45.333 0 113.333 3.33301 204 10c105.333 7.33301 174.333 11 207 11
c50 0 75 -18.333 75 -55c0 -56.667 -34.333 -119.667 -103 -189c-74 -74.667 -167 -177.667 -279 -309c-148.667 -178.667 -245 -290 -289 -334z" />
    <glyph glyph-name="braceleft" unicode="{" horiz-adv-x="750" 
d="M342 573c58 -90 87 -165.332 87 -225.999c0 -30 -8.33301 -69.333 -25 -118c-19.333 -62.667 -29 -118 -29 -166c0 -56.667 9 -114.167 27 -172.5s45 -87.5 81 -87.5c54.667 0 92.667 -3.33301 114 -10s32 -25.667 32 -57c0 -28.667 -8.66699 -56 -26 -82
s-66.666 -39 -147.999 -39c-91.333 0 -159.666 42.167 -204.999 126.5s-68 177.833 -68 280.5c0 58.667 10 122 30 190c16 56 24 92 24 108c0 43.333 -24 84.666 -72 123.999c-52 41.333 -78 76.333 -78 105c0 31.333 30 72.833 90 124.5s110.667 83.167 152 94.5l59 426
c20 145.333 68.333 253.333 145 324s161 106 253 106c38 0 71.833 -9.16699 101.5 -27.5s44.5 -42.5 44.5 -72.5c0 -52 -47.667 -80.667 -143 -86c-80 -4.66699 -134.667 -28 -164 -70s-50 -114.667 -62 -218c-19.333 -164 -33.333 -272.333 -42 -325
s-31.334 -103.5 -68.001 -152.5s-73.334 -82.167 -110.001 -99.5z" />
    <glyph glyph-name="bar" unicode="|" horiz-adv-x="863" 
d="M784 1626l-297 -1872c-12 -77.333 -46.667 -116 -104 -116c-46 0 -69 29.333 -69 88c0 35.333 12.667 135 38 299l254 1601c4 24 16.167 44.667 36.5 62s43.833 26 70.5 26c58 0 81.667 -29.333 71 -88z" />
    <glyph glyph-name="braceright" unicode="}" horiz-adv-x="750" 
d="M527 573c-32.667 18 -58.3359 49.834 -77.0029 95.501s-28 84.834 -28 117.501c0 19.333 14.167 98 42.5 236s42.5 226.333 42.5 265c0 49.333 -11 85.833 -33 109.5s-61.667 37.5 -119 41.5c-78.667 4 -118 25 -118 63c0 37.333 19.167 67.166 57.5 89.499
s78.833 33.5 121.5 33.5c70 0 133.167 -23.667 189.5 -71s84.5 -126.666 84.5 -237.999c0 -36.667 -3.33301 -77 -10 -121l-39 -201l-37 -225c32.667 -11.333 69.334 -39.5 110.001 -84.5s61 -83.833 61 -116.5c0 -33.333 -37 -74.333 -111 -123
c-37.333 -23.333 -64.666 -46.5 -81.999 -69.5s-28.166 -43 -32.499 -60s-7.5 -51.167 -9.5 -102.5c-6.66699 -156 -54 -294.5 -142 -415.5s-183.667 -181.5 -287 -181.5c-64 0 -103.5 7.16699 -118.5 21.5s-22.5 32.166 -22.5 53.499c0 42 10.833 71.333 32.5 88
s67.167 25 136.5 25c27.333 0 54.833 15.167 82.5 45.5s54.334 74.333 80.001 132s40.667 102.667 45 135s9.16602 89.166 14.499 170.499c4.66699 84 60 179.667 166 287z" />
    <glyph glyph-name="asciitilde" unicode="~" horiz-adv-x="1224" 
d="M758 862l89.999 -133.001c36 -53.333 78.333 -80 127 -80c26 0 57.333 40.333 94 121c38.667 82 79.667 123 123 123c22.667 0 41.167 -6.83301 55.5 -20.5s21.5 -30.5 21.5 -50.5c0 -68 -33.167 -144.167 -99.5 -228.5s-142.833 -126.5 -229.5 -126.5
c-46 0 -92.5 12 -139.5 36s-98.167 83.667 -153.5 179c-28 49.333 -49 74 -63 74c-55.333 0 -131.333 -63 -228 -189c-22 -34 -50.667 -51 -86 -51c-22 0 -40.5 7.16699 -55.5 21.5s-22.5 31.5 -22.5 51.5c0 46.667 46.333 115.834 139 207.501s186.334 137.5 281.001 137.5
c57.333 0 106 -24 146 -72z" />
    <glyph glyph-name="uni00A0" unicode="&#xa0;" horiz-adv-x="612" 
 />
    <glyph glyph-name="exclamdown" unicode="&#xa1;" horiz-adv-x="487" 
d="M473 1606c24 0 46.168 -14.499 66.501 -43.499s30.5 -57.833 30.5 -86.5c0 -26.667 -11.333 -50.334 -34 -71.001s-47 -31 -73 -31c-23.333 0 -45.5 14.667 -66.5 44s-31.5 57.333 -31.5 84s11.167 50.667 33.5 72s47.166 32 74.499 32zM307.001 1135
c9.33301 60 43.333 89.999 102 89.999c50.667 0 76 -22 76 -66l-18 -145c-7.33301 -59.333 -13 -99.666 -17 -120.999l-113 -690c-14.667 -88.667 -27 -155.667 -37 -201s-41.667 -68 -95 -68c-57.333 0 -82 29.667 -74 89z" />
    <glyph glyph-name="cent" unicode="&#xa2;" horiz-adv-x="1276" 
d="M679 274l-10.0029 -56.999c-21.333 -122.667 -61.666 -184 -120.999 -184c-48 0 -72 20.667 -72 62c0 16 11.667 85.333 35 208c-105.333 37.333 -179.166 87.166 -221.499 149.499s-63.5 141.833 -63.5 238.5c0 201.333 54.667 370.833 164 508.5s231 224.5 365 260.5
c17.333 107.333 31.333 181 42 221s38.334 60 83.001 60c22.667 0 41.667 -8.33301 57 -25s21 -37 17 -61l-29 -178c65.333 -6 129 -29.333 191 -70c28 45.333 66.667 68 116 68c36 0 54 -15.667 54 -47c0 -36 -18.5 -91.5 -55.5 -166.5s-68.5 -112.5 -94.5 -112.5
c-10.667 0 -24.334 8.33301 -41.001 25c-48 52.667 -85.333 87.167 -112 103.5s-56.334 26.833 -89.001 31.5c-10 -61.333 -40 -206.333 -90 -435l-96 -432c82.667 4 148.334 28.667 197.001 74l137 162c26.667 31.333 53.334 47 80.001 47c48.667 0 73 -21.333 73 -64
c0 -56.667 -49.5 -134.167 -148.5 -232.5s-221.5 -149.833 -367.5 -154.5zM547.997 479.001l174 800.999c-220.667 -113.333 -331 -303.666 -331 -570.999c0 -53.333 11.5 -98 34.5 -134s63.833 -68 122.5 -96z" />
    <glyph glyph-name="sterling" unicode="&#xa3;" horiz-adv-x="1625" 
d="M430 891c27.333 217.333 103.996 391.5 229.996 522.5s280.333 196.5 463 196.5c106.667 0 201.667 -23.833 285 -71.5s125 -110.167 125 -187.5c0 -44.667 -12.167 -76.5 -36.5 -95.5s-49.166 -28.5 -74.499 -28.5c-32.667 0 -56 19.667 -70 59
c-18 53.333 -47 92 -87 116s-101 36 -183 36c-120.667 0 -223 -45.833 -307 -137.5s-136.667 -209.834 -158 -354.501c-4 -22 -6 -36.333 -6 -43c102 8 179.667 12 233 12c38.667 0 96 -2 172 -6c78 -4 136 -6 174 -6c51.333 0 77 -24.667 77 -74
c0 -27.333 -10.167 -51.5 -30.5 -72.5s-44.5 -31.5 -72.5 -31.5c-40 0 -99 2 -177 6c-75.333 4 -132 6 -170 6c-53.333 0 -121.333 -3.33301 -204 -10c6 -101.333 9 -182.666 9 -243.999c0 -121.333 -27 -234 -81 -338h27c64.667 0 138.334 -19 221.001 -57
c86.667 -39.333 161.667 -59 225 -59c62.667 0 113.5 6.66699 152.5 20s66.5 30.166 82.5 50.499s34.667 62.833 56 127.5c18.667 48 50.667 72 96 72c50.667 0 76 -23.333 76 -70c0 -34.667 -14.167 -84.167 -42.5 -148.5s-79.666 -118.833 -153.999 -163.5
s-172.833 -67 -295.5 -67c-62 0 -137.667 20 -227 60c-85.333 38 -161 57 -227 57c-48.667 0 -104 -13.667 -166 -41c-63.333 -28.667 -99.666 -43 -108.999 -43c-48 0 -72 25.333 -72 76c0 24.667 21.333 56 64 94c79.333 72.667 132 140.834 158 204.501
s39 142.167 39 235.5c0 60 -3.33301 134 -10 222c-50.667 -2.66699 -102 -4 -154 -4c-88 0 -132 25.667 -132 77c0 28 10 52.833 30 74.5s44.333 32.5 73 32.5l107 -4h71z" />
    <glyph glyph-name="currency" unicode="&#xa4;" horiz-adv-x="1253" 
d="M641 1077c54 19.333 121.001 28.999 201.001 28.999c26 0 67 -14.333 123 -43l186 104c95.333 53.333 154 80 176 80c22.667 0 42.167 -9 58.5 -27s24.5 -38.667 24.5 -62c0 -30.667 -9.83301 -54.5 -29.5 -71.5s-118.834 -74.167 -297.501 -171.5
c9.33301 -25.333 14 -54.666 14 -87.999c0 -103.333 -38.667 -198 -116 -284c45.333 -38.667 87.333 -84 126 -136s58 -91.667 58 -119c0 -24.667 -12.333 -48.834 -37 -72.501s-51.667 -35.5 -81 -35.5c-26.667 0 -48.667 11 -66 33l-78 100
c-22.667 29.333 -52 59.333 -88 90c-30.667 -13.333 -74.334 -20 -131.001 -20c-59.333 0 -127 26.667 -203 80l-211 -207c-25.333 -24.667 -51.666 -37 -78.999 -37c-24.667 0 -45.834 8.16699 -63.501 24.5s-26.5 36.833 -26.5 61.5c0 31.333 17.833 62.5 53.5 93.5
s107.167 102.167 214.5 213.5c-12.667 34 -19 69.667 -19 107c0 92.667 36.333 175.334 109 248.001l-94 120c-40 51.333 -60 93.333 -60 126c-0.666992 24.667 11.333 48.5 36 71.5s52.334 34.5 83.001 34.5c26 0 48.5 -10.833 67.5 -32.5s68.833 -91.5 149.5 -209.5z
M895.001 788.999c0 78.667 -39.665 117.998 -118.998 117.998c-42.667 0 -90.834 -13.167 -144.501 -39.5s-80.5 -69.166 -80.5 -128.499c0 -47.333 15.667 -84.666 47 -111.999s72.333 -41 123 -41c41.333 0 80.666 19.333 117.999 58s56 87 56 145z" />
    <glyph glyph-name="yen" unicode="&#xa5;" horiz-adv-x="1302" 
d="M662 608c-14.667 26.667 -38.6689 73.9971 -72.002 141.997c-20 0 -66.833 3.5 -140.5 10.5s-116.5 16 -128.5 27s-18 26.167 -18 45.5c0 64.667 33 97 99 97c37.333 0 76.666 -2 117.999 -6c-120 284 -180 433.667 -180 449c0 18 10.333 36.667 31 56
s43.334 29 68.001 29c16 0 29.5 -4.5 40.5 -13.5s28.667 -39.5 53 -91.5s44.166 -99.667 59.499 -143c32.667 -93.333 60.667 -165 84 -215l90 -207c84.667 85.333 168.334 189 251.001 311l204 300c20 35.333 48 53 84 53c20.667 0 37.834 -6.5 51.501 -19.5
s20.5 -29.167 20.5 -48.5c0 -21.333 -45.333 -97.666 -136 -228.999l-168 -231l115 12c48 4.66699 72 -16 72 -62c0 -70.667 -33 -106 -99 -106c-21.333 0 -56.666 -3.33301 -105.999 -10c-22.667 -3.33301 -42.334 -5.33301 -59.001 -6
c-17.333 -1.33301 -31.666 -2.66602 -42.999 -3.99902l-134 -144l-6 -47l51 -2c39.333 -1.33301 92 2 158 10c62 8 93 -15.333 93 -70c0 -35.333 -13.667 -61.166 -41 -77.499s-79.333 -24.5 -156 -24.5c-36 0 -79.667 1.33301 -131 4l-31 -202
c-1.33301 -8.66699 -4 -36 -8 -82c-6 -70.667 -16 -116 -30 -136s-39 -30 -75 -30c-47.333 0 -71 20.667 -71 62l12 116c0.666992 8.66699 4.66699 40 12 94l29 180c-40.667 6 -82.334 9 -125.001 9c-106 2 -159 29 -159 81c0 60.667 39.333 91 118 91l88 -5h65
c18.667 0 33.334 -0.666992 44.001 -2z" />
    <glyph glyph-name="brokenbar" unicode="&#xa6;" horiz-adv-x="828" 
d="M729 1620l-108.999 -671c-6.66699 -48 -36.334 -72 -89.001 -72c-40 0 -60 21.333 -60 64c0 8 10.333 74 31 198l57 342c16.667 103.333 27.834 161.333 33.501 174s15 22.667 28 30s28.833 11 47.5 11c49.333 0 69.666 -25.333 60.999 -76zM398.001 -43
c-42.667 0 -64.001 18.333 -64.001 55c0 5.33301 5.66699 48.666 17 129.999c6 43.333 12 94.333 18 153c22.667 183.333 41.667 299.5 57 348.5s43.333 73.5 84 73.5c41.333 0 62 -18.667 62 -56c0 -9.33301 -1.66699 -21.666 -5 -36.999
c-15.333 -65.333 -31.666 -175 -48.999 -329c-14 -136 -25.5 -226.333 -34.5 -271s-37.5 -67 -85.5 -67z" />
    <glyph glyph-name="section" unicode="&#xa7;" horiz-adv-x="1300" 
d="M1057 516c40.667 -52.667 61 -112.665 61 -179.998c0 -118 -46 -216.5 -138 -295.5s-217.667 -118.5 -377 -118.5c-150 0 -265.5 29.833 -346.5 89.5s-121.5 142.167 -121.5 247.5c0 64 8.83301 108.167 26.5 132.5s45.834 36.5 84.501 36.5c38 0 62 -18.333 72 -55
l14 -105c16.667 -124 115.667 -186 297 -186c94 0 168.833 21.5 224.5 64.5s83.5 96.5 83.5 160.5c0 76.667 -52.667 133.334 -158 170.001l-330 113c-25.333 8.66699 -55.5 35.167 -90.5 79.5s-52.5 99.833 -52.5 166.5c0 123.333 52.667 225 158 305
c-18 35.333 -27 75 -27 119c0 112.667 45.167 204.167 135.5 274.5s201.5 105.5 333.5 105.5c108.667 0 199.167 -25.833 271.5 -77.5s108.5 -98.834 108.5 -141.501c0 -27.333 -10 -51.5 -30 -72.5s-42.333 -31.5 -67 -31.5c-19.333 0 -60.333 26 -123 78
c-64 53.333 -125 80 -183 80c-61.333 0 -119.333 -15.833 -174 -47.5s-82 -73.834 -82 -126.501c0 -63.333 50.667 -123 152 -179l268 -145c90.667 -49.333 136 -128.666 136 -237.999c0 -64.667 -14.333 -116.334 -43 -155.001s-56.334 -61.334 -83.001 -68.001z
M980 590.002c0.666992 2 2.33301 6 5 12c14 34 21 61.667 21 83c0 70 -55.333 133 -166 189l-268 140c-56.667 -32 -85 -78.333 -85 -139c0 -42.667 16.333 -80.5 49 -113.5s113.667 -66.167 243 -99.5c98.667 -26 165.667 -50 201 -72z" />
    <glyph glyph-name="dieresis" unicode="&#xa8;" horiz-adv-x="1139" 
d="M1165 1293c0 -24.667 -12 -47.332 -36 -67.999s-64.667 -31 -122 -31c-25.333 0 -47.833 7.16699 -67.5 21.5s-29.5 31.833 -29.5 52.5c0 36.667 11.5 64.5 34.5 83.5s66.167 28.5 129.5 28.5c22 0 42.667 -9.33301 62 -28s29 -38.334 29 -59.001zM653 1288
c0 -31.333 -16.167 -56.5 -48.5 -75.5s-61.5 -28.5 -87.5 -28.5c-72 0 -108 27 -108 81c0 32.667 15.5 58.667 46.5 78s57.833 29 80.5 29c78 0 117 -28 117 -84z" />
    <glyph glyph-name="copyright" unicode="&#xa9;" horiz-adv-x="1629" 
d="M1647 1109c0 -222.667 -90.168 -421.167 -270.501 -595.5s-366.833 -261.5 -559.5 -261.5c-424 0 -636 167.667 -636 503c0 254.667 103.833 462.5 311.5 623.5s416.834 241.5 627.501 241.5c170 0 300.333 -47.333 391 -142s136 -217.667 136 -369zM361.999 787
c0 -122 38.332 -212.334 114.999 -271.001s199.667 -88 369 -88c142.667 0 282.334 69.5 419.001 208.5s205 294.833 205 467.5c0 100.667 -28.167 181.5 -84.5 242.5s-140.833 91.5 -253.5 91.5c-222.667 0 -406.667 -58.667 -552 -176s-218 -275.666 -218 -474.999z
M704.998 928.999c0 -31.333 17.334 -58.499 52.001 -81.499s71 -34.5 109 -34.5c50 0 104 20.333 162 61c55.333 42.667 91.666 64 108.999 64c22 0 40.5 -7.83301 55.5 -23.5s22.5 -34.5 22.5 -56.5c0 -49.333 -43.833 -98.5 -131.5 -147.5s-168.834 -73.5 -243.501 -73.5
c-92 0 -167.667 25.833 -227 77.5s-89 113.167 -89 184.5c0 111.333 58 209.166 174 293.499s235 126.5 357 126.5c36 0 66.333 -9.33301 91 -28s37 -43.334 37 -74.001c0 -59.333 -30.667 -89 -92 -89c-8 0 -17.667 2 -29 6c-11.333 3.33301 -20.666 5 -27.999 5
c-86.667 0 -163.167 -21.667 -229.5 -65s-99.5 -91.666 -99.5 -144.999z" />
    <glyph glyph-name="ordfeminine" unicode="&#xaa;" horiz-adv-x="1079" 
d="M864 971c-27.333 -17.333 -68.834 -32.334 -124.501 -45.001s-102.167 -19 -139.5 -19c-83.333 0 -147.833 24.833 -193.5 74.5s-68.5 114.167 -68.5 193.5c0 122 43.5 234.5 130.5 337.5s210.833 154.5 371.5 154.5c70.667 0 129.167 -8.66699 175.5 -26
s69.5 -42 69.5 -74c0 -36 -9.33301 -62 -28 -78c-36.667 -94 -55 -198.333 -55 -313c0 -20 1.33301 -36.667 4 -50c-1.33301 -2 0.333984 -8.66699 5.00098 -20c24 -63.333 36 -103.666 36 -120.999c0 -16.667 -12.667 -35.167 -38 -55.5s-54.333 -30.5 -87 -30.5
c-14.667 0 -34 24 -58 72zM888.999 1513c-18 10 -51.332 14.999 -99.999 14.999c-76.667 0 -139.834 -34.833 -189.501 -104.5s-74.5 -145.167 -74.5 -226.5c0 -84 41.333 -126 124 -126c78 0 136.667 16.333 176 49c0 58 7 129.833 21 215.5s28.333 144.834 43 177.501z
" />
    <glyph glyph-name="guillemotleft" unicode="&#xab;" horiz-adv-x="1183" 
d="M393 614c32.667 -26 71.668 -68.333 117.001 -127c53.333 -68 90.333 -112.333 111 -133c18 -18 27 -36.667 27 -56c0 -25.333 -10.833 -48.833 -32.5 -70.5s-45.834 -32.5 -72.501 -32.5c-18.667 0 -36 6.16699 -52 18.5s-64.333 68.166 -145 167.499
c-58 71.333 -115.333 118.333 -172 141c-42.667 16 -64 40.333 -64 73c0 37.333 28.333 68.333 85 93c67.333 31.333 143.666 85.333 228.999 162l194 171c30.667 26.667 59 40 85 40c21.333 0 39 -7.66699 53 -23s21 -33.666 21 -54.999c0 -18 -4.66699 -34.167 -14 -48.5
s-50.166 -52.833 -122.499 -115.5zM842.001 592c30.667 -23.333 71.001 -64.998 121.001 -124.998c40 -54 76 -99 108 -135c18.667 -16.667 28 -35.334 28 -56.001c0 -26 -11.333 -49.833 -34 -71.5s-46.667 -32.5 -72 -32.5c-20 0 -41 10 -63 30s-67 72.667 -135 158
c-56 70 -112.667 116.667 -170 140c-42 16 -63 40 -63 72c0 38.667 27 70.667 81 96c62.667 26 139 79 229 159c103.333 93.333 170.666 152.166 201.999 176.499s57 36.5 77 36.5c21.333 0 39.833 -8 55.5 -24s23.5 -35.333 23.5 -58c0 -23.333 -12.333 -46.833 -37 -70.5
s-66.5 -60.5 -125.5 -110.5z" />
    <glyph glyph-name="logicalnot" unicode="&#xac;" horiz-adv-x="984" 
d="M944 338c-10.667 -60 -45.332 -90 -103.999 -90c-59.333 0 -84 30 -74 90l33 229c-232.667 -13.333 -407.334 -20 -524.001 -20c-95.333 0 -143 25.667 -143 77c0 36 11.167 61.833 33.5 77.5s68.166 23.5 137.499 23.5h88l336 6c8.66699 0 41.334 1.66699 98.001 5
c117.333 6.66699 176 -19.333 176 -78c0 -18.667 -10 -75 -30 -169z" />
    <glyph glyph-name="uni00AD" unicode="&#xad;" horiz-adv-x="853" 
d="M254 461c-48.667 0 -72.999 19 -72.999 57c0 65.333 32.667 98 98 98c66 0 145.667 2.33301 239 7c84 5.33301 163.333 8 238 8c51.333 0 77 -20 77 -60c0 -47.333 -21.333 -77.5 -64 -90.5s-214.334 -19.5 -515.001 -19.5z" />
    <glyph glyph-name="registered" unicode="&#xae;" horiz-adv-x="1629" 
d="M1684 1076c0 -236.667 -93.333 -440.666 -280 -611.999s-393 -257 -619 -257c-182 0 -325.333 46.333 -430 139s-157 215.334 -157 368.001c0 127.333 31 264.166 93 410.499s167.5 267.166 316.5 362.499s337.833 143 566.5 143c156 0 280 -56 372 -168
s138 -240.667 138 -386zM379 747.001c0 -114 38 -202.832 114 -266.499s182.667 -95.5 320 -95.5c176.667 0 335.667 65.167 477 195.5s212 287.5 212 471.5c0 108.667 -33.5 202.834 -100.5 282.501s-158.5 119.5 -274.5 119.5c-177.333 0 -322.5 -34.333 -435.5 -103
s-193.333 -162.334 -241 -281.001s-71.5 -226.334 -71.5 -323.001zM973 858.002l38.002 -52.999c30 -44 65 -72 105 -84c39.333 -16.667 59 -41 59 -73c0 -26.667 -10.833 -50.834 -32.5 -72.501s-45.5 -32.5 -71.5 -32.5c-76 0 -152.333 58 -229 174
c-38.667 54 -70.667 90.667 -96 110c-34.667 -112 -61.167 -187 -79.5 -225s-47.833 -57 -88.5 -57c-22.667 0 -41.834 7 -57.501 21s-23.5 31 -23.5 51l4 23c0 2.66699 1 5.66699 3 9l168 502c38.667 114.667 83 173.334 133 176.001c6 0 14 1.33301 24 4
c50.667 14 85 21 103 21c153.333 0 259.5 -15 318.5 -45s88.5 -74.667 88.5 -134c0 -68 -27.833 -131.333 -83.5 -190s-149.834 -100.334 -282.501 -125.001zM809.002 1012c223.333 20 339.333 63 348 129c-28 22 -100.333 33 -217 33h-39c-16 0 -31.667 -2.33301 -47 -7
c-4 -19.333 -19 -71 -45 -155z" />
    <glyph glyph-name="macron" unicode="&#xaf;" horiz-adv-x="1284" 
d="M850 1335l49.998 0.00195312c20.667 0 45 0.666992 73 2l71 2c48 1.33301 79.5 -1.83398 94.5 -9.50098s22.5 -22.834 22.5 -45.501c0 -52 -25.667 -82.667 -77 -92l-113 -6h-215l-227 6c-41.333 0 -62 18.667 -62 56c0 38 11.167 63.333 33.5 76s60.5 19 114.5 19
c26.667 0 65.334 -1.33301 116.001 -4c54.667 -2.66699 94.334 -4 119.001 -4z" />
    <glyph glyph-name="degree" unicode="&#xb0;" horiz-adv-x="838" 
d="M973 1382c0 -118.667 -45 -216.166 -135 -292.499s-188.333 -114.5 -295 -114.5c-91.333 0 -160.333 27.5 -207 82.5s-70 122.5 -70 202.5c0 118.667 40.5 218.167 121.5 298.5s175.833 120.5 284.5 120.5c94 0 167.667 -28.833 221 -86.5s80 -127.834 80 -210.501z
M418 1288c0 -42 12.168 -80.167 36.501 -114.5s61.166 -51.5 110.499 -51.5c57.333 0 114.333 20.5 171 61.5s85 99.167 85 174.5c0 52 -15.167 94 -45.5 126s-72.5 48 -126.5 48s-106 -22.833 -156 -68.5s-75 -104.167 -75 -175.5z" />
    <glyph glyph-name="plusminus" unicode="&#xb1;" horiz-adv-x="984" 
d="M629 557l-11.999 -78c-3.33301 -21.333 -10.166 -58.333 -20.499 -111s-26.5 -88.667 -48.5 -108s-46.333 -29 -73 -29c-50 0 -71 30.333 -63 91l35 231c-80 -4 -137.333 -6 -172 -6c-95.333 0 -143 25.667 -143 77c0 36.667 10.667 62.667 32 78s67.666 23 138.999 23
c35.333 0 92.666 2 171.999 6l23 152c16.667 109.333 56.334 164 119.001 164c22.667 0 41.5 -7.33301 56.5 -22s22.5 -32.667 22.5 -54c0 -6.66699 -2 -18.667 -6 -36c-2.66699 -10 -5 -20.333 -7 -31l-8 -30c-2.66699 -10 -4.33398 -18 -5.00098 -24l-16 -115l73 -4
c4.66699 0 37.334 1.66699 98.001 5c117.333 6.66699 176 -19.333 176 -78c0 -26.667 -9.83301 -51.167 -29.5 -73.5s-43.834 -33.5 -72.501 -33.5l-71 8l-101 -2c-61.333 -1.33301 -94 -1.33301 -98 0zM547.001 61h98l57 2c128 4.66699 192 -21.333 192 -78
c0 -28 -10.167 -53 -30.5 -75s-43.833 -33 -70.5 -33c-8.66699 0 -26.667 2.33301 -54 7c-18 2.66699 -116 1 -294 -5c-99.333 -5.33301 -191.666 -8 -276.999 -8c-94.667 0 -142 25.667 -142 77c0 68.667 42 103 126 103c43.333 0 109.666 1.33301 198.999 4
c88 4 153.333 6 196 6z" />
    <glyph glyph-name="uni00B2" unicode="&#xb2;" horiz-adv-x="1333" 
d="M442 975l167.998 -4c26.667 -0.666992 59 2 97 8c45.333 6.66699 78 10 98 10c40 0 60 -20.667 60 -62c0 -70.667 -93.667 -106 -281 -106h-43c-17.333 0 -37.333 0.666992 -60 2l-58 2c-49.333 2 -81.166 4.5 -95.499 7.5s-28.666 11.333 -42.999 25
s-21.5 31.5 -21.5 53.5c0 99.333 124.667 223.666 374 372.999c77.333 44.667 116 99.334 116 164.001c0 68 -35.333 102 -106 102c-57.333 0 -109.666 -39.333 -156.999 -118c-21.333 -27.333 -44 -41 -68 -41c-44.667 0 -67 19 -67 57c0 56.667 35 110.834 105 162.501
s146.667 77.5 230 77.5c64.667 0 118.167 -21 160.5 -63s63.5 -93.333 63.5 -154c0 -132 -97.667 -249.667 -293 -353c-66.667 -36.667 -126.334 -84.334 -179.001 -143.001z" />
    <glyph glyph-name="uni00B3" unicode="&#xb3;" horiz-adv-x="1333" 
d="M730 1280c100.667 -26 150.999 -81.332 150.999 -165.999c0 -88.667 -36.5 -161 -109.5 -217s-165.167 -84 -276.5 -84c-154 0 -231 29.667 -231 89c0 19.333 7.66699 39.666 23 60.999s33.333 32 54 32c3.33301 0 11.333 -2 24 -6c49.333 -16 100.666 -24 153.999 -24
c130 0 195 46 195 138c0 33.333 -8.16699 54.5 -24.5 63.5s-64.166 18.167 -143.499 27.5c-31.333 6 -47 20.667 -47 44c0 29.333 8.33301 51 25 65s48 26.667 94 38c73.333 18.667 110 60.334 110 125.001c0 42.667 -35.667 64 -107 64c-50 0 -101 -7.66699 -153 -23
c-9.33301 -2.66699 -16.666 -4 -21.999 -4c-36.667 0 -55 15.333 -55 46c0 55.333 27.5 91.166 82.5 107.499s115.167 24.5 180.5 24.5c56.667 0 110.5 -14.167 161.5 -42.5s76.5 -76.166 76.5 -143.499c0 -98.667 -54 -170.334 -162 -215.001z" />
    <glyph glyph-name="acute" unicode="&#xb4;" horiz-adv-x="1139" 
d="M412 1269c0 24.667 13.999 49.333 41.999 74c34 28.667 86.333 82 157 160c30 34 68.333 69.5 115 106.5s83.667 55.5 111 55.5c20 0 37.667 -7.66699 53 -23s23 -33.666 23 -54.999c0 -33.333 -16.667 -62 -50 -86c-59.333 -41.333 -111.666 -89 -156.999 -143
c-99.333 -113.333 -172 -170 -218 -170c-20.667 0 -38.5 7.66699 -53.5 23s-22.5 34.666 -22.5 57.999z" />
    <glyph glyph-name="uni00B5" unicode="&#xb5;" horiz-adv-x="1065" 
d="M148 -342c-22 -42.667 -53.668 -63.999 -95.001 -63.999c-24 0 -43.833 7.5 -59.5 22.5s-23.5 33.167 -23.5 54.5c0 23.333 38 107.666 114 252.999c78.667 152.667 124.334 249 137.001 289l33 135c37.333 154 86.166 299 146.499 435s104.833 217.333 133.5 244
s59.667 40 93 40c47.333 0 71 -19 71 -57c0 -28 -22.333 -86 -67 -174c-72 -148.667 -122.667 -274.5 -152 -377.5s-48.333 -179.5 -57 -229.5l-6 -39c36.667 -24 74.667 -36 114 -36c89.333 0 190 14.333 302 43l139 389c60.667 170.667 111.334 292.5 152.001 365.5
s88.334 109.5 143.001 109.5c47.333 0 71 -18 71 -54c0 -27.333 -25.667 -97.333 -77 -210l-91 -213l-159 -432l-38 -121c-12 -38 -30.167 -66 -54.5 -84s-52.833 -27 -85.5 -27c-50.667 0 -72 31.333 -64 94c-98 -42 -201.667 -63 -311 -63
c-58.667 0 -107.334 8 -146.001 24z" />
    <glyph glyph-name="paragraph" unicode="&#xb6;" horiz-adv-x="1421" 
d="M1185 1380c-34 -220 -82.5 -447.998 -145.5 -683.998s-120.5 -428.333 -172.5 -577s-88.333 -238.5 -109 -269.5s-49 -46.5 -85 -46.5c-52 0 -78 24 -78 72c0 12 3 26.333 9 43c26.667 68.667 54 148 82 238l71 239c-22 -4 -43 -6 -63 -6
c-142 0 -264.5 37.333 -367.5 112s-154.5 170 -154.5 286c0 143.333 53.167 288.666 159.5 435.999s264.833 256.333 475.5 327l372 101c14.667 4 27 6 37 6c21.333 0 38.833 -7.33301 52.5 -22s20.5 -33.334 20.5 -56.001c0 -52 -29.667 -86 -89 -102zM1015 1427
c-258.667 -59.333 -433.665 -148.666 -524.998 -267.999s-137 -232.333 -137 -339c0 -72.667 37.333 -133 112 -181s160 -72 256 -72c31.333 0 66.666 7 105.999 21c73.333 217.333 128.666 446.666 165.999 687.999zM952.002 -183.998
c-21.333 0 -40.168 7.00098 -56.501 21.001s-24.5 31.333 -24.5 52c0 16 4.33301 32 13 48c70.667 146 150.334 352.5 239.001 619.5s144.5 453 167.5 558s34.5 200.5 34.5 286.5c0 100 7 164.167 21 192.5s44.333 42.5 91 42.5c28 0 47.833 -9.83301 59.5 -29.5
s17.5 -58.834 17.5 -117.501c0 -135.333 -30 -310 -90 -524s-131.333 -441 -214 -681s-139.5 -378 -170.5 -414s-60.167 -54 -87.5 -54z" />
    <glyph glyph-name="periodcentered" unicode="&#xb7;" horiz-adv-x="510" 
d="M249 695c0 36.667 14.998 70 44.998 100s63.667 45 101 45c31.333 0 56.833 -10.667 76.5 -32s29.5 -46 29.5 -74c0 -37.333 -15.167 -70.333 -45.5 -99s-64.166 -43 -101.499 -43c-31.333 0 -56.666 10.167 -75.999 30.5s-29 44.5 -29 72.5z" />
    <glyph glyph-name="periodcentered" unicode="&#x2219;" horiz-adv-x="510" 
d="M249 695c0 36.667 14.998 70 44.998 100s63.667 45 101 45c31.333 0 56.833 -10.667 76.5 -32s29.5 -46 29.5 -74c0 -37.333 -15.167 -70.333 -45.5 -99s-64.166 -43 -101.499 -43c-31.333 0 -56.666 10.167 -75.999 30.5s-29 44.5 -29 72.5z" />
    <glyph glyph-name="cedilla" unicode="&#xb8;" horiz-adv-x="1139" 
d="M547 -444c-68.667 0 -125.002 12.334 -169.002 37.001s-66 56 -66 94c0 46 26.333 69 79 69c14.667 0 40.667 -8 78 -24c36.667 -16.667 67.334 -25 92.001 -25c74.667 0 112 35.667 112 107c0 33.333 -16.167 64.166 -48.5 92.499s-72.5 47.833 -120.5 58.5
c-36 8.66699 -54 28.667 -54 60c0 60 27.667 90 83 90c76.667 0 145.334 -28.167 206.001 -84.5s91 -118.833 91 -187.5c0 -72.667 -21.833 -138.667 -65.5 -198s-116.167 -89 -217.5 -89z" />
    <glyph glyph-name="uni00B9" unicode="&#xb9;" horiz-adv-x="1333" 
d="M514 973l72 454c-52 -28.667 -94.333 -43 -127 -43c-42.667 0 -64 17 -64 51c0 48 24 79 72 93c8 3.33301 22.667 11.666 44 24.999c120.667 73.333 188 110 202 110c32.667 0 49 -14.333 49 -43c0 -18 -2.66699 -44 -8 -78l-90 -569l45 2
c56.667 2.66699 96.167 1 118.5 -5s33.5 -20 33.5 -42c0 -19.333 -9 -38.5 -27 -57.5s-38.667 -28.5 -62 -28.5h-407c-19.333 0 -35 6.33301 -47 19s-18 27.334 -18 44.001c0 36.667 17.333 58.667 52 66l24 2h138z" />
    <glyph glyph-name="ordmasculine" unicode="&#xba;" horiz-adv-x="920" 
d="M341 1198c0 121.333 42.833 231.832 128.5 331.499s204.167 149.5 355.5 149.5c84 0 148.833 -24.667 194.5 -74s68.5 -117.666 68.5 -204.999c0 -128 -39.667 -241.5 -119 -340.5s-187.333 -148.5 -324 -148.5c-94 0 -168.167 26.333 -222.5 79s-81.5 122 -81.5 208z
M530 1223c0 -45.333 12.499 -83.002 37.499 -113.002s60.5 -45 106.5 -45c66.667 0 121.334 29.333 164.001 88s64 124.334 64 197.001c0 49.333 -11.167 91 -33.5 125s-51.166 51 -86.499 51c-76.667 0 -137.834 -33.167 -183.501 -99.5s-68.5 -134.166 -68.5 -203.499z
" />
    <glyph glyph-name="guillemotright" unicode="&#xbb;" horiz-adv-x="1183" 
d="M897 614c-80.667 86 -143.5 156.334 -188.5 211.001s-70.667 87.5 -77 98.5s-9.5 22.833 -9.5 35.5c0 24 11.167 47 33.5 69s46.833 33 73.5 33c18.667 0 36.5 -7.83301 53.5 -23.5s69.5 -78.167 157.5 -187.5c60.667 -76.667 120 -130.667 178 -162
c38 -19.333 57 -43.333 57 -72c0 -41.333 -30 -72.666 -90 -93.999c-68 -24.667 -140.333 -71.667 -217 -141c-96 -88.667 -157.833 -141.834 -185.5 -159.501s-50.5 -26.5 -68.5 -26.5c-21.333 0 -39.333 7.5 -54 22.5s-22 33.5 -22 55.5c0 31.333 15.333 58.333 46 81
c46.667 37.333 97.667 81.666 153 132.999c72.667 64 126 106.333 160 127zM438 592.001l-182.5 207.002c-51.667 61.333 -79.667 96.333 -84 105s-6.5 18.667 -6.5 30c0 29.333 11.833 54.333 35.5 75s47.5 31 71.5 31c18 0 36.667 -8.5 56 -25.5s70.333 -79.5 153 -187.5
c64.667 -80 125 -133 181 -159c37.333 -20.667 56 -45.667 56 -75c0 -42 -29.667 -73 -89 -93c-62.667 -20.667 -135 -67.334 -217 -140.001c-100 -88.667 -163 -142.167 -189 -160.5s-48.333 -27.5 -67 -27.5c-20 0 -37.5 7.66699 -52.5 23s-22.5 33.666 -22.5 54.999
c0 28.667 15.333 56 46 82c25.333 19.333 77.333 64.333 156 135c76 66 127.667 107.667 155 125z" />
    <glyph glyph-name="onequarter" unicode="&#xbc;" horiz-adv-x="1333" 
d="M756 1034l73.999 455.002c-53.333 -28.667 -96.333 -43 -129 -43c-41.333 0 -62 16.333 -62 49c0 49.333 23.333 80.666 70 93.999c12 4.66699 55 30 129 76c61.333 39.333 101 59 119 59c32.667 0 49 -14.333 49 -43c0 -17.333 -2.66699 -43 -8 -77l-93 -570l48 2
c56.667 2.66699 95.834 1.16699 117.501 -4.5s32.5 -18.834 32.5 -39.501c0 -22.667 -9 -43.167 -27 -61.5s-38.667 -27.5 -62 -27.5h-408c-41.333 0 -62 21 -62 63c0 36.667 16.667 58.667 50 66l24 2h138zM1077 727.002c106.667 -3.33301 170.833 -8.83301 192.5 -16.5
s32.5 -25.5 32.5 -53.5c0 -58.667 -29.667 -88 -89 -88l-205 11c-149.333 8 -288 12 -416 12c-30 0 -75.667 -1.33301 -137 -4l-79 -2c-52 -1.33301 -85.5 2 -100.5 10s-22.5 24 -22.5 48c0 60.667 29.667 91 89 91h57l218 6zM808.998 14.002l57.999 2.00098
c76.667 2.66699 115 -17.666 115 -60.999c0 -39.333 -24.667 -59 -74 -59c-13.333 0 -32.666 1.33301 -57.999 4l-57 6l-25 -172c-7.33301 -50.667 -36.666 -76 -87.999 -76c-48.667 0 -69 25.333 -61 76l26 170l-325 -17c-45.333 -2.66699 -68 17 -68 59
c0 39.333 20 75.666 60 108.999c44.667 40 155 148.667 331 326c54.667 55.333 92.167 89.333 112.5 102s44.5 19 72.5 19c19.333 0 35.5 -6.33301 48.5 -19s19.5 -27.667 19.5 -45c0 -10.667 -12.667 -45.334 -38 -104.001c-4.66699 -11.333 -7.33398 -21 -8.00098 -29z
M665.997 18.0029l37 226l-236 -226c26.667 3.33301 50.667 5 72 5z" />
    <glyph glyph-name="onehalf" unicode="&#xbd;" horiz-adv-x="1333" 
d="M758 1034l73.999 455.001c-53.333 -28.667 -96.333 -43 -129 -43c-41.333 0 -62 16.333 -62 49c0 49.333 23.333 80.666 70 93.999c12 4.66699 55 30 129 76c61.333 39.333 101 59 119 59c32 0 48 -18 48 -54c0 -13.333 -3 -37.666 -9 -72.999l-91 -563l48 2
c56.667 2.66699 95.834 1.16699 117.501 -4.5s32.5 -18.834 32.5 -39.501c0 -22.667 -9 -43.167 -27 -61.5s-38.667 -27.5 -62 -27.5h-408c-41.333 0 -62 21 -62 63c0 36.667 16.667 58.667 50 66l24 2h138zM1079 727.001c106.667 -3.33301 170.833 -8.83301 192.5 -16.5
s32.5 -25.5 32.5 -53.5c0 -58.667 -29.667 -88 -89 -88l-205 11c-149.333 8 -288 12 -416 12c-30 0 -75.667 -1.33301 -137 -4l-79 -2c-52 -1.33301 -85.5 2 -100.5 10s-22.5 24 -22.5 48c0 60.667 29.667 91 89 91h57l218 6zM509.998 -204.999l165.999 -4.00195
c19.333 -0.666992 52 2.66602 98 9.99902c50 7.33301 83 11 99 11c40 0 60 -21.333 60 -64c0 -70.667 -94 -106 -282 -106h-43c-16.667 0 -36.334 0.666992 -59.001 2l-119 4c-19.333 1.33301 -36.666 5.66602 -51.999 12.999s-27.166 16.833 -35.499 28.5
s-12.5 24.834 -12.5 39.501c0 28.667 10.833 66.334 32.5 113.001s58.5 90.334 110.5 131.001l217 133c86 52.667 129 103 129 151c0 18 -10.5 38 -31.5 60s-40.5 33 -58.5 33c-45.333 0 -83.333 -13.667 -114 -41l-60 -76c-22.667 -28.667 -45.667 -43 -69 -43
c-44.667 0 -67 20 -67 60c0 56.667 35.333 110.334 106 161.001s147 76 229 76c58.667 0 109.5 -21.5 152.5 -64.5s64.5 -91.167 64.5 -144.5c0 -64 -19 -123.833 -57 -179.5s-112 -112.5 -222 -170.5c-79.333 -42.667 -140 -87 -182 -133z" />
    <glyph glyph-name="threequarters" unicode="&#xbe;" horiz-adv-x="1333" 
d="M1049 1315c42.667 -35.333 64.001 -87.6689 64.001 -157.002c0 -106.667 -36.5 -184 -109.5 -232s-159.5 -72 -259.5 -72c-128 0 -192 28.333 -192 85c0 24 9.33301 45.167 28 63.5s38.334 27.5 59.001 27.5c7.33301 0 24.333 -4 51 -12c30.667 -8 56 -12 76 -12
c45.333 0 84.166 5.33301 116.499 16s53.833 22.667 64.5 36s16 35.333 16 66c0 43.333 -16.333 71.333 -49 84l-115 15c-36 4.66699 -54 23 -54 55c0 44.667 39.667 77.334 119 98.001c80 21.333 120 55.333 120 102c0 48 -47.333 72 -142 72c-6 0 -20 -2.66699 -42 -8
c-22.667 -5.33301 -38 -8 -46 -8c-34.667 0 -52 15 -52 45c0 36.667 16.667 66.334 50 89.001s71.666 34 114.999 34c80 0 144.5 -17.833 193.5 -53.5s73.5 -83.5 73.5 -143.5c0 -78 -28.333 -141.333 -85 -190zM1213 568.997l-205 11c-149.333 8 -288 12 -416 12
c-30 0 -75.667 -1.33301 -137 -4l-79 -2c-52 -1.33301 -85.5 2 -100.5 10s-22.5 24 -22.5 48c0 60.667 29.667 91 89 91h57l218 6c154 0 307.333 -4.66699 460 -14c19.333 -1.33301 42.666 -2.33301 69.999 -3c70.667 -2.66699 114.334 -7.66699 131.001 -15
s25 -23.333 25 -48c0 -61.333 -30 -92 -90 -92zM809.001 13.9971l46.998 2.00195c84 3.33301 126 -17.334 126 -62.001c0 -38.667 -24.667 -58 -74 -58c-13.333 0 -32.666 1.33301 -57.999 4c-29.333 4 -48.333 6 -57 6l-25 -172c-7.33301 -50.667 -36.666 -76 -87.999 -76
c-48.667 0 -69 25.333 -61 76l26 170l-325 -17c-45.333 -2.66699 -68 17 -68 59c0 41.333 20 77.666 60 108.999c66.667 54 137.667 120.333 213 199l202 209c25.333 26 59 39 101 39c45.333 0 68 -21.333 68 -64c0 -8 -7.33301 -29 -22 -63c-14 -32.667 -22 -56 -24 -70z
M665.999 17.999l37 226l-236 -226c26.667 3.33301 50.667 5 72 5z" />
    <glyph glyph-name="questiondown" unicode="&#xbf;" horiz-adv-x="1073" 
d="M1002 1390c0 -38.667 -15.667 -78.667 -47 -120s-67.333 -62 -108 -62c-53.333 0 -80 26.667 -80 80c0 46 13.5 89.333 40.5 130s58.833 61 95.5 61c28 0 51.5 -8.66699 70.5 -26s28.5 -38.333 28.5 -63zM718 825l-265.999 -182.001c-108.667 -74 -163 -154 -163 -240
c0 -66 28.833 -127.833 86.5 -185.5s124.167 -86.5 199.5 -86.5c40.667 0 96.667 21.333 168 64c72.667 43.333 116.334 65 131.001 65c23.333 0 43.166 -8.5 59.499 -25.5s24.5 -37.5 24.5 -61.5c0 -59.333 -53.667 -115 -161 -167s-192.333 -78 -255 -78
c-124 0 -230.833 44.667 -320.5 134s-134.5 190 -134.5 302c0 100.667 26 187.334 78 260.001s152 157 300 253c116.667 74.667 197 134.667 241 180c27.333 27.333 54 41 80 41c25.333 0 46.666 -8.83301 63.999 -26.5s26 -38.167 26 -61.5
c0 -51.333 -52.667 -113 -158 -185z" />
    <glyph glyph-name="Agrave" unicode="&#xc0;" horiz-adv-x="1498" 
d="M1114 520c-73.333 -8.66699 -164.664 -25.001 -273.997 -49.001l-275 -55c-137.333 -241.333 -219.333 -374.833 -246 -400.5s-57.334 -38.5 -92.001 -38.5c-24.667 0 -45.5 8.33301 -62.5 25s-25.5 36.334 -25.5 59.001c0 35.333 70.333 162.333 211 381
c-7.33301 12.667 -11 27.667 -11 45c0 62.667 38.667 102.334 116 119.001c86 127.333 218.667 304.666 398 531.999s287.666 341 324.999 341c52 0 82 -37 90 -111l8 -336l41 -694l31 -160c8.66699 -43.333 13 -75.333 13 -96c0 -28.667 -12.333 -54.667 -37 -78
s-52.334 -35 -83.001 -35c-43.333 0 -75 44.167 -95 132.5s-30.667 227.833 -32 418.5zM1081 1112l-360 -460.999c66 17.333 193 42.666 381 75.999zM1193 1682l-78 146.999c-25.333 47.333 -59.333 90.333 -102 129c-18.667 16.667 -28 36.334 -28 59.001
c0 28 11.333 52.5 34 73.5s46 31.5 70 31.5c40 0 96.5 -52 169.5 -156s109.5 -179.333 109.5 -226c0 -24.667 -11.333 -47.667 -34 -69s-47.667 -32 -75 -32c-30 0 -52 14.333 -66 43z" />
    <glyph glyph-name="Aacute" unicode="&#xc1;" horiz-adv-x="1498" 
d="M1114 520c-73.333 -8.66699 -164.664 -25.001 -273.997 -49.001l-275 -55c-137.333 -241.333 -219.333 -374.833 -246 -400.5s-57.334 -38.5 -92.001 -38.5c-24.667 0 -45.5 8.33301 -62.5 25s-25.5 36.334 -25.5 59.001c0 35.333 70.333 162.333 211 381
c-7.33301 12.667 -11 27.667 -11 45c0 62.667 38.667 102.334 116 119.001c86 127.333 218.667 304.666 398 531.999s287.666 341 324.999 341c52 0 82 -37 90 -111l8 -336l41 -694l31 -160c8.66699 -43.333 13 -75.333 13 -96c0 -28.667 -12.333 -54.667 -37 -78
s-52.334 -35 -83.001 -35c-43.333 0 -75 44.167 -95 132.5s-30.667 227.833 -32 418.5zM1081 1112l-360 -460.999c66 17.333 193 42.666 381 75.999zM1108 1711c0 24.667 13.999 49.333 41.999 74c34 28.667 86.333 82 157 160c30 34 68.333 69.5 115 106.5
s83.667 55.5 111 55.5c20 0 37.667 -7.66699 53 -23s23 -33.666 23 -54.999c0 -33.333 -16.667 -62 -50 -86c-59.333 -41.333 -111.666 -89 -156.999 -143c-99.333 -113.333 -172 -170 -218 -170c-20.667 0 -38.5 7.66699 -53.5 23s-22.5 34.666 -22.5 57.999z" />
    <glyph glyph-name="Acircumflex" unicode="&#xc2;" horiz-adv-x="1498" 
d="M1114 520c-73.333 -8.66699 -164.664 -25.001 -273.997 -49.001l-275 -55c-137.333 -241.333 -219.333 -374.833 -246 -400.5s-57.334 -38.5 -92.001 -38.5c-24.667 0 -45.5 8.33301 -62.5 25s-25.5 36.334 -25.5 59.001c0 35.333 70.333 162.333 211 381
c-7.33301 12.667 -11 27.667 -11 45c0 62.667 38.667 102.334 116 119.001c86 127.333 218.667 304.666 398 531.999s287.666 341 324.999 341c52 0 82 -37 90 -111l8 -336l41 -694l31 -160c8.66699 -43.333 13 -75.333 13 -96c0 -28.667 -12.333 -54.667 -37 -78
s-52.334 -35 -83.001 -35c-43.333 0 -75 44.167 -95 132.5s-30.667 227.833 -32 418.5zM1081 1112l-360 -460.999c66 17.333 193 42.666 381 75.999zM1227 1878c-203.333 -209.333 -328.335 -313.999 -375.002 -313.999c-20.667 0 -38.667 8 -54 24s-23 34.333 -23 55
c0 29.333 13.333 55.666 40 78.999c28.667 22 148.334 134 359.001 336c20.667 20.667 42.334 31 65.001 31c27.333 0 55 -11 83 -33s71.333 -70.667 130 -146l131 -170c12 -16 18 -31.667 18 -47c0 -26 -10.667 -49.833 -32 -71.5s-46 -32.5 -74 -32.5s-51.333 14 -70 42
s-84.667 110.333 -198 247z" />
    <glyph glyph-name="Atilde" unicode="&#xc3;" horiz-adv-x="1498" 
d="M1114 520c-73.333 -8.66699 -164.664 -25.001 -273.997 -49.001l-275 -55c-137.333 -241.333 -219.333 -374.833 -246 -400.5s-57.334 -38.5 -92.001 -38.5c-24.667 0 -45.5 8.33301 -62.5 25s-25.5 36.334 -25.5 59.001c0 35.333 70.333 162.333 211 381
c-7.33301 12.667 -11 27.667 -11 45c0 62.667 38.667 102.334 116 119.001c86 127.333 218.667 304.666 398 531.999s287.666 341 324.999 341c52 0 82 -37 90 -111l8 -336l41 -694l31 -160c8.66699 -43.333 13 -75.333 13 -96c0 -28.667 -12.333 -54.667 -37 -78
s-52.334 -35 -83.001 -35c-43.333 0 -75 44.167 -95 132.5s-30.667 227.833 -32 418.5zM1081 1112l-360 -460.999c66 17.333 193 42.666 381 75.999zM1266 1946l67.9971 -103.999c26 -40 60 -60 102 -60c37.333 0 67.333 12.333 90 37l59 88l31 60
c9.33301 18.667 31.333 28 66 28c42 0 63 -18.333 63 -55c0 -33.333 -29.5 -92.5 -88.5 -177.5s-129.833 -127.5 -212.5 -127.5c-76.667 0 -132 11 -166 33s-67.333 65.667 -100 131c-23.333 38 -52 57 -86 57c-40.667 0 -75.667 -15.667 -105 -47l-59 -84
c-21.333 -30 -44.666 -45 -69.999 -45c-45.333 0 -68 19.667 -68 59l4 23c2.66699 35.333 35.334 84.666 98.001 147.999s137.334 95 224.001 95c66.667 0 116.667 -19.667 150 -59z" />
    <glyph glyph-name="Adieresis" unicode="&#xc4;" horiz-adv-x="1498" 
d="M1114 520c-73.333 -8.66699 -164.664 -25.001 -273.997 -49.001l-275 -55c-137.333 -241.333 -219.333 -374.833 -246 -400.5s-57.334 -38.5 -92.001 -38.5c-24.667 0 -45.5 8.33301 -62.5 25s-25.5 36.334 -25.5 59.001c0 35.333 70.333 162.333 211 381
c-7.33301 12.667 -11 27.667 -11 45c0 62.667 38.667 102.334 116 119.001c86 127.333 218.667 304.666 398 531.999s287.666 341 324.999 341c52 0 82 -37 90 -111l8 -336l41 -694l31 -160c8.66699 -43.333 13 -75.333 13 -96c0 -28.667 -12.333 -54.667 -37 -78
s-52.334 -35 -83.001 -35c-43.333 0 -75 44.167 -95 132.5s-30.667 227.833 -32 418.5zM1081 1112l-360 -460.999c66 17.333 193 42.666 381 75.999zM1605 1744c0 -24.667 -12 -47.332 -36 -67.999s-64.667 -31 -122 -31c-25.333 0 -47.833 7.16699 -67.5 21.5
s-29.5 31.833 -29.5 52.5c0 36.667 11.5 64.5 34.5 83.5s66.167 28.5 129.5 28.5c22 0 42.667 -9.33301 62 -28s29 -38.334 29 -59.001zM1093 1739c0 -31.333 -16.167 -56.5 -48.5 -75.5s-61.5 -28.5 -87.5 -28.5c-72 0 -108 27 -108 81c0 32.667 15.5 58.667 46.5 78
s57.833 29 80.5 29c78 0 117 -28 117 -84z" />
    <glyph glyph-name="Aring" unicode="&#xc5;" horiz-adv-x="1498" 
d="M1114 520c-73.333 -8.66699 -164.664 -25.001 -273.997 -49.001l-275 -55c-137.333 -241.333 -219.333 -374.833 -246 -400.5s-57.334 -38.5 -92.001 -38.5c-24.667 0 -45.5 8.33301 -62.5 25s-25.5 36.334 -25.5 59.001c0 35.333 70.333 162.333 211 381
c-7.33301 12.667 -11 27.667 -11 45c0 62.667 38.667 102.334 116 119.001c86 127.333 218.667 304.666 398 531.999s287.666 341 324.999 341c52 0 82 -37 90 -111l8 -336l41 -694l31 -160c8.66699 -43.333 13 -75.333 13 -96c0 -28.667 -12.333 -54.667 -37 -78
s-52.334 -35 -83.001 -35c-43.333 0 -75 44.167 -95 132.5s-30.667 227.833 -32 418.5zM1081 1112l-360 -460.999c66 17.333 193 42.666 381 75.999zM1296 2001c83.333 0 149.833 -21.833 199.5 -65.5s74.5 -97.5 74.5 -161.5c0 -88 -32.5 -167.333 -97.5 -238
s-169.5 -106 -313.5 -106c-92 0 -161.333 23 -208 69s-70 97 -70 153c0 97.333 38.333 179.833 115 247.5s176.667 101.5 300 101.5zM1417 1751c0 28.667 -14.166 53.001 -42.499 73.001s-61.833 30 -100.5 30c-88.667 0 -150.667 -18.333 -186 -55s-53 -76 -53 -118
c0 -27.333 16.5 -51.5 49.5 -72.5s70.833 -31.5 113.5 -31.5c81.333 0 138.166 18.167 170.499 54.5s48.5 76.166 48.5 119.499z" />
    <glyph glyph-name="AE" unicode="&#xc6;" horiz-adv-x="2226" 
d="M1253 672c-80.667 -3.33301 -171.333 -9.66504 -272 -18.998l-276 -24c-88 -98 -194.667 -226.333 -320 -385l-149 -187c-24 -30 -53.333 -45 -88 -45c-24 0 -45 8.66699 -63 26s-27 37.333 -27 60c0 13.333 5.5 30.666 16.5 51.999s97.167 129.666 258.5 324.999
s300.333 351 417 467l327 346c93.333 98.667 178.333 172.834 255 222.501s135.667 74.5 177 74.5c29.333 0 52 -9.66699 68 -29c174.667 44 320.667 66 438 66c288 0 432 -45.667 432 -137c0 -32.667 -12 -61.334 -36 -86.001s-50.667 -37 -80 -37
c-8.66699 0 -19 1.33301 -31 4c-118 32.667 -223.667 49 -317 49c-112 0 -245.333 -20.333 -400 -61c0 -46 -3.83301 -92.667 -11.5 -140s-31.167 -162.666 -70.5 -345.999l443 41c151.333 14 231 21 239 21c58.667 0 88 -28.333 88 -85
c0 -67.333 -35.333 -107.333 -106 -120l-711 -63c-46.667 -209.333 -70 -358.333 -70 -447c0 -38.667 8.16699 -64 24.5 -76s62.833 -18 139.5 -18h77l298 6c6.66699 0 37.667 3.33301 93 10c79.333 9.33301 119 -15 119 -73c0 -50.667 -20.833 -88.334 -62.5 -113.001
s-128.167 -37 -259.5 -37h-220c-102 0 -184.5 9 -247.5 27s-105.5 46.167 -127.5 84.5s-33 96.166 -33 173.499c0 88.667 22.667 246.334 68 473.001zM911.001 844.001c141.333 14 271.332 22.666 389.999 25.999c56 262.667 83 412.334 81 449.001
c-77.333 -62.667 -157.666 -140 -240.999 -232z" />
    <glyph glyph-name="Ccedilla" unicode="&#xc7;" horiz-adv-x="1234" 
d="M1232 1473c28.667 34 61.333 51.001 98 51.001c50 0 75 -39.333 75 -118c0 -112.667 -12 -188.167 -36 -226.5s-56.667 -57.5 -98 -57.5c-42 0 -70 24.667 -84 74c-14 50 -29.167 77.5 -45.5 82.5s-48.166 7.5 -95.499 7.5c-117.333 0 -261.833 -101.833 -433.5 -305.5
s-257.5 -383.834 -257.5 -540.501c0 -68 22 -128.333 66 -181s102 -79 174 -79c58.667 0 115.834 11.167 171.501 33.5s136.5 68.5 242.5 138.5c43.333 27.333 74 41 92 41c25.333 0 46.166 -8.66699 62.499 -26s24.5 -38.333 24.5 -63c0 -19.333 -6.66699 -39.5 -20 -60.5
s-60.666 -58 -141.999 -111s-160.333 -92.5 -237 -118.5s-151.667 -39 -225 -39c-122.667 0 -222.167 42.667 -298.5 128s-114.5 186 -114.5 302c0 214 108.167 448.5 324.5 703.5s417.166 382.5 602.499 382.5c73.333 0 124.666 -6 153.999 -18zM479.999 -412.999
c-68.667 0 -125.002 12.334 -169.002 37.001s-66 56 -66 94c0 46 26.333 69 79 69c14.667 0 40.667 -8 78 -24c36.667 -16.667 67.334 -25 92.001 -25c74.667 0 112 35.667 112 107c0 33.333 -16.167 64.166 -48.5 92.499s-72.5 47.833 -120.5 58.5
c-36 8.66699 -54 28.667 -54 60c0 60 27.667 90 83 90c76.667 0 145.334 -28.167 206.001 -84.5s91 -118.833 91 -187.5c0 -72.667 -21.833 -138.667 -65.5 -198s-116.167 -89 -217.5 -89z" />
    <glyph glyph-name="Egrave" unicode="&#xc8;" horiz-adv-x="1279" 
d="M576 1337c0 -64 -28.667 -225.669 -86 -485.002l446 43c124.667 12 204 18 238 18c60 0 90 -27.667 90 -83c0 -71.333 -37 -111.666 -111 -120.999l-710 -64c-45.333 -207.333 -68 -356 -68 -446c0 -40.667 8.5 -66.667 25.5 -78s63.167 -17 138.5 -17l375 9
c8.66699 0 39.667 3.33301 93 10c78 10 117 -15.667 117 -77s-24.167 -100.666 -72.5 -117.999s-194.833 -26 -439.5 -26c-189.333 0 -309.5 19.833 -360.5 59.5s-76.5 112.834 -76.5 219.501c0 118 26.333 289.667 79 515c-3.33301 15.333 -5 27 -5 35
c0 29.333 10.667 54.666 32 75.999c40.667 184.667 66.167 308.167 76.5 370.5s15.5 116.833 15.5 163.5c4.66699 89.333 16 150 34 182s49 48 93 48c28 0 51 -10.333 69 -31c170.667 44 316.334 66 437.001 66c102 0 190.333 -8.33301 265 -25s121 -33.5 139 -50.5
s27 -37.833 27 -62.5c0 -32 -11.833 -60.333 -35.5 -85s-50.5 -37 -80.5 -37c-8 0 -18.333 2 -31 6c-110.667 31.333 -216.334 47 -317.001 47c-110.667 0 -243 -20.667 -397 -62zM921 1790l-78 147c-25.333 47.333 -59.333 90.333 -102 129
c-18.667 16.667 -28 36.334 -28 59c0 28 11.333 52.5 34 73.5s46 31.5 70 31.5c40 0 96.5 -52 169.5 -156s109.5 -179.333 109.5 -226c0 -24.667 -11.333 -47.667 -34 -69s-47.667 -32 -75 -32c-30 0 -52 14.333 -66 43z" />
    <glyph glyph-name="Eacute" unicode="&#xc9;" horiz-adv-x="1279" 
d="M576 1337c0 -64 -28.667 -225.669 -86 -485.002l446 43c124.667 12 204 18 238 18c60 0 90 -27.667 90 -83c0 -71.333 -37 -111.666 -111 -120.999l-710 -64c-45.333 -207.333 -68 -356 -68 -446c0 -40.667 8.5 -66.667 25.5 -78s63.167 -17 138.5 -17l375 9
c8.66699 0 39.667 3.33301 93 10c78 10 117 -15.667 117 -77s-24.167 -100.666 -72.5 -117.999s-194.833 -26 -439.5 -26c-189.333 0 -309.5 19.833 -360.5 59.5s-76.5 112.834 -76.5 219.501c0 118 26.333 289.667 79 515c-3.33301 15.333 -5 27 -5 35
c0 29.333 10.667 54.666 32 75.999c40.667 184.667 66.167 308.167 76.5 370.5s15.5 116.833 15.5 163.5c4.66699 89.333 16 150 34 182s49 48 93 48c28 0 51 -10.333 69 -31c170.667 44 316.334 66 437.001 66c102 0 190.333 -8.33301 265 -25s121 -33.5 139 -50.5
s27 -37.833 27 -62.5c0 -32 -11.833 -60.333 -35.5 -85s-50.5 -37 -80.5 -37c-8 0 -18.333 2 -31 6c-110.667 31.333 -216.334 47 -317.001 47c-110.667 0 -243 -20.667 -397 -62zM944 1847c0 24.667 13.999 49.333 41.999 74c34 28.667 86.333 82 157 160
c30 34 68.333 69.5 115 106.5s83.667 55.5 111 55.5c20 0 37.667 -7.66699 53 -23s23 -33.666 23 -54.999c0 -33.333 -16.667 -62 -50 -86c-59.333 -41.333 -111.666 -89 -156.999 -143c-99.333 -113.333 -172 -170 -218 -170c-20.667 0 -38.5 7.66699 -53.5 23
s-22.5 34.666 -22.5 57.999z" />
    <glyph glyph-name="Ecircumflex" unicode="&#xca;" horiz-adv-x="1279" 
d="M576 1337c0 -64 -28.667 -225.669 -86 -485.002l446 43c124.667 12 204 18 238 18c60 0 90 -27.667 90 -83c0 -71.333 -37 -111.666 -111 -120.999l-710 -64c-45.333 -207.333 -68 -356 -68 -446c0 -40.667 8.5 -66.667 25.5 -78s63.167 -17 138.5 -17l375 9
c8.66699 0 39.667 3.33301 93 10c78 10 117 -15.667 117 -77s-24.167 -100.666 -72.5 -117.999s-194.833 -26 -439.5 -26c-189.333 0 -309.5 19.833 -360.5 59.5s-76.5 112.834 -76.5 219.501c0 118 26.333 289.667 79 515c-3.33301 15.333 -5 27 -5 35
c0 29.333 10.667 54.666 32 75.999c40.667 184.667 66.167 308.167 76.5 370.5s15.5 116.833 15.5 163.5c4.66699 89.333 16 150 34 182s49 48 93 48c28 0 51 -10.333 69 -31c170.667 44 316.334 66 437.001 66c102 0 190.333 -8.33301 265 -25s121 -33.5 139 -50.5
s27 -37.833 27 -62.5c0 -32 -11.833 -60.333 -35.5 -85s-50.5 -37 -80.5 -37c-8 0 -18.333 2 -31 6c-110.667 31.333 -216.334 47 -317.001 47c-110.667 0 -243 -20.667 -397 -62zM1092 2046c-203.333 -209.333 -328.335 -313.999 -375.002 -313.999
c-20.667 0 -38.667 8 -54 24s-23 34.333 -23 55c0 29.333 13.333 55.666 40 78.999c28.667 22 148.334 134 359.001 336c20.667 20.667 42.334 31 65.001 31c27.333 0 55 -11 83 -33s71.333 -70.667 130 -146l131 -170c12 -16 18 -31.667 18 -47
c0 -26 -10.667 -49.833 -32 -71.5s-46 -32.5 -74 -32.5s-51.333 14 -70 42s-84.667 110.333 -198 247z" />
    <glyph glyph-name="Edieresis" unicode="&#xcb;" horiz-adv-x="1279" 
d="M576 1337c0 -64 -28.667 -225.669 -86 -485.002l446 43c124.667 12 204 18 238 18c60 0 90 -27.667 90 -83c0 -71.333 -37 -111.666 -111 -120.999l-710 -64c-45.333 -207.333 -68 -356 -68 -446c0 -40.667 8.5 -66.667 25.5 -78s63.167 -17 138.5 -17l375 9
c8.66699 0 39.667 3.33301 93 10c78 10 117 -15.667 117 -77s-24.167 -100.666 -72.5 -117.999s-194.833 -26 -439.5 -26c-189.333 0 -309.5 19.833 -360.5 59.5s-76.5 112.834 -76.5 219.501c0 118 26.333 289.667 79 515c-3.33301 15.333 -5 27 -5 35
c0 29.333 10.667 54.666 32 75.999c40.667 184.667 66.167 308.167 76.5 370.5s15.5 116.833 15.5 163.5c4.66699 89.333 16 150 34 182s49 48 93 48c28 0 51 -10.333 69 -31c170.667 44 316.334 66 437.001 66c102 0 190.333 -8.33301 265 -25s121 -33.5 139 -50.5
s27 -37.833 27 -62.5c0 -32 -11.833 -60.333 -35.5 -85s-50.5 -37 -80.5 -37c-8 0 -18.333 2 -31 6c-110.667 31.333 -216.334 47 -317.001 47c-110.667 0 -243 -20.667 -397 -62zM1444 1860c0 -24.667 -12 -47.332 -36 -67.999s-64.667 -31 -122 -31
c-25.333 0 -47.833 7.16699 -67.5 21.5s-29.5 31.833 -29.5 52.5c0 36.667 11.5 64.5 34.5 83.5s66.167 28.5 129.5 28.5c22 0 42.667 -9.33301 62 -28s29 -38.334 29 -59.001zM932 1855c0 -31.333 -16.167 -56.5 -48.5 -75.5s-61.5 -28.5 -87.5 -28.5
c-72 0 -108 27 -108 81c0 32.667 15.5 58.667 46.5 78s57.833 29 80.5 29c78 0 117 -28 117 -84z" />
    <glyph glyph-name="Igrave" unicode="&#xcc;" horiz-adv-x="1119" 
d="M834 1280c-56 -242.667 -96.3301 -453.998 -120.997 -633.998c-36.667 -270 -60.667 -416.333 -72 -439l318 4c25.333 0 45.5 -7.83301 60.5 -23.5s22.5 -35.167 22.5 -58.5c0 -31.333 -11 -59.666 -33 -84.999s-49.667 -38 -83 -38c-36 0 -92 -1.33301 -168 -4l-99 -2
c-106.667 -2 -197.334 -8 -272.001 -18c-86 -12.667 -152.333 -19 -199 -19c-26 0 -46.833 8.33301 -62.5 25s-23.5 36.334 -23.5 59.001c0 31.333 11.833 59.666 35.5 84.999s51.5 38 83.5 38c51.333 0 123.666 6.66699 216.999 20
c20.667 64.667 43.667 213.334 69 446.001c14 130.667 57.333 348 130 652l-262 -8c-24 -0.666992 -44 6.66602 -60 21.999s-24 35.333 -24 60c0 35.333 9 64 27 86s45.333 35 82 39s138.334 6 305.001 6c92.667 0 196 -6.33301 310 -19s180.167 -21.334 198.5 -26.001
s32.666 -13.334 42.999 -26.001s15.5 -30.334 15.5 -53.001c0 -39.333 -12.667 -69.833 -38 -91.5s-53 -32.5 -83 -32.5c-46.667 0 -99.334 5 -158.001 15zM853.003 1721l-78 146.999c-25.333 47.333 -59.333 90.333 -102 129c-18.667 16.667 -28 36.334 -28 59.001
c0 28 11.333 52.5 34 73.5s46 31.5 70 31.5c40 0 96.5 -52 169.5 -156s109.5 -179.333 109.5 -226c0 -24.667 -11.333 -47.667 -34 -69s-47.667 -32 -75 -32c-30 0 -52 14.333 -66 43z" />
    <glyph glyph-name="Iacute" unicode="&#xcd;" horiz-adv-x="1119" 
d="M834 1280c-56 -242.667 -96.3301 -453.998 -120.997 -633.998c-36.667 -270 -60.667 -416.333 -72 -439l318 4c25.333 0 45.5 -7.83301 60.5 -23.5s22.5 -35.167 22.5 -58.5c0 -31.333 -11 -59.666 -33 -84.999s-49.667 -38 -83 -38c-36 0 -92 -1.33301 -168 -4l-99 -2
c-106.667 -2 -197.334 -8 -272.001 -18c-86 -12.667 -152.333 -19 -199 -19c-26 0 -46.833 8.33301 -62.5 25s-23.5 36.334 -23.5 59.001c0 31.333 11.833 59.666 35.5 84.999s51.5 38 83.5 38c51.333 0 123.666 6.66699 216.999 20
c20.667 64.667 43.667 213.334 69 446.001c14 130.667 57.333 348 130 652l-262 -8c-24 -0.666992 -44 6.66602 -60 21.999s-24 35.333 -24 60c0 35.333 9 64 27 86s45.333 35 82 39s138.334 6 305.001 6c92.667 0 196 -6.33301 310 -19s180.167 -21.334 198.5 -26.001
s32.666 -13.334 42.999 -26.001s15.5 -30.334 15.5 -53.001c0 -39.333 -12.667 -69.833 -38 -91.5s-53 -32.5 -83 -32.5c-46.667 0 -99.334 5 -158.001 15zM705.003 1738c0 24.667 13.999 49.333 41.999 74c34 28.667 86.333 82 157 160c30 34 68.333 69.5 115 106.5
s83.667 55.5 111 55.5c20 0 37.667 -7.66699 53 -23s23 -33.666 23 -54.999c0 -33.333 -16.667 -62 -50 -86c-59.333 -41.333 -111.666 -89 -156.999 -143c-99.333 -113.333 -172 -170 -218 -170c-20.667 0 -38.5 7.66699 -53.5 23s-22.5 34.666 -22.5 57.999z" />
    <glyph glyph-name="Icircumflex" unicode="&#xce;" horiz-adv-x="1119" 
d="M834 1280c-56 -242.667 -96.3301 -453.998 -120.997 -633.998c-36.667 -270 -60.667 -416.333 -72 -439l318 4c25.333 0 45.5 -7.83301 60.5 -23.5s22.5 -35.167 22.5 -58.5c0 -31.333 -11 -59.666 -33 -84.999s-49.667 -38 -83 -38c-36 0 -92 -1.33301 -168 -4l-99 -2
c-106.667 -2 -197.334 -8 -272.001 -18c-86 -12.667 -152.333 -19 -199 -19c-26 0 -46.833 8.33301 -62.5 25s-23.5 36.334 -23.5 59.001c0 31.333 11.833 59.666 35.5 84.999s51.5 38 83.5 38c51.333 0 123.666 6.66699 216.999 20
c20.667 64.667 43.667 213.334 69 446.001c14 130.667 57.333 348 130 652l-262 -8c-24 -0.666992 -44 6.66602 -60 21.999s-24 35.333 -24 60c0 35.333 9 64 27 86s45.333 35 82 39s138.334 6 305.001 6c92.667 0 196 -6.33301 310 -19s180.167 -21.334 198.5 -26.001
s32.666 -13.334 42.999 -26.001s15.5 -30.334 15.5 -53.001c0 -39.333 -12.667 -69.833 -38 -91.5s-53 -32.5 -83 -32.5c-46.667 0 -99.334 5 -158.001 15zM901.003 1966c-203.333 -209.333 -328.335 -313.999 -375.002 -313.999c-20.667 0 -38.667 8 -54 24
s-23 34.333 -23 55c0 29.333 13.333 55.666 40 78.999c28.667 22 148.334 134 359.001 336c20.667 20.667 42.334 31 65.001 31c27.333 0 55 -11 83 -33s71.333 -70.667 130 -146l131 -170c12 -16 18 -31.667 18 -47c0 -26 -10.667 -49.833 -32 -71.5s-46 -32.5 -74 -32.5
s-51.333 14 -70 42s-84.667 110.333 -198 247z" />
    <glyph glyph-name="Idieresis" unicode="&#xcf;" horiz-adv-x="1119" 
d="M834 1280c-56 -242.667 -96.3301 -453.998 -120.997 -633.998c-36.667 -270 -60.667 -416.333 -72 -439l318 4c25.333 0 45.5 -7.83301 60.5 -23.5s22.5 -35.167 22.5 -58.5c0 -31.333 -11 -59.666 -33 -84.999s-49.667 -38 -83 -38c-36 0 -92 -1.33301 -168 -4l-99 -2
c-106.667 -2 -197.334 -8 -272.001 -18c-86 -12.667 -152.333 -19 -199 -19c-26 0 -46.833 8.33301 -62.5 25s-23.5 36.334 -23.5 59.001c0 31.333 11.833 59.666 35.5 84.999s51.5 38 83.5 38c51.333 0 123.666 6.66699 216.999 20
c20.667 64.667 43.667 213.334 69 446.001c14 130.667 57.333 348 130 652l-262 -8c-24 -0.666992 -44 6.66602 -60 21.999s-24 35.333 -24 60c0 35.333 9 64 27 86s45.333 35 82 39s138.334 6 305.001 6c92.667 0 196 -6.33301 310 -19s180.167 -21.334 198.5 -26.001
s32.666 -13.334 42.999 -26.001s15.5 -30.334 15.5 -53.001c0 -39.333 -12.667 -69.833 -38 -91.5s-53 -32.5 -83 -32.5c-46.667 0 -99.334 5 -158.001 15zM1241 1762c0 -24.667 -12 -47.332 -36 -67.999s-64.667 -31 -122 -31c-25.333 0 -47.833 7.16699 -67.5 21.5
s-29.5 31.833 -29.5 52.5c0 36.667 11.5 64.5 34.5 83.5s66.167 28.5 129.5 28.5c22 0 42.667 -9.33301 62 -28s29 -38.334 29 -59.001zM729.003 1757c0 -31.333 -16.167 -56.5 -48.5 -75.5s-61.5 -28.5 -87.5 -28.5c-72 0 -108 27 -108 81c0 32.667 15.5 58.667 46.5 78
s57.833 29 80.5 29c78 0 117 -28 117 -84z" />
    <glyph glyph-name="Eth" unicode="&#xd0;" horiz-adv-x="1478" 
d="M278 -6l-10.001 -0.000976562c-58.667 0 -88 25 -88 75c0 30 16.333 122.333 49 277l51 250l-98 -4c-88.667 0 -133 27.333 -133 82c0 34 10.333 61.333 31 82s41.667 32.334 63 35.001s78 4 170 4l43 315l47 315c4.66699 29.333 23 58.5 55 87.5s62.667 43.5 92 43.5
c13.333 0 63.333 -21.667 150 -65c102 -54 156.667 -82 164 -84c182 -71.333 327.167 -170.333 435.5 -297s162.5 -264.667 162.5 -414c0 -114.667 -29.667 -231 -89 -349s-148.666 -221.667 -267.999 -311s-288 -134 -506 -134c-57.333 0 -117.5 8.83301 -180.5 26.5
s-109.833 39.5 -140.5 65.5zM512.999 794.999c23.333 0 65.665 -3.66895 126.998 -11.002c48 -5.33301 91.667 -8 131 -8c58.667 0 88 -25.667 88 -77c0 -32 -11.333 -59.833 -34 -83.5s-50.667 -35.5 -84 -35.5c-41.333 0 -85 2.66699 -131 8c-48 5.33301 -91 8 -129 8
l-82 -422c82 -48 159 -72 231 -72c158.667 0 277.834 26.167 357.501 78.5s144.334 122.833 194.001 211.5s74.5 178.334 74.5 269.001c0 102.667 -37.5 200.834 -112.5 294.501s-261.167 206.5 -558.5 338.5z" />
    <glyph glyph-name="Ntilde" unicode="&#xd1;" horiz-adv-x="1632" 
d="M527 1145l-78.9961 -456.999c-15.333 -90 -34 -221 -56 -393c-32 -250 -86.667 -375 -164 -375c-32 0 -56.5 9.83301 -73.5 29.5s-25.5 41.167 -25.5 64.5c0 22.667 9.33301 70 28 142c5.33301 20.667 22.666 109.5 51.999 266.5s47.666 262.167 54.999 315.5l32 233
c16 109.333 25.667 199.333 29 270l15 172c4.66699 40 23.167 72.833 55.5 98.5s64.166 38.5 95.499 38.5c34.667 0 72.667 -38 114 -114c245.333 -488.667 505.666 -882 780.999 -1180c5.33301 18 12 60.333 20 127l52 381c12 84 22 169.5 30 256.5s12 148.833 12 185.5
c0 18 -4 53.667 -12 107c-2.66699 32 -4 56.333 -4 73c0 98.667 41.667 148 125 148c72.667 0 109 -86.333 109 -259c0 -116 -15.333 -263 -46 -441l-86 -505c-26 -158.667 -49 -259.667 -69 -303s-57.667 -65 -113 -65c-30 0 -70.167 23.833 -120.5 71.5
s-147 170.667 -290 369s-298.5 446.166 -466.5 743.499zM1120 1964l67.9971 -103.999c26 -40 60 -60 102 -60c37.333 0 67.333 12.333 90 37l59 88l31 60c9.33301 18.667 31.333 28 66 28c42 0 63 -18.333 63 -55c0 -33.333 -29.5 -92.5 -88.5 -177.5
s-129.833 -127.5 -212.5 -127.5c-76.667 0 -132 11 -166 33s-67.333 65.667 -100 131c-23.333 38 -52 57 -86 57c-40.667 0 -75.667 -15.667 -105 -47l-59 -84c-21.333 -30 -44.666 -45 -69.999 -45c-45.333 0 -68 19.667 -68 59l4 23
c2.66699 35.333 35.334 84.666 98.001 147.999s137.334 95 224.001 95c66.667 0 116.667 -19.667 150 -59z" />
    <glyph glyph-name="Ograve" unicode="&#xd2;" horiz-adv-x="1635" 
d="M161 460c0 126.667 36.333 270.999 109 432.999s184 306.333 334 433s314 190 492 190c378.667 0 568 -157.667 568 -473c0 -259.333 -89.833 -508.166 -269.5 -746.499s-392.5 -357.5 -638.5 -357.5c-176.667 0 -320 49.5 -430 148.5s-165 223.167 -165 372.5z
M367 495.999c0 -104.667 39.332 -189.666 117.999 -254.999s179.667 -98 303 -98c176.667 0 332.334 94.167 467.001 282.5s202 383.166 202 584.499c0 113.333 -32.167 191.833 -96.5 235.5s-163.5 65.5 -297.5 65.5c-180 0 -341 -93 -483 -279s-213 -364.667 -213 -536z
M1316 1690l-78 146.999c-25.333 47.333 -59.333 90.333 -102 129c-18.667 16.667 -28 36.334 -28 59.001c0 28 11.333 52.5 34 73.5s46 31.5 70 31.5c40 0 96.5 -52 169.5 -156s109.5 -179.333 109.5 -226c0 -24.667 -11.333 -47.667 -34 -69s-47.667 -32 -75 -32
c-30 0 -52 14.333 -66 43z" />
    <glyph glyph-name="Oacute" unicode="&#xd3;" horiz-adv-x="1635" 
d="M161 460c0 126.667 36.333 270.999 109 432.999s184 306.333 334 433s314 190 492 190c378.667 0 568 -157.667 568 -473c0 -259.333 -89.833 -508.166 -269.5 -746.499s-392.5 -357.5 -638.5 -357.5c-176.667 0 -320 49.5 -430 148.5s-165 223.167 -165 372.5z
M367 495.999c0 -104.667 39.332 -189.666 117.999 -254.999s179.667 -98 303 -98c176.667 0 332.334 94.167 467.001 282.5s202 383.166 202 584.499c0 113.333 -32.167 191.833 -96.5 235.5s-163.5 65.5 -297.5 65.5c-180 0 -341 -93 -483 -279s-213 -364.667 -213 -536z
M1147 1720c0 24.667 13.999 49.333 41.999 74c34 28.667 86.333 82 157 160c30 34 68.333 69.5 115 106.5s83.667 55.5 111 55.5c20 0 37.667 -7.66699 53 -23s23 -33.666 23 -54.999c0 -33.333 -16.667 -62 -50 -86c-59.333 -41.333 -111.666 -89 -156.999 -143
c-99.333 -113.333 -172 -170 -218 -170c-20.667 0 -38.5 7.66699 -53.5 23s-22.5 34.666 -22.5 57.999z" />
    <glyph glyph-name="Ocircumflex" unicode="&#xd4;" horiz-adv-x="1635" 
d="M161 460c0 126.667 36.333 270.999 109 432.999s184 306.333 334 433s314 190 492 190c378.667 0 568 -157.667 568 -473c0 -259.333 -89.833 -508.166 -269.5 -746.499s-392.5 -357.5 -638.5 -357.5c-176.667 0 -320 49.5 -430 148.5s-165 223.167 -165 372.5z
M367 495.999c0 -104.667 39.332 -189.666 117.999 -254.999s179.667 -98 303 -98c176.667 0 332.334 94.167 467.001 282.5s202 383.166 202 584.499c0 113.333 -32.167 191.833 -96.5 235.5s-163.5 65.5 -297.5 65.5c-180 0 -341 -93 -483 -279s-213 -364.667 -213 -536z
M1301 1930c-203.333 -209.333 -328.335 -313.999 -375.002 -313.999c-20.667 0 -38.667 8 -54 24s-23 34.333 -23 55c0 29.333 13.333 55.666 40 78.999c28.667 22 148.334 134 359.001 336c20.667 20.667 42.334 31 65.001 31c27.333 0 55 -11 83 -33
s71.333 -70.667 130 -146l131 -170c12 -16 18 -31.667 18 -47c0 -26 -10.667 -49.833 -32 -71.5s-46 -32.5 -74 -32.5s-51.333 14 -70 42s-84.667 110.333 -198 247z" />
    <glyph glyph-name="Otilde" unicode="&#xd5;" horiz-adv-x="1635" 
d="M161 460c0 126.667 36.333 270.999 109 432.999s184 306.333 334 433s314 190 492 190c378.667 0 568 -157.667 568 -473c0 -259.333 -89.833 -508.166 -269.5 -746.499s-392.5 -357.5 -638.5 -357.5c-176.667 0 -320 49.5 -430 148.5s-165 223.167 -165 372.5z
M367 495.999c0 -104.667 39.332 -189.666 117.999 -254.999s179.667 -98 303 -98c176.667 0 332.334 94.167 467.001 282.5s202 383.166 202 584.499c0 113.333 -32.167 191.833 -96.5 235.5s-163.5 65.5 -297.5 65.5c-180 0 -341 -93 -483 -279s-213 -364.667 -213 -536z
M1274 1948l67.9971 -103.999c26 -40 60 -60 102 -60c37.333 0 67.333 12.333 90 37l59 88l31 60c9.33301 18.667 31.333 28 66 28c42 0 63 -18.333 63 -55c0 -33.333 -29.5 -92.5 -88.5 -177.5s-129.833 -127.5 -212.5 -127.5c-76.667 0 -132 11 -166 33
s-67.333 65.667 -100 131c-23.333 38 -52 57 -86 57c-40.667 0 -75.667 -15.667 -105 -47l-59 -84c-21.333 -30 -44.666 -45 -69.999 -45c-45.333 0 -68 19.667 -68 59l4 23c2.66699 35.333 35.334 84.666 98.001 147.999s137.334 95 224.001 95
c66.667 0 116.667 -19.667 150 -59z" />
    <glyph glyph-name="Odieresis" unicode="&#xd6;" horiz-adv-x="1635" 
d="M161 460c0 126.667 36.333 270.999 109 432.999s184 306.333 334 433s314 190 492 190c378.667 0 568 -157.667 568 -473c0 -259.333 -89.833 -508.166 -269.5 -746.499s-392.5 -357.5 -638.5 -357.5c-176.667 0 -320 49.5 -430 148.5s-165 223.167 -165 372.5z
M367 495.999c0 -104.667 39.332 -189.666 117.999 -254.999s179.667 -98 303 -98c176.667 0 332.334 94.167 467.001 282.5s202 383.166 202 584.499c0 113.333 -32.167 191.833 -96.5 235.5s-163.5 65.5 -297.5 65.5c-180 0 -341 -93 -483 -279s-213 -364.667 -213 -536z
M1589 1768c0 -24.667 -12 -47.332 -36 -67.999s-64.667 -31 -122 -31c-25.333 0 -47.833 7.16699 -67.5 21.5s-29.5 31.833 -29.5 52.5c0 36.667 11.5 64.5 34.5 83.5s66.167 28.5 129.5 28.5c22 0 42.667 -9.33301 62 -28s29 -38.334 29 -59.001zM1077 1763
c0 -31.333 -16.167 -56.5 -48.5 -75.5s-61.5 -28.5 -87.5 -28.5c-72 0 -108 27 -108 81c0 32.667 15.5 58.667 46.5 78s57.833 29 80.5 29c78 0 117 -28 117 -84z" />
    <glyph glyph-name="multiply" unicode="&#xd7;" horiz-adv-x="984" 
d="M695 639c122.667 -109.333 183.996 -198.331 183.996 -266.998c0 -26.667 -10.5 -52.667 -31.5 -78s-45.167 -38 -72.5 -38c-46 0 -90.333 43.667 -133 131c-12.667 29.333 -39.334 60.666 -80.001 93.999c-114 -116.667 -181 -188.834 -201 -216.501
s-47.667 -41.5 -83 -41.5c-25.333 0 -46.333 7.16699 -63 21.5s-25 32.833 -25 55.5c0 44.667 23.667 89.334 71 134.001l74 71c15.333 15.333 24.333 23.666 27 24.999c1.33301 3.33301 22.333 30.666 63 81.999c-78 91.333 -140.667 155.666 -188 192.999
c-24.667 16.667 -37 38 -37 64c0 30.667 12.333 58.334 37 83.001s51.334 37 80.001 37c46.667 0 130.334 -72.333 251.001 -217c62.667 64 126.334 118 191.001 162c24 16 45 31.667 63 47c26 26 52.667 39 80 39c24.667 0 46 -8.66699 64 -26s27 -37.666 27 -60.999
s-9.16699 -45.5 -27.5 -66.5s-59.166 -53.833 -122.499 -98.5c-43.333 -30.667 -92.666 -73.667 -147.999 -129z" />
    <glyph glyph-name="Oslash" unicode="&#xd8;" horiz-adv-x="1635" 
d="M277 207c-46 77.333 -69.002 163.667 -69.002 259c0 118 32.833 253.667 98.5 407s175.334 298.833 329.001 436.5s322.834 206.5 507.501 206.5c200.667 0 346.667 -41 438 -123c112 99.333 177.667 149 197 149c23.333 0 42.666 -7.33301 57.999 -22
s23 -32.334 23 -53.001c0 -31.333 -60.667 -101.333 -182 -210c24 -59.333 36 -130.666 36 -213.999c0 -264 -90.667 -514 -272 -750s-394 -354 -638 -354c-173.333 0 -316 49 -428 147l-109 -100c-55.333 -50.667 -90.666 -76 -105.999 -76
c-22.667 0 -41.5 7.66699 -56.5 23s-22.5 34 -22.5 56c0 22.667 29 61 87 115zM927.998 805.001l485 436.001c-60.667 46.667 -161.667 70 -303 70c-184 0 -345.667 -94.167 -485 -282.5s-209 -364.833 -209 -529.5c0 -48.667 8.66699 -94.334 26 -137.001zM1499 1100
c-88.667 -72.667 -195 -166.333 -319 -281l-312 -289l-325 -294c78 -62 175.667 -93 293 -93c178.667 0 335 95 469 285s201 386.667 201 590c0 30 -2.33301 57.333 -7 82z" />
    <glyph glyph-name="Ugrave" unicode="&#xd9;" horiz-adv-x="1509" 
d="M540 1329l-92 -588.002c-12 -75.333 -18 -143 -18 -203c0 -268.667 115 -403 345 -403c265.333 0 452.666 340 561.999 1020l28 178c20 113.333 63.667 170 131 170c54.667 0 82 -30.333 82 -91c0 -14 -1.33301 -29.333 -4 -46l-39 -248
c-119.333 -772.667 -380 -1159 -782 -1159c-176 0 -307.5 43.333 -394.5 130s-130.5 228.334 -130.5 425.001c0 78.667 18.5 241.167 55.5 487.5s68.833 390.5 95.5 432.5s58.334 63 95.001 63c48 0 72 -33.667 72 -101c0 -19.333 -2 -41.666 -6 -66.999zM961 1678
l-78 146.999c-25.333 47.333 -59.333 90.333 -102 129c-18.667 16.667 -28 36.334 -28 59.001c0 28 11.333 52.5 34 73.5s46 31.5 70 31.5c40 0 96.5 -52 169.5 -156s109.5 -179.333 109.5 -226c0 -24.667 -11.333 -47.667 -34 -69s-47.667 -32 -75 -32
c-30 0 -52 14.333 -66 43z" />
    <glyph glyph-name="Uacute" unicode="&#xda;" horiz-adv-x="1509" 
d="M540 1329l-92 -588.002c-12 -75.333 -18 -143 -18 -203c0 -268.667 115 -403 345 -403c265.333 0 452.666 340 561.999 1020l28 178c20 113.333 63.667 170 131 170c54.667 0 82 -30.333 82 -91c0 -14 -1.33301 -29.333 -4 -46l-39 -248
c-119.333 -772.667 -380 -1159 -782 -1159c-176 0 -307.5 43.333 -394.5 130s-130.5 228.334 -130.5 425.001c0 78.667 18.5 241.167 55.5 487.5s68.833 390.5 95.5 432.5s58.334 63 95.001 63c48 0 72 -33.667 72 -101c0 -19.333 -2 -41.666 -6 -66.999zM926 1726
c0 24.667 13.999 49.333 41.999 74c34 28.667 86.333 82 157 160c30 34 68.333 69.5 115 106.5s83.667 55.5 111 55.5c20 0 37.667 -7.66699 53 -23s23 -33.666 23 -54.999c0 -33.333 -16.667 -62 -50 -86c-59.333 -41.333 -111.666 -89 -156.999 -143
c-99.333 -113.333 -172 -170 -218 -170c-20.667 0 -38.5 7.66699 -53.5 23s-22.5 34.666 -22.5 57.999z" />
    <glyph glyph-name="Ucircumflex" unicode="&#xdb;" horiz-adv-x="1509" 
d="M540 1329l-92 -588.002c-12 -75.333 -18 -143 -18 -203c0 -268.667 115 -403 345 -403c265.333 0 452.666 340 561.999 1020l28 178c20 113.333 63.667 170 131 170c54.667 0 82 -30.333 82 -91c0 -14 -1.33301 -29.333 -4 -46l-39 -248
c-119.333 -772.667 -380 -1159 -782 -1159c-176 0 -307.5 43.333 -394.5 130s-130.5 228.334 -130.5 425.001c0 78.667 18.5 241.167 55.5 487.5s68.833 390.5 95.5 432.5s58.334 63 95.001 63c48 0 72 -33.667 72 -101c0 -19.333 -2 -41.666 -6 -66.999zM1121 1936
c-203.333 -209.333 -328.335 -313.999 -375.002 -313.999c-20.667 0 -38.667 8 -54 24s-23 34.333 -23 55c0 29.333 13.333 55.666 40 78.999c28.667 22 148.334 134 359.001 336c20.667 20.667 42.334 31 65.001 31c27.333 0 55 -11 83 -33s71.333 -70.667 130 -146
l131 -170c12 -16 18 -31.667 18 -47c0 -26 -10.667 -49.833 -32 -71.5s-46 -32.5 -74 -32.5s-51.333 14 -70 42s-84.667 110.333 -198 247z" />
    <glyph glyph-name="Udieresis" unicode="&#xdc;" horiz-adv-x="1509" 
d="M540 1329l-92 -588.002c-12 -75.333 -18 -143 -18 -203c0 -268.667 115 -403 345 -403c265.333 0 452.666 340 561.999 1020l28 178c20 113.333 63.667 170 131 170c54.667 0 82 -30.333 82 -91c0 -14 -1.33301 -29.333 -4 -46l-39 -248
c-119.333 -772.667 -380 -1159 -782 -1159c-176 0 -307.5 43.333 -394.5 130s-130.5 228.334 -130.5 425.001c0 78.667 18.5 241.167 55.5 487.5s68.833 390.5 95.5 432.5s58.334 63 95.001 63c48 0 72 -33.667 72 -101c0 -19.333 -2 -41.666 -6 -66.999zM1456 1746
c0 -24.667 -12 -47.332 -36 -67.999s-64.667 -31 -122 -31c-25.333 0 -47.833 7.16699 -67.5 21.5s-29.5 31.833 -29.5 52.5c0 36.667 11.5 64.5 34.5 83.5s66.167 28.5 129.5 28.5c22 0 42.667 -9.33301 62 -28s29 -38.334 29 -59.001zM944 1741
c0 -31.333 -16.167 -56.5 -48.5 -75.5s-61.5 -28.5 -87.5 -28.5c-72 0 -108 27 -108 81c0 32.667 15.5 58.667 46.5 78s57.833 29 80.5 29c78 0 117 -28 117 -84z" />
    <glyph glyph-name="Yacute" unicode="&#xdd;" horiz-adv-x="1301" 
d="M668 469c-97.333 154.667 -155.999 276.329 -175.999 364.996c-18.667 76 -54.334 166 -107.001 270l-95 191c-27.333 56.667 -41 93.667 -41 111c0 28.667 12.5 55.167 37.5 79.5s52.5 36.5 82.5 36.5c31.333 0 56.333 -15.667 75 -47l62 -125
c68.667 -138.667 113.667 -233 135 -283s38.333 -103.333 51 -160c12 -50.667 47 -125.667 105 -225l317 557l107 162c36.667 56 62.5 89.833 77.5 101.5s35.5 17.5 61.5 17.5c24.667 0 45.5 -8.16699 62.5 -24.5s25.5 -36.166 25.5 -59.499
c0 -31.333 -37.667 -99.666 -113 -204.999l-47 -70l-237 -424c-58 -104 -143.333 -243.333 -256 -418l-160 -223l-70 -108c-25.333 -38.667 -58 -58 -98 -58c-24.667 0 -45.5 8.33301 -62.5 25s-25.5 36.334 -25.5 59.001c0 26.667 42.333 103.334 127 230.001z
M858.001 1810c0 24.667 13.999 49.334 41.999 74.001c34 28.667 86.333 82 157 160c30 34 68.333 69.5 115 106.5s83.667 55.5 111 55.5c20 0 37.667 -7.66699 53 -23s23 -33.666 23 -55c0 -33.333 -16.667 -62 -50 -86c-59.333 -41.333 -111.666 -89 -156.999 -143
c-99.333 -113.333 -172 -170 -218 -170c-20.667 0 -38.5 7.66699 -53.5 23s-22.5 34.666 -22.5 57.999z" />
    <glyph glyph-name="Thorn" unicode="&#xde;" horiz-adv-x="1066" 
d="M539 1350l168 7.99902c107.333 5.33301 209.5 -28.167 306.5 -100.5s145.5 -166.5 145.5 -282.5c0 -162.667 -66 -303 -198 -421s-292.667 -177 -482 -177c-32.667 0 -77 4.66699 -133 14l-53 -319c-4.66699 -30 -17.167 -53.667 -37.5 -71s-42.833 -26 -67.5 -26
c-28 0 -49 9.16699 -63 27.5s-18.667 41.5 -14 69.5l47 293c17.333 108.667 45.333 246.334 84 413.001c2 8 30.667 146.667 86 416l20 137c10 68 25 121.5 45 160.5s51.667 58.5 95 58.5c46.667 0 70 -27.667 70 -83c0 -32 -5.66699 -64.333 -17 -97zM508 1169l-125 -585
c63.333 -12.667 105 -19 125 -19c133.333 0 244 37.333 332 112s132 160 132 256c0 63.333 -31.667 118.5 -95 165.5s-138 70.5 -224 70.5h-145z" />
    <glyph glyph-name="germandbls" unicode="&#xdf;" horiz-adv-x="908" 
d="M762 815c117.333 -92 176 -224.33 176 -396.997c0 -328 -136 -492 -408 -492c-59.333 0 -109.5 14.5 -150.5 43.5s-61.5 66.833 -61.5 113.5c0 68.667 26.333 103 79 103c18.667 0 42.667 -12 72 -36c31.333 -23.333 60 -35 86 -35c88 0 141.833 27.333 161.5 82
s29.5 117.667 29.5 189c0 57.333 -8.66699 109.333 -26 156s-63.333 101 -138 163c-41.333 35.333 -62 68.666 -62 99.999s26.667 68 80 110l135 111c62 50.667 93 123.667 93 219c0 88.667 -37 133 -111 133c-129.333 0 -223.833 -115 -283.5 -345s-106.5 -489 -140.5 -777
c-20.667 -172.667 -44.834 -284.834 -72.501 -336.501s-62.834 -77.5 -105.501 -77.5c-24 0 -44.167 7.66699 -60.5 23s-24.5 34 -24.5 56l4 22c0 2.66699 1 6.66699 3 12c18.667 58.667 44.334 173.167 77.001 343.5s53.334 287.833 62.001 352.5l19 117
c52 320.667 125 534.667 219 642s206.667 161 338 161c91.333 0 160.5 -29.667 207.5 -89s70.5 -134 70.5 -224c0 -75.333 -17.333 -144.333 -52 -207s-106.667 -141.334 -216 -236.001z" />
    <glyph glyph-name="agrave" unicode="&#xe0;" horiz-adv-x="1048" 
d="M764 51c-144 -69.333 -246.669 -104.002 -308.002 -104.002c-249.333 0 -374 118.667 -374 356c0 220.667 69.833 399.334 209.5 536.001s292.834 205 459.501 205c64.667 0 131.5 -16.5 200.5 -49.5s103.5 -71.5 103.5 -115.5c0 -27.333 -9 -48.666 -27 -63.999
c-13.333 -26 -32.166 -101.167 -56.499 -225.5s-36.5 -213.833 -36.5 -268.5c0 -67.333 17.333 -160 52 -278l4 -16c-14.667 -62 -51.667 -93 -111 -93c-10 0 -28.667 13.5 -56 40.5s-47.333 52.5 -60 76.5zM836.998 828.998c-42 24.667 -75.334 37 -100.001 37
c-111.333 0 -215.166 -50.167 -311.499 -150.5s-144.5 -225.166 -144.5 -374.499c0 -146.667 63.333 -220 190 -220c99.333 0 192.666 36.667 279.999 110c10.667 279.333 39.334 478.666 86.001 597.999zM745.997 1216l-78 146.999c-25.333 47.333 -59.333 90.333 -102 129
c-18.667 16.667 -28 36.334 -28 59.001c0 28 11.333 52.5 34 73.5s46 31.5 70 31.5c40 0 96.5 -52 169.5 -156s109.5 -179.333 109.5 -226c0 -24.667 -11.333 -47.667 -34 -69s-47.667 -32 -75 -32c-30 0 -52 14.333 -66 43z" />
    <glyph glyph-name="aacute" unicode="&#xe1;" horiz-adv-x="1048" 
d="M764 51c-144 -69.333 -246.669 -104.002 -308.002 -104.002c-249.333 0 -374 118.667 -374 356c0 220.667 69.833 399.334 209.5 536.001s292.834 205 459.501 205c64.667 0 131.5 -16.5 200.5 -49.5s103.5 -71.5 103.5 -115.5c0 -27.333 -9 -48.666 -27 -63.999
c-13.333 -26 -32.166 -101.167 -56.499 -225.5s-36.5 -213.833 -36.5 -268.5c0 -67.333 17.333 -160 52 -278l4 -16c-14.667 -62 -51.667 -93 -111 -93c-10 0 -28.667 13.5 -56 40.5s-47.333 52.5 -60 76.5zM836.998 828.998c-42 24.667 -75.334 37 -100.001 37
c-111.333 0 -215.166 -50.167 -311.499 -150.5s-144.5 -225.166 -144.5 -374.499c0 -146.667 63.333 -220 190 -220c99.333 0 192.666 36.667 279.999 110c10.667 279.333 39.334 478.666 86.001 597.999zM690.997 1269c0 24.667 13.999 49.333 41.999 74
c34 28.667 86.333 82 157 160c30 34 68.333 69.5 115 106.5s83.667 55.5 111 55.5c20 0 37.667 -7.66699 53 -23s23 -33.666 23 -54.999c0 -33.333 -16.667 -62 -50 -86c-59.333 -41.333 -111.666 -89 -156.999 -143c-99.333 -113.333 -172 -170 -218 -170
c-20.667 0 -38.5 7.66699 -53.5 23s-22.5 34.666 -22.5 57.999z" />
    <glyph glyph-name="acircumflex" unicode="&#xe2;" horiz-adv-x="1048" 
d="M764 51c-144 -69.333 -246.669 -104.002 -308.002 -104.002c-249.333 0 -374 118.667 -374 356c0 220.667 69.833 399.334 209.5 536.001s292.834 205 459.501 205c64.667 0 131.5 -16.5 200.5 -49.5s103.5 -71.5 103.5 -115.5c0 -27.333 -9 -48.666 -27 -63.999
c-13.333 -26 -32.166 -101.167 -56.499 -225.5s-36.5 -213.833 -36.5 -268.5c0 -67.333 17.333 -160 52 -278l4 -16c-14.667 -62 -51.667 -93 -111 -93c-10 0 -28.667 13.5 -56 40.5s-47.333 52.5 -60 76.5zM836.998 828.998c-42 24.667 -75.334 37 -100.001 37
c-111.333 0 -215.166 -50.167 -311.499 -150.5s-144.5 -225.166 -144.5 -374.499c0 -146.667 63.333 -220 190 -220c99.333 0 192.666 36.667 279.999 110c10.667 279.333 39.334 478.666 86.001 597.999zM799.997 1487
c-203.333 -209.333 -328.335 -313.999 -375.002 -313.999c-20.667 0 -38.667 8 -54 24s-23 34.333 -23 55c0 29.333 13.333 55.666 40 78.999c28.667 22 148.334 134 359.001 336c20.667 20.667 42.334 31 65.001 31c27.333 0 55 -11 83 -33s71.333 -70.667 130 -146
l131 -170c12 -16 18 -31.667 18 -47c0 -26 -10.667 -49.833 -32 -71.5s-46 -32.5 -74 -32.5s-51.333 14 -70 42s-84.667 110.333 -198 247z" />
    <glyph glyph-name="atilde" unicode="&#xe3;" horiz-adv-x="1048" 
d="M764 51c-144 -69.333 -246.669 -104.002 -308.002 -104.002c-249.333 0 -374 118.667 -374 356c0 220.667 69.833 399.334 209.5 536.001s292.834 205 459.501 205c64.667 0 131.5 -16.5 200.5 -49.5s103.5 -71.5 103.5 -115.5c0 -27.333 -9 -48.666 -27 -63.999
c-13.333 -26 -32.166 -101.167 -56.499 -225.5s-36.5 -213.833 -36.5 -268.5c0 -67.333 17.333 -160 52 -278l4 -16c-14.667 -62 -51.667 -93 -111 -93c-10 0 -28.667 13.5 -56 40.5s-47.333 52.5 -60 76.5zM836.998 828.998c-42 24.667 -75.334 37 -100.001 37
c-111.333 0 -215.166 -50.167 -311.499 -150.5s-144.5 -225.166 -144.5 -374.499c0 -146.667 63.333 -220 190 -220c99.333 0 192.666 36.667 279.999 110c10.667 279.333 39.334 478.666 86.001 597.999zM795.997 1476l67.9971 -103.999c26 -40 60 -60 102 -60
c37.333 0 67.333 12.333 90 37l59 88l31 60c9.33301 18.667 31.333 28 66 28c42 0 63 -18.333 63 -55c0 -33.333 -29.5 -92.5 -88.5 -177.5s-129.833 -127.5 -212.5 -127.5c-76.667 0 -132 11 -166 33s-67.333 65.667 -100 131c-23.333 38 -52 57 -86 57
c-40.667 0 -75.667 -15.667 -105 -47l-59 -84c-21.333 -30 -44.666 -45 -69.999 -45c-45.333 0 -68 19.667 -68 59l4 23c2.66699 35.333 35.334 84.666 98.001 147.999s137.334 95 224.001 95c66.667 0 116.667 -19.667 150 -59z" />
    <glyph glyph-name="adieresis" unicode="&#xe4;" horiz-adv-x="1048" 
d="M764 51c-144 -69.333 -246.669 -104.002 -308.002 -104.002c-249.333 0 -374 118.667 -374 356c0 220.667 69.833 399.334 209.5 536.001s292.834 205 459.501 205c64.667 0 131.5 -16.5 200.5 -49.5s103.5 -71.5 103.5 -115.5c0 -27.333 -9 -48.666 -27 -63.999
c-13.333 -26 -32.166 -101.167 -56.499 -225.5s-36.5 -213.833 -36.5 -268.5c0 -67.333 17.333 -160 52 -278l4 -16c-14.667 -62 -51.667 -93 -111 -93c-10 0 -28.667 13.5 -56 40.5s-47.333 52.5 -60 76.5zM836.998 828.998c-42 24.667 -75.334 37 -100.001 37
c-111.333 0 -215.166 -50.167 -311.499 -150.5s-144.5 -225.166 -144.5 -374.499c0 -146.667 63.333 -220 190 -220c99.333 0 192.666 36.667 279.999 110c10.667 279.333 39.334 478.666 86.001 597.999zM1165 1293c0 -24.667 -12 -47.332 -36 -67.999
s-64.667 -31 -122 -31c-25.333 0 -47.833 7.16699 -67.5 21.5s-29.5 31.833 -29.5 52.5c0 36.667 11.5 64.5 34.5 83.5s66.167 28.5 129.5 28.5c22 0 42.667 -9.33301 62 -28s29 -38.334 29 -59.001zM652.997 1288c0 -31.333 -16.167 -56.5 -48.5 -75.5
s-61.5 -28.5 -87.5 -28.5c-72 0 -108 27 -108 81c0 32.667 15.5 58.667 46.5 78s57.833 29 80.5 29c78 0 117 -28 117 -84z" />
    <glyph glyph-name="aring" unicode="&#xe5;" horiz-adv-x="1048" 
d="M764 51c-144 -69.333 -246.669 -104.002 -308.002 -104.002c-249.333 0 -374 118.667 -374 356c0 220.667 69.833 399.334 209.5 536.001s292.834 205 459.501 205c64.667 0 131.5 -16.5 200.5 -49.5s103.5 -71.5 103.5 -115.5c0 -27.333 -9 -48.666 -27 -63.999
c-13.333 -26 -32.166 -101.167 -56.499 -225.5s-36.5 -213.833 -36.5 -268.5c0 -67.333 17.333 -160 52 -278l4 -16c-14.667 -62 -51.667 -93 -111 -93c-10 0 -28.667 13.5 -56 40.5s-47.333 52.5 -60 76.5zM836.998 828.998c-42 24.667 -75.334 37 -100.001 37
c-111.333 0 -215.166 -50.167 -311.499 -150.5s-144.5 -225.166 -144.5 -374.499c0 -146.667 63.333 -220 190 -220c99.333 0 192.666 36.667 279.999 110c10.667 279.333 39.334 478.666 86.001 597.999zM887.997 1757c83.333 0 149.833 -21.833 199.5 -65.5
s74.5 -97.5 74.5 -161.5c0 -88 -32.5 -167.333 -97.5 -238s-169.5 -106 -313.5 -106c-92 0 -161.333 23 -208 69s-70 97 -70 153c0 97.333 38.333 179.833 115 247.5s176.667 101.5 300 101.5zM1009 1507c0 28.667 -14.166 53.001 -42.499 73.001s-61.833 30 -100.5 30
c-88.667 0 -150.667 -18.333 -186 -55s-53 -76 -53 -118c0 -27.333 16.5 -51.5 49.5 -72.5s70.833 -31.5 113.5 -31.5c81.333 0 138.166 18.167 170.499 54.5s48.5 76.166 48.5 119.499z" />
    <glyph glyph-name="ae" unicode="&#xe6;" horiz-adv-x="1867" 
d="M790 53c-30 -23.333 -72.002 -46.1699 -126.002 -68.5029s-101.667 -33.5 -143 -33.5c-130.667 0 -232.5 39.333 -305.5 118s-109.5 176.667 -109.5 294c0 180.667 71.5 337.334 214.5 470.001s300.833 199 473.5 199c42.667 0 88.334 -6.16699 137.001 -18.5
s82.167 -22.333 100.5 -30s24.5 -45.5 18.5 -113.5c42.667 52.667 99.5 94.834 170.5 126.501s139.833 47.5 206.5 47.5c112.667 0 201.334 -19.333 266.001 -58s97 -94.667 97 -168c0 -55.333 -17 -102.833 -51 -142.5s-68.833 -69.334 -104.5 -89.001
s-109.167 -54.167 -220.5 -103.5l-411 -182c56.667 -110.667 159.667 -166 309 -166c59.333 0 121 10.333 185 31s112.333 48 145 82c31.333 35.333 59.333 53 84 53c20.667 0 38.167 -7 52.5 -21s21.5 -31.333 21.5 -52c0 -73.333 -58.667 -137.166 -176 -191.499
s-231 -81.5 -341 -81.5c-155.333 0 -262.333 37.667 -321 113v-68c0 -28.667 -28.667 -43 -86 -43c-20 0 -38.5 4.33301 -55.5 13s-27.167 36.334 -30.5 83.001zM830.998 861.996c-9.33301 5.33301 -34.666 8 -75.999 8c-116.667 0 -221.334 -51.5 -314.001 -154.5
s-139 -209.5 -139 -319.5c0 -76 23.667 -142.167 71 -198.5s107.666 -84.5 180.999 -84.5c88.667 0 170 34 244 102c0 76 0.5 123.833 1.5 143.5s11.833 84.5 32.5 194.5s41.334 201.333 62.001 274zM1015 484.996l313 133c114 48.667 213.667 104 299 166
c-48.667 53.333 -125 80 -229 80c-161.333 0 -289 -126.333 -383 -379z" />
    <glyph glyph-name="ccedilla" unicode="&#xe7;" horiz-adv-x="1052" 
d="M698 -41c24 -36.667 36 -75 36 -115c0 -70 -21.5 -135.5 -64.5 -196.5s-116.167 -91.5 -219.5 -91.5c-67.333 0 -123.666 12.333 -168.999 37s-68 56.334 -68 95.001c0 45.333 27 68 81 68c15.333 0 41 -8 77 -24c36 -16.667 66.333 -25 91 -25c76.667 0 115 37 115 111
c0 52.667 -43 97.667 -129 135c-92.667 20 -164.834 63.833 -216.501 131.5s-77.5 145.5 -77.5 233.5c0 154.667 65 317.5 195 488.5s259.667 256.5 389 256.5c72.667 0 148 -17.167 226 -51.5s117 -75.833 117 -124.5c0 -26.667 -10.5 -51.834 -31.5 -75.501
s-44.833 -35.5 -71.5 -35.5c-26 0 -53.5 16.333 -82.5 49s-91.5 49 -187.5 49c-70 0 -149.5 -64.333 -238.5 -193s-133.5 -239 -133.5 -331c0 -65.333 23.833 -119.166 71.5 -161.499s112.834 -63.5 195.501 -63.5c40.667 0 85 11 133 33l125 61c23.333 11.333 39 17 47 17
c21.333 0 39.166 -8 53.499 -24s21.5 -35.667 21.5 -59c0 -74.667 -95 -139.334 -285 -194.001z" />
    <glyph glyph-name="egrave" unicode="&#xe8;" horiz-adv-x="1122" 
d="M290 301c58 -110.667 160.667 -166.001 308 -166.001c52 0 113.667 10.667 185 32s120 48.333 146 81c27.333 35.333 54.666 53 81.999 53c22 0 40.333 -7.5 55 -22.5s22 -32.5 22 -52.5c0 -68 -58.167 -130.167 -174.5 -186.5s-231.166 -84.5 -344.499 -84.5
c-142.667 0 -254 33.5 -334 100.5s-120 157.167 -120 270.5c0 164 55.667 324.667 167 482s255.333 236 432 236c117.333 0 207 -19.667 269 -59s93 -95 93 -167c0 -59.333 -20.167 -110.166 -60.5 -152.499s-84 -75 -131 -98s-108.5 -51.167 -184.5 -84.5zM303 484.999
l327.001 148c138 62.667 232.333 113 283 151c-48.667 53.333 -124.334 80 -227.001 80c-164 0 -291.667 -126.333 -383 -379zM757.001 1221l-78 146.999c-25.333 47.333 -59.333 90.333 -102 129c-18.667 16.667 -28 36.334 -28 59.001c0 28 11.333 52.5 34 73.5
s46 31.5 70 31.5c40 0 96.5 -52 169.5 -156s109.5 -179.333 109.5 -226c0 -24.667 -11.333 -47.667 -34 -69s-47.667 -32 -75 -32c-30 0 -52 14.333 -66 43z" />
    <glyph glyph-name="eacute" unicode="&#xe9;" horiz-adv-x="1122" 
d="M290 301c58 -110.667 160.667 -166.001 308 -166.001c52 0 113.667 10.667 185 32s120 48.333 146 81c27.333 35.333 54.666 53 81.999 53c22 0 40.333 -7.5 55 -22.5s22 -32.5 22 -52.5c0 -68 -58.167 -130.167 -174.5 -186.5s-231.166 -84.5 -344.499 -84.5
c-142.667 0 -254 33.5 -334 100.5s-120 157.167 -120 270.5c0 164 55.667 324.667 167 482s255.333 236 432 236c117.333 0 207 -19.667 269 -59s93 -95 93 -167c0 -59.333 -20.167 -110.166 -60.5 -152.499s-84 -75 -131 -98s-108.5 -51.167 -184.5 -84.5zM303 484.999
l327.001 148c138 62.667 232.333 113 283 151c-48.667 53.333 -124.334 80 -227.001 80c-164 0 -291.667 -126.333 -383 -379zM703.001 1269c0 24.667 13.999 49.333 41.999 74c34 28.667 86.333 82 157 160c30 34 68.333 69.5 115 106.5s83.667 55.5 111 55.5
c20 0 37.667 -7.66699 53 -23s23 -33.666 23 -54.999c0 -33.333 -16.667 -62 -50 -86c-59.333 -41.333 -111.666 -89 -156.999 -143c-99.333 -113.333 -172 -170 -218 -170c-20.667 0 -38.5 7.66699 -53.5 23s-22.5 34.666 -22.5 57.999z" />
    <glyph glyph-name="ecircumflex" unicode="&#xea;" horiz-adv-x="1122" 
d="M290 301c58 -110.667 160.667 -166.001 308 -166.001c52 0 113.667 10.667 185 32s120 48.333 146 81c27.333 35.333 54.666 53 81.999 53c22 0 40.333 -7.5 55 -22.5s22 -32.5 22 -52.5c0 -68 -58.167 -130.167 -174.5 -186.5s-231.166 -84.5 -344.499 -84.5
c-142.667 0 -254 33.5 -334 100.5s-120 157.167 -120 270.5c0 164 55.667 324.667 167 482s255.333 236 432 236c117.333 0 207 -19.667 269 -59s93 -95 93 -167c0 -59.333 -20.167 -110.166 -60.5 -152.499s-84 -75 -131 -98s-108.5 -51.167 -184.5 -84.5zM303 484.999
l327.001 148c138 62.667 232.333 113 283 151c-48.667 53.333 -124.334 80 -227.001 80c-164 0 -291.667 -126.333 -383 -379zM839.001 1479c-203.333 -209.333 -328.335 -313.999 -375.002 -313.999c-20.667 0 -38.667 8 -54 24s-23 34.333 -23 55
c0 29.333 13.333 55.666 40 78.999c28.667 22 148.334 134 359.001 336c20.667 20.667 42.334 31 65.001 31c27.333 0 55 -11 83 -33s71.333 -70.667 130 -146l131 -170c12 -16 18 -31.667 18 -47c0 -26 -10.667 -49.833 -32 -71.5s-46 -32.5 -74 -32.5s-51.333 14 -70 42
s-84.667 110.333 -198 247z" />
    <glyph glyph-name="edieresis" unicode="&#xeb;" horiz-adv-x="1122" 
d="M290 301c58 -110.667 160.667 -166.001 308 -166.001c52 0 113.667 10.667 185 32s120 48.333 146 81c27.333 35.333 54.666 53 81.999 53c22 0 40.333 -7.5 55 -22.5s22 -32.5 22 -52.5c0 -68 -58.167 -130.167 -174.5 -186.5s-231.166 -84.5 -344.499 -84.5
c-142.667 0 -254 33.5 -334 100.5s-120 157.167 -120 270.5c0 164 55.667 324.667 167 482s255.333 236 432 236c117.333 0 207 -19.667 269 -59s93 -95 93 -167c0 -59.333 -20.167 -110.166 -60.5 -152.499s-84 -75 -131 -98s-108.5 -51.167 -184.5 -84.5zM303 484.999
l327.001 148c138 62.667 232.333 113 283 151c-48.667 53.333 -124.334 80 -227.001 80c-164 0 -291.667 -126.333 -383 -379zM1224 1389c0 -24.667 -12 -47.332 -36 -67.999s-64.667 -31 -122 -31c-25.333 0 -47.833 7.16699 -67.5 21.5s-29.5 31.833 -29.5 52.5
c0 36.667 11.5 64.5 34.5 83.5s66.167 28.5 129.5 28.5c22 0 42.667 -9.33301 62 -28s29 -38.334 29 -59.001zM712.001 1384c0 -31.333 -16.167 -56.5 -48.5 -75.5s-61.5 -28.5 -87.5 -28.5c-72 0 -108 27 -108 81c0 32.667 15.5 58.667 46.5 78s57.833 29 80.5 29
c78 0 117 -28 117 -84z" />
    <glyph glyph-name="igrave" unicode="&#xec;" horiz-adv-x="574" 
d="M277 -4c-56 0 -83.999 25.666 -83.999 76.999l40 306c9.33301 80 28.666 183 57.999 309c24 114.667 39.667 193.334 47 236.001c12 66.667 50.333 100 115 100c56 0 84 -26 84 -78c0 -17.333 -16.333 -103.333 -49 -258c-32 -140.667 -51.667 -243.667 -59 -309
c-13.333 -118 -26.5 -211.333 -39.5 -280s-50.5 -103 -112.5 -103zM475.001 1221l-78 146.999c-25.333 47.333 -59.333 90.333 -102 129c-18.667 16.667 -28 36.334 -28 59.001c0 28 11.333 52.5 34 73.5s46 31.5 70 31.5c40 0 96.5 -52 169.5 -156
s109.5 -179.333 109.5 -226c0 -24.667 -11.333 -47.667 -34 -69s-47.667 -32 -75 -32c-30 0 -52 14.333 -66 43z" />
    <glyph glyph-name="iacute" unicode="&#xed;" horiz-adv-x="574" 
d="M277 -4c-56 0 -83.999 25.666 -83.999 76.999l40 306c9.33301 80 28.666 183 57.999 309c24 114.667 39.667 193.334 47 236.001c12 66.667 50.333 100 115 100c56 0 84 -26 84 -78c0 -17.333 -16.333 -103.333 -49 -258c-32 -140.667 -51.667 -243.667 -59 -309
c-13.333 -118 -26.5 -211.333 -39.5 -280s-50.5 -103 -112.5 -103zM296.001 1269c0 24.667 13.999 49.333 41.999 74c34 28.667 86.333 82 157 160c30 34 68.333 69.5 115 106.5s83.667 55.5 111 55.5c20 0 37.667 -7.66699 53 -23s23 -33.666 23 -54.999
c0 -33.333 -16.667 -62 -50 -86c-59.333 -41.333 -111.666 -89 -156.999 -143c-99.333 -113.333 -172 -170 -218 -170c-20.667 0 -38.5 7.66699 -53.5 23s-22.5 34.666 -22.5 57.999z" />
    <glyph glyph-name="icircumflex" unicode="&#xee;" horiz-adv-x="574" 
d="M277 -4c-56 0 -83.999 25.666 -83.999 76.999l40 306c9.33301 80 28.666 183 57.999 309c24 114.667 39.667 193.334 47 236.001c12 66.667 50.333 100 115 100c56 0 84 -26 84 -78c0 -17.333 -16.333 -103.333 -49 -258c-32 -140.667 -51.667 -243.667 -59 -309
c-13.333 -118 -26.5 -211.333 -39.5 -280s-50.5 -103 -112.5 -103zM501.001 1431c-203.333 -209.333 -328.335 -313.999 -375.002 -313.999c-20.667 0 -38.667 8 -54 24s-23 34.333 -23 55c0 29.333 13.333 55.666 40 78.999c28.667 22 148.334 134 359.001 336
c20.667 20.667 42.334 31 65.001 31c27.333 0 55 -11 83 -33s71.333 -70.667 130 -146l131 -170c12 -16 18 -31.667 18 -47c0 -26 -10.667 -49.833 -32 -71.5s-46 -32.5 -74 -32.5s-51.333 14 -70 42s-84.667 110.333 -198 247z" />
    <glyph glyph-name="idieresis" unicode="&#xef;" horiz-adv-x="574" 
d="M277 -4c-56 0 -83.999 25.666 -83.999 76.999l40 306c9.33301 80 28.666 183 57.999 309c24 114.667 39.667 193.334 47 236.001c12 66.667 50.333 100 115 100c56 0 84 -26 84 -78c0 -17.333 -16.333 -103.333 -49 -258c-32 -140.667 -51.667 -243.667 -59 -309
c-13.333 -118 -26.5 -211.333 -39.5 -280s-50.5 -103 -112.5 -103zM855.001 1293c0 -24.667 -12 -47.332 -36 -67.999s-64.667 -31 -122 -31c-25.333 0 -47.833 7.16699 -67.5 21.5s-29.5 31.833 -29.5 52.5c0 36.667 11.5 64.5 34.5 83.5s66.167 28.5 129.5 28.5
c22 0 42.667 -9.33301 62 -28s29 -38.334 29 -59.001zM343.001 1288c0 -31.333 -16.167 -56.5 -48.5 -75.5s-61.5 -28.5 -87.5 -28.5c-72 0 -108 27 -108 81c0 32.667 15.5 58.667 46.5 78s57.833 29 80.5 29c78 0 117 -28 117 -84z" />
    <glyph glyph-name="eth" unicode="&#xf0;" horiz-adv-x="1042" 
d="M521 1356c-30.667 30 -46.0029 57.3311 -46.0029 81.998c0 22.667 10.833 45 32.5 67s45.834 33 72.501 33c42 0 102.667 -58 182 -174c128 60 212 90 252 90c54 0 81 -25 81 -75c0 -31.333 -13.333 -56 -40 -74l-69 -37l-132 -58
c113.333 -213.333 170 -401.333 170 -564c0 -158 -47.667 -312 -143 -462s-226.333 -225 -393 -225c-89.333 0 -164.166 35 -224.499 105s-90.5 146.333 -90.5 229c0 138.667 57.333 270.334 172 395.001s257.334 203.334 428.001 236.001c-18 61.333 -44 129.333 -78 204
l-129 -69c-68.667 -36.667 -111.667 -55 -129 -55c-22.667 0 -41.167 8.5 -55.5 25.5s-21.5 36.833 -21.5 59.5c0 20 6.66699 39.333 20 58s86 63 218 133zM815.997 763.998l-69 -18.999c-161.333 -42.667 -266.833 -108.5 -316.5 -197.5s-74.5 -162.833 -74.5 -221.5
c0 -44.667 14.667 -87.334 44 -128.001s68.333 -61 117 -61c109.333 0 190.5 55.167 243.5 165.5s79.5 201.833 79.5 274.5c0 36 -8 98.333 -24 187z" />
    <glyph glyph-name="ntilde" unicode="&#xf1;" horiz-adv-x="1072" 
d="M475 846c134.667 148.667 261.668 223 381.001 223c144 0 216 -89.667 216 -269c0 -43.333 -3.66699 -93.666 -11 -150.999l-33 -192c-9.33301 -50.667 -14 -122.334 -14 -215.001c0 -138 -9.16699 -224.833 -27.5 -260.5s-51.5 -53.5 -99.5 -53.5
c-58.667 0 -86 31.667 -82 95l6 219c1.33301 58.667 9.33301 133.5 24 224.5s26.667 152.5 36 184.5c6.66699 41.333 10 76.666 10 105.999c0 72.667 -19.333 109 -58 109c-88 0 -177.667 -57.667 -269 -173s-147 -218.333 -167 -309c-4 -16.667 -8.66699 -34.667 -14 -54
c-14 -46 -22.333 -91 -25 -135l-10 -126c-3.33301 -36 -15.833 -64.333 -37.5 -85s-48.167 -31 -79.5 -31c-56 0 -84 26 -84 78l15 164c4 64.667 25 172.334 63 323.001c37.333 154.667 60.666 281.667 69.999 381l9 84c3.33301 32 16 58.167 38 78.5s48.667 30.5 80 30.5
c61.333 0 88 -43 80 -129zM788.001 1495l67.9971 -103.999c26 -40 60 -60 102 -60c37.333 0 67.333 12.333 90 37l59 88l31 60c9.33301 18.667 31.333 28 66 28c42 0 63 -18.333 63 -55c0 -33.333 -29.5 -92.5 -88.5 -177.5s-129.833 -127.5 -212.5 -127.5
c-76.667 0 -132 11 -166 33s-67.333 65.667 -100 131c-23.333 38 -52 57 -86 57c-40.667 0 -75.667 -15.667 -105 -47l-59 -84c-21.333 -30 -44.666 -45 -69.999 -45c-45.333 0 -68 19.667 -68 59l4 23c2.66699 35.333 35.334 84.666 98.001 147.999s137.334 95 224.001 95
c66.667 0 116.667 -19.667 150 -59z" />
    <glyph glyph-name="ograve" unicode="&#xf2;" horiz-adv-x="1077" 
d="M121 342c0 176.667 57.333 336.5 172 479.5s259.667 214.5 435 214.5c100 0 176.5 -35 229.5 -105s79.5 -163 79.5 -279c0 -190 -53.333 -356 -160 -498s-239 -213 -397 -213c-108.667 0 -195.667 38.333 -261 115s-98 172 -98 286zM675 834
c-104 0 -189.333 -51.501 -256 -154.501s-100 -206.833 -100 -311.5c0 -69.333 18.167 -124.166 54.5 -164.499s82.833 -60.5 139.5 -60.5c88 0 165.667 40 233 120s101 198.333 101 355c0 144 -55.333 216 -166 216h-6zM822 1221l-78 146.999
c-25.333 47.333 -59.333 90.333 -102 129c-18.667 16.667 -28 36.334 -28 59.001c0 28 11.333 52.5 34 73.5s46 31.5 70 31.5c40 0 96.5 -52 169.5 -156s109.5 -179.333 109.5 -226c0 -24.667 -11.333 -47.667 -34 -69s-47.667 -32 -75 -32c-30 0 -52 14.333 -66 43z" />
    <glyph glyph-name="oacute" unicode="&#xf3;" horiz-adv-x="1077" 
d="M121 342c0 176.667 57.333 336.5 172 479.5s259.667 214.5 435 214.5c100 0 176.5 -35 229.5 -105s79.5 -163 79.5 -279c0 -190 -53.333 -356 -160 -498s-239 -213 -397 -213c-108.667 0 -195.667 38.333 -261 115s-98 172 -98 286zM675 834
c-104 0 -189.333 -51.501 -256 -154.501s-100 -206.833 -100 -311.5c0 -69.333 18.167 -124.166 54.5 -164.499s82.833 -60.5 139.5 -60.5c88 0 165.667 40 233 120s101 198.333 101 355c0 144 -55.333 216 -166 216h-6zM695 1269c0 24.667 13.999 49.333 41.999 74
c34 28.667 86.333 82 157 160c30 34 68.333 69.5 115 106.5s83.667 55.5 111 55.5c20 0 37.667 -7.66699 53 -23s23 -33.666 23 -54.999c0 -33.333 -16.667 -62 -50 -86c-59.333 -41.333 -111.666 -89 -156.999 -143c-99.333 -113.333 -172 -170 -218 -170
c-20.667 0 -38.5 7.66699 -53.5 23s-22.5 34.666 -22.5 57.999z" />
    <glyph glyph-name="ocircumflex" unicode="&#xf4;" horiz-adv-x="1077" 
d="M121 342c0 176.667 57.333 336.5 172 479.5s259.667 214.5 435 214.5c100 0 176.5 -35 229.5 -105s79.5 -163 79.5 -279c0 -190 -53.333 -356 -160 -498s-239 -213 -397 -213c-108.667 0 -195.667 38.333 -261 115s-98 172 -98 286zM675 834
c-104 0 -189.333 -51.501 -256 -154.501s-100 -206.833 -100 -311.5c0 -69.333 18.167 -124.166 54.5 -164.499s82.833 -60.5 139.5 -60.5c88 0 165.667 40 233 120s101 198.333 101 355c0 144 -55.333 216 -166 216h-6zM825 1479
c-203.333 -209.333 -328.335 -313.999 -375.002 -313.999c-20.667 0 -38.667 8 -54 24s-23 34.333 -23 55c0 29.333 13.333 55.666 40 78.999c28.667 22 148.334 134 359.001 336c20.667 20.667 42.334 31 65.001 31c27.333 0 55 -11 83 -33s71.333 -70.667 130 -146
l131 -170c12 -16 18 -31.667 18 -47c0 -26 -10.667 -49.833 -32 -71.5s-46 -32.5 -74 -32.5s-51.333 14 -70 42s-84.667 110.333 -198 247z" />
    <glyph glyph-name="otilde" unicode="&#xf5;" horiz-adv-x="1077" 
d="M121 342c0 176.667 57.333 336.5 172 479.5s259.667 214.5 435 214.5c100 0 176.5 -35 229.5 -105s79.5 -163 79.5 -279c0 -190 -53.333 -356 -160 -498s-239 -213 -397 -213c-108.667 0 -195.667 38.333 -261 115s-98 172 -98 286zM675 834
c-104 0 -189.333 -51.501 -256 -154.501s-100 -206.833 -100 -311.5c0 -69.333 18.167 -124.166 54.5 -164.499s82.833 -60.5 139.5 -60.5c88 0 165.667 40 233 120s101 198.333 101 355c0 144 -55.333 216 -166 216h-6zM839 1495l67.9971 -103.999c26 -40 60 -60 102 -60
c37.333 0 67.333 12.333 90 37l59 88l31 60c9.33301 18.667 31.333 28 66 28c42 0 63 -18.333 63 -55c0 -33.333 -29.5 -92.5 -88.5 -177.5s-129.833 -127.5 -212.5 -127.5c-76.667 0 -132 11 -166 33s-67.333 65.667 -100 131c-23.333 38 -52 57 -86 57
c-40.667 0 -75.667 -15.667 -105 -47l-59 -84c-21.333 -30 -44.666 -45 -69.999 -45c-45.333 0 -68 19.667 -68 59l4 23c2.66699 35.333 35.334 84.666 98.001 147.999s137.334 95 224.001 95c66.667 0 116.667 -19.667 150 -59z" />
    <glyph glyph-name="odieresis" unicode="&#xf6;" horiz-adv-x="1077" 
d="M121 342c0 176.667 57.333 336.5 172 479.5s259.667 214.5 435 214.5c100 0 176.5 -35 229.5 -105s79.5 -163 79.5 -279c0 -190 -53.333 -356 -160 -498s-239 -213 -397 -213c-108.667 0 -195.667 38.333 -261 115s-98 172 -98 286zM675 834
c-104 0 -189.333 -51.501 -256 -154.501s-100 -206.833 -100 -311.5c0 -69.333 18.167 -124.166 54.5 -164.499s82.833 -60.5 139.5 -60.5c88 0 165.667 40 233 120s101 198.333 101 355c0 144 -55.333 216 -166 216h-6zM1204 1293c0 -24.667 -12 -47.332 -36 -67.999
s-64.667 -31 -122 -31c-25.333 0 -47.833 7.16699 -67.5 21.5s-29.5 31.833 -29.5 52.5c0 36.667 11.5 64.5 34.5 83.5s66.167 28.5 129.5 28.5c22 0 42.667 -9.33301 62 -28s29 -38.334 29 -59.001zM692 1288c0 -31.333 -16.167 -56.5 -48.5 -75.5s-61.5 -28.5 -87.5 -28.5
c-72 0 -108 27 -108 81c0 32.667 15.5 58.667 46.5 78s57.833 29 80.5 29c78 0 117 -28 117 -84z" />
    <glyph glyph-name="divide" unicode="&#xf7;" horiz-adv-x="984" 
d="M696 1071c0 -72 -36 -108 -108 -108c-52 0 -78 21.667 -78 65c0 75.333 36.333 113 109 113c51.333 0 77 -23.333 77 -70zM852 737c99.333 0 148.999 -26.333 148.999 -79c0 -26.667 -10.333 -51.167 -31 -73.5s-44.334 -33.5 -71.001 -33.5
c-8.66699 0 -26.667 2.33301 -54 7c-18 2.66699 -116.667 1 -296 -5c-121.333 -4 -212.666 -6 -273.999 -6c-95.333 0 -143 25.667 -143 77c0 39.333 12 66 36 80s69 21 135 21c38.667 0 97 2 175 6c80 4 140 6 180 6c4 0 22 -1.66699 54 -5
c10.667 -1.33301 48.334 0 113.001 4c11.333 0.666992 20.333 1 27 1zM511.999 367c22.667 0 40.834 -7.33203 54.501 -21.999s20.5 -32.334 20.5 -53.001c0 -28.667 -10.333 -53.5 -31 -74.5s-44.667 -31.5 -72 -31.5c-22.667 0 -40.834 7.33301 -54.501 22
s-20.5 32 -20.5 52c0 28.667 10.333 53.667 31 75s44.667 32 72 32z" />
    <glyph glyph-name="oslash" unicode="&#xf8;" horiz-adv-x="1077" 
d="M181 152c-25.333 58.667 -38.001 122.666 -38.001 191.999c0 166 56 322.833 168 470.5s258.667 221.5 440 221.5c104 0 182.333 -37.333 235 -112l17 18c66 70 109.667 105 131 105c14.667 0 26.834 -5.66699 36.501 -17s14.5 -24.333 14.5 -39
s-36.333 -58.334 -109 -131.001l-41 -41c16 -49.333 24 -104.333 24 -165c0 -199.333 -54.333 -368 -163 -506s-239.667 -207 -393 -207c-108.667 0 -196.667 38.667 -264 116c-7.33301 -7.33301 -13.333 -12.666 -18 -15.999l-9 -8c-49.333 -56 -81.333 -84 -96 -84
c-43.333 0 -65 16 -65 48c0 20.667 14.833 46.5 44.5 77.5s54.167 53.167 73.5 66.5c4 2.66699 8 6.33398 12 11.001zM346.999 302.999l485.999 471c-30.667 40 -73.667 60 -129 60c-105.333 0 -192.166 -51.5 -260.499 -154.5s-102.5 -207.5 -102.5 -313.5
c0 -22 2 -43 6 -63zM391.998 206.999c36.667 -42.667 84.667 -64.001 144 -64.001c96 0 178.667 47.333 248 142s98.333 220.334 87 377.001z" />
    <glyph glyph-name="ugrave" unicode="&#xf9;" horiz-adv-x="1065" 
d="M1044 584l-34.9922 -216.998c-22.667 -139.333 -35.667 -233.333 -39 -282c-4 -48.667 -8.83301 -80.5 -14.5 -95.5s-18.834 -30.333 -39.501 -46s-43.667 -23.5 -69 -23.5c-50.667 0 -78 31.333 -82 94c-90 -42 -189.667 -63 -299 -63
c-92.667 0 -164.334 20.5 -215.001 61.5s-76 99.167 -76 174.5c0 99.333 5 206.666 15 321.999s29.667 228.166 59 338.499s54.166 174.5 74.499 192.5s45.166 27 74.499 27c26.667 0 48 -7.33301 64 -22s24 -33.334 24 -56.001c0 -21.333 -13.333 -77.333 -40 -168
c-22 -69.333 -40.167 -156.166 -54.5 -260.499s-21.5 -194.5 -21.5 -270.5c0 -38.667 2 -72 6 -100c38.667 -24 79 -36 121 -36c89.333 0 187 14.333 293 43l57 397c5.33301 34.667 19.166 110.5 41.499 227.5s44.666 186.167 66.999 207.5s50.166 32 83.499 32
c29.333 0 51.666 -9.33301 66.999 -28s20.333 -42 15 -70zM787.008 1229l-78 146.999c-25.333 47.333 -59.333 90.333 -102 129c-18.667 16.667 -28 36.334 -28 59.001c0 28 11.333 52.5 34 73.5s46 31.5 70 31.5c40 0 96.5 -52 169.5 -156s109.5 -179.333 109.5 -226
c0 -24.667 -11.333 -47.667 -34 -69s-47.667 -32 -75 -32c-30 0 -52 14.333 -66 43z" />
    <glyph glyph-name="uacute" unicode="&#xfa;" horiz-adv-x="1065" 
d="M1044 584l-34.9922 -216.998c-22.667 -139.333 -35.667 -233.333 -39 -282c-4 -48.667 -8.83301 -80.5 -14.5 -95.5s-18.834 -30.333 -39.501 -46s-43.667 -23.5 -69 -23.5c-50.667 0 -78 31.333 -82 94c-90 -42 -189.667 -63 -299 -63
c-92.667 0 -164.334 20.5 -215.001 61.5s-76 99.167 -76 174.5c0 99.333 5 206.666 15 321.999s29.667 228.166 59 338.499s54.166 174.5 74.499 192.5s45.166 27 74.499 27c26.667 0 48 -7.33301 64 -22s24 -33.334 24 -56.001c0 -21.333 -13.333 -77.333 -40 -168
c-22 -69.333 -40.167 -156.166 -54.5 -260.499s-21.5 -194.5 -21.5 -270.5c0 -38.667 2 -72 6 -100c38.667 -24 79 -36 121 -36c89.333 0 187 14.333 293 43l57 397c5.33301 34.667 19.166 110.5 41.499 227.5s44.666 186.167 66.999 207.5s50.166 32 83.499 32
c29.333 0 51.666 -9.33301 66.999 -28s20.333 -42 15 -70zM678.008 1269c0 24.667 13.999 49.333 41.999 74c34 28.667 86.333 82 157 160c30 34 68.333 69.5 115 106.5s83.667 55.5 111 55.5c20 0 37.667 -7.66699 53 -23s23 -33.666 23 -54.999
c0 -33.333 -16.667 -62 -50 -86c-59.333 -41.333 -111.666 -89 -156.999 -143c-99.333 -113.333 -172 -170 -218 -170c-20.667 0 -38.5 7.66699 -53.5 23s-22.5 34.666 -22.5 57.999z" />
    <glyph glyph-name="ucircumflex" unicode="&#xfb;" horiz-adv-x="1065" 
d="M1044 584l-34.9922 -216.998c-22.667 -139.333 -35.667 -233.333 -39 -282c-4 -48.667 -8.83301 -80.5 -14.5 -95.5s-18.834 -30.333 -39.501 -46s-43.667 -23.5 -69 -23.5c-50.667 0 -78 31.333 -82 94c-90 -42 -189.667 -63 -299 -63
c-92.667 0 -164.334 20.5 -215.001 61.5s-76 99.167 -76 174.5c0 99.333 5 206.666 15 321.999s29.667 228.166 59 338.499s54.166 174.5 74.499 192.5s45.166 27 74.499 27c26.667 0 48 -7.33301 64 -22s24 -33.334 24 -56.001c0 -21.333 -13.333 -77.333 -40 -168
c-22 -69.333 -40.167 -156.166 -54.5 -260.499s-21.5 -194.5 -21.5 -270.5c0 -38.667 2 -72 6 -100c38.667 -24 79 -36 121 -36c89.333 0 187 14.333 293 43l57 397c5.33301 34.667 19.166 110.5 41.499 227.5s44.666 186.167 66.999 207.5s50.166 32 83.499 32
c29.333 0 51.666 -9.33301 66.999 -28s20.333 -42 15 -70zM773.008 1479c-203.333 -209.333 -328.335 -313.999 -375.002 -313.999c-20.667 0 -38.667 8 -54 24s-23 34.333 -23 55c0 29.333 13.333 55.666 40 78.999c28.667 22 148.334 134 359.001 336
c20.667 20.667 42.334 31 65.001 31c27.333 0 55 -11 83 -33s71.333 -70.667 130 -146l131 -170c12 -16 18 -31.667 18 -47c0 -26 -10.667 -49.833 -32 -71.5s-46 -32.5 -74 -32.5s-51.333 14 -70 42s-84.667 110.333 -198 247z" />
    <glyph glyph-name="udieresis" unicode="&#xfc;" horiz-adv-x="1065" 
d="M1044 584l-34.9922 -216.998c-22.667 -139.333 -35.667 -233.333 -39 -282c-4 -48.667 -8.83301 -80.5 -14.5 -95.5s-18.834 -30.333 -39.501 -46s-43.667 -23.5 -69 -23.5c-50.667 0 -78 31.333 -82 94c-90 -42 -189.667 -63 -299 -63
c-92.667 0 -164.334 20.5 -215.001 61.5s-76 99.167 -76 174.5c0 99.333 5 206.666 15 321.999s29.667 228.166 59 338.499s54.166 174.5 74.499 192.5s45.166 27 74.499 27c26.667 0 48 -7.33301 64 -22s24 -33.334 24 -56.001c0 -21.333 -13.333 -77.333 -40 -168
c-22 -69.333 -40.167 -156.166 -54.5 -260.499s-21.5 -194.5 -21.5 -270.5c0 -38.667 2 -72 6 -100c38.667 -24 79 -36 121 -36c89.333 0 187 14.333 293 43l57 397c5.33301 34.667 19.166 110.5 41.499 227.5s44.666 186.167 66.999 207.5s50.166 32 83.499 32
c29.333 0 51.666 -9.33301 66.999 -28s20.333 -42 15 -70zM1179.01 1385c0 -24.667 -12 -47.332 -36 -67.999s-64.667 -31 -122 -31c-25.333 0 -47.833 7.16699 -67.5 21.5s-29.5 31.833 -29.5 52.5c0 36.667 11.5 64.5 34.5 83.5s66.167 28.5 129.5 28.5
c22 0 42.667 -9.33301 62 -28s29 -38.334 29 -59.001zM667.008 1380c0 -31.333 -16.167 -56.5 -48.5 -75.5s-61.5 -28.5 -87.5 -28.5c-72 0 -108 27 -108 81c0 32.667 15.5 58.667 46.5 78s57.833 29 80.5 29c78 0 117 -28 117 -84z" />
    <glyph glyph-name="yacute" unicode="&#xfd;" horiz-adv-x="1066" 
d="M707 143c-129.333 -209.333 -219.668 -361.334 -271.001 -456.001l-96 -195c-23.333 -48 -56.666 -72 -99.999 -72c-25.333 0 -46.5 7.5 -63.5 22.5s-25.5 34.833 -25.5 59.5c0 60.667 102.667 258.667 308 594l-250 688l-33 74c-10 22.667 -15 43.334 -15 62.001
c0 31.333 12.833 58.833 38.5 82.5s52.834 35.5 81.501 35.5c21.333 0 40.666 -8 57.999 -24s53.833 -90.833 109.5 -224.5s107.5 -286.167 155.5 -457.5l203 344c34 58 78.5 127.833 133.5 209.5s91.5 127.834 109.5 138.501s35.333 16 52 16
c25.333 0 46.5 -8.33301 63.5 -25s25.5 -36.667 25.5 -60c0 -18.667 -6.33301 -39.334 -19 -62.001zM534.998 1269c0 24.667 13.999 49.333 41.999 74c34 28.667 86.333 82 157 160c30 34 68.333 69.5 115 106.5s83.667 55.5 111 55.5c20 0 37.667 -7.66699 53 -23
s23 -33.666 23 -54.999c0 -33.333 -16.667 -62 -50 -86c-59.333 -41.333 -111.666 -89 -156.999 -143c-99.333 -113.333 -172 -170 -218 -170c-20.667 0 -38.5 7.66699 -53.5 23s-22.5 34.666 -22.5 57.999z" />
    <glyph glyph-name="thorn" unicode="&#xfe;" horiz-adv-x="1095" 
d="M342 -2l-78 -479c-10.667 -67.333 -48 -101 -112 -101c-29.333 0 -51.833 9.5 -67.5 28.5s-21.167 43.167 -16.5 72.5l131 798c17.333 108.667 33 242 47 400c34 384 65.833 609.333 95.5 676s69.5 100 119.5 100c24.667 0 44.5 -8.66699 59.5 -26s20.5 -40 16.5 -68
l-80 -486c126 79.333 238.667 119 338 119c201.333 0 302 -126 302 -378c0 -210.667 -51 -378.167 -153 -502.5s-231 -186.5 -387 -186.5c-67.333 0 -139 11 -215 33zM440 684c-9.33301 -99.333 -29.667 -257.666 -61 -474.999c64 -28.667 133.667 -43 209 -43
c98 0 174.167 39.833 228.5 119.5s81.5 191.5 81.5 335.5c0 140 -44.667 210 -134 210c-46.667 0 -92.667 -8.33301 -138 -25s-107.333 -57.334 -186 -122.001z" />
    <glyph glyph-name="ydieresis" unicode="&#xff;" horiz-adv-x="883" 
d="M707 143c-129.333 -209.333 -219.668 -361.334 -271.001 -456.001l-96 -195c-23.333 -48 -56.666 -72 -99.999 -72c-25.333 0 -46.5 7.5 -63.5 22.5s-25.5 34.833 -25.5 59.5c0 60.667 102.667 258.667 308 594l-250 688l-33 74c-10 22.667 -15 43.334 -15 62.001
c0 31.333 12.833 58.833 38.5 82.5s52.834 35.5 81.501 35.5c21.333 0 40.666 -8 57.999 -24s53.833 -90.833 109.5 -224.5s107.5 -286.167 155.5 -457.5l203 344c34 58 78.5 127.833 133.5 209.5s91.5 127.834 109.5 138.501s35.333 16 52 16
c25.333 0 46.5 -8.33301 63.5 -25s25.5 -36.667 25.5 -60c0 -18.667 -6.33301 -39.334 -19 -62.001zM1080 1293c0 -24.667 -12 -47.332 -36 -67.999s-64.667 -31 -122 -31c-25.333 0 -47.833 7.16699 -67.5 21.5s-29.5 31.833 -29.5 52.5c0 36.667 11.5 64.5 34.5 83.5
s66.167 28.5 129.5 28.5c22 0 42.667 -9.33301 62 -28s29 -38.334 29 -59.001zM567.998 1288c0 -31.333 -16.167 -56.5 -48.5 -75.5s-61.5 -28.5 -87.5 -28.5c-72 0 -108 27 -108 81c0 32.667 15.5 58.667 46.5 78s57.833 29 80.5 29c78 0 117 -28 117 -84z" />
    <glyph glyph-name="Amacron" unicode="&#x100;" horiz-adv-x="1498" 
d="M1114 520c-73.333 -8.66699 -164.664 -25.001 -273.997 -49.001l-275 -55c-137.333 -241.333 -219.333 -374.833 -246 -400.5s-57.334 -38.5 -92.001 -38.5c-24.667 0 -45.5 8.33301 -62.5 25s-25.5 36.334 -25.5 59.001c0 35.333 70.333 162.333 211 381
c-7.33301 12.667 -11 27.667 -11 45c0 62.667 38.667 102.334 116 119.001c86 127.333 218.667 304.666 398 531.999s287.666 341 324.999 341c52 0 82 -37 90 -111l8 -336l41 -694l31 -160c8.66699 -43.333 13 -75.333 13 -96c0 -28.667 -12.333 -54.667 -37 -78
s-52.334 -35 -83.001 -35c-43.333 0 -75 44.167 -95 132.5s-30.667 227.833 -32 418.5zM1081 1112l-360 -460.999c66 17.333 193 42.666 381 75.999zM1260 1786l49.998 0.00195312c20.667 0 45 0.666992 73 2l71 2c48 1.33301 79.5 -1.83398 94.5 -9.50098
s22.5 -22.834 22.5 -45.501c0 -52 -25.667 -82.667 -77 -92l-113 -6h-215l-227 6c-41.333 0 -62 18.667 -62 56c0 38 11.167 63.333 33.5 76s60.5 19 114.5 19c26.667 0 65.334 -1.33301 116.001 -4c54.667 -2.66699 94.334 -4 119.001 -4z" />
    <glyph glyph-name="amacron" unicode="&#x101;" horiz-adv-x="1048" 
d="M764 51c-144 -69.333 -246.669 -104.002 -308.002 -104.002c-249.333 0 -374 118.667 -374 356c0 220.667 69.833 399.334 209.5 536.001s292.834 205 459.501 205c64.667 0 131.5 -16.5 200.5 -49.5s103.5 -71.5 103.5 -115.5c0 -27.333 -9 -48.666 -27 -63.999
c-13.333 -26 -32.166 -101.167 -56.499 -225.5s-36.5 -213.833 -36.5 -268.5c0 -67.333 17.333 -160 52 -278l4 -16c-14.667 -62 -51.667 -93 -111 -93c-10 0 -28.667 13.5 -56 40.5s-47.333 52.5 -60 76.5zM836.998 828.998c-42 24.667 -75.334 37 -100.001 37
c-111.333 0 -215.166 -50.167 -311.499 -150.5s-144.5 -225.166 -144.5 -374.499c0 -146.667 63.333 -220 190 -220c99.333 0 192.666 36.667 279.999 110c10.667 279.333 39.334 478.666 86.001 597.999zM830.997 1335l49.998 0.00195312c20.667 0 45 0.666992 73 2l71 2
c48 1.33301 79.5 -1.83398 94.5 -9.50098s22.5 -22.834 22.5 -45.501c0 -52 -25.667 -82.667 -77 -92l-113 -6h-215l-227 6c-41.333 0 -62 18.667 -62 56c0 38 11.167 63.333 33.5 76s60.5 19 114.5 19c26.667 0 65.334 -1.33301 116.001 -4
c54.667 -2.66699 94.334 -4 119.001 -4z" />
    <glyph glyph-name="Abreve" unicode="&#x102;" horiz-adv-x="1498" 
d="M1114 520c-73.333 -8.66699 -164.664 -25.001 -273.997 -49.001l-275 -55c-137.333 -241.333 -219.333 -374.833 -246 -400.5s-57.334 -38.5 -92.001 -38.5c-24.667 0 -45.5 8.33301 -62.5 25s-25.5 36.334 -25.5 59.001c0 35.333 70.333 162.333 211 381
c-7.33301 12.667 -11 27.667 -11 45c0 62.667 38.667 102.334 116 119.001c86 127.333 218.667 304.666 398 531.999s287.666 341 324.999 341c52 0 82 -37 90 -111l8 -336l41 -694l31 -160c8.66699 -43.333 13 -75.333 13 -96c0 -28.667 -12.333 -54.667 -37 -78
s-52.334 -35 -83.001 -35c-43.333 0 -75 44.167 -95 132.5s-30.667 227.833 -32 418.5zM1081 1112l-360 -460.999c66 17.333 193 42.666 381 75.999zM1555 2003c43.333 0 65.002 -19.667 65.002 -59c0 -78.667 -47.833 -150.5 -143.5 -215.5s-218.834 -97.5 -369.501 -97.5
c-86 0 -159.167 27.333 -219.5 82s-90.5 119.667 -90.5 195c0 88 29.667 132 89 132c44.667 0 67 -19 67 -57l-4 -46c0 -45.333 17.667 -82.833 53 -112.5s77.666 -44.5 126.999 -44.5c181.333 0 295.333 53.333 342 160c18.667 42 46.667 63 84 63z" />
    <glyph glyph-name="abreve" unicode="&#x103;" horiz-adv-x="1048" 
d="M764 51c-144 -69.333 -246.669 -104.002 -308.002 -104.002c-249.333 0 -374 118.667 -374 356c0 220.667 69.833 399.334 209.5 536.001s292.834 205 459.501 205c64.667 0 131.5 -16.5 200.5 -49.5s103.5 -71.5 103.5 -115.5c0 -27.333 -9 -48.666 -27 -63.999
c-13.333 -26 -32.166 -101.167 -56.499 -225.5s-36.5 -213.833 -36.5 -268.5c0 -67.333 17.333 -160 52 -278l4 -16c-14.667 -62 -51.667 -93 -111 -93c-10 0 -28.667 13.5 -56 40.5s-47.333 52.5 -60 76.5zM836.998 828.998c-42 24.667 -75.334 37 -100.001 37
c-111.333 0 -215.166 -50.167 -311.499 -150.5s-144.5 -225.166 -144.5 -374.499c0 -146.667 63.333 -220 190 -220c99.333 0 192.666 36.667 279.999 110c10.667 279.333 39.334 478.666 86.001 597.999zM1117 1552c43.333 0 65.002 -19.667 65.002 -59
c0 -78.667 -47.833 -150.5 -143.5 -215.5s-218.834 -97.5 -369.501 -97.5c-86 0 -159.167 27.333 -219.5 82s-90.5 119.667 -90.5 195c0 88 29.667 132 89 132c44.667 0 67 -19 67 -57l-4 -46c0 -45.333 17.667 -82.833 53 -112.5s77.666 -44.5 126.999 -44.5
c181.333 0 295.333 53.333 342 160c18.667 42 46.667 63 84 63z" />
    <glyph glyph-name="Aogonek" unicode="&#x104;" horiz-adv-x="1498" 
d="M1114 520c-73.333 -8.66699 -164.664 -25.001 -273.997 -49.001l-275 -55c-137.333 -241.333 -219.333 -374.833 -246 -400.5s-57.334 -38.5 -92.001 -38.5c-24.667 0 -45.5 8.33301 -62.5 25s-25.5 36.334 -25.5 59.001c0 35.333 70.333 162.333 211 381
c-7.33301 12.667 -11 27.667 -11 45c0 62.667 38.667 102.334 116 119.001c86 127.333 218.667 304.666 398 531.999s287.666 341 324.999 341c52 0 82 -37 90 -111l8 -336l41 -694l31 -160c8.66699 -43.333 13 -75.333 13 -96c0 -28.667 -12.333 -54.667 -37 -78
s-52.334 -35 -83.001 -35c-43.333 0 -75 44.167 -95 132.5s-30.667 227.833 -32 418.5zM1081 1112l-360 -460.999c66 17.333 193 42.666 381 75.999zM1195 -188c0 -60.667 26.335 -91.002 79.002 -91.002c48.667 0 94.667 8.33301 138 25c17.333 8 31 12 41 12
c41.333 0 62 -22.333 62 -67c0 -37.333 -26 -68.5 -78 -93.5s-119 -37.5 -201 -37.5c-74 0 -130.667 17.667 -170 53s-59 84 -59 146c0 90.667 36.167 171.167 108.5 241.5s132.166 105.5 179.499 105.5c44.667 0 67 -18 67 -54c0 -15.333 -3.83301 -28.666 -11.5 -39.999
s-30.834 -32.666 -69.501 -63.999c-57.333 -46 -86 -91.333 -86 -136z" />
    <glyph glyph-name="aogonek" unicode="&#x105;" horiz-adv-x="1048" 
d="M764 51c-144 -69.333 -246.669 -104.002 -308.002 -104.002c-249.333 0 -374 118.667 -374 356c0 220.667 69.833 399.334 209.5 536.001s292.834 205 459.501 205c64.667 0 131.5 -16.5 200.5 -49.5s103.5 -71.5 103.5 -115.5c0 -27.333 -9 -48.666 -27 -63.999
c-13.333 -26 -32.166 -101.167 -56.499 -225.5s-36.5 -213.833 -36.5 -268.5c0 -67.333 17.333 -160 52 -278l4 -16c-14.667 -62 -51.667 -93 -111 -93c-10 0 -28.667 13.5 -56 40.5s-47.333 52.5 -60 76.5zM836.998 828.998c-42 24.667 -75.334 37 -100.001 37
c-111.333 0 -215.166 -50.167 -311.499 -150.5s-144.5 -225.166 -144.5 -374.499c0 -146.667 63.333 -220 190 -220c99.333 0 192.666 36.667 279.999 110c10.667 279.333 39.334 478.666 86.001 597.999zM774.997 -240.002c0 -60.667 26.335 -91.002 79.002 -91.002
c48.667 0 94.667 8.33301 138 25c17.333 8 31 12 41 12c41.333 0 62 -22.333 62 -67c0 -37.333 -26 -68.5 -78 -93.5s-119 -37.5 -201 -37.5c-74 0 -130.667 17.667 -170 53s-59 84 -59 146c0 90.667 36.167 171.167 108.5 241.5s132.166 105.5 179.499 105.5
c44.667 0 67 -18 67 -54c0 -15.333 -3.83301 -28.666 -11.5 -39.999s-30.834 -32.666 -69.501 -63.999c-57.333 -46 -86 -91.333 -86 -136z" />
    <glyph glyph-name="Cacute" unicode="&#x106;" horiz-adv-x="1234" 
d="M1232 1473c28.667 34 61.333 51.001 98 51.001c50 0 75 -39.333 75 -118c0 -112.667 -12 -188.167 -36 -226.5s-56.667 -57.5 -98 -57.5c-42 0 -70 24.667 -84 74c-14 50 -29.167 77.5 -45.5 82.5s-48.166 7.5 -95.499 7.5c-117.333 0 -261.833 -101.833 -433.5 -305.5
s-257.5 -383.834 -257.5 -540.501c0 -68 22 -128.333 66 -181s102 -79 174 -79c58.667 0 115.834 11.167 171.501 33.5s136.5 68.5 242.5 138.5c43.333 27.333 74 41 92 41c25.333 0 46.166 -8.66699 62.499 -26s24.5 -38.333 24.5 -63c0 -19.333 -6.66699 -39.5 -20 -60.5
s-60.666 -58 -141.999 -111s-160.333 -92.5 -237 -118.5s-151.667 -39 -225 -39c-122.667 0 -222.167 42.667 -298.5 128s-114.5 186 -114.5 302c0 214 108.167 448.5 324.5 703.5s417.166 382.5 602.499 382.5c73.333 0 124.666 -6 153.999 -18zM911.999 1720
c0 24.667 13.999 49.334 41.999 74.001c34 28.667 86.333 82 157 160c30 34 68.333 69.5 115 106.5s83.667 55.5 111 55.5c20 0 37.667 -7.66699 53 -23s23 -33.666 23 -55c0 -33.333 -16.667 -62 -50 -86c-59.333 -41.333 -111.666 -89 -156.999 -143
c-99.333 -113.333 -172 -170 -218 -170c-20.667 0 -38.5 7.66699 -53.5 23s-22.5 34.666 -22.5 57.999z" />
    <glyph glyph-name="cacute" unicode="&#x107;" horiz-adv-x="1052" 
d="M716 158l125 61.001c23.333 11.333 39 17 47 17c21.333 0 39.166 -8 53.499 -24s21.5 -35.667 21.5 -59c0 -54 -53.5 -103.5 -160.5 -148.5s-189.5 -67.5 -247.5 -67.5c-130 0 -232.667 36 -308 108s-113 162.333 -113 271c0 155.333 65 318.666 195 489.999
s259.667 257 389 257c72.667 0 148 -17.167 226 -51.5s117 -75.833 117 -124.5c0 -26.667 -10.5 -51.834 -31.5 -75.501s-44.833 -35.5 -71.5 -35.5c-26 0 -53.5 16.333 -82.5 49s-91.5 49 -187.5 49c-70 0 -149.5 -64.333 -238.5 -193s-133.5 -239 -133.5 -331
c0 -65.333 23.833 -119.166 71.5 -161.499s112.834 -63.5 195.501 -63.5c40.667 0 85 11 133 33zM623 1269c0 24.667 13.999 49.333 41.999 74c34 28.667 86.333 82 157 160c30 34 68.333 69.5 115 106.5s83.667 55.5 111 55.5c20 0 37.667 -7.66699 53 -23
s23 -33.666 23 -54.999c0 -33.333 -16.667 -62 -50 -86c-59.333 -41.333 -111.666 -89 -156.999 -143c-99.333 -113.333 -172 -170 -218 -170c-20.667 0 -38.5 7.66699 -53.5 23s-22.5 34.666 -22.5 57.999z" />
    <glyph glyph-name="Ccircumflex" unicode="&#x108;" horiz-adv-x="1234" 
d="M1232 1473c28.667 34 61.333 51.001 98 51.001c50 0 75 -39.333 75 -118c0 -112.667 -12 -188.167 -36 -226.5s-56.667 -57.5 -98 -57.5c-42 0 -70 24.667 -84 74c-14 50 -29.167 77.5 -45.5 82.5s-48.166 7.5 -95.499 7.5c-117.333 0 -261.833 -101.833 -433.5 -305.5
s-257.5 -383.834 -257.5 -540.501c0 -68 22 -128.333 66 -181s102 -79 174 -79c58.667 0 115.834 11.167 171.501 33.5s136.5 68.5 242.5 138.5c43.333 27.333 74 41 92 41c25.333 0 46.166 -8.66699 62.499 -26s24.5 -38.333 24.5 -63c0 -19.333 -6.66699 -39.5 -20 -60.5
s-60.666 -58 -141.999 -111s-160.333 -92.5 -237 -118.5s-151.667 -39 -225 -39c-122.667 0 -222.167 42.667 -298.5 128s-114.5 186 -114.5 302c0 214 108.167 448.5 324.5 703.5s417.166 382.5 602.499 382.5c73.333 0 124.666 -6 153.999 -18zM1102 1930
c-203.333 -209.333 -328.335 -313.999 -375.002 -313.999c-20.667 0 -38.667 8 -54 24s-23 34.333 -23 55c0 29.333 13.333 55.666 40 78.999c28.667 22 148.334 134 359.001 336c20.667 20.667 42.334 31 65.001 31c27.333 0 55 -11 83 -33s71.333 -70.667 130 -146
l131 -170c12 -16 18 -31.667 18 -47c0 -26 -10.667 -49.833 -32 -71.5s-46 -32.5 -74 -32.5s-51.333 14 -70 42s-84.667 110.333 -198 247z" />
    <glyph glyph-name="ccircumflex" unicode="&#x109;" horiz-adv-x="1052" 
d="M716 158l125 61.001c23.333 11.333 39 17 47 17c21.333 0 39.166 -8 53.499 -24s21.5 -35.667 21.5 -59c0 -54 -53.5 -103.5 -160.5 -148.5s-189.5 -67.5 -247.5 -67.5c-130 0 -232.667 36 -308 108s-113 162.333 -113 271c0 155.333 65 318.666 195 489.999
s259.667 257 389 257c72.667 0 148 -17.167 226 -51.5s117 -75.833 117 -124.5c0 -26.667 -10.5 -51.834 -31.5 -75.501s-44.833 -35.5 -71.5 -35.5c-26 0 -53.5 16.333 -82.5 49s-91.5 49 -187.5 49c-70 0 -149.5 -64.333 -238.5 -193s-133.5 -239 -133.5 -331
c0 -65.333 23.833 -119.166 71.5 -161.499s112.834 -63.5 195.501 -63.5c40.667 0 85 11 133 33zM829 1380c-203.333 -209.333 -328.335 -313.999 -375.002 -313.999c-20.667 0 -38.667 8 -54 24s-23 34.333 -23 55c0 29.333 13.333 55.666 40 78.999
c28.667 22 148.334 134 359.001 336c20.667 20.667 42.334 31 65.001 31c27.333 0 55 -11 83 -33s71.333 -70.667 130 -146l131 -170c12 -16 18 -31.667 18 -47c0 -26 -10.667 -49.833 -32 -71.5s-46 -32.5 -74 -32.5s-51.333 14 -70 42s-84.667 110.333 -198 247z" />
    <glyph glyph-name="Cdotaccent" unicode="&#x10a;" horiz-adv-x="1234" 
d="M1232 1473c28.667 34 61.333 51.001 98 51.001c50 0 75 -39.333 75 -118c0 -112.667 -12 -188.167 -36 -226.5s-56.667 -57.5 -98 -57.5c-42 0 -70 24.667 -84 74c-14 50 -29.167 77.5 -45.5 82.5s-48.166 7.5 -95.499 7.5c-117.333 0 -261.833 -101.833 -433.5 -305.5
s-257.5 -383.834 -257.5 -540.501c0 -68 22 -128.333 66 -181s102 -79 174 -79c58.667 0 115.834 11.167 171.501 33.5s136.5 68.5 242.5 138.5c43.333 27.333 74 41 92 41c25.333 0 46.166 -8.66699 62.499 -26s24.5 -38.333 24.5 -63c0 -19.333 -6.66699 -39.5 -20 -60.5
s-60.666 -58 -141.999 -111s-160.333 -92.5 -237 -118.5s-151.667 -39 -225 -39c-122.667 0 -222.167 42.667 -298.5 128s-114.5 186 -114.5 302c0 214 108.167 448.5 324.5 703.5s417.166 382.5 602.499 382.5c73.333 0 124.666 -6 153.999 -18zM1125 1635
c-20.667 0 -45.833 14.8311 -75.5 44.498s-44.5 54.834 -44.5 75.501c0 22.667 13.833 45.167 41.5 67.5s54.5 33.5 80.5 33.5c20.667 0 45.5 -15.667 74.5 -47s43.5 -55.666 43.5 -72.999c0 -24 -13.5 -46.833 -40.5 -68.5s-53.5 -32.5 -79.5 -32.5z" />
    <glyph glyph-name="cdotaccent" unicode="&#x10b;" horiz-adv-x="1052" 
d="M716 158l125 61.001c23.333 11.333 39 17 47 17c21.333 0 39.166 -8 53.499 -24s21.5 -35.667 21.5 -59c0 -54 -53.5 -103.5 -160.5 -148.5s-189.5 -67.5 -247.5 -67.5c-130 0 -232.667 36 -308 108s-113 162.333 -113 271c0 155.333 65 318.666 195 489.999
s259.667 257 389 257c72.667 0 148 -17.167 226 -51.5s117 -75.833 117 -124.5c0 -26.667 -10.5 -51.834 -31.5 -75.501s-44.833 -35.5 -71.5 -35.5c-26 0 -53.5 16.333 -82.5 49s-91.5 49 -187.5 49c-70 0 -149.5 -64.333 -238.5 -193s-133.5 -239 -133.5 -331
c0 -65.333 23.833 -119.166 71.5 -161.499s112.834 -63.5 195.501 -63.5c40.667 0 85 11 133 33zM806 1184c-20.667 0 -45.833 14.8311 -75.5 44.498s-44.5 54.834 -44.5 75.501c0 22.667 13.833 45.167 41.5 67.5s54.5 33.5 80.5 33.5c20.667 0 45.5 -15.667 74.5 -47
s43.5 -55.666 43.5 -72.999c0 -24 -13.5 -46.833 -40.5 -68.5s-53.5 -32.5 -79.5 -32.5z" />
    <glyph glyph-name="Ccaron" unicode="&#x10c;" horiz-adv-x="1234" 
d="M1232 1473c28.667 34 61.333 51.001 98 51.001c50 0 75 -39.333 75 -118c0 -112.667 -12 -188.167 -36 -226.5s-56.667 -57.5 -98 -57.5c-42 0 -70 24.667 -84 74c-14 50 -29.167 77.5 -45.5 82.5s-48.166 7.5 -95.499 7.5c-117.333 0 -261.833 -101.833 -433.5 -305.5
s-257.5 -383.834 -257.5 -540.501c0 -68 22 -128.333 66 -181s102 -79 174 -79c58.667 0 115.834 11.167 171.501 33.5s136.5 68.5 242.5 138.5c43.333 27.333 74 41 92 41c25.333 0 46.166 -8.66699 62.499 -26s24.5 -38.333 24.5 -63c0 -19.333 -6.66699 -39.5 -20 -60.5
s-60.666 -58 -141.999 -111s-160.333 -92.5 -237 -118.5s-151.667 -39 -225 -39c-122.667 0 -222.167 42.667 -298.5 128s-114.5 186 -114.5 302c0 214 108.167 448.5 324.5 703.5s417.166 382.5 602.499 382.5c73.333 0 124.666 -6 153.999 -18zM1352 2007
c18 14 35.001 20.998 51.001 20.998c18 0 33.333 -6.5 46 -19.5s19 -28.167 19 -45.5c0 -18 -4.16699 -32.667 -12.5 -44s-52.833 -48.666 -133.5 -111.999s-141.667 -109.166 -183 -137.499s-67.333 -42.5 -78 -42.5c-21.333 0 -41 12 -59 36l-41 64l-96 133
c-39.333 54.667 -59 98.667 -59 132c0 22 9 41.667 27 59s38.667 26 62 26c27.333 0 46.666 -13 57.999 -39c15.333 -35.333 64.333 -111 147 -227z" />
    <glyph glyph-name="ccaron" unicode="&#x10d;" horiz-adv-x="1234" 
d="M716 158l125 61.001c23.333 11.333 39 17 47 17c21.333 0 39.166 -8 53.499 -24s21.5 -35.667 21.5 -59c0 -54 -53.5 -103.5 -160.5 -148.5s-189.5 -67.5 -247.5 -67.5c-130 0 -232.667 36 -308 108s-113 162.333 -113 271c0 155.333 65 318.666 195 489.999
s259.667 257 389 257c72.667 0 148 -17.167 226 -51.5s117 -75.833 117 -124.5c0 -26.667 -10.5 -51.834 -31.5 -75.501s-44.833 -35.5 -71.5 -35.5c-26 0 -53.5 16.333 -82.5 49s-91.5 49 -187.5 49c-70 0 -149.5 -64.333 -238.5 -193s-133.5 -239 -133.5 -331
c0 -65.333 23.833 -119.166 71.5 -161.499s112.834 -63.5 195.501 -63.5c40.667 0 85 11 133 33zM1071 1556c18 14 35.001 20.998 51.001 20.998c18 0 33.333 -6.5 46 -19.5s19 -28.167 19 -45.5c0 -18 -4.16699 -32.667 -12.5 -44s-52.833 -48.666 -133.5 -111.999
s-141.667 -109.166 -183 -137.499s-67.333 -42.5 -78 -42.5c-21.333 0 -41 12 -59 36l-41 64l-96 133c-39.333 54.667 -59 98.667 -59 132c0 22 9 41.667 27 59s38.667 26 62 26c27.333 0 46.666 -13 57.999 -39c15.333 -35.333 64.333 -111 147 -227z" />
    <glyph glyph-name="Dcaron" unicode="&#x10e;" horiz-adv-x="1478" 
d="M288 -6h-10.001c-26.667 0 -48 8.16699 -64 24.5s-24 36.166 -24 59.499c0 16 8.66699 66 26 150l70 364c16 82.667 51.333 312 106 688l20 138c4.66699 34.667 23.5 66.334 56.5 95.001s63.5 43 91.5 43c14.667 0 64.667 -22.333 150 -67
c92.667 -50 147.334 -77.333 164.001 -82c174 -64 317.167 -161 429.5 -291s168.5 -270.667 168.5 -422c0 -138 -41 -273.167 -123 -405.5s-180.833 -229.833 -296.5 -292.5s-263.5 -94 -443.5 -94c-52.667 0 -112 8.83301 -178 26.5s-113.667 39.5 -143 65.5zM594.999 1294
l-83.998 -573.003l-102 -547c2 -1.33301 4.33301 -2.66602 7 -3.99902c62.667 -45.333 137.334 -68 224.001 -68c171.333 0 297.166 30.667 377.499 92s141.833 133.333 184.5 216s64 166.667 64 252c0 86 -23.833 165.333 -71.5 238s-111.834 133.834 -192.501 183.501
s-216.334 119.834 -407.001 210.501zM1200 2007c18 14 35.001 20.998 51.001 20.998c18 0 33.333 -6.5 46 -19.5s19 -28.167 19 -45.5c0 -18 -4.16699 -32.667 -12.5 -44s-52.833 -48.666 -133.5 -111.999s-141.667 -109.166 -183 -137.499s-67.333 -42.5 -78 -42.5
c-21.333 0 -41 12 -59 36l-41 64l-96 133c-39.333 54.667 -59 98.667 -59 132c0 22 9 41.667 27 59s38.667 26 62 26c27.333 0 46.666 -13 57.999 -39c15.333 -35.333 64.333 -111 147 -227z" />
    <glyph glyph-name="dcaron" unicode="&#x10f;" horiz-adv-x="1698" 
d="M1490 1350c-46.667 28.667 -70 65 -70 109c0 39.333 15 73.333 45 102s65.333 43 106 43c72.667 0 109 -38.667 109 -116c0 -73.333 -27.167 -155.666 -81.5 -246.999s-109.166 -137 -164.499 -137c-41.333 0 -62 19 -62 57c0 22.667 12 48.667 36 78l24 29
c7.33301 9.33301 15.666 18.666 24.999 27.999c10 12.667 21 30.667 33 54zM877 61c-105.333 -70.667 -214.334 -105.999 -327.001 -105.999c-126.667 0 -227 38.5 -301 115.5s-111 172.5 -111 286.5c0 175.333 57 333.333 171 474s260.333 211 439 211
c108 0 193.333 -34.667 256 -104c62 318 102.667 506.667 122 566s55.333 89 108 89c50 0 75 -23 75 -69c0 -45.333 -45.667 -259 -137 -641c-33.333 -139.333 -60 -285.333 -80 -438s-29.333 -272.334 -28 -359.001v-13c0 -22 -10.667 -44.5 -32 -67.5
s-47.666 -34.5 -78.999 -34.5c-40.667 0 -66 30 -76 90zM884.999 289.001l23 172l41 233c-32.667 108 -107.667 162 -225 162c-142.667 0 -245.667 -49.5 -309 -148.5s-95 -199.833 -95 -302.5c0 -69.333 24 -130.333 72 -183s110.667 -79 188 -79
c103.333 0 205 48.667 305 146z" />
    <glyph glyph-name="Dcroat" unicode="&#x110;" horiz-adv-x="1478" 
d="M278 -6l-10.001 -0.000976562c-58.667 0 -88 25 -88 75c0 30 16.333 122.333 49 277l51 250l-98 -4c-88.667 0 -133 27.333 -133 82c0 34 10.333 61.333 31 82s41.667 32.334 63 35.001s78 4 170 4l43 315l47 315c4.66699 29.333 23 58.5 55 87.5s62.667 43.5 92 43.5
c13.333 0 63.333 -21.667 150 -65c102 -54 156.667 -82 164 -84c182 -71.333 327.167 -170.333 435.5 -297s162.5 -264.667 162.5 -414c0 -114.667 -29.667 -231 -89 -349s-148.666 -221.667 -267.999 -311s-288 -134 -506 -134c-57.333 0 -117.5 8.83301 -180.5 26.5
s-109.833 39.5 -140.5 65.5zM512.999 794.999c23.333 0 65.665 -3.66895 126.998 -11.002c48 -5.33301 91.667 -8 131 -8c58.667 0 88 -25.667 88 -77c0 -32 -11.333 -59.833 -34 -83.5s-50.667 -35.5 -84 -35.5c-41.333 0 -85 2.66699 -131 8c-48 5.33301 -91 8 -129 8
l-82 -422c82 -48 159 -72 231 -72c158.667 0 277.834 26.167 357.501 78.5s144.334 122.833 194.001 211.5s74.5 178.334 74.5 269.001c0 102.667 -37.5 200.834 -112.5 294.501s-261.167 206.5 -558.5 338.5z" />
    <glyph glyph-name="dcroat" unicode="&#x111;" horiz-adv-x="1234" 
d="M877 61c-105.333 -70.667 -214.336 -105.999 -327.003 -105.999c-126.667 0 -227 38.5 -301 115.5s-111 172.5 -111 286.5c0 175.333 57 333.333 171 474s260.333 211 439 211c108 0 193.333 -34.667 256 -104l47 248h-293c-39.333 0 -59 22 -59 66
c0 33.333 10.333 56.833 31 70.5s59.334 20.5 116.001 20.5c26 0 65.667 -1.33301 119 -4c50.667 -2.66699 90.334 -4 119.001 -4c23.333 116 45 188 65 216s48.333 42 85 42c50 0 75 -23 75 -69c0 -20.667 -10.667 -82.334 -32 -185.001h49c44.667 0 67 -18.667 67 -56
c0 -64.667 -49.667 -97 -149 -97h-2c-20.667 -94.667 -44 -195.667 -70 -303c-30.667 -124.667 -56.667 -265.667 -78 -423s-31.333 -282 -30 -374v-13c0 -22 -10.667 -44.5 -32 -67.5s-47.666 -34.5 -78.999 -34.5c-40.667 0 -66 30 -76 90zM884.997 289.001l23 172l41 233
c-32.667 108 -107.667 162 -225 162c-142.667 0 -245.667 -49.5 -309 -148.5s-95 -199.833 -95 -302.5c0 -69.333 24 -130.333 72 -183s110.667 -79 188 -79c48 0 88.833 7 122.5 21s83.167 44.667 148.5 92z" />
    <glyph glyph-name="Emacron" unicode="&#x112;" horiz-adv-x="1279" 
d="M576 1337c0 -64 -28.667 -225.669 -86 -485.002l446 43c124.667 12 204 18 238 18c60 0 90 -27.667 90 -83c0 -71.333 -37 -111.666 -111 -120.999l-710 -64c-45.333 -207.333 -68 -356 -68 -446c0 -40.667 8.5 -66.667 25.5 -78s63.167 -17 138.5 -17l375 9
c8.66699 0 39.667 3.33301 93 10c78 10 117 -15.667 117 -77s-24.167 -100.666 -72.5 -117.999s-194.833 -26 -439.5 -26c-189.333 0 -309.5 19.833 -360.5 59.5s-76.5 112.834 -76.5 219.501c0 118 26.333 289.667 79 515c-3.33301 15.333 -5 27 -5 35
c0 29.333 10.667 54.666 32 75.999c40.667 184.667 66.167 308.167 76.5 370.5s15.5 116.833 15.5 163.5c4.66699 89.333 16 150 34 182s49 48 93 48c28 0 51 -10.333 69 -31c170.667 44 316.334 66 437.001 66c102 0 190.333 -8.33301 265 -25s121 -33.5 139 -50.5
s27 -37.833 27 -62.5c0 -32 -11.833 -60.333 -35.5 -85s-50.5 -37 -80.5 -37c-8 0 -18.333 2 -31 6c-110.667 31.333 -216.334 47 -317.001 47c-110.667 0 -243 -20.667 -397 -62zM1032 1900l49.998 0.00195312c20.667 0 45 0.666992 73 2l71 2
c48 1.33301 79.5 -1.83398 94.5 -9.50098s22.5 -22.834 22.5 -45.501c0 -52 -25.667 -82.667 -77 -92l-113 -6h-215l-227 6c-41.333 0 -62 18.667 -62 56c0 38 11.167 63.333 33.5 76s60.5 19 114.5 19c26.667 0 65.334 -1.33301 116.001 -4
c54.667 -2.66699 94.334 -4 119.001 -4z" />
    <glyph glyph-name="emacron" unicode="&#x113;" horiz-adv-x="1122" 
d="M290 301c58 -110.667 160.667 -166.001 308 -166.001c52 0 113.667 10.667 185 32s120 48.333 146 81c27.333 35.333 54.666 53 81.999 53c22 0 40.333 -7.5 55 -22.5s22 -32.5 22 -52.5c0 -68 -58.167 -130.167 -174.5 -186.5s-231.166 -84.5 -344.499 -84.5
c-142.667 0 -254 33.5 -334 100.5s-120 157.167 -120 270.5c0 164 55.667 324.667 167 482s255.333 236 432 236c117.333 0 207 -19.667 269 -59s93 -95 93 -167c0 -59.333 -20.167 -110.166 -60.5 -152.499s-84 -75 -131 -98s-108.5 -51.167 -184.5 -84.5zM303 484.999
l327.001 148c138 62.667 232.333 113 283 151c-48.667 53.333 -124.334 80 -227.001 80c-164 0 -291.667 -126.333 -383 -379zM831.001 1335l49.998 0.00195312c20.667 0 45 0.666992 73 2l71 2c48 1.33301 79.5 -1.83398 94.5 -9.50098s22.5 -22.834 22.5 -45.501
c0 -52 -25.667 -82.667 -77 -92l-113 -6h-215l-227 6c-41.333 0 -62 18.667 -62 56c0 38 11.167 63.333 33.5 76s60.5 19 114.5 19c26.667 0 65.334 -1.33301 116.001 -4c54.667 -2.66699 94.334 -4 119.001 -4z" />
    <glyph glyph-name="Ebreve" unicode="&#x114;" horiz-adv-x="1279" 
d="M576 1337c0 -64 -28.667 -225.669 -86 -485.002l446 43c124.667 12 204 18 238 18c60 0 90 -27.667 90 -83c0 -71.333 -37 -111.666 -111 -120.999l-710 -64c-45.333 -207.333 -68 -356 -68 -446c0 -40.667 8.5 -66.667 25.5 -78s63.167 -17 138.5 -17l375 9
c8.66699 0 39.667 3.33301 93 10c78 10 117 -15.667 117 -77s-24.167 -100.666 -72.5 -117.999s-194.833 -26 -439.5 -26c-189.333 0 -309.5 19.833 -360.5 59.5s-76.5 112.834 -76.5 219.501c0 118 26.333 289.667 79 515c-3.33301 15.333 -5 27 -5 35
c0 29.333 10.667 54.666 32 75.999c40.667 184.667 66.167 308.167 76.5 370.5s15.5 116.833 15.5 163.5c4.66699 89.333 16 150 34 182s49 48 93 48c28 0 51 -10.333 69 -31c170.667 44 316.334 66 437.001 66c102 0 190.333 -8.33301 265 -25s121 -33.5 139 -50.5
s27 -37.833 27 -62.5c0 -32 -11.833 -60.333 -35.5 -85s-50.5 -37 -80.5 -37c-8 0 -18.333 2 -31 6c-110.667 31.333 -216.334 47 -317.001 47c-110.667 0 -243 -20.667 -397 -62zM1403 2052c43.333 0 65.002 -19.667 65.002 -59c0 -78.667 -47.833 -150.5 -143.5 -215.5
s-218.834 -97.5 -369.501 -97.5c-86 0 -159.167 27.333 -219.5 82s-90.5 119.667 -90.5 195c0 88 29.667 132 89 132c44.667 0 67 -19 67 -57l-4 -46c0 -45.333 17.667 -82.833 53 -112.5s77.666 -44.5 126.999 -44.5c181.333 0 295.333 53.333 342 160
c18.667 42 46.667 63 84 63z" />
    <glyph glyph-name="ebreve" unicode="&#x115;" horiz-adv-x="1122" 
d="M290 301c58 -110.667 160.667 -166.001 308 -166.001c52 0 113.667 10.667 185 32s120 48.333 146 81c27.333 35.333 54.666 53 81.999 53c22 0 40.333 -7.5 55 -22.5s22 -32.5 22 -52.5c0 -68 -58.167 -130.167 -174.5 -186.5s-231.166 -84.5 -344.499 -84.5
c-142.667 0 -254 33.5 -334 100.5s-120 157.167 -120 270.5c0 164 55.667 324.667 167 482s255.333 236 432 236c117.333 0 207 -19.667 269 -59s93 -95 93 -167c0 -59.333 -20.167 -110.166 -60.5 -152.499s-84 -75 -131 -98s-108.5 -51.167 -184.5 -84.5zM303 484.999
l327.001 148c138 62.667 232.333 113 283 151c-48.667 53.333 -124.334 80 -227.001 80c-164 0 -291.667 -126.333 -383 -379zM1138 1552c43.333 0 65.002 -19.667 65.002 -59c0 -78.667 -47.833 -150.5 -143.5 -215.5s-218.834 -97.5 -369.501 -97.5
c-86 0 -159.167 27.333 -219.5 82s-90.5 119.667 -90.5 195c0 88 29.667 132 89 132c44.667 0 67 -19 67 -57l-4 -46c0 -45.333 17.667 -82.833 53 -112.5s77.666 -44.5 126.999 -44.5c181.333 0 295.333 53.333 342 160c18.667 42 46.667 63 84 63z" />
    <glyph glyph-name="Edotaccent" unicode="&#x116;" horiz-adv-x="1279" 
d="M576 1337c0 -64 -28.667 -225.669 -86 -485.002l446 43c124.667 12 204 18 238 18c60 0 90 -27.667 90 -83c0 -71.333 -37 -111.666 -111 -120.999l-710 -64c-45.333 -207.333 -68 -356 -68 -446c0 -40.667 8.5 -66.667 25.5 -78s63.167 -17 138.5 -17l375 9
c8.66699 0 39.667 3.33301 93 10c78 10 117 -15.667 117 -77s-24.167 -100.666 -72.5 -117.999s-194.833 -26 -439.5 -26c-189.333 0 -309.5 19.833 -360.5 59.5s-76.5 112.834 -76.5 219.501c0 118 26.333 289.667 79 515c-3.33301 15.333 -5 27 -5 35
c0 29.333 10.667 54.666 32 75.999c40.667 184.667 66.167 308.167 76.5 370.5s15.5 116.833 15.5 163.5c4.66699 89.333 16 150 34 182s49 48 93 48c28 0 51 -10.333 69 -31c170.667 44 316.334 66 437.001 66c102 0 190.333 -8.33301 265 -25s121 -33.5 139 -50.5
s27 -37.833 27 -62.5c0 -32 -11.833 -60.333 -35.5 -85s-50.5 -37 -80.5 -37c-8 0 -18.333 2 -31 6c-110.667 31.333 -216.334 47 -317.001 47c-110.667 0 -243 -20.667 -397 -62zM978 1735c-20.667 0 -45.833 14.8311 -75.5 44.498s-44.5 54.834 -44.5 75.501
c0 22.667 13.833 45.167 41.5 67.5s54.5 33.5 80.5 33.5c20.667 0 45.5 -15.667 74.5 -47s43.5 -55.666 43.5 -72.999c0 -24 -13.5 -46.833 -40.5 -68.5s-53.5 -32.5 -79.5 -32.5z" />
    <glyph glyph-name="edotaccent" unicode="&#x117;" horiz-adv-x="1122" 
d="M290 301c58 -110.667 160.667 -166.001 308 -166.001c52 0 113.667 10.667 185 32s120 48.333 146 81c27.333 35.333 54.666 53 81.999 53c22 0 40.333 -7.5 55 -22.5s22 -32.5 22 -52.5c0 -68 -58.167 -130.167 -174.5 -186.5s-231.166 -84.5 -344.499 -84.5
c-142.667 0 -254 33.5 -334 100.5s-120 157.167 -120 270.5c0 164 55.667 324.667 167 482s255.333 236 432 236c117.333 0 207 -19.667 269 -59s93 -95 93 -167c0 -59.333 -20.167 -110.166 -60.5 -152.499s-84 -75 -131 -98s-108.5 -51.167 -184.5 -84.5zM303 484.999
l327.001 148c138 62.667 232.333 113 283 151c-48.667 53.333 -124.334 80 -227.001 80c-164 0 -291.667 -126.333 -383 -379zM757.001 1184c-20.667 0 -45.833 14.8311 -75.5 44.498s-44.5 54.834 -44.5 75.501c0 22.667 13.833 45.167 41.5 67.5s54.5 33.5 80.5 33.5
c20.667 0 45.5 -15.667 74.5 -47s43.5 -55.666 43.5 -72.999c0 -24 -13.5 -46.833 -40.5 -68.5s-53.5 -32.5 -79.5 -32.5z" />
    <glyph glyph-name="Eogonek" unicode="&#x118;" horiz-adv-x="1279" 
d="M576 1337c0 -64 -28.667 -225.669 -86 -485.002l446 43c124.667 12 204 18 238 18c60 0 90 -27.667 90 -83c0 -71.333 -37 -111.666 -111 -120.999l-710 -64c-45.333 -207.333 -68 -356 -68 -446c0 -40.667 8.5 -66.667 25.5 -78s63.167 -17 138.5 -17l375 9
c8.66699 0 39.667 3.33301 93 10c78 10 117 -15.667 117 -77s-24.167 -100.666 -72.5 -117.999s-194.833 -26 -439.5 -26c-189.333 0 -309.5 19.833 -360.5 59.5s-76.5 112.834 -76.5 219.501c0 118 26.333 289.667 79 515c-3.33301 15.333 -5 27 -5 35
c0 29.333 10.667 54.666 32 75.999c40.667 184.667 66.167 308.167 76.5 370.5s15.5 116.833 15.5 163.5c4.66699 89.333 16 150 34 182s49 48 93 48c28 0 51 -10.333 69 -31c170.667 44 316.334 66 437.001 66c102 0 190.333 -8.33301 265 -25s121 -33.5 139 -50.5
s27 -37.833 27 -62.5c0 -32 -11.833 -60.333 -35.5 -85s-50.5 -37 -80.5 -37c-8 0 -18.333 2 -31 6c-110.667 31.333 -216.334 47 -317.001 47c-110.667 0 -243 -20.667 -397 -62zM803 -257.002c0 -60.667 26.335 -91.002 79.002 -91.002c48.667 0 94.667 8.33301 138 25
c17.333 8 31 12 41 12c41.333 0 62 -22.333 62 -67c0 -37.333 -26 -68.5 -78 -93.5s-119 -37.5 -201 -37.5c-74 0 -130.667 17.667 -170 53s-59 84 -59 146c0 90.667 36.167 171.167 108.5 241.5s132.166 105.5 179.499 105.5c44.667 0 67 -18 67 -54
c0 -15.333 -3.83301 -28.666 -11.5 -39.999s-30.834 -32.666 -69.501 -63.999c-57.333 -46 -86 -91.333 -86 -136z" />
    <glyph glyph-name="eogonek" unicode="&#x119;" horiz-adv-x="1122" 
d="M290 301c58 -110.667 160.667 -166.001 308 -166.001c52 0 113.667 10.667 185 32s120 48.333 146 81c27.333 35.333 54.666 53 81.999 53c22 0 40.333 -7.5 55 -22.5s22 -32.5 22 -52.5c0 -68 -58.167 -130.167 -174.5 -186.5s-231.166 -84.5 -344.499 -84.5
c-142.667 0 -254 33.5 -334 100.5s-120 157.167 -120 270.5c0 164 55.667 324.667 167 482s255.333 236 432 236c117.333 0 207 -19.667 269 -59s93 -95 93 -167c0 -59.333 -20.167 -110.166 -60.5 -152.499s-84 -75 -131 -98s-108.5 -51.167 -184.5 -84.5zM303 484.999
l327.001 148c138 62.667 232.333 113 283 151c-48.667 53.333 -124.334 80 -227.001 80c-164 0 -291.667 -126.333 -383 -379zM693.001 -191.001c0 -60.667 26.335 -91.002 79.002 -91.002c48.667 0 94.667 8.33301 138 25c17.333 8 31 12 41 12c41.333 0 62 -22.333 62 -67
c0 -37.333 -26 -68.5 -78 -93.5s-119 -37.5 -201 -37.5c-74 0 -130.667 17.667 -170 53s-59 84 -59 146c0 90.667 36.167 171.167 108.5 241.5s132.166 105.5 179.499 105.5c44.667 0 67 -18 67 -54c0 -15.333 -3.83301 -28.666 -11.5 -39.999
s-30.834 -32.666 -69.501 -63.999c-57.333 -46 -86 -91.333 -86 -136z" />
    <glyph glyph-name="Ecaron" unicode="&#x11a;" horiz-adv-x="1279" 
d="M576 1337c0 -64 -28.667 -225.669 -86 -485.002l446 43c124.667 12 204 18 238 18c60 0 90 -27.667 90 -83c0 -71.333 -37 -111.666 -111 -120.999l-710 -64c-45.333 -207.333 -68 -356 -68 -446c0 -40.667 8.5 -66.667 25.5 -78s63.167 -17 138.5 -17l375 9
c8.66699 0 39.667 3.33301 93 10c78 10 117 -15.667 117 -77s-24.167 -100.666 -72.5 -117.999s-194.833 -26 -439.5 -26c-189.333 0 -309.5 19.833 -360.5 59.5s-76.5 112.834 -76.5 219.501c0 118 26.333 289.667 79 515c-3.33301 15.333 -5 27 -5 35
c0 29.333 10.667 54.666 32 75.999c40.667 184.667 66.167 308.167 76.5 370.5s15.5 116.833 15.5 163.5c4.66699 89.333 16 150 34 182s49 48 93 48c28 0 51 -10.333 69 -31c170.667 44 316.334 66 437.001 66c102 0 190.333 -8.33301 265 -25s121 -33.5 139 -50.5
s27 -37.833 27 -62.5c0 -32 -11.833 -60.333 -35.5 -85s-50.5 -37 -80.5 -37c-8 0 -18.333 2 -31 6c-110.667 31.333 -216.334 47 -317.001 47c-110.667 0 -243 -20.667 -397 -62zM1286 2035c18 14 35.001 20.998 51.001 20.998c18 0 33.333 -6.5 46 -19.5
s19 -28.167 19 -45.5c0 -18 -4.16699 -32.667 -12.5 -44s-52.833 -48.666 -133.5 -111.999s-141.667 -109.166 -183 -137.499s-67.333 -42.5 -78 -42.5c-21.333 0 -41 12 -59 36l-41 64l-96 133c-39.333 54.667 -59 98.667 -59 132c0 22 9 41.667 27 59s38.667 26 62 26
c27.333 0 46.666 -13 57.999 -39c15.333 -35.333 64.333 -111 147 -227z" />
    <glyph glyph-name="ecaron" unicode="&#x11b;" horiz-adv-x="1122" 
d="M290 301c58 -110.667 160.667 -166.001 308 -166.001c52 0 113.667 10.667 185 32s120 48.333 146 81c27.333 35.333 54.666 53 81.999 53c22 0 40.333 -7.5 55 -22.5s22 -32.5 22 -52.5c0 -68 -58.167 -130.167 -174.5 -186.5s-231.166 -84.5 -344.499 -84.5
c-142.667 0 -254 33.5 -334 100.5s-120 157.167 -120 270.5c0 164 55.667 324.667 167 482s255.333 236 432 236c117.333 0 207 -19.667 269 -59s93 -95 93 -167c0 -59.333 -20.167 -110.166 -60.5 -152.499s-84 -75 -131 -98s-108.5 -51.167 -184.5 -84.5zM303 484.999
l327.001 148c138 62.667 232.333 113 283 151c-48.667 53.333 -124.334 80 -227.001 80c-164 0 -291.667 -126.333 -383 -379zM1071 1556c18 14 35.001 20.998 51.001 20.998c18 0 33.333 -6.5 46 -19.5s19 -28.167 19 -45.5c0 -18 -4.16699 -32.667 -12.5 -44
s-52.833 -48.666 -133.5 -111.999s-141.667 -109.166 -183 -137.499s-67.333 -42.5 -78 -42.5c-21.333 0 -41 12 -59 36l-41 64l-96 133c-39.333 54.667 -59 98.667 -59 132c0 22 9 41.667 27 59s38.667 26 62 26c27.333 0 46.666 -13 57.999 -39
c15.333 -35.333 64.333 -111 147 -227z" />
    <glyph glyph-name="Gcircumflex" unicode="&#x11c;" horiz-adv-x="1392" 
d="M1319 604c-72.667 -200 -185.001 -362.334 -337.001 -487.001s-318.333 -187 -499 -187c-278 0 -417 131.333 -417 394c0 126 29.167 267.667 87.5 425s139.166 300.5 242.499 429.5s200.333 226.667 291 293s181 99.5 271 99.5c60 0 139.667 -21.333 239 -64
s149 -89.334 149 -140.001c0 -29.333 -11.833 -56.666 -35.5 -81.999s-50.834 -38 -81.501 -38c-15.333 0 -35.333 8.33301 -60 25c-89.333 62.667 -170.666 94 -243.999 94c-96 0 -229.5 -111.167 -400.5 -333.5s-256.5 -449.166 -256.5 -680.499
c0 -84.667 20.667 -142 62 -172s103.333 -45 186 -45c122.667 0 235.834 40.833 339.501 122.5s182.167 193.167 235.5 334.5c-186 -10 -349.667 -45.667 -491 -107c-17.333 -8 -33 -12 -47 -12c-24 0 -43.833 8.83301 -59.5 26.5s-23.5 38.5 -23.5 62.5
c0 40 22.5 75.333 67.5 106s130.5 60.5 256.5 89.5s295.333 43.5 508 43.5c26.667 0 48.334 -8.16699 65.001 -24.5s25 -36.5 25 -60.5c0 -52.667 -24.333 -90 -73 -112zM1141 1930c-203.333 -209.333 -328.335 -313.999 -375.002 -313.999c-20.667 0 -38.667 8 -54 24
s-23 34.333 -23 55c0 29.333 13.333 55.666 40 78.999c28.667 22 148.334 134 359.001 336c20.667 20.667 42.334 31 65.001 31c27.333 0 55 -11 83 -33s71.333 -70.667 130 -146l131 -170c12 -16 18 -31.667 18 -47c0 -26 -10.667 -49.833 -32 -71.5s-46 -32.5 -74 -32.5
s-51.333 14 -70 42s-84.667 110.333 -198 247z" />
    <glyph glyph-name="gcircumflex" unicode="&#x11d;" 
d="M1019 430l-117.002 -502.002c-14 -54 -32 -107.667 -54 -161s-48.667 -100.333 -80 -141s-67.5 -74.667 -108.5 -102s-90.5 -48.666 -148.5 -63.999s-126.333 -23 -205 -23c-220 0 -330 35.667 -330 107c0 23.333 7.5 46.5 22.5 69.5s41.167 34.5 78.5 34.5
c12 0 28 -1.66699 48 -5c100.667 -18.667 179.334 -28 236.001 -28c117.333 0 208.166 41.333 272.499 124s114.5 227.667 150.5 435c-96.667 -132.667 -206.667 -199 -330 -199c-107.333 0 -192.166 31.833 -254.499 95.5s-93.5 147.5 -93.5 251.5
c0 178 62 339.5 186 484.5s294 217.5 510 217.5c124.667 0 203.334 -32 236.001 -96c60.667 -2 91 -31.333 91 -88c0 -32.667 -30 -145 -90 -337c-10 -31.333 -16.667 -55.666 -20 -72.999zM764.998 863.998c-143.333 0 -256.166 -53 -338.499 -159
s-123.5 -227.667 -123.5 -365c0 -132.667 60 -199 180 -199c60 0 123.5 30.667 190.5 92s113.667 124.333 140 189s64.833 191.667 115.5 381c-48.667 40.667 -103.334 61 -164.001 61zM861.998 1479c-203.333 -209.333 -328.335 -313.999 -375.002 -313.999
c-20.667 0 -38.667 8 -54 24s-23 34.333 -23 55c0 29.333 13.333 55.666 40 78.999c28.667 22 148.334 134 359.001 336c20.667 20.667 42.334 31 65.001 31c27.333 0 55 -11 83 -33s71.333 -70.667 130 -146l131 -170c12 -16 18 -31.667 18 -47
c0 -26 -10.667 -49.833 -32 -71.5s-46 -32.5 -74 -32.5s-51.333 14 -70 42s-84.667 110.333 -198 247z" />
    </font>
</defs>
</svg>
