<?xml version="1.0" standalone="no"?>
<!DOCTYPE svg PUBLIC "-//W3C//DTD SVG 1.1//EN" "http://www.w3.org/Graphics/SVG/1.1/DTD/svg11.dtd" >
<svg>
<metadata>
Created by FontForge 20090914 at Fri Jun 17 04:38:30 2016
 By www-data
&#194;&#169; 2008 The Monotype Corporation. All Rights Reserved.
</metadata>
<defs>
<font id="CourierNewPS-BoldMT" horiz-adv-x="1229" >
  <font-face 
    font-family="Courier New"
    font-weight="700"
    font-stretch="normal"
    units-per-em="2048"
    panose-1="2 7 6 9 2 2 5 2 4 4"
    ascent="1638"
    descent="-410"
    x-height="908"
    cap-height="1212"
    bbox="-393 -1455 1437 2501"
    underline-thickness="205"
    underline-position="-375"
    unicode-range="U+0020-U+FFFC"
  />
<missing-glyph 
d="M102 0v1092h820v-1092h-820zM204 102h616v888h-616v-888z" />
    <glyph glyph-name="afii64184" unicode="&#xfedf;&#xfee0;&#x6c1;" arabic-form="isolated" 
d="M616 1182c-6 -20.667 -18.501 -39.833 -37.501 -57.5s-37.5 -26.5 -55.5 -26.5c-29.333 0 -52.666 12 -69.999 36s-26 49.333 -26 76c0 22.667 4.66699 46.5 14 71.5s21.333 37.5 36 37.5c18.667 0 28 -21.333 28 -64c0 -13.333 7.33301 -20 22 -20
c20 0 34.667 22.333 44 67c8.66699 44.667 20.667 67 36 67c21.333 0 32 -14.333 32 -43c0 -21.333 8.33301 -32 25 -32c17.333 0 27.333 15.667 30 47c4.66699 55.333 16 83 34 83c34 0 51 -43 51 -129c0 -36 -10.333 -69.167 -31 -99.5s-47.334 -45.5 -80.001 -45.5
c-27.333 0 -44.666 10.667 -51.999 32zM843.999 60.001c-38 -40 -100.664 -60.0029 -187.997 -60.0029c-74.667 0 -129.5 16.333 -164.5 49s-56.167 90 -63.5 172l-2 24l-49 -43c-251.333 2.66699 -377 38.334 -377 107.001c0 78 24.333 143.833 73 197.5
s158.667 104.167 330 151.5c-5.33301 35.333 -17.333 72.666 -36 111.999l147 194c11.333 -100 21.666 -243 30.999 -429l12 -203c3.33301 -41.333 6.33301 -67 9 -77s14.667 -18.833 36 -26.5s50.666 -11.5 87.999 -11.5c46.667 0 70 14.667 70 44
c0 147.333 -38.667 341 -116 581l143 264c26 -146.667 47.333 -306 64 -478c9.33301 -93.333 20.333 -176.666 33 -249.999s21.167 -116.166 25.5 -128.499s15.166 -21.666 32.499 -27.999s41 -9.5 71 -9.5c56.667 0 85 15.667 85 47c0 110.667 -32.333 275.667 -97 495
l-35 141l140 246c24 -205.333 48 -371.333 72 -498c34 -178.667 51 -320 51 -424c0 -146 -64.333 -219 -193 -219c-76 0 -140 20 -192 60zM423.002 401.998l-4 97c-52.667 -10.667 -105 -26.667 -157 -48s-78 -40 -78 -56c32.667 -12 91.667 -18 177 -18
c17.333 0 38 8.33301 62 25z" />
    <glyph glyph-name="uniFDFC" unicode="&#x631;&#xfbfe;&#xfe8e;&#x644;" arabic-form="isolated" 
d="M606 871l82 115.001c24 -71.333 36 -155 36 -251c0 -46 -3.66699 -115.333 -11 -208c-8 -92.667 -12 -162 -12 -208c0 -47.333 6 -77.666 18 -90.999s34.333 -20 67 -20l35 2c81.333 3.33301 122 18.666 122 45.999c0 75.333 -28.667 146.666 -86 213.999l65 173
c64.667 -102.667 97 -209 97 -319c0.666992 -68 -15 -126.833 -47 -176.5s-77.333 -74.5 -136 -74.5c-92.667 0 -152 12.667 -178 38s-39 83 -39 173c0 24.667 2 79.334 6 164.001c4.66699 84 7 149.667 7 197c0 103.333 -8.66699 178.666 -26 225.999zM406 820.001
c24 53.333 48.667 103.669 74 151.002c28 -38 62.667 -75.333 104 -112c-29.333 -45.333 -44 -82 -44 -110c0 -38 9 -128 27 -270c18 -142.667 27 -227 27 -253c0 -62.667 -4.83301 -109 -14.5 -139s-28.167 -56 -55.5 -78s-68.5 -40.667 -123.5 -56
s-115.167 -23 -180.5 -23c-146.667 0 -220 63 -220 189c0 53.333 13.167 107.666 39.5 162.999s47.166 83 62.499 83c11.333 0 17 -12 17 -36c0 -8.66699 -5.66699 -29 -17 -61s-17 -57 -17 -75c0 -32.667 14.833 -60.834 44.5 -84.501s54.834 -35.5 75.501 -35.5
c92.667 0 168 8.66699 226 26s87 44.333 87 81c0 52.667 -11 152 -33 298l-38 243c-3.33301 48.667 -17 81.667 -41 99zM1035 461.004l53 164.999c94 -92 141 -223.333 141 -394c0 -141.333 -32 -258.333 -96 -351s-134.333 -139 -211 -139
c-50.667 0 -106.5 8.5 -167.5 25.5s-98.5 31 -112.5 42s-21 23.167 -21 36.5c0 22 14.667 33 44 33c18.667 0 43.667 -3.33301 75 -10c30.667 -6 59 -9 85 -9c72 0 145.667 36.333 221 109s113 145.334 113 218.001c0 92.667 -41.333 184 -124 274zM974 -8.99707l-76 -66
l-67 59l-76 -61l-72 64l75 65l66 -60l74 60z" />
    <glyph glyph-name="afii62834" unicode="&#xfedf;&#xfe82;" arabic-form="isolated" 
d="M1011 1137c-48.667 -79.333 -78.668 -191.333 -90.001 -336c-13.333 -167.333 -34.666 -285.333 -63.999 -354c50 -84.667 75 -144 75 -178c0 -46 -13.833 -102.333 -41.5 -169s-58.834 -100 -93.501 -100h-380l54 221c90 21.333 169 88.333 237 201
c-69.333 120.667 -181.666 233 -336.999 337l-22 -94l-240 175l46 276c320.667 -166.667 527.667 -354.667 621 -564c0 93.333 -2.16699 175.333 -6.5 246s-16.5 179.667 -36.5 327c34.667 39.333 70 101 106 185c56 -75.333 113.333 -133 172 -173zM773.999 329
c-35.333 -65.333 -77.999 -117 -127.999 -155h136c9.33301 0 18.833 6.5 28.5 19.5s14.5 23.833 14.5 32.5c0 18 -10.333 42 -31 72c-4.66699 6.66699 -11.334 17 -20.001 31zM194 1337c-20 0 -40.667 -10.001 -62 -30.001s-37 -30 -47 -30c-16 0 -24 11 -24 33
c0 44.667 17.167 82.334 51.5 113.001s73.833 46 118.5 46c32 0 74 -9.66699 126 -29c51.333 -18.667 104 -28 158 -28c50.667 0 92.667 12.333 126 37c32.667 25.333 52 38 58 38c16.667 0 25 -9.66699 25 -29c0 -52 -31 -95.167 -93 -129.5s-122.333 -51.5 -181 -51.5
c-32.667 0 -77 10 -133 30c-56.667 20 -97.667 30 -123 30z" />
    <glyph glyph-name="afii62835" unicode="&#xfee0;&#xfe82;" arabic-form="final" 
d="M1229 0c-126 0 -214.829 27.499 -266.496 82.499s-83.5 171.167 -95.5 348.5c-26 -186.667 -78.5 -319.334 -157.5 -398.001s-193.167 -118 -342.5 -118c-57.333 0 -125.333 22.333 -204 67c244.667 110.667 403.167 191.667 475.5 243s108.5 96 108.5 134
c0 58 -33.5 124.333 -100.5 199s-141.5 132.667 -223.5 174l-25 -82c-130 82.667 -203.5 138.834 -220.5 168.501s-25.5 58.167 -25.5 85.5c0 54.667 12.333 112.667 37 174c119.333 -42.667 241.666 -120.5 366.999 -233.5s205.666 -220.5 240.999 -322.5
c7.33301 44.667 11 156.334 11 335.001c0 60 -10 134.667 -30 224l172 308l4 -134c10.667 -362.667 25.167 -621 43.5 -775s39.166 -235 62.499 -243s79.666 -12 168.999 -12v-225zM200.004 1271c-20 0 -40.667 -10.001 -62 -30.001s-37 -30 -47 -30c-16 0 -24 11 -24 33
c0 44.667 17.167 82.334 51.5 113.001s73.833 46 118.5 46c32 0 74 -9.66699 126 -29c51.333 -18.667 104 -28 158 -28c50.667 0 92.667 12.333 126 37c32.667 25.333 52 38 58 38c16.667 0 25 -9.66699 25 -29c0 -52 -31 -95.167 -93 -129.5s-122.333 -51.5 -181 -51.5
c-32.667 0 -77 10 -133 30c-56.667 20 -97.667 30 -123 30z" />
    <glyph glyph-name="afii62836" unicode="&#xfedf;&#xfe84;" arabic-form="isolated" 
d="M1011 1137c-48.667 -79.333 -78.668 -191.333 -90.001 -336c-13.333 -167.333 -34.666 -285.333 -63.999 -354c50 -84.667 75 -144 75 -178c0 -46 -13.833 -102.333 -41.5 -169s-58.834 -100 -93.501 -100h-380l54 221c90 21.333 169 88.333 237 201
c-69.333 120.667 -181.666 233 -336.999 337l-22 -94l-240 175l46 276c320.667 -166.667 527.667 -354.667 621 -564c0 93.333 -2.16699 175.333 -6.5 246s-16.5 179.667 -36.5 327c34.667 39.333 70 101 106 185c56 -75.333 113.333 -133 172 -173zM773.999 329
c-35.333 -65.333 -77.999 -117 -127.999 -155h136c9.33301 0 18.833 6.5 28.5 19.5s14.5 23.833 14.5 32.5c0 18 -10.333 42 -31 72c-4.66699 6.66699 -11.334 17 -20.001 31zM135 1203l12.999 72c34 22.667 58.667 44 74 64c-63.333 20 -95 53.667 -95 101
c0 44 14.833 86.667 44.5 128s64.834 62 105.501 62c67.333 0 101 -29.667 101 -89c0 -16 -6.66699 -37.667 -20 -65c-54 39.333 -96.333 59 -127 59c-21.333 0 -32 -9.66699 -32 -29c0 -24 13.833 -45 41.5 -63s56.5 -27 86.5 -27c33.333 0 72 10.667 116 32v-114z" />
    <glyph glyph-name="afii62837" unicode="&#xfee0;&#xfe84;" arabic-form="final" 
d="M1229 0c-126 0 -214.829 27.499 -266.496 82.499s-83.5 171.167 -95.5 348.5c-26 -186.667 -78.5 -319.334 -157.5 -398.001s-193.167 -118 -342.5 -118c-57.333 0 -125.333 22.333 -204 67c244.667 110.667 403.167 191.667 475.5 243s108.5 96 108.5 134
c0 58 -33.5 124.333 -100.5 199s-141.5 132.667 -223.5 174l-25 -82c-130 82.667 -203.5 138.834 -220.5 168.501s-25.5 58.167 -25.5 85.5c0 54.667 12.333 112.667 37 174c119.333 -42.667 241.666 -120.5 366.999 -233.5s205.666 -220.5 240.999 -322.5
c7.33301 44.667 11 156.334 11 335.001c0 60 -10 134.667 -30 224l172 308l4 -134c10.667 -362.667 25.167 -621 43.5 -775s39.166 -235 62.499 -243s79.666 -12 168.999 -12v-225zM135.004 1225l12.999 72c34 22.667 58.667 44 74 64c-63.333 20 -95 53.667 -95 101
c0 44 14.833 86.667 44.5 128s64.834 62 105.501 62c67.333 0 101 -29.667 101 -89c0 -16 -6.66699 -37.667 -20 -65c-54 39.333 -96.333 59 -127 59c-21.333 0 -32 -9.66699 -32 -29c0 -24 13.833 -45 41.5 -63s56.5 -27 86.5 -27c33.333 0 72 10.667 116 32v-114z" />
    <glyph glyph-name="afii62838" unicode="&#xfedf;&#xfe88;" arabic-form="isolated" 
d="M1011 1137c-48.667 -79.333 -78.668 -191.333 -90.001 -336c-13.333 -167.333 -34.666 -285.333 -63.999 -354c50 -84.667 75 -144 75 -178c0 -46 -13.833 -102.333 -41.5 -169s-58.834 -100 -93.501 -100h-380l54 221c90 21.333 169 88.333 237 201
c-69.333 120.667 -181.666 233 -336.999 337l-22 -94l-240 175l46 276c320.667 -166.667 527.667 -354.667 621 -564c0 93.333 -2.16699 175.333 -6.5 246s-16.5 179.667 -36.5 327c34.667 39.333 70 101 106 185c56 -75.333 113.333 -133 172 -173zM773.999 329
c-35.333 -65.333 -77.999 -117 -127.999 -155h136c9.33301 0 18.833 6.5 28.5 19.5s14.5 23.833 14.5 32.5c0 18 -10.333 42 -31 72c-4.66699 6.66699 -11.334 17 -20.001 31zM417 -605l12.999 72.001c34 22.667 58.667 44 74 64c-63.333 20 -95 53.667 -95 101
c0 43.333 14.833 85.833 44.5 127.5s64.834 62.5 105.501 62.5c67.333 0 101 -29.667 101 -89c0 -16 -6.66699 -37.667 -20 -65c-54 39.333 -96.333 59 -127 59c-21.333 0 -32 -9.66699 -32 -29c0 -24.667 14 -45.834 42 -63.501s56.667 -26.5 86 -26.5
c33.333 0 72 10.667 116 32v-114z" />
    <glyph glyph-name="afii62839" unicode="&#xfee0;&#xfe88;" arabic-form="final" 
d="M1229 0c-126 0 -214.829 27.499 -266.496 82.499s-83.5 171.167 -95.5 348.5c-26 -186.667 -78.5 -319.334 -157.5 -398.001s-193.167 -118 -342.5 -118c-57.333 0 -125.333 22.333 -204 67c244.667 110.667 403.167 191.667 475.5 243s108.5 96 108.5 134
c0 58 -33.5 124.333 -100.5 199s-141.5 132.667 -223.5 174l-25 -82c-130 82.667 -203.5 138.834 -220.5 168.501s-25.5 58.167 -25.5 85.5c0 54.667 12.333 112.667 37 174c119.333 -42.667 241.666 -120.5 366.999 -233.5s205.666 -220.5 240.999 -322.5
c7.33301 44.667 11 156.334 11 335.001c0 60 -10 134.667 -30 224l172 308l4 -134c10.667 -362.667 25.167 -621 43.5 -775s39.166 -235 62.499 -243s79.666 -12 168.999 -12v-225zM226.004 -615.001l12.999 72.001c34 22.667 58.667 44 74 64
c-63.333 20 -95 53.667 -95 101c0 43.333 14.833 85.833 44.5 127.5s64.834 62.5 105.501 62.5c67.333 0 101 -29.667 101 -89c0 -16 -6.66699 -37.667 -20 -65c-54 39.333 -96.333 59 -127 59c-21.333 0 -32 -9.66699 -32 -29c0 -24.667 14 -45.834 42 -63.501
s56.667 -26.5 86 -26.5c33.333 0 72 10.667 116 32v-114z" />
    <glyph glyph-name="afii62840" unicode="&#xfedf;&#xfe8e;" arabic-form="isolated" 
d="M1011 1137c-48.667 -79.333 -78.668 -191.333 -90.001 -336c-13.333 -167.333 -34.666 -285.333 -63.999 -354c50 -84.667 75 -144 75 -178c0 -46 -13.833 -102.333 -41.5 -169s-58.834 -100 -93.501 -100h-380l54 221c90 21.333 169 88.333 237 201
c-69.333 120.667 -181.666 233 -336.999 337l-22 -94l-240 175l46 276c320.667 -166.667 527.667 -354.667 621 -564c0 93.333 -2.16699 175.333 -6.5 246s-16.5 179.667 -36.5 327c34.667 39.333 70 101 106 185c56 -75.333 113.333 -133 172 -173zM773.999 329
c-35.333 -65.333 -77.999 -117 -127.999 -155h136c9.33301 0 18.833 6.5 28.5 19.5s14.5 23.833 14.5 32.5c0 18 -10.333 42 -31 72c-4.66699 6.66699 -11.334 17 -20.001 31z" />
    <glyph glyph-name="afii62841" unicode="&#xfee0;&#xfe8e;" arabic-form="final" 
d="M1229 0c-126 0 -214.829 27.499 -266.496 82.499s-83.5 171.167 -95.5 348.5c-26 -186.667 -78.5 -319.334 -157.5 -398.001s-193.167 -118 -342.5 -118c-57.333 0 -125.333 22.333 -204 67c244.667 110.667 403.167 191.667 475.5 243s108.5 96 108.5 134
c0 58 -33.5 124.333 -100.5 199s-141.5 132.667 -223.5 174l-25 -82c-130 82.667 -203.5 138.834 -220.5 168.501s-25.5 58.167 -25.5 85.5c0 54.667 12.333 112.667 37 174c119.333 -42.667 241.666 -120.5 366.999 -233.5s205.666 -220.5 240.999 -322.5
c7.33301 44.667 11 156.334 11 335.001c0 60 -10 134.667 -30 224l172 308l4 -134c10.667 -362.667 25.167 -621 43.5 -775s39.166 -235 62.499 -243s79.666 -12 168.999 -12v-225z" />
    <glyph glyph-name="glyph1665" unicode="&#xfedf;&#xfb51;" 
d="M1011 1137c-48.667 -79.333 -78.668 -191.333 -90.001 -336c-13.333 -167.333 -34.666 -285.333 -63.999 -354c50 -84.667 75 -144 75 -178c0 -46 -13.833 -102.333 -41.5 -169s-58.834 -100 -93.501 -100h-380l54 221c90 21.333 169 88.333 237 201
c-69.333 120.667 -181.666 233 -336.999 337l-22 -94l-240 175l46 276c320.667 -166.667 527.667 -354.667 621 -564c0 93.333 -2.16699 175.333 -6.5 246s-16.5 179.667 -36.5 327c34.667 39.333 70 101 106 185c56 -75.333 113.333 -133 172 -173zM773.999 329
c-35.333 -65.333 -77.999 -117 -127.999 -155h136c9.33301 0 18.833 6.5 28.5 19.5s14.5 23.833 14.5 32.5c0 18 -10.333 42 -31 72c-4.66699 6.66699 -11.334 17 -20.001 31zM218 1414c82 128.667 152.333 193 211 193c22 0 40.833 -12.167 56.5 -36.5
s23.5 -52.833 23.5 -85.5c0 -77.333 -20.5 -127.5 -61.5 -150.5s-136.167 -34.5 -285.5 -34.5c-16.667 0 -32.667 -18.667 -48 -56c-7.33301 -16.667 -15 -25 -23 -25c-18 0 -27 20 -27 60c0 88.667 51.333 133.667 154 135zM269 1414c92.667 0 147.5 1.33301 164.5 4
s25.5 12.667 25.5 30c0 18 -5.33301 33.333 -16 46s-22.667 19 -36 19c-38 0 -84 -33 -138 -99z" />
    <glyph glyph-name="glyph1666" unicode="&#xfee0;&#xfb51;" 
d="M1229 0c-126 0 -214.829 27.499 -266.496 82.499s-83.5 171.167 -95.5 348.5c-26 -186.667 -78.5 -319.334 -157.5 -398.001s-193.167 -118 -342.5 -118c-57.333 0 -125.333 22.333 -204 67c244.667 110.667 403.167 191.667 475.5 243s108.5 96 108.5 134
c0 58 -33.5 124.333 -100.5 199s-141.5 132.667 -223.5 174l-25 -82c-130 82.667 -203.5 138.834 -220.5 168.501s-25.5 58.167 -25.5 85.5c0 54.667 12.333 112.667 37 174c119.333 -42.667 241.666 -120.5 366.999 -233.5s205.666 -220.5 240.999 -322.5
c7.33301 44.667 11 156.334 11 335.001c0 60 -10 134.667 -30 224l172 308l4 -134c10.667 -362.667 25.167 -621 43.5 -775s39.166 -235 62.499 -243s79.666 -12 168.999 -12v-225zM239.004 1414c82 128.667 152.333 193 211 193c22 0 40.833 -12.167 56.5 -36.5
s23.5 -52.833 23.5 -85.5c0 -77.333 -20.5 -127.5 -61.5 -150.5s-136.167 -34.5 -285.5 -34.5c-16.667 0 -32.667 -18.667 -48 -56c-7.33301 -16.667 -15 -25 -23 -25c-18 0 -27 20 -27 60c0 88.667 51.333 133.667 154 135zM290.004 1414c92.667 0 147.5 1.33301 164.5 4
s25.5 12.667 25.5 30c0 18 -5.33301 33.333 -16 46s-22.667 19 -36 19c-38 0 -84 -33 -138 -99z" />
    <glyph glyph-name="glyph2866" unicode="&#x627;&#xfedf;&#xfee0;&#xfbab;" 
d="M1229 375c0.666992 -126 -11.332 -219.997 -35.999 -281.997c-34.667 -88.667 -68.334 -133 -101.001 -133c-8 0 -12 55.333 -12 166c0 105.333 -7.33301 262.666 -22 471.999s-22 366.666 -22 471.999l181 228c-4.66699 -98.667 -7 -216.334 -7 -353.001
c0 -64.667 3 -159.667 9 -285c6.66699 -128 10 -223 10 -285zM649.001 1295c0 -35.333 -9.66992 -67.334 -29.0029 -96.001c-21.333 -32.667 -48.666 -49 -81.999 -49c-27.333 0 -44.666 10.667 -51.999 32c-6 -20 -17.667 -38.667 -35 -56
c-19.333 -18.667 -38.666 -28 -57.999 -28c-28 0 -51.333 12 -70 36c-17.333 22 -26 47.333 -26 76c0 20.667 3.66699 42.334 11 65.001c10 29.333 23 44 39 44c18.667 0 28 -21.333 28 -64c0 -13.333 7.33301 -20 22 -20c18 0 32.667 22.333 44 67s23.333 67 36 67
c21.333 0 32 -14.333 32 -43c0 -21.333 8.33301 -32 25 -32c17.333 0 27.333 15.667 30 47c4.66699 55.333 16 83 34 83c34 0 51 -43 51 -129zM988.998 219.002c0 -146 -57.668 -218.998 -173.001 -218.998c-58.667 0 -109.334 20 -152.001 60c-34 -40 -86.667 -60 -158 -60
c-59.333 0 -108.666 23 -147.999 69c-35.333 42 -55.333 92.667 -60 152l-2 24l-44 -43c-115.333 1.33301 -188.666 11 -219.999 29c-21.333 12 -32 38 -32 78c0 78.667 24.333 144.667 73 198c38.667 42.667 68.667 72.667 90 90
c36.667 31.333 73.334 51.666 110.001 60.999c-5.33301 35.333 -17.333 72.666 -36 111.999l147 194c8 -69.333 18.333 -212.333 31 -429l12 -203c2 -35.333 3.33301 -54 4 -56c4 -22 13.833 -37.333 29.5 -46s35.5 -13 59.5 -13c40 0 60 14.667 60 44
c0 147.333 -38.667 341 -116 581l143 264c25.333 -144 46.666 -303.333 63.999 -478c19.333 -194 39 -320 59 -378c8.66699 -25.333 29.667 -38 63 -38c43.333 0 65 15.667 65 47c0 69.333 -32.333 234.333 -97 495l-35 141l140 246c24 -206 48 -372 72 -498
c34 -178.667 51 -320 51 -424zM292.997 402.004l-4 97c-24 -4 -47 -15.667 -69 -35c-24 -22 -36 -45 -36 -69c20.667 -12 38 -18 52 -18s33 8.33301 57 25z" />
    <glyph glyph-name="afii52400" unicode="&#x622;" arabic-form="isolated" 
d="M480 1070l200.999 228.001c-4.66699 -98.667 -7 -216.334 -7 -353.001c0 -59.333 3.33301 -154.333 10 -285c6 -130.667 9 -225.667 9 -285c0.666992 -99.333 -16.5 -193.333 -51.5 -282s-70.167 -133 -105.5 -133c-3.33301 0 -6.16602 5.66699 -8.49902 17
s-3.5 61 -3.5 149c0 93.333 -7.33301 249 -22 467c-14.667 215.333 -22 374.333 -22 477zM415.999 1485c-20 0 -40.667 -10.001 -62 -30.001s-37 -30 -47 -30c-16 0 -24 11 -24 33c0 44.667 17.167 82.334 51.5 113.001s73.833 46 118.5 46c32 0 74 -9.66699 126 -29
c51.333 -18.667 104 -28 158 -28c50.667 0 92.667 12.333 126 37c32.667 25.333 52 38 58 38c16.667 0 25 -9.66699 25 -29c0 -52 -31 -95.167 -93 -129.5s-122.333 -51.5 -181 -51.5c-32.667 0 -77 10 -133 30c-56.667 20 -97.667 30 -123 30z" />
    <glyph glyph-name="afii57411" unicode="&#x623;" arabic-form="isolated" 
d="M480 1018l201 228c-4.66699 -98.667 -7 -216.334 -7 -353.001c0 -52.667 3.33301 -148 10 -286c3.33301 -57.333 6.33301 -134.666 9 -231.999c0.666992 -98 -16.333 -191.667 -51 -281s-70 -134 -106 -134c-8 0 -12 55.333 -12 166c0 59.333 -7.33301 197.5 -22 414.5
s-22 376.167 -22 477.5zM399 1274l13.001 71.999c34 22.667 58.667 44 74 64c-63.333 20 -95 53.667 -95 101c0 46 15.167 89.167 45.5 129.5s65.166 60.5 104.499 60.5c67.333 0 101 -29.667 101 -89c0 -16 -6.66699 -37.667 -20 -65c-54 39.333 -96.333 59 -127 59
c-21.333 0 -32 -9.66699 -32 -29c0 -23.333 13.667 -44.166 41 -62.499s56.333 -27.5 87 -27.5c33.333 0 72 10.667 116 32v-114z" />
    <glyph glyph-name="afii57412" unicode="&#x624;" arabic-form="isolated" 
d="M877 11c-19.333 -3.33301 -41.001 -4.99902 -65.001 -4.99902c-102.667 0 -170.667 14.833 -204 44.5s-50 74.5 -50 134.5c0 86 25.333 189.167 76 309.5s110.334 180.5 179.001 180.5c70 0 124.333 -49.667 163 -149s58 -226.333 58 -381
c0 -134.667 -40.333 -259.167 -121 -373.5s-183 -171.5 -307 -171.5c-42.667 0 -121.167 19.5 -235.5 58.5s-171.5 73.167 -171.5 102.5c0 13.333 4.66699 21.666 14 24.999s24.333 5 45 5c15.333 0 38.333 -3.33301 69 -10c30 -7.33301 66 -11 108 -11
c77.333 0 167.833 24.833 271.5 74.5s160.5 105.167 170.5 166.5zM871.999 215.001c0 52.667 -6.5 107.333 -19.5 164s-30.5 85 -52.5 85c-18.667 0 -37 -23 -55 -69s-27 -84.667 -27 -116s5.33301 -50.833 16 -58.5s37.667 -11.5 81 -11.5c24 0 43 2 57 6zM585.999 818
l12.999 72c34 22.667 58.667 44 74 64c-63.333 20 -95 53.667 -95 101c0 44 14.833 86.667 44.5 128s64.834 62 105.501 62c67.333 0 101 -29.667 101 -89c0 -16 -6.66699 -37.667 -20 -65c-54 39.333 -96.333 59 -127 59c-21.333 0 -32 -9.66699 -32 -29
c0 -24 13.833 -45 41.5 -63s56.5 -27 86.5 -27c33.333 0 72 10.667 116 32v-114z" />
    <glyph glyph-name="afii57413" unicode="&#x625;" arabic-form="isolated" 
d="M480 1070l200.999 228.001c-4.66699 -98.667 -7 -216.334 -7 -353.001c0 -59.333 3.33301 -154.333 10 -285c6 -130.667 9 -225.667 9 -285c0.666992 -99.333 -16.5 -193.333 -51.5 -282s-70.167 -133 -105.5 -133c-3.33301 0 -6.16602 5.66699 -8.49902 17
s-3.5 61 -3.5 149c0 93.333 -7.33301 249 -22 467c-14.667 215.333 -22 374.333 -22 477zM420.999 -614.999l12.999 72.001c34 22.667 58.667 44 74 64c-63.333 20 -95 53.667 -95 101c0 43.333 14.833 85.833 44.5 127.5s64.834 62.5 105.501 62.5
c67.333 0 101 -29.667 101 -89c0 -16 -6.66699 -37.667 -20 -65c-54 39.333 -96.333 59 -127 59c-21.333 0 -32 -9.66699 -32 -29c0 -24.667 14 -45.834 42 -63.501s56.667 -26.5 86 -26.5c33.333 0 72 10.667 116 32v-114z" />
    <glyph glyph-name="afii57414" unicode="&#x626;" arabic-form="isolated" 
d="M987 504c-30.667 34 -63.333 50.999 -98 50.999c-30 0 -76 -17.167 -138 -51.5s-93 -58.833 -93 -73.5c0 -10 40.333 -20.333 121 -31c109.333 -14.667 181.5 -39.167 216.5 -73.5s52.5 -78.833 52.5 -133.5c0 -44 -21.667 -110 -65 -198s-113.833 -149.5 -211.5 -184.5
s-191.5 -52.5 -281.5 -52.5c-290 0 -435 111.333 -435 334c0 40.667 22.167 117.5 66.5 230.5s81.5 169.5 111.5 169.5c16.667 0 28.167 -2.5 34.5 -7.5s9.5 -17.833 9.5 -38.5c0 -21.333 -11.333 -62.666 -34 -123.999c-22 -61.333 -33 -107.666 -33 -138.999
c0 -64.667 22.833 -112.334 68.5 -143.001s124.5 -46 236.5 -46c104.667 0 197.834 10.5 279.501 31.5s122.5 50.833 122.5 89.5c0 15.333 -7.33301 26.666 -22 33.999s-54 15.333 -118 24c-79.333 11.333 -138.333 27.833 -177 49.5s-58 55.834 -58 102.501
c0 102 40.667 201.833 122 299.5s172 146.5 272 146.5c31.333 0 59.666 -9.83301 84.999 -29.5s38 -46.167 38 -79.5c0 -72.667 -24 -125 -72 -157zM398.001 767.999l12.999 72c34 22.667 58.667 44 74 64c-63.333 20 -95 53.667 -95 101c0 44 14.833 86.667 44.5 128
s64.834 62 105.501 62c67.333 0 101 -29.667 101 -89c0 -16 -6.66699 -37.667 -20 -65c-54 39.333 -96.333 59 -127 59c-21.333 0 -32 -9.66699 -32 -29c0 -24 13.833 -45 41.5 -63s56.5 -27 86.5 -27c33.333 0 72 10.667 116 32v-114z" />
    <glyph glyph-name="afii57415" unicode="&#x627;" arabic-form="isolated" 
d="M480 1070l200.999 228.001c-4.66699 -98.667 -7 -216.334 -7 -353.001c0 -59.333 3.33301 -154.333 10 -285c6 -130.667 9 -225.667 9 -285c0.666992 -99.333 -16.5 -193.333 -51.5 -282s-70.167 -133 -105.5 -133c-3.33301 0 -6.16602 5.66699 -8.49902 17
s-3.5 61 -3.5 149c0 93.333 -7.33301 249 -22 467c-14.667 215.333 -22 374.333 -22 477z" />
    <glyph glyph-name="afii57416" unicode="&#x628;" arabic-form="isolated" 
d="M843 554l113.001 295c71.333 -117.333 118.833 -208 142.5 -272s35.5 -125 35.5 -183c0 -60 -13.333 -122.833 -40 -188.5s-56.834 -114 -90.501 -145s-65.667 -48.833 -96 -53.5s-111.833 -7 -244.5 -7h-218c-290 -0 -435 85.333 -435 256c0 51.333 21.833 124 65.5 218
s83.167 141 118.5 141c24.667 0 37 -13.333 37 -40c0 -13.333 -11 -45 -33 -95c-21.333 -50 -32 -85.667 -32 -107c0 -98.667 104 -148 312 -148h311c134 0 201 17 201 51c0 86 -49 178.667 -147 278zM818.001 -378l-153 -154l-154 154l154 153z" />
    <glyph glyph-name="afii57417" unicode="&#x629;" arabic-form="isolated" 
d="M561 574c-19.333 4 -32 6 -38 6c-9.33301 0 -19 -1.33301 -29 -4c27.333 144.667 80 217 158 217c86.667 0 161.5 -39.5 224.5 -118.5s94.5 -163.5 94.5 -253.5c0 -119.333 -25.167 -219.333 -75.5 -300s-122.5 -121 -216.5 -121c-69.333 0 -123 23 -161 69
s-57 106.333 -57 181c0 83.333 33.333 191.333 100 324zM666 543c-16 -12.667 -33.335 -37.8359 -52.002 -75.5029s-28 -64.5 -28 -80.5c0 -57.333 11.833 -103.166 35.5 -137.499s55.834 -51.5 96.501 -51.5c28.667 0 56.167 9.33301 82.5 28s39.5 45.334 39.5 80.001
c0 58.667 -11.667 106.334 -35 143.001s-69.666 68 -138.999 94zM968.998 1077l-155 -157l-141 136l-153 -148l-154 154l156 156l139 -141l154 154z" />
    <glyph glyph-name="afii57418" unicode="&#x62a;" arabic-form="isolated" 
d="M843 554l113.001 295c71.333 -117.333 118.833 -208 142.5 -272s35.5 -125 35.5 -183c0 -60 -13.333 -122.833 -40 -188.5s-56.834 -114 -90.501 -145s-65.667 -48.833 -96 -53.5s-111.833 -7 -244.5 -7h-218c-290 -0 -435 85.333 -435 256c0 51.333 21.833 124 65.5 218
s83.167 141 118.5 141c24.667 0 37 -13.333 37 -40c0 -13.333 -11 -45 -33 -95c-21.333 -50 -32 -85.667 -32 -107c0 -98.667 104 -148 312 -148h311c134 0 201 17 201 51c0 86 -49 178.667 -147 278zM891.001 930l-155 -157l-141 136l-153 -148l-154 154l156 156l139 -141
l154 154z" />
    <glyph glyph-name="afii57419" unicode="&#x62b;" arabic-form="isolated" 
d="M843 554l113.001 295c71.333 -117.333 118.833 -208 142.5 -272s35.5 -125 35.5 -183c0 -60 -13.333 -122.833 -40 -188.5s-56.834 -114 -90.501 -145s-65.667 -48.833 -96 -53.5s-111.833 -7 -244.5 -7h-218c-290 -0 -435 85.333 -435 256c0 51.333 21.833 124 65.5 218
s83.167 141 118.5 141c24.667 0 37 -13.333 37 -40c0 -13.333 -11 -45 -33 -95c-21.333 -50 -32 -85.667 -32 -107c0 -98.667 104 -148 312 -148h311c134 0 201 17 201 51c0 86 -49 178.667 -147 278zM713.001 1326l-156 -154l-153 154l153 153zM853.001 1049l-154 -157
l-141 141l-154 -154l-153 154l156 156l138 -140l154 153z" />
    <glyph glyph-name="afii57420" unicode="&#x62c;" arabic-form="isolated" 
d="M1153 -408c-56.667 -61.333 -124.668 -110.331 -204.001 -146.998c-86 -39.333 -167 -59 -243 -59c-139.333 0 -255.666 46.667 -348.999 140c-90 89.333 -135 195.666 -135 318.999c0 181.333 151.333 343 454 485c-118 53.333 -189 80 -213 80
c-44.667 0 -89.167 -17.167 -133.5 -51.5s-65.5 -51.5 -63.5 -51.5c-25.333 0 -38 26 -38 78c0 68 37.667 128 113 180c72 49.333 150 74 234 74c12.667 0 77.834 -21.667 195.501 -65s208.5 -65 272.5 -65l65 3l-78 -238c-128 0 -228.667 -14 -302 -42
c-80 -30 -151 -72.333 -213 -127c-84.667 -74 -127 -152.667 -127 -236c0 -86.667 34 -157.334 102 -212.001c64 -52 143.333 -78 238 -78c155.333 0 304.666 50.667 447.999 152c7.33301 5.33301 19.333 8 36 8c4 -11.333 7.83301 -25 11.5 -41s-19.833 -51.333 -70.5 -106
zM922.999 -126.998l-153 -154l-154 154l154 153z" />
    <glyph glyph-name="afii57421" unicode="&#x62d;" arabic-form="isolated" 
d="M1153 -408c-56.667 -61.333 -124.668 -110.331 -204.001 -146.998c-86 -39.333 -167 -59 -243 -59c-139.333 0 -255.666 46.667 -348.999 140c-90 89.333 -135 195.666 -135 318.999c0 181.333 151.333 343 454 485c-118 53.333 -189 80 -213 80
c-44.667 0 -89.167 -17.167 -133.5 -51.5s-65.5 -51.5 -63.5 -51.5c-25.333 0 -38 26 -38 78c0 68 37.667 128 113 180c72 49.333 150 74 234 74c12.667 0 77.834 -21.667 195.501 -65s208.5 -65 272.5 -65l65 3l-78 -238c-128 0 -228.667 -14 -302 -42
c-80 -30 -151 -72.333 -213 -127c-84.667 -74 -127 -152.667 -127 -236c0 -86.667 34 -157.334 102 -212.001c64 -52 143.333 -78 238 -78c155.333 0 304.666 50.667 447.999 152c7.33301 5.33301 19.333 8 36 8c4 -11.333 7.83301 -25 11.5 -41s-19.833 -51.333 -70.5 -106
z" />
    <glyph glyph-name="afii57422" unicode="&#x62e;" arabic-form="isolated" 
d="M1153 -408c-56.667 -61.333 -124.668 -110.331 -204.001 -146.998c-86 -39.333 -167 -59 -243 -59c-139.333 0 -255.666 46.667 -348.999 140c-90 89.333 -135 195.666 -135 318.999c0 181.333 151.333 343 454 485c-118 53.333 -189 80 -213 80
c-44.667 0 -89.167 -17.167 -133.5 -51.5s-65.5 -51.5 -63.5 -51.5c-25.333 0 -38 26 -38 78c0 68 37.667 128 113 180c72 49.333 150 74 234 74c12.667 0 77.834 -21.667 195.501 -65s208.5 -65 272.5 -65l65 3l-78 -238c-128 0 -228.667 -14 -302 -42
c-80 -30 -151 -72.333 -213 -127c-84.667 -74 -127 -152.667 -127 -236c0 -86.667 34 -157.334 102 -212.001c64 -52 143.333 -78 238 -78c155.333 0 304.666 50.667 447.999 152c7.33301 5.33301 19.333 8 36 8c4 -11.333 7.83301 -25 11.5 -41s-19.833 -51.333 -70.5 -106
zM879.999 1091l-153 -154l-154 154l154 153z" />
    <glyph glyph-name="afii57423" unicode="&#x62f;" arabic-form="isolated" 
d="M611 678l28.001 244.998c119.333 -19.333 219.833 -92.666 301.5 -219.999s122.5 -247.333 122.5 -360c0 -124 -28.833 -214 -86.5 -270s-152.167 -84 -283.5 -84c-213.333 0 -320 67 -320 201c0 26.667 10 62.167 30 106.5s39 66.5 57 66.5
c19.333 0 30.666 -24.333 33.999 -73c1.33301 -25.333 15.333 -43.666 42 -54.999s79.667 -17 159 -17c163.333 0 245 18.667 245 56c0 80.667 -33.833 165.167 -101.5 253.5s-143.5 138.5 -227.5 150.5z" />
    <glyph glyph-name="afii57424" unicode="&#x630;" arabic-form="isolated" 
d="M611 678l28.001 244.998c119.333 -19.333 219.833 -92.666 301.5 -219.999s122.5 -247.333 122.5 -360c0 -124 -28.833 -214 -86.5 -270s-152.167 -84 -283.5 -84c-213.333 0 -320 67 -320 201c0 26.667 10 62.167 30 106.5s39 66.5 57 66.5
c19.333 0 30.666 -24.333 33.999 -73c1.33301 -25.333 15.333 -43.666 42 -54.999s79.667 -17 159 -17c163.333 0 245 18.667 245 56c0 80.667 -33.833 165.167 -101.5 253.5s-143.5 138.5 -227.5 150.5zM808.001 1241l-153 -154l-154 154l154 153z" />
    <glyph glyph-name="afii57425" unicode="&#x631;" arabic-form="isolated" 
d="M708 534l101.999 273c159.333 -153.333 239 -345.333 239 -576c0 -146.667 -44.167 -291.667 -132.5 -435s-198.166 -215 -329.499 -215c-56 0 -145.167 22.5 -267.5 67.5s-183.5 82.833 -183.5 113.5c0 21.333 16.667 32 50 32c21.333 0 51.333 -4.66699 90 -14
c38 -10 83.333 -15 136 -15c112 0 224.5 47.333 337.5 142s169.5 176 169.5 244c0 128 -70.333 255.667 -211 383z" />
    <glyph glyph-name="afii57426" unicode="&#x632;" arabic-form="isolated" 
d="M708 534l101.999 273c159.333 -153.333 239 -345.333 239 -576c0 -146.667 -44.167 -291.667 -132.5 -435s-198.166 -215 -329.499 -215c-56 0 -145.167 22.5 -267.5 67.5s-183.5 82.833 -183.5 113.5c0 21.333 16.667 32 50 32c21.333 0 51.333 -4.66699 90 -14
c38 -10 83.333 -15 136 -15c112 0 224.5 47.333 337.5 142s169.5 176 169.5 244c0 128 -70.333 255.667 -211 383zM888.999 1146l-153 -154l-154 154l154 153z" />
    <glyph glyph-name="afii57427" unicode="&#x633;" arabic-form="isolated" 
d="M784 58c-21.333 -40 -57.333 -59.9971 -108 -59.9971c-34.667 0 -62 11.333 -82 34c0 -117.333 -27.333 -214 -82 -290s-132.334 -114 -233.001 -114c-186 0 -279 152 -279 456c0 69.333 23.833 174.333 71.5 315s93.5 211 137.5 211c20 0 30 -18 30 -54
c0 -28.667 -20.667 -90 -62 -184c-36 -82 -54 -181 -54 -297c0 -68.667 15 -123.334 45 -164.001s71 -61 123 -61c76 0 126.667 17.333 152 52s38 82.667 38 144c0 84 -22 177 -66 279c24.667 122.667 41.334 227 50.001 313c68 -81.333 111.333 -217 130 -407
c16 -15.333 36 -23 60 -23c32 0 57.667 51.333 77 154c16.667 86.667 33.167 145 49.5 175s38.833 45 67.5 45s43 -31.667 43 -95c0 -18.667 -3.33301 -48.334 -10 -89.001s-10 -70.667 -10 -90c0 -62 26.667 -93 80 -93c23.333 0 43 9.5 59 28.5s24 41.833 24 68.5
c0 69.333 -30 169.666 -90 300.999l145 202c72 -121.333 108 -266 108 -434c0 -252.667 -97 -379 -291 -379c-57.333 0 -98.333 18.667 -123 56z" />
    <glyph glyph-name="afii57428" unicode="&#x634;" arabic-form="isolated" 
d="M784 58c-21.333 -40 -57.333 -59.9971 -108 -59.9971c-34.667 0 -62 11.333 -82 34c0 -117.333 -27.333 -214 -82 -290s-132.334 -114 -233.001 -114c-186 0 -279 152 -279 456c0 69.333 23.833 174.333 71.5 315s93.5 211 137.5 211c20 0 30 -18 30 -54
c0 -28.667 -20.667 -90 -62 -184c-36 -82 -54 -181 -54 -297c0 -68.667 15 -123.334 45 -164.001s71 -61 123 -61c76 0 126.667 17.333 152 52s38 82.667 38 144c0 84 -22 177 -66 279c24.667 122.667 41.334 227 50.001 313c68 -81.333 111.333 -217 130 -407
c16 -15.333 36 -23 60 -23c32 0 57.667 51.333 77 154c16.667 86.667 33.167 145 49.5 175s38.833 45 67.5 45s43 -31.667 43 -95c0 -18.667 -3.33301 -48.334 -10 -89.001s-10 -70.667 -10 -90c0 -62 26.667 -93 80 -93c23.333 0 43 9.5 59 28.5s24 41.833 24 68.5
c0 69.333 -30 169.666 -90 300.999l145 202c72 -121.333 108 -266 108 -434c0 -252.667 -97 -379 -291 -379c-57.333 0 -98.333 18.667 -123 56zM845 1255l-156 -154l-153 154l153 153zM985 978.003l-154 -157l-141 141l-154 -154l-153 154l156 156l138 -140l154 153z" />
    <glyph glyph-name="afii57429" unicode="&#x635;" arabic-form="isolated" 
d="M573 35c-30 -280.667 -131.999 -420.999 -305.999 -420.999c-98 0 -166.5 37.833 -205.5 113.5s-58.5 202.167 -58.5 379.5c0 94.667 24.333 202 73 322s91 180 127 180c26 0 39 -11.333 39 -34c0 -22 -21.333 -88.667 -64 -200c-38 -100 -57 -201 -57 -303
c0 -64.667 15.667 -118 47 -160s70.666 -63 117.999 -63c123.333 0 185 65.333 185 196c0 82 -19.667 173.333 -59 274l51 331c73.333 -206 111 -353.333 113 -442c15.333 0 28 0.666992 38 2c80.667 202.667 146.834 339.5 198.501 410.5s100.5 106.5 146.5 106.5
c140.667 0 211 -135.667 211 -407c0 -70.667 -10.167 -129.334 -30.5 -176.001s-53.333 -82.5 -99 -107.5s-136.834 -37.5 -273.501 -37.5c-94 0 -158.667 12 -194 36zM731.001 226.001c42 -6 110 -9 204 -9c40.667 0 67.667 7 81 21s20 36.333 20 67
c0 58 -12.5 104.667 -37.5 140s-55.167 53 -90.5 53c-56.667 0 -115.667 -90.667 -177 -272z" />
    <glyph glyph-name="afii57430" unicode="&#x636;" arabic-form="isolated" 
d="M573 35c-30 -280.667 -131.999 -420.999 -305.999 -420.999c-98 0 -166.5 37.833 -205.5 113.5s-58.5 202.167 -58.5 379.5c0 94.667 24.333 202 73 322s91 180 127 180c26 0 39 -11.333 39 -34c0 -22 -21.333 -88.667 -64 -200c-38 -100 -57 -201 -57 -303
c0 -64.667 15.667 -118 47 -160s70.666 -63 117.999 -63c123.333 0 185 65.333 185 196c0 82 -19.667 173.333 -59 274l51 331c73.333 -206 111 -353.333 113 -442c15.333 0 28 0.666992 38 2c80.667 202.667 146.834 339.5 198.501 410.5s100.5 106.5 146.5 106.5
c140.667 0 211 -135.667 211 -407c0 -70.667 -10.167 -129.334 -30.5 -176.001s-53.333 -82.5 -99 -107.5s-136.834 -37.5 -273.501 -37.5c-94 0 -158.667 12 -194 36zM731.001 226.001c42 -6 110 -9 204 -9c40.667 0 67.667 7 81 21s20 36.333 20 67
c0 58 -12.5 104.667 -37.5 140s-55.167 53 -90.5 53c-56.667 0 -115.667 -90.667 -177 -272zM939.001 1023l-153 -154l-154 154l154 153z" />
    <glyph glyph-name="afii57431" unicode="&#x637;" arabic-form="isolated" 
d="M0 225l220.999 0.000976562c63.333 60 95 139.667 95 239c0 337.333 -22.667 543.333 -68 618l126 205l173 -177c-52 -61.333 -78 -174.333 -78 -339l3 -138c0 -44.667 -10.333 -127.334 -31 -248.001c182.667 224 343.334 336 482.001 336
c172.667 0 259 -116.667 259 -350c0 -247.333 -170 -371 -510 -371l-456 1c-52.667 0 -98.5 22.667 -137.5 68s-65.167 97.333 -78.5 156zM455.999 225.001l393.002 0.000976562c116 0 174 34.333 174 103c0 51.333 -15.5 93.666 -46.5 126.999s-66.833 50 -107.5 50
c-24.667 0 -53.834 -8.16699 -87.501 -24.5s-62.834 -34 -87.501 -53s-104 -86.5 -238 -202.5z" />
    <glyph glyph-name="afii57432" unicode="&#x638;" arabic-form="isolated" 
d="M0 225l220.999 0.000976562c63.333 60 95 139.667 95 239c0 337.333 -22.667 543.333 -68 618l126 205l173 -177c-52 -61.333 -78 -174.333 -78 -339l3 -138c0 -44.667 -10.333 -127.334 -31 -248.001c182.667 224 343.334 336 482.001 336
c172.667 0 259 -116.667 259 -350c0 -247.333 -170 -371 -510 -371l-456 1c-52.667 0 -98.5 22.667 -137.5 68s-65.167 97.333 -78.5 156zM455.999 225.001l393.002 0.000976562c116 0 174 34.333 174 103c0 51.333 -15.5 93.666 -46.5 126.999s-66.833 50 -107.5 50
c-24.667 0 -53.834 -8.16699 -87.501 -24.5s-62.834 -34 -87.501 -53s-104 -86.5 -238 -202.5zM979.001 1026l-153 -154l-154 154l154 153z" />
    <glyph glyph-name="afii57433" unicode="&#x639;" arabic-form="isolated" 
d="M1218 -273c0 -37.333 -26.334 -84.002 -79.001 -140.002c-56.667 -60.667 -124.667 -109 -204 -145c-84.667 -37.333 -164.334 -56 -239.001 -56c-162.667 0 -293.334 42 -392.001 126c-86 73.333 -129 163 -129 269c0 54.667 33 127 99 217
c54.667 76 102.334 128.667 143.001 158c-71.333 44 -113.666 71.333 -126.999 82c-54 44 -81 88 -81 132c0 90.667 33.333 177.334 100 260.001c70 86 146.667 129 230 129c84.667 0 156.334 -20.333 215.001 -61c52.667 -35.333 79 -73 79 -113c0 -20 -9 -30 -27 -30
c-12 0 -40 6.33301 -84 19c-38.667 11.333 -75.667 17 -111 17c-43.333 0 -94.666 -15.667 -153.999 -47c-79.333 -41.333 -119 -83.666 -119 -126.999c0 -20.667 31.667 -39.667 95 -57c57.333 -16 111.666 -24 162.999 -24c63.333 0 164.666 30.333 303.999 91l-60 -251
c-111.333 -20 -206.333 -50.333 -285 -91c-116.667 -60.667 -175 -135 -175 -223c0 -74.667 37.667 -134 113 -178c64 -36.667 137.333 -55 220 -55c111.333 0 262.333 34 453 102c14.667 5.33301 26.334 8 35.001 8c11.333 0 17 -4 17 -12z" />
    <glyph glyph-name="afii57434" unicode="&#x63a;" arabic-form="isolated" 
d="M1218 -273c0 -37.333 -26.334 -84.002 -79.001 -140.002c-56.667 -60.667 -124.667 -109 -204 -145c-84.667 -37.333 -164.334 -56 -239.001 -56c-162.667 0 -293.334 42 -392.001 126c-86 73.333 -129 163 -129 269c0 54.667 33 127 99 217
c54.667 76 102.334 128.667 143.001 158c-71.333 44 -113.666 71.333 -126.999 82c-54 44 -81 88 -81 132c0 90.667 33.333 177.334 100 260.001c70 86 146.667 129 230 129c84.667 0 156.334 -20.333 215.001 -61c52.667 -35.333 79 -73 79 -113c0 -20 -9 -30 -27 -30
c-12 0 -40 6.33301 -84 19c-38.667 11.333 -75.667 17 -111 17c-43.333 0 -94.666 -15.667 -153.999 -47c-79.333 -41.333 -119 -83.666 -119 -126.999c0 -20.667 31.667 -39.667 95 -57c57.333 -16 111.666 -24 162.999 -24c63.333 0 164.666 30.333 303.999 91l-60 -251
c-111.333 -20 -206.333 -50.333 -285 -91c-116.667 -60.667 -175 -135 -175 -223c0 -74.667 37.667 -134 113 -178c64 -36.667 137.333 -55 220 -55c111.333 0 262.333 34 453 102c14.667 5.33301 26.334 8 35.001 8c11.333 0 17 -4 17 -12zM713.999 1158l-153 -154
l-154 154l154 153z" />
    <glyph glyph-name="afii57441" unicode="&#x641;" arabic-form="isolated" 
d="M1069 359c-38.667 -20 -83.333 -30.0029 -134 -30.0029c-54 0 -103.5 12.833 -148.5 38.5s-67.5 59.5 -67.5 101.5c0 88 25.5 183.667 76.5 287s110.5 155 178.5 155c69.333 0 127 -52.667 173 -158s69 -206.666 69 -303.999c0 -104 -12.333 -189.667 -37 -257
s-66.667 -116.166 -126 -146.499s-178 -45.5 -356 -45.5h-191c-126 0 -223.333 8.5 -292 25.5s-120.667 45.5 -156 85.5s-53 91.667 -53 155c0 54.667 19 126.667 57 216s78.333 134 121 134c25.333 0 38 -10.667 38 -32c0 -14 -11.667 -46.667 -35 -98
s-35 -89.666 -35 -114.999c0 -46.667 23.333 -82.667 70 -108s152.667 -38 318 -38h184c139.333 0 229.5 6.33301 270.5 19s66.167 51 75.5 115zM1028 545.997c-4 37.333 -14.499 73 -31.499 107s-34.5 51 -52.5 51c-22 0 -41.333 -19.667 -58 -59s-25 -75 -25 -107
c0 -18.667 20.333 -28 61 -28c37.333 0 72.666 12 105.999 36zM1060 1200l-153 -154l-154 154l154 153z" />
    <glyph glyph-name="afii57442" unicode="&#x642;" arabic-form="isolated" 
d="M1192 1072l-154 -157l-140 141l-154 -153l-154 153l156 156l139 -140l154 154zM1039 160c-22.667 -5.33301 -56.3311 -7.99707 -100.998 -7.99707c-148 0 -222 44.333 -222 133s23.667 187 71 295s104.666 162 171.999 162c79.333 0 139.166 -56.333 179.499 -169
s60.5 -265.334 60.5 -458.001c0 -156.667 -53.167 -279 -159.5 -367s-246.5 -132 -420.5 -132c-184 0 -315 33.667 -393 101s-117 169.666 -117 306.999c0 54 20.5 130.167 61.5 228.5s78.833 147.5 113.5 147.5c22 0 33 -14.667 33 -44c0 -34 -8.66699 -83 -26 -147
c-17.333 -64.667 -26 -113 -26 -145c0 -140 113 -210 339 -210c294 0 441 81.667 441 245c0 19.333 -2 39.666 -6 60.999zM1019 349.003c-13.333 124.667 -41.333 187 -84 187c-22 0 -41.333 -19.667 -58 -59s-25 -75 -25 -107c0 -22 27.667 -33 83 -33c30 0 58 4 84 12z
" />
    <glyph glyph-name="afii57443" unicode="&#x643;" arabic-form="isolated" 
d="M1146 1137c-32.667 -55.333 -49.001 -116.667 -49.001 -184c0 -66 3.33301 -165 10 -297c7.33301 -132 11 -231 11 -297c0 -88 -13.5 -160.5 -40.5 -217.5s-71.667 -100.833 -134 -131.5s-193.5 -46 -393.5 -46c-224.667 0 -371.167 23.5 -439.5 70.5
s-102.5 114.167 -102.5 201.5c0 36.667 10.333 80.5 31 131.5s41.667 76.5 63 76.5c22.667 0 34 -11.667 34 -35c0 -6 -1.33301 -17.333 -4 -34c-2 -16.667 -3 -28.667 -3 -36c0 -45.333 28.833 -80.166 86.5 -104.499s188.5 -36.5 392.5 -36.5
c250.667 0 376 34.333 376 103c0 116 -12.833 262.667 -38.5 440s-57.167 291.666 -94.5 342.999c20 45.333 59.667 117.333 119 216c46.667 -58 105.334 -112.333 176.001 -163zM583.999 887.999c-6 -52 -19.001 -87.3359 -39.001 -106.003c-8 8.66699 -19.333 13 -34 13
c-12.667 0 -26.5 -4.33301 -41.5 -13s-22.5 -18.667 -22.5 -30c0 -8 15 -14 45 -18c58 -6.66699 94.333 -18.167 109 -34.5s22 -35.166 22 -56.499c0 -28 -12 -63.333 -36 -106s-63.333 -64 -118 -64c-23.333 0 -54.333 3.83301 -93 11.5s-58 16.834 -58 27.501
c0 11.333 36.667 25 110 41c74 16 111 28.333 111 37c0 2 -27 8 -81 18s-81 33.333 -81 70c0 34.667 16.5 82.334 49.5 143.001s66.833 91 101.5 91c26.667 0 45.334 -8 56.001 -24z" />
    <glyph glyph-name="afii57444" unicode="&#x644;" arabic-form="isolated" 
d="M1124 1126c-52 -76 -78.002 -129.002 -78.002 -159.002c0 -81.333 8 -203.666 24 -366.999c16.667 -162.667 25 -284.667 25 -366c0 -143.333 -44.167 -250.833 -132.5 -322.5s-242.166 -107.5 -461.499 -107.5c-104.667 0 -191.334 24.333 -260.001 73
s-103 118.334 -103 209.001c0 48.667 17.5 120.334 52.5 215.001s69.5 142 103.5 142c26.667 0 40 -13.333 40 -40c0 -17.333 -9 -51 -27 -101c-17.333 -50.667 -26 -87.334 -26 -110.001c0 -42.667 19.333 -78.5 58 -107.5s85.334 -43.5 140.001 -43.5
c322.667 0 484 45 484 135c0 120.667 -17.167 292 -51.5 514s-69.5 346.667 -105.5 374c32.667 70 74.334 149.333 125.001 238c68 -76 132.333 -134.667 193 -176z" />
    <glyph glyph-name="afii57445" unicode="&#x645;" arabic-form="isolated" 
d="M1229 190v-190.002c-148 32 -291.667 48 -431 48c-94.667 0 -159.834 -6.16699 -195.501 -18.5s-53.5 -34.166 -53.5 -65.499c0 -34 10 -88.333 30 -163c40.667 -151.333 61 -235.666 61 -252.999l-152 -162c0 32 -30.667 153.667 -92 365
c-33.333 115.333 -50 191.333 -50 228c0 94 42.333 167.333 127 220c-46.667 98.667 -70 165 -70 199c0 95.333 28.833 169.5 86.5 222.5s136.834 79.5 237.501 79.5c75.333 0 178.333 -68.333 309 -205c128.667 -134 193 -235.667 193 -305zM1052 235.998
c-128.667 183.333 -235 275 -319 275c-47.333 0 -87.5 -14.667 -120.5 -44s-49.5 -66.333 -49.5 -111c0 -42.667 9 -85 27 -127c76.667 17.333 155.334 26 236.001 26c97.333 0 172.666 -6.33301 225.999 -19z" />
    <glyph glyph-name="afii57446" unicode="&#x646;" arabic-form="isolated" 
d="M834 957l-152 -155l-154 154l154 153zM852 397l113 352.001c47.333 -88.667 85 -186.334 113 -293.001s42 -194.334 42 -263.001c0 -188 -48.833 -333 -146.5 -435s-237.167 -153 -418.5 -153c-84 0 -158.5 17 -223.5 51s-115.167 78.833 -150.5 134.5
s-53 120.834 -53 195.501c0 87.333 26.667 202.333 80 345s111 214 173 214c25.333 0 38 -13.667 38 -41c0 -11.333 -19.667 -68 -59 -170c-38.667 -101.333 -58 -190.333 -58 -267c0 -55.333 28 -105.5 84 -150.5s116 -67.5 180 -67.5c104.667 0 198.167 17.5 280.5 52.5
s123.5 85.167 123.5 150.5c0 102.667 -39.333 217.667 -118 345z" />
    <glyph glyph-name="afii57447" unicode="&#x647;" arabic-form="isolated" 
d="M561 574c-19.333 4 -32 6 -38 6c-9.33301 0 -19 -1.33301 -29 -4c27.333 144.667 80 217 158 217c86.667 0 161.5 -39.5 224.5 -118.5s94.5 -163.5 94.5 -253.5c0 -119.333 -25.167 -219.333 -75.5 -300s-122.5 -121 -216.5 -121c-69.333 0 -123 23 -161 69
s-57 106.333 -57 181c0 83.333 33.333 191.333 100 324zM666 543c-16 -12.667 -33.335 -37.8359 -52.002 -75.5029s-28 -64.5 -28 -80.5c0 -57.333 11.833 -103.166 35.5 -137.499s55.834 -51.5 96.501 -51.5c28.667 0 56.167 9.33301 82.5 28s39.5 45.334 39.5 80.001
c0 58.667 -11.667 106.334 -35 143.001s-69.666 68 -138.999 94z" />
    <glyph glyph-name="afii57448" unicode="&#x648;" arabic-form="isolated" 
d="M877 11c-19.333 -3.33301 -41.001 -4.99902 -65.001 -4.99902c-102.667 0 -170.667 14.833 -204 44.5s-50 74.5 -50 134.5c0 86 25.333 189.167 76 309.5s110.334 180.5 179.001 180.5c70 0 124.333 -49.667 163 -149s58 -226.333 58 -381
c0 -134.667 -40.333 -259.167 -121 -373.5s-183 -171.5 -307 -171.5c-42.667 0 -121.167 19.5 -235.5 58.5s-171.5 73.167 -171.5 102.5c0 13.333 4.66699 21.666 14 24.999s24.333 5 45 5c15.333 0 38.333 -3.33301 69 -10c30 -7.33301 66 -11 108 -11
c77.333 0 167.833 24.833 271.5 74.5s160.5 105.167 170.5 166.5zM871.999 215.001c0 52.667 -6.5 107.333 -19.5 164s-30.5 85 -52.5 85c-18.667 0 -37 -23 -55 -69s-27 -84.667 -27 -116s5.33301 -50.833 16 -58.5s37.667 -11.5 81 -11.5c24 0 43 2 57 6z" />
    <glyph glyph-name="afii57449" unicode="&#x649;" arabic-form="isolated" 
d="M987 504c-30.667 34 -63.333 50.999 -98 50.999c-30 0 -76 -17.167 -138 -51.5s-93 -58.833 -93 -73.5c0 -10 40.333 -20.333 121 -31c109.333 -14.667 181.5 -39.167 216.5 -73.5s52.5 -78.833 52.5 -133.5c0 -44 -21.667 -110 -65 -198s-113.833 -149.5 -211.5 -184.5
s-191.5 -52.5 -281.5 -52.5c-290 0 -435 111.333 -435 334c0 40.667 22.167 117.5 66.5 230.5s81.5 169.5 111.5 169.5c16.667 0 28.167 -2.5 34.5 -7.5s9.5 -17.833 9.5 -38.5c0 -21.333 -11.333 -62.666 -34 -123.999c-22 -61.333 -33 -107.666 -33 -138.999
c0 -64.667 22.833 -112.334 68.5 -143.001s124.5 -46 236.5 -46c104.667 0 197.834 10.5 279.501 31.5s122.5 50.833 122.5 89.5c0 15.333 -7.33301 26.666 -22 33.999s-54 15.333 -118 24c-79.333 11.333 -138.333 27.833 -177 49.5s-58 55.834 -58 102.501
c0 102 40.667 201.833 122 299.5s172 146.5 272 146.5c31.333 0 59.666 -9.83301 84.999 -29.5s38 -46.167 38 -79.5c0 -72.667 -24 -125 -72 -157z" />
    <glyph glyph-name="afii57450" unicode="&#x64a;" arabic-form="isolated" 
d="M987 504c-30.667 34 -63.333 50.999 -98 50.999c-30 0 -76 -17.167 -138 -51.5s-93 -58.833 -93 -73.5c0 -10 40.333 -20.333 121 -31c109.333 -14.667 181.5 -39.167 216.5 -73.5s52.5 -78.833 52.5 -133.5c0 -44 -21.667 -110 -65 -198s-113.833 -149.5 -211.5 -184.5
s-191.5 -52.5 -281.5 -52.5c-290 0 -435 111.333 -435 334c0 40.667 22.167 117.5 66.5 230.5s81.5 169.5 111.5 169.5c16.667 0 28.167 -2.5 34.5 -7.5s9.5 -17.833 9.5 -38.5c0 -21.333 -11.333 -62.666 -34 -123.999c-22 -61.333 -33 -107.666 -33 -138.999
c0 -64.667 22.833 -112.334 68.5 -143.001s124.5 -46 236.5 -46c104.667 0 197.834 10.5 279.501 31.5s122.5 50.833 122.5 89.5c0 15.333 -7.33301 26.666 -22 33.999s-54 15.333 -118 24c-79.333 11.333 -138.333 27.833 -177 49.5s-58 55.834 -58 102.501
c0 102 40.667 201.833 122 299.5s172 146.5 272 146.5c31.333 0 59.666 -9.83301 84.999 -29.5s38 -46.167 38 -79.5c0 -72.667 -24 -125 -72 -157zM805.001 -479.001l-119 -123l-120 96l-121 -103l-119 119l123 121l105 -116l125 113z" />
    <glyph glyph-name="glyph1105" unicode="&#x66e;" 
d="M1229 225l0.000976562 -224.999c-123.333 0 -200.333 58.667 -231 176c-10.667 -32.667 -32.334 -65 -65.001 -97s-65 -53 -97 -63s-77.667 -15 -137 -15h-264c-290 0 -435 85 -435 255c-0 51.333 21.833 124 65.5 218s83.167 141 118.5 141c24.667 0 37 -13.333 37 -40
c0 -13.333 -11 -45 -33 -95c-21.333 -50 -32 -85.667 -32 -107c0 -98.667 104 -148 312 -148h295c94.667 0 142 29 142 87c0 96.667 -22.333 190.667 -67 282l130 219c59.333 -196.667 89.333 -333.334 90 -410.001s16.667 -125.5 48 -146.5s72.333 -31.5 123 -31.5z" />
    <glyph glyph-name="glyph1110" unicode="&#x66f;" 
d="M0 0v225.003h783c68 0 120.167 2.66699 156.5 8s66.166 18.333 89.499 39s35 48.667 35 84c-55.333 -22.667 -99 -34 -131 -34c-51.333 0 -101.166 12.167 -149.499 36.5s-72.5 57.166 -72.5 98.499c0 87.333 26 183.666 78 288.999s112.333 158 181 158
c69.333 0 127 -52.833 173 -158.5s69 -207.167 69 -304.5c0 -168.667 -29.5 -284.334 -88.5 -347.001s-173.5 -94 -343.5 -94h-780zM1020 540.003c-4 37.333 -14.333 73 -31 107s-34 51 -52 51c-22 0 -41.5 -19.833 -58.5 -59.5s-25.5 -75.167 -25.5 -106.5
c0 -18.667 20.667 -28 62 -28c30.667 0 65.667 12 105 36z" />
    <glyph glyph-name="glyph1471" unicode="&#x66f;" 
d="M1229 0l-55.001 0.000976562c-16.667 -109.333 -81.5 -196.166 -194.5 -260.499s-235.167 -96.5 -366.5 -96.5c-100 0 -185.333 15.167 -256 45.5s-124 73.666 -160 129.999s-54 125.833 -54 208.5c0 50 18.333 122.667 55 218s70 143 100 143c24.667 0 37 -17 37 -51
c0 -28 -8 -69 -24 -123c-16 -54.667 -24 -95 -24 -121c0 -67.333 28.333 -119.833 85 -157.5s132.334 -56.5 227.001 -56.5h34c92.667 0 170.167 4.83301 232.5 14.5s106.333 22.167 132 37.5s40 26.666 43 33.999s4.5 19 4.5 35c-228.667 0 -343 52 -343 156
c0 90.667 25.667 198.667 77 324s110 188 176 188c65.333 0 116.833 -39.667 154.5 -119s59.167 -187.333 64.5 -324h55v-225zM1030 225.001c0 54.667 -7.66895 107.668 -23.002 159.001s-36.666 77 -63.999 77c-23.333 0 -43.166 -23.833 -59.499 -71.5
s-24.5 -89.834 -24.5 -126.501c0 -29.333 32 -44 96 -44c24.667 0 49.667 2 75 6z" />
    <glyph glyph-name="afii57460" unicode="&#x671;" arabic-form="isolated" 
d="M516 1482c82 128.667 152.334 193 211.001 193c22 0 40.833 -12.167 56.5 -36.5s23.5 -52.833 23.5 -85.5c0 -78 -20.833 -128.333 -62.5 -151s-136.5 -34 -284.5 -34c-16 0 -32 -18.667 -48 -56c-6.66699 -16.667 -14.334 -25 -23.001 -25c-18 0 -27 20 -27 60
c0 88.667 51.333 133.667 154 135zM567.001 1482c94 0 149.167 1.33301 165.5 4s24.5 12.667 24.5 30c0 43.333 -17.333 65 -52 65c-38 0 -84 -33 -138 -99zM480.001 1056l201 228c-4.66699 -102 -7 -220 -7 -354c0 -49.333 3.33301 -139.333 10 -270s10 -225.667 10 -285
c0 -97.333 -17.5 -190.833 -52.5 -280.5s-70.167 -134.5 -105.5 -134.5c-7.33301 0 -11 55.333 -11 166c0 90 -7.66699 245.667 -23 467c-14.667 212 -22 366.333 -22 463z" />
    <glyph glyph-name="glyph1325" unicode="&#x672;" 
d="M1229 0l-425.999 0.00195312c-93.333 0 -160 7.83301 -200 23.5s-70 53.5 -90 113.5s-30 143.333 -30 250c0 45.333 2 105.666 6 180.999s6 123.333 6 144c0 143.333 -12 267.666 -36 372.999l157 205c40.667 -142.667 61 -294 61 -454c0 -48 -2.33301 -124 -7 -228
s-7 -187 -7 -249c0 -52.667 3.66699 -88.167 11 -106.5s24.666 -27.5 51.999 -27.5h503v-225zM766.001 1397l-244.997 -104.999c-40.667 -17.333 -66.667 -26 -78 -26c-6.66699 0 -17.834 7.83301 -33.501 23.5s-27.167 23.5 -34.5 23.5c-16.667 0 -43 -15.667 -79 -47
l12 53c36 59.333 63.333 89 82 89c12 0 26.333 -9.66699 43 -29s28.667 -29 36 -29c23.333 0 48.666 17.333 75.999 52c-63.333 20 -95 53.667 -95 101c0 43.333 14 84.666 42 123.999c30.667 44 66.667 66 108 66c67.333 0 101 -29.667 101 -89
c0 -16 -6.66699 -37.667 -20 -65c-54 39.333 -96.333 59 -127 59c-21.333 0 -32 -9.66699 -32 -29c0 -26 15.333 -48 46 -66c27.333 -16 54.666 -24 81.999 -24c33.333 0 72 10.667 116 32v-114z" />
    <glyph glyph-name="glyph1327" unicode="&#x673;" 
d="M1229 0l-425.999 0.00195312c-93.333 0 -160 7.83301 -200 23.5s-70 53.5 -90 113.5s-30 143.333 -30 250c0 45.333 2 105.666 6 180.999s6 123.333 6 144c0 143.333 -12 267.666 -36 372.999l157 205c40.667 -142.667 61 -294 61 -454c0 -48 -2.33301 -124 -7 -228
s-7 -187 -7 -249c0 -52.667 3.66699 -88.167 11 -106.5s24.666 -27.5 51.999 -27.5h503v-225zM766.001 -475.998l-244.997 -104.999c-40.667 -17.333 -66.667 -26 -78 -26c-6.66699 0 -17.834 7.83301 -33.501 23.5s-27.167 23.5 -34.5 23.5c-16.667 0 -43 -15.667 -79 -47
l12 53c36 59.333 63.333 89 82 89c12 0 26.333 -9.66699 43 -29s28.667 -29 36 -29c23.333 0 48.666 17.333 75.999 52c-63.333 20 -95 53.667 -95 101c0 43.333 14 84.666 42 123.999c30.667 44 66.667 66 108 66c67.333 0 101 -29.667 101 -89
c0 -16 -6.66699 -37.667 -20 -65c-54 39.333 -96.333 59 -127 59c-21.333 0 -32 -9.66699 -32 -29c0 -26 15.333 -48 46 -66c27.333 -16 54.666 -24 81.999 -24c33.333 0 72 10.667 116 32v-114z" />
    <glyph glyph-name="glyph1329" unicode="&#x675;" 
d="M1229 0l-425.999 0.00195312c-93.333 0 -160 7.83301 -200 23.5s-70 53.5 -90 113.5s-30 143.333 -30 250c0 45.333 2 105.666 6 180.999s6 123.333 6 144c0 143.333 -12 267.666 -36 372.999l157 205c40.667 -142.667 61 -294 61 -454c0 -48 -2.33301 -124 -7 -228
s-7 -187 -7 -249c0 -52.667 3.66699 -88.167 11 -106.5s24.666 -27.5 51.999 -27.5h503v-225zM818.001 971.002l12.999 72c34 22.667 58.667 44 74 64c-63.333 20 -95 53.667 -95 101c0 44 14.833 86.667 44.5 128s64.834 62 105.501 62c67.333 0 101 -29.667 101 -89
c0 -16 -6.66699 -37.667 -20 -65c-54 39.333 -96.333 59 -127 59c-21.333 0 -32 -9.66699 -32 -29c0 -24 13.833 -45 41.5 -63s56.5 -27 86.5 -27c33.333 0 72 10.667 116 32v-114z" />
    <glyph glyph-name="glyph1331" unicode="&#x676;" 
d="M1229 225l0.00195312 -224.999h-210c-28.667 -118 -79.5 -214.167 -152.5 -288.5s-158.5 -111.5 -256.5 -111.5c-40.667 0 -118.667 19.333 -234 58s-173 71.667 -173 99c0 22.667 19.667 34 59 34c12 0 34.667 -3.33301 68 -10c33.333 -7.33301 69.666 -11 108.999 -11
c75.333 0 165.5 25 270.5 75s161.833 104 170.5 162c-38 -4 -59.667 -6 -65 -6c-97.333 0 -163.833 15.333 -199.5 46s-53.5 76.667 -53.5 138c0 88 25.333 194.167 76 318.5s110 186.5 178 186.5c62.667 0 113.167 -42.333 151.5 -127s61.166 -197.334 68.499 -338.001h193
zM876.002 231.001c0 52.667 -6.5 107.333 -19.5 164s-30.5 85 -52.5 85c-16.667 0 -34.5 -21.833 -53.5 -65.5s-28.5 -83.167 -28.5 -118.5c0 -31.333 5.5 -51 16.5 -59s37.833 -12 80.5 -12c22 0 41 2 57 6zM823.002 818l12.999 72c34 22.667 58.667 44 74 64
c-63.333 20 -95 53.667 -95 101c0 44 14.833 86.667 44.5 128s64.834 62 105.501 62c67.333 0 101 -29.667 101 -89c0 -16 -6.66699 -37.667 -20 -65c-54 39.333 -96.333 59 -127 59c-21.333 0 -32 -9.66699 -32 -29c0 -24 13.833 -45 41.5 -63s56.5 -27 86.5 -27
c33.333 0 72 10.667 116 32v-114z" />
    <glyph glyph-name="uni0677" unicode="&#x677;" arabic-form="isolated" 
d="M877 11c-19.333 -3.33301 -41.001 -4.99902 -65.001 -4.99902c-102.667 0 -170.667 14.833 -204 44.5s-50 74.5 -50 134.5c0 86 25.333 189.167 76 309.5s110.334 180.5 179.001 180.5c70 0 124.333 -49.667 163 -149s58 -226.333 58 -381
c0 -134.667 -40.333 -259.167 -121 -373.5s-183 -171.5 -307 -171.5c-42.667 0 -121.167 19.5 -235.5 58.5s-171.5 73.167 -171.5 102.5c0 13.333 4.66699 21.666 14 24.999s24.333 5 45 5c15.333 0 38.333 -3.33301 69 -10c30 -7.33301 66 -11 108 -11
c77.333 0 167.833 24.833 271.5 74.5s160.5 105.167 170.5 166.5zM871.999 215.001c0 52.667 -6.5 107.333 -19.5 164s-30.5 85 -52.5 85c-18.667 0 -37 -23 -55 -69s-27 -84.667 -27 -116s5.33301 -50.833 16 -58.5s37.667 -11.5 81 -11.5c24 0 43 2 57 6zM822.999 818
l12.999 72c34 22.667 58.667 44 74 64c-63.333 20 -95 53.667 -95 101c0 44 14.833 86.667 44.5 128s64.834 62 105.501 62c67.333 0 101 -29.667 101 -89c0 -16 -6.66699 -37.667 -20 -65c-54 39.333 -96.333 59 -127 59c-21.333 0 -32 -9.66699 -32 -29
c0 -24 13.833 -45 41.5 -63s56.5 -27 86.5 -27c33.333 0 72 10.667 116 32v-114zM560.998 950c-85.333 -96 -153.333 -144 -204 -144c-12 0 -26.333 4 -43 12s-25 17 -25 27c0 5.33301 5.33301 10.333 16 15c82 32.667 148.667 72.667 200 120
c-61.333 44.667 -92 83 -92 115c0 32.667 15.667 69.834 47 111.501s67.333 62.5 108 62.5c29.333 0 53 -10.833 71 -32.5s27 -49.167 27 -82.5c0 -34.667 -12 -72 -36 -112c33.333 -12.667 50 -34.334 50 -65.001v-59c-32 0 -71.667 10.667 -119 32zM576.998 1063
c10 12 15 30 15 54c0 47.333 -23 71 -69 71c-20.667 0 -31 -16 -31 -48c0 -27.333 28.333 -53 85 -77z" />
    <glyph glyph-name="glyph1335" unicode="&#x678;" 
d="M1229 0c-44.667 0 -89.332 2.00293 -133.999 6.00293s-86.334 6 -125.001 6c-107.333 0 -169.333 -3.33301 -186 -10c4 -14 40.667 -27.333 110 -40c110.667 -20.667 166 -57 166 -109c0 -130.667 -57.167 -234 -171.5 -310s-246.833 -114 -397.5 -114
c-286.667 0 -430 133.333 -430 400c0 40 23.5 112.5 70.5 217.5s87.167 157.5 120.5 157.5c15.333 0 25.833 -3.33301 31.5 -10s8.5 -19.667 8.5 -39c0 -18.667 -13.333 -56.334 -40 -113.001s-40 -102.667 -40 -138c0 -151.333 105.333 -227 316 -227
c82 0 166.667 6.66699 254 20s131 31 131 53c0 15.333 -38.667 29.666 -116 42.999c-100.667 17.333 -151 55.666 -151 114.999c0 95.333 33 172 99 230s148 87 246 87h238v-225zM898.002 457.003l12.999 72c34 22.667 58.667 44 74 64c-63.333 20 -95 53.667 -95 101
c0 44 14.833 86.667 44.5 128s64.834 62 105.501 62c67.333 0 101 -29.667 101 -89c0 -16 -6.66699 -37.667 -20 -65c-54 39.333 -96.333 59 -127 59c-21.333 0 -32 -9.66699 -32 -29c0 -24 13.833 -45 41.5 -63s56.5 -27 86.5 -27c33.333 0 72 10.667 116 32v-114z" />
    <glyph glyph-name="uni0679;" unicode="&#x679;" arabic-form="isolated" 
d="M843 554l113.001 295c71.333 -117.333 118.833 -208 142.5 -272s35.5 -125 35.5 -183c0 -60 -13.333 -122.833 -40 -188.5s-56.834 -114 -90.501 -145s-65.667 -48.833 -96 -53.5s-111.833 -7 -244.5 -7h-218c-290 -0 -435 85.333 -435 256c0 51.333 21.833 124 65.5 218
s83.167 141 118.5 141c24.667 0 37 -13.333 37 -40c0 -13.333 -11 -45 -33 -95c-21.333 -50 -32 -85.667 -32 -107c0 -98.667 104 -148 312 -148h311c134 0 201 17 201 51c0 86 -49 178.667 -147 278zM890.001 1130c0 -125.333 -86.002 -187.999 -258.002 -187.999h-231
c-55.333 0 -91.666 38 -108.999 114h112c32 30 48 70.333 48 121c0 169.333 -11.667 273.333 -35 312l64 104l88 -90c-28.667 -33.333 -42 -90.333 -40 -171l2 -70c0.666992 -18.667 -4.66602 -60.334 -15.999 -125.001c92.667 113.333 174 170 244 170
c87.333 0 131 -59 131 -177zM809.999 1108c0 23.333 -7.33203 44 -21.999 62s-33.334 27 -56.001 27c-25.333 0 -55 -13 -89 -39c-13.333 -10 -53.333 -44 -120 -102h199c58.667 0 88 17.333 88 52z" />
    <glyph glyph-name="uni067A" unicode="&#x67a;" arabic-form="isolated" 
d="M843 554l113.001 295c71.333 -117.333 118.833 -208 142.5 -272s35.5 -125 35.5 -183c0 -60 -13.333 -122.833 -40 -188.5s-56.834 -114 -90.501 -145s-65.667 -48.833 -96 -53.5s-111.833 -7 -244.5 -7h-218c-290 -0 -435 85.333 -435 256c0 51.333 21.833 124 65.5 218
s83.167 141 118.5 141c24.667 0 37 -13.333 37 -40c0 -13.333 -11 -45 -33 -95c-21.333 -50 -32 -85.667 -32 -107c0 -98.667 104 -148 312 -148h311c134 0 201 17 201 51c0 86 -49 178.667 -147 278zM708.001 871l-111 -110l-109 110l99 100l-107 109l109 110l111 -110
l-102 -101z" />
    <glyph glyph-name="uni067B" unicode="&#x67b;" arabic-form="isolated" 
d="M843 554l113.001 295c71.333 -117.333 118.833 -208 142.5 -272s35.5 -125 35.5 -183c0 -60 -13.333 -122.833 -40 -188.5s-56.834 -114 -90.501 -145s-65.667 -48.833 -96 -53.5s-111.833 -7 -244.5 -7h-218c-290 -0 -435 85.333 -435 256c0 51.333 21.833 124 65.5 218
s83.167 141 118.5 141c24.667 0 37 -13.333 37 -40c0 -13.333 -11 -45 -33 -95c-21.333 -50 -32 -85.667 -32 -107c0 -98.667 104 -148 312 -148h311c134 0 201 17 201 51c0 86 -49 178.667 -147 278zM708.001 -504l-111 -110l-109 110l99 100l-107 109l109 110l111 -110
l-102 -101z" />
    <glyph glyph-name="glyph1350" unicode="&#x67c;" 
d="M0 0l-0.000976562 224.999h860c20.667 0 46.834 4.83301 78.501 14.5s47.5 20.834 47.5 33.501c0 105.333 -37.667 199.333 -113 282l117 289c68.667 -102.667 115.167 -186.667 139.5 -252s36.5 -137 36.5 -215c0 -72 -26 -152.833 -78 -242.5
s-113.667 -134.5 -185 -134.5h-903zM1219 1123l-155 -157l-141 136l-153 -148l-154 154l156 156l139 -141l154 154zM808.999 -103.001c0 52.667 13.832 97.832 41.499 135.499s64.834 56.5 111.501 56.5c41.333 0 74.5 -15.667 99.5 -47s37.5 -69.666 37.5 -114.999
s-18 -85 -54 -119s-76.667 -51 -122 -51c-36 0 -64 14.167 -84 42.5s-30 60.833 -30 97.5zM872.998 -73.0029c0 -38.667 26.334 -58 79.001 -58c45.333 0 68 11.667 68 35c0 22 -11.833 43.5 -35.5 64.5s-46.834 31.5 -69.501 31.5c-28 0 -42 -24.333 -42 -73z" />
    <glyph glyph-name="glyph1351" unicode="&#x67c;" 
d="M1229 0l-80.998 0.000976562c-124 0 -209.333 12.833 -256 38.5s-88.667 76.5 -126 152.5c-74.667 -127.333 -149 -191 -223 -191h-543v225h532c80 0 120 34.667 120 104c0 65.333 -22 150.333 -66 255l153 269c56 -176.667 90.333 -327.334 103 -452.001
c4 -41.333 10.333 -70.5 19 -87.5s20.667 -31.5 36 -43.5s33.666 -21.667 54.999 -29s40.166 -11.833 56.499 -13.5s89.833 -2.5 220.5 -2.5v-225zM931.002 1104l-155 -157l-141 136l-153 -148l-154 154l156 156l139 -141l154 154zM429.002 -102.999
c0 52.667 13.832 97.832 41.499 135.499s64.834 56.5 111.501 56.5c41.333 0 74.5 -15.667 99.5 -47s37.5 -69.666 37.5 -114.999s-18 -85 -54 -119s-76.667 -51 -122 -51c-36 0 -64 14.167 -84 42.5s-30 60.833 -30 97.5zM493.001 -73.001c0 -38.667 26.334 -58 79.001 -58
c45.333 0 68 11.667 68 35c0 22 -11.833 43.5 -35.5 64.5s-46.834 31.5 -69.501 31.5c-28 0 -42 -24.333 -42 -73z" />
    <glyph glyph-name="glyph1349" unicode="&#x67c;" 
d="M1229 225l0.000976562 -224.999c-123.333 0 -200.333 58.667 -231 176c-10.667 -32.667 -32.334 -65 -65.001 -97s-65 -53 -97 -63s-77.667 -15 -137 -15h-264c-290 0 -435 85 -435 255c-0 51.333 21.833 124 65.5 218s83.167 141 118.5 141c24.667 0 37 -13.333 37 -40
c0 -13.333 -11 -45 -33 -95c-21.333 -50 -32 -85.667 -32 -107c0 -98.667 104 -148 312 -148h295c94.667 0 142 29 142 87c0 96.667 -22.333 190.667 -67 282l130 219c59.333 -196.667 89.333 -333.334 90 -410.001s16.667 -125.5 48 -146.5s72.333 -31.5 123 -31.5z
M816.001 930.001l-155 -157l-141 136l-153 -148l-154 154l156 156l139 -141l154 154zM469.001 -102.999c0 52.667 13.832 97.832 41.499 135.499s64.834 56.5 111.501 56.5c41.333 0 74.5 -15.667 99.5 -47s37.5 -69.666 37.5 -114.999s-18 -85 -54 -119
s-76.667 -51 -122 -51c-36 0 -64 14.167 -84 42.5s-30 60.833 -30 97.5zM533 -73.001c0 -38.667 26.334 -58 79.001 -58c45.333 0 68 11.667 68 35c0 22 -11.833 43.5 -35.5 64.5s-46.834 31.5 -69.501 31.5c-28 0 -42 -24.333 -42 -73z" />
    <glyph glyph-name="glyph1354" unicode="&#x67d;" 
d="M0 0l-0.000976562 224.999h860c20.667 0 46.834 4.83301 78.501 14.5s47.5 20.834 47.5 33.501c0 105.333 -37.667 199.333 -113 282l117 289c68.667 -102.667 115.167 -186.667 139.5 -252s36.5 -137 36.5 -215c0 -72 -26 -152.833 -78 -242.5
s-113.667 -134.5 -185 -134.5h-903zM1101 1291l-119 -136l-121 115l-106 -108l-119 122l115 133l118 -126l108 119zM985.999 1067l-116 -132l-118 132l118 116z" />
    <glyph glyph-name="glyph1355" unicode="&#x67d;" 
d="M1229 0l-80.998 0.000976562c-124 0 -209.333 12.833 -256 38.5s-88.667 76.5 -126 152.5c-74.667 -127.333 -149 -191 -223 -191h-543v225h532c80 0 120 34.667 120 104c0 65.333 -22 150.333 -66 255l153 269c56 -176.667 90.333 -327.334 103 -452.001
c4 -41.333 10.333 -70.5 19 -87.5s20.667 -31.5 36 -43.5s33.666 -21.667 54.999 -29s40.166 -11.833 56.499 -13.5s89.833 -2.5 220.5 -2.5v-225zM841.002 1291l-119 -136l-121 115l-106 -108l-119 122l115 133l118 -126l108 119zM726.002 1067l-116 -132l-118 132l118 116
z" />
    <glyph glyph-name="glyph1353" unicode="&#x67d;" 
d="M1229 225l0.000976562 -224.999c-123.333 0 -200.333 58.667 -231 176c-10.667 -32.667 -32.334 -65 -65.001 -97s-65 -53 -97 -63s-77.667 -15 -137 -15h-264c-290 0 -435 85 -435 255c-0 51.333 21.833 124 65.5 218s83.167 141 118.5 141c24.667 0 37 -13.333 37 -40
c0 -13.333 -11 -45 -33 -95c-21.333 -50 -32 -85.667 -32 -107c0 -98.667 104 -148 312 -148h295c94.667 0 142 29 142 87c0 96.667 -22.333 190.667 -67 282l130 219c59.333 -196.667 89.333 -333.334 90 -410.001s16.667 -125.5 48 -146.5s72.333 -31.5 123 -31.5z
M781.001 1119l-119 -136l-121 115l-106 -108l-119 122l115 133l118 -126l108 119zM666.001 895.001l-116 -132l-118 132l118 116z" />
    <glyph glyph-name="afii57506" unicode="&#x67e;" arabic-form="isolated" 
d="M843 554l113.001 295c71.333 -117.333 118.833 -208 142.5 -272s35.5 -125 35.5 -183c0 -60 -13.333 -122.833 -40 -188.5s-56.834 -114 -90.501 -145s-65.667 -48.833 -96 -53.5s-111.833 -7 -244.5 -7h-218c-290 -0 -435 85.333 -435 256c0 51.333 21.833 124 65.5 218
s83.167 141 118.5 141c24.667 0 37 -13.333 37 -40c0 -13.333 -11 -45 -33 -95c-21.333 -50 -32 -85.667 -32 -107c0 -98.667 104 -148 312 -148h311c134 0 201 17 201 51c0 86 -49 178.667 -147 278zM801.001 -258l-119 -136l-121 115l-106 -108l-119 122l115 133l118 -126
l108 119zM686.001 -482l-116 -132l-118 132l118 116z" />
    <glyph glyph-name="uni067F" unicode="&#x67f;" arabic-form="isolated" 
d="M843 554l113.001 295c71.333 -117.333 118.833 -208 142.5 -272s35.5 -125 35.5 -183c0 -60 -13.333 -122.833 -40 -188.5s-56.834 -114 -90.501 -145s-65.667 -48.833 -96 -53.5s-111.833 -7 -244.5 -7h-218c-290 -0 -435 85.333 -435 256c0 51.333 21.833 124 65.5 218
s83.167 141 118.5 141c24.667 0 37 -13.333 37 -40c0 -13.333 -11 -45 -33 -95c-21.333 -50 -32 -85.667 -32 -107c0 -98.667 104 -148 312 -148h311c134 0 201 17 201 51c0 86 -49 178.667 -147 278zM794.001 882l-110 -111l-101 102l-108 -110l-110 111l96 96l-105 106
l110 109l100 -99l109 107l110 -109l-97 -97zM670.001 978l-96 97l-95 -96l96 -95z" />
    <glyph glyph-name="uni0680" unicode="&#x680;" arabic-form="isolated" 
d="M843 554l113.001 295c71.333 -117.333 118.833 -208 142.5 -272s35.5 -125 35.5 -183c0 -60 -13.333 -122.833 -40 -188.5s-56.834 -114 -90.501 -145s-65.667 -48.833 -96 -53.5s-111.833 -7 -244.5 -7h-218c-290 -0 -435 85.333 -435 256c0 51.333 21.833 124 65.5 218
s83.167 141 118.5 141c24.667 0 37 -13.333 37 -40c0 -13.333 -11 -45 -33 -95c-21.333 -50 -32 -85.667 -32 -107c0 -98.667 104 -148 312 -148h311c134 0 201 17 201 51c0 86 -49 178.667 -147 278zM834.001 -495l-110 -111l-101 102l-108 -110l-110 111l96 96l-105 106
l110 109l100 -99l109 107l110 -109l-97 -97zM710.001 -399l-96 97l-95 -96l96 -95z" />
    <glyph glyph-name="glyph1366" unicode="&#x681;" 
d="M1229 500l-81 -223.999c-148.667 0 -247 -6 -295 -18s-118.667 -48.667 -212 -110c-150.667 -98.667 -299.334 -148 -446.001 -148h-195v225h295c84.667 0 205.334 40.333 362.001 121c66.667 34 122 56.333 166 67c-118 94 -219.333 141 -304 141
c-33.333 0 -71 -22 -113 -66c-17.333 -18 -30.666 -27 -39.999 -27c-27.333 0 -41 24 -41 72c0 59.333 27.167 111.5 81.5 156.5s110.166 67.5 167.499 67.5c34.667 0 69 -7.33301 103 -22s95.333 -53.334 184 -116.001c70 -49.333 132.5 -81.5 187.5 -96.5
s115.167 -22.5 180.5 -22.5zM658 931.001l12.999 72c34 22.667 58.667 44 74 64c-63.333 20 -95 53.667 -95 101c0 44 14.833 86.667 44.5 128s64.834 62 105.501 62c67.333 0 101 -29.667 101 -89c0 -16 -6.66699 -37.667 -20 -65c-54 39.333 -96.333 59 -127 59
c-21.333 0 -32 -9.66699 -32 -29c0 -24 13.833 -45 41.5 -63s56.5 -27 86.5 -27c33.333 0 72 10.667 116 32v-114z" />
    <glyph glyph-name="glyph1367" unicode="&#x681;" 
d="M1229 0l-342.001 0.00292969c-129.333 0 -194 78.333 -194 235c0 20.667 4 45.667 12 75c-30 -15.333 -62 -41.333 -96 -78c-146 -154.667 -266.667 -232 -362 -232h-247v225c37.333 -1.33301 69 -2 95 -2c147.333 0 277 35.333 389 106
c72 45.333 135.333 78.666 190 99.999c-46 27.333 -101.333 53.833 -166 79.5s-109 38.5 -133 38.5c-44.667 0 -82.667 -20.333 -114 -61c-14 -18.667 -25.333 -28 -34 -28c-32 0 -48 25 -48 75c0 61.333 27.833 115.166 83.5 161.499s111.834 69.5 168.501 69.5
c59.333 0 123.333 -19.333 192 -58c108.667 -61.333 191.667 -102.5 249 -123.5s138 -31.5 242 -31.5l-106 -219c-45.333 10.667 -99 16 -161 16c-3.33301 -15.333 -5 -32.333 -5 -51c0 -26.667 10.167 -45.334 30.5 -56.001s57.5 -16 111.5 -16h245v-225zM577.999 931.003
l12.999 72c34 22.667 58.667 44 74 64c-63.333 20 -95 53.667 -95 101c0 44 14.833 86.667 44.5 128s64.834 62 105.501 62c67.333 0 101 -29.667 101 -89c0 -16 -6.66699 -37.667 -20 -65c-54 39.333 -96.333 59 -127 59c-21.333 0 -32 -9.66699 -32 -29
c0 -24 13.833 -45 41.5 -63s56.5 -27 86.5 -27c33.333 0 72 10.667 116 32v-114z" />
    <glyph glyph-name="glyph1365" unicode="&#x681;" 
d="M1227 0l-351.001 0.00292969c-122 0 -183 69.333 -183 208c0 22.667 1.66699 50.334 5 83.001c-74 -28 -150.333 -80 -229 -156c-95.333 -92.667 -143 -181.334 -143 -266.001c0 -86.667 34 -157.334 102 -212.001c64 -52 143.333 -78 238 -78
c155.333 0 304.666 50.667 447.999 152c7.33301 5.33301 19.333 8 36 8c10.667 0 16 -5 16 -15c0.666992 -33.333 -24.333 -77.333 -75 -132c-56.667 -61.333 -124.667 -110.333 -204 -147c-86 -39.333 -167 -59 -243 -59c-139.333 0 -255.666 46.667 -348.999 140
c-90 89.333 -135 195.666 -135 318.999c0 181.333 165 376 495 584c-134.667 75.333 -226.667 113 -276 113c-29.333 0 -61.833 -13.833 -97.5 -41.5s-55.167 -41.5 -58.5 -41.5c-23.333 0 -35 25.667 -35 77c0 54 25.667 105.667 77 155s104 74 158 74
c37.333 0 74.333 -6.83301 111 -20.5s98.334 -44.834 185.001 -93.501c119.333 -66.667 250.333 -100 393 -100l-106 -219c-52 10.667 -104.667 16 -158 16c-4.66699 -11.333 -7 -26.333 -7 -45c0 -52 45 -78 135 -78h251v-225zM557.999 931.003l12.999 72
c34 22.667 58.667 44 74 64c-63.333 20 -95 53.667 -95 101c0 44 14.833 86.667 44.5 128s64.834 62 105.501 62c67.333 0 101 -29.667 101 -89c0 -16 -6.66699 -37.667 -20 -65c-54 39.333 -96.333 59 -127 59c-21.333 0 -32 -9.66699 -32 -29c0 -24 13.833 -45 41.5 -63
s56.5 -27 86.5 -27c33.333 0 72 10.667 116 32v-114z" />
    <glyph glyph-name="glyph1370" unicode="&#x682;" 
d="M1229 500l-81 -223.999c-148.667 0 -247 -6 -295 -18s-118.667 -48.667 -212 -110c-150.667 -98.667 -299.334 -148 -446.001 -148h-195v225h295c84.667 0 205.334 40.333 362.001 121c66.667 34 122 56.333 166 67c-118 94 -219.333 141 -304 141
c-33.333 0 -71 -22 -113 -66c-17.333 -18 -30.666 -27 -39.999 -27c-27.333 0 -41 24 -41 72c0 59.333 27.167 111.5 81.5 156.5s110.166 67.5 167.499 67.5c34.667 0 69 -7.33301 103 -22s95.333 -53.334 184 -116.001c70 -49.333 132.5 -81.5 187.5 -96.5
s115.167 -22.5 180.5 -22.5zM928 956.001l-111 -110l-109 110l99 100l-107 109l109 110l111 -110l-102 -101z" />
    <glyph glyph-name="glyph1371" unicode="&#x682;" 
d="M1229 0l-342.001 0.00292969c-129.333 0 -194 78.333 -194 235c0 20.667 4 45.667 12 75c-30 -15.333 -62 -41.333 -96 -78c-146 -154.667 -266.667 -232 -362 -232h-247v225c37.333 -1.33301 69 -2 95 -2c147.333 0 277 35.333 389 106
c72 45.333 135.333 78.666 190 99.999c-46 27.333 -101.333 53.833 -166 79.5s-109 38.5 -133 38.5c-44.667 0 -82.667 -20.333 -114 -61c-14 -18.667 -25.333 -28 -34 -28c-32 0 -48 25 -48 75c0 61.333 27.833 115.166 83.5 161.499s111.834 69.5 168.501 69.5
c59.333 0 123.333 -19.333 192 -58c108.667 -61.333 191.667 -102.5 249 -123.5s138 -31.5 242 -31.5l-106 -219c-45.333 10.667 -99 16 -161 16c-3.33301 -15.333 -5 -32.333 -5 -51c0 -26.667 10.167 -45.334 30.5 -56.001s57.5 -16 111.5 -16h245v-225zM827.999 956.003
l-111 -110l-109 110l99 100l-107 109l109 110l111 -110l-102 -101z" />
    <glyph glyph-name="glyph1369" unicode="&#x682;" 
d="M1227 0l-351.001 0.00292969c-122 0 -183 69.333 -183 208c0 22.667 1.66699 50.334 5 83.001c-74 -28 -150.333 -80 -229 -156c-95.333 -92.667 -143 -181.334 -143 -266.001c0 -86.667 34 -157.334 102 -212.001c64 -52 143.333 -78 238 -78
c155.333 0 304.666 50.667 447.999 152c7.33301 5.33301 19.333 8 36 8c10.667 0 16 -5 16 -15c0.666992 -33.333 -24.333 -77.333 -75 -132c-56.667 -61.333 -124.667 -110.333 -204 -147c-86 -39.333 -167 -59 -243 -59c-139.333 0 -255.666 46.667 -348.999 140
c-90 89.333 -135 195.666 -135 318.999c0 181.333 165 376 495 584c-134.667 75.333 -226.667 113 -276 113c-29.333 0 -61.833 -13.833 -97.5 -41.5s-55.167 -41.5 -58.5 -41.5c-23.333 0 -35 25.667 -35 77c0 54 25.667 105.667 77 155s104 74 158 74
c37.333 0 74.333 -6.83301 111 -20.5s98.334 -44.834 185.001 -93.501c119.333 -66.667 250.333 -100 393 -100l-106 -219c-52 10.667 -104.667 16 -158 16c-4.66699 -11.333 -7 -26.333 -7 -45c0 -52 45 -78 135 -78h251v-225zM827.999 956.003l-111 -110l-109 110l99 100
l-107 109l109 110l111 -110l-102 -101z" />
    <glyph glyph-name="uni0683" unicode="&#x683;" arabic-form="isolated" 
d="M1153 -408c-56.667 -61.333 -124.668 -110.331 -204.001 -146.998c-86 -39.333 -167 -59 -243 -59c-139.333 0 -255.666 46.667 -348.999 140c-90 89.333 -135 195.666 -135 318.999c0 181.333 151.333 343 454 485c-118 53.333 -189 80 -213 80
c-44.667 0 -89.167 -17.167 -133.5 -51.5s-65.5 -51.5 -63.5 -51.5c-25.333 0 -38 26 -38 78c0 68 37.667 128 113 180c72 49.333 150 74 234 74c12.667 0 77.834 -21.667 195.501 -65s208.5 -65 272.5 -65l65 3l-78 -238c-128 0 -228.667 -14 -302 -42
c-80 -30 -151 -72.333 -213 -127c-84.667 -74 -127 -152.667 -127 -236c0 -86.667 34 -157.334 102 -212.001c64 -52 143.333 -78 238 -78c155.333 0 304.666 50.667 447.999 152c7.33301 5.33301 19.333 8 36 8c4 -11.333 7.83301 -25 11.5 -41s-19.833 -51.333 -70.5 -106
zM1091 -59.998l-155 -157l-141 136l-153 -148l-154 154l156 156l139 -141l154 154z" />
    <glyph glyph-name="uni0684" unicode="&#x684;" arabic-form="isolated" 
d="M1153 -408c-56.667 -61.333 -124.668 -110.331 -204.001 -146.998c-86 -39.333 -167 -59 -243 -59c-139.333 0 -255.666 46.667 -348.999 140c-90 89.333 -135 195.666 -135 318.999c0 181.333 151.333 343 454 485c-118 53.333 -189 80 -213 80
c-44.667 0 -89.167 -17.167 -133.5 -51.5s-65.5 -51.5 -63.5 -51.5c-25.333 0 -38 26 -38 78c0 68 37.667 128 113 180c72 49.333 150 74 234 74c12.667 0 77.834 -21.667 195.501 -65s208.5 -65 272.5 -65l65 3l-78 -238c-128 0 -228.667 -14 -302 -42
c-80 -30 -151 -72.333 -213 -127c-84.667 -74 -127 -152.667 -127 -236c0 -86.667 34 -157.334 102 -212.001c64 -52 143.333 -78 238 -78c155.333 0 304.666 50.667 447.999 152c7.33301 5.33301 19.333 8 36 8c4 -11.333 7.83301 -25 11.5 -41s-19.833 -51.333 -70.5 -106
zM907.999 -203.998l-111 -110l-109 110l99 100l-107 109l109 110l111 -110l-102 -101z" />
    <glyph glyph-name="glyph1382" unicode="&#x685;" 
d="M1229 500l-81 -223.999c-148.667 0 -247 -6 -295 -18s-118.667 -48.667 -212 -110c-150.667 -98.667 -299.334 -148 -446.001 -148h-195v225h295c84.667 0 205.334 40.333 362.001 121c66.667 34 122 56.333 166 67c-118 94 -219.333 141 -304 141
c-33.333 0 -71 -22 -113 -66c-17.333 -18 -30.666 -27 -39.999 -27c-27.333 0 -41 24 -41 72c0 59.333 27.167 111.5 81.5 156.5s110.166 67.5 167.499 67.5c34.667 0 69 -7.33301 103 -22s95.333 -53.334 184 -116.001c70 -49.333 132.5 -81.5 187.5 -96.5
s115.167 -22.5 180.5 -22.5zM924 1326l-156 -154l-153 154l153 153zM1064 1049l-154 -157l-141 141l-154 -154l-153 154l156 156l138 -140l154 153z" />
    <glyph glyph-name="glyph1383" unicode="&#x685;" 
d="M1229 0l-342.001 0.00292969c-129.333 0 -194 78.333 -194 235c0 20.667 4 45.667 12 75c-30 -15.333 -62 -41.333 -96 -78c-146 -154.667 -266.667 -232 -362 -232h-247v225c37.333 -1.33301 69 -2 95 -2c147.333 0 277 35.333 389 106
c72 45.333 135.333 78.666 190 99.999c-46 27.333 -101.333 53.833 -166 79.5s-109 38.5 -133 38.5c-44.667 0 -82.667 -20.333 -114 -61c-14 -18.667 -25.333 -28 -34 -28c-32 0 -48 25 -48 75c0 61.333 27.833 115.166 83.5 161.499s111.834 69.5 168.501 69.5
c59.333 0 123.333 -19.333 192 -58c108.667 -61.333 191.667 -102.5 249 -123.5s138 -31.5 242 -31.5l-106 -219c-45.333 10.667 -99 16 -161 16c-3.33301 -15.333 -5 -32.333 -5 -51c0 -26.667 10.167 -45.334 30.5 -56.001s57.5 -16 111.5 -16h245v-225zM823.999 1326
l-156 -154l-153 154l153 153zM963.999 1049l-154 -157l-141 141l-154 -154l-153 154l156 156l138 -140l154 153z" />
    <glyph glyph-name="glyph1381" unicode="&#x685;" 
d="M1227 0l-351.001 0.00292969c-122 0 -183 69.333 -183 208c0 22.667 1.66699 50.334 5 83.001c-74 -28 -150.333 -80 -229 -156c-95.333 -92.667 -143 -181.334 -143 -266.001c0 -86.667 34 -157.334 102 -212.001c64 -52 143.333 -78 238 -78
c155.333 0 304.666 50.667 447.999 152c7.33301 5.33301 19.333 8 36 8c10.667 0 16 -5 16 -15c0.666992 -33.333 -24.333 -77.333 -75 -132c-56.667 -61.333 -124.667 -110.333 -204 -147c-86 -39.333 -167 -59 -243 -59c-139.333 0 -255.666 46.667 -348.999 140
c-90 89.333 -135 195.666 -135 318.999c0 181.333 165 376 495 584c-134.667 75.333 -226.667 113 -276 113c-29.333 0 -61.833 -13.833 -97.5 -41.5s-55.167 -41.5 -58.5 -41.5c-23.333 0 -35 25.667 -35 77c0 54 25.667 105.667 77 155s104 74 158 74
c37.333 0 74.333 -6.83301 111 -20.5s98.334 -44.834 185.001 -93.501c119.333 -66.667 250.333 -100 393 -100l-106 -219c-52 10.667 -104.667 16 -158 16c-4.66699 -11.333 -7 -26.333 -7 -45c0 -52 45 -78 135 -78h251v-225zM823.999 1326l-156 -154l-153 154l153 153z
M963.999 1049l-154 -157l-141 141l-154 -154l-153 154l156 156l138 -140l154 153z" />
    <glyph glyph-name="afii57507" unicode="&#x686;" arabic-form="isolated" 
d="M948 -38l-83 -82l-85 90l83 79zM1228 -276c0.666992 -33.333 -24.335 -77.3311 -75.002 -131.998c-56.667 -61.333 -124.667 -110.333 -204 -147c-86 -39.333 -167 -59 -243 -59c-139.333 0 -255.666 46.667 -348.999 140c-90 89.333 -135 195.666 -135 318.999
c0 181.333 151.333 343 454 485c-118 53.333 -189 80 -213 80c-44.667 0 -89.167 -17.167 -133.5 -51.5s-65.5 -51.5 -63.5 -51.5c-25.333 0 -38 26 -38 78c0 68 37.667 128 113 180c72 49.333 150 74 234 74c12.667 0 77.834 -21.667 195.501 -65s208.5 -65 272.5 -65
c20.667 0 42.334 1 65.001 3l-78 -238c-128 0 -228.667 -14 -302 -42c-80 -30 -151 -72.333 -213 -127c-84.667 -74 -127 -152.667 -127 -236c0 -86.667 34 -157.334 102 -212.001c64 -52 143.333 -78 238 -78c155.333 0 304.666 50.667 447.999 152
c7.33301 5.33301 19.333 8 36 8c10.667 0 16 -5 16 -15zM776.998 -31.998l-82 -82l-86 86l83 78zM864.998 -196.998l-84 -82l-86 83l85 84z" />
    <glyph glyph-name="uni0687" unicode="&#x687;" arabic-form="isolated" 
d="M1153 -408c-56.667 -61.333 -124.668 -110.331 -204.001 -146.998c-86 -39.333 -167 -59 -243 -59c-139.333 0 -255.666 46.667 -348.999 140c-90 89.333 -135 195.666 -135 318.999c0 181.333 151.333 343 454 485c-118 53.333 -189 80 -213 80
c-44.667 0 -89.167 -17.167 -133.5 -51.5s-65.5 -51.5 -63.5 -51.5c-25.333 0 -38 26 -38 78c0 68 37.667 128 113 180c72 49.333 150 74 234 74c12.667 0 77.834 -21.667 195.501 -65s208.5 -65 272.5 -65l65 3l-78 -238c-128 0 -228.667 -14 -302 -42
c-80 -30 -151 -72.333 -213 -127c-84.667 -74 -127 -152.667 -127 -236c0 -86.667 34 -157.334 102 -212.001c64 -52 143.333 -78 238 -78c155.333 0 304.666 50.667 447.999 152c7.33301 5.33301 19.333 8 36 8c4 -11.333 7.83301 -25 11.5 -41s-19.833 -51.333 -70.5 -106
zM993.999 -194.998l-110 -111l-101 102l-108 -110l-110 111l96 96l-105 106l110 109l100 -99l109 107l110 -109l-97 -97zM869.999 -98.998l-96 97l-95 -96l96 -95z" />
    <glyph glyph-name="uni0688" unicode="&#x688;" arabic-form="isolated" 
d="M611 678l28.001 244.998c119.333 -19.333 219.833 -92.666 301.5 -219.999s122.5 -247.333 122.5 -360c0 -124 -28.833 -214 -86.5 -270s-152.167 -84 -283.5 -84c-213.333 0 -320 67 -320 201c0 26.667 10 62.167 30 106.5s39 66.5 57 66.5
c19.333 0 30.666 -24.333 33.999 -73c1.33301 -25.333 15.333 -43.666 42 -54.999s79.667 -17 159 -17c163.333 0 245 18.667 245 56c0 80.667 -33.833 165.167 -101.5 253.5s-143.5 138.5 -227.5 150.5zM990.001 1230c0 -125.333 -86.002 -187.999 -258.002 -187.999h-231
c-55.333 0 -91.666 38 -108.999 114h112c32 30 48 70.333 48 121c0 169.333 -11.667 273.333 -35 312l64 104l88 -90c-28.667 -33.333 -42 -90.333 -40 -171l2 -70c0.666992 -18.667 -4.66602 -60.334 -15.999 -125.001c92.667 113.333 174 170 244 170
c87.333 0 131 -59 131 -177zM909.999 1208c0 23.333 -7.33203 44 -21.999 62s-33.334 27 -56.001 27c-25.333 0 -55 -13 -89 -39c-13.333 -10 -53.333 -44 -120 -102h199c58.667 0 88 17.333 88 52z" />
    <glyph glyph-name="glyph1391" unicode="&#x689;" 
d="M1229 1l-189.001 -1c-100.667 0 -176 58 -226 174c-13.333 -34 -42.833 -65.333 -88.5 -94s-99.834 -43 -162.501 -43c-100 0 -169.833 16.333 -209.5 49s-59.834 82 -60.501 148c0.666992 27.333 10.834 63 30.501 107s38.5 66 56.5 66c20 0 31.333 -24.333 34 -73
c2.66699 -48 56.334 -72 161.001 -72c73.333 0.666992 124.833 8.33398 154.5 23.001s44.5 40.667 44.5 78c0 57.333 -8 140.166 -24 248.499s-29.333 173.833 -40 196.5l172 229c10 -90 23 -256.667 39 -500c0.666992 -66 5.33398 -142.667 14.001 -230
c22 -54.667 63 -82 123 -82h171v-224zM468.999 -66c0 52.667 13.832 97.832 41.499 135.499s64.834 56.5 111.501 56.5c41.333 0 74.5 -15.667 99.5 -47s37.5 -69.666 37.5 -114.999s-18 -85 -54 -119s-76.667 -51 -122 -51c-36 0 -64 14.167 -84 42.5s-30 60.833 -30 97.5z
M532.998 -36.002c0 -38.667 26.334 -58 79.001 -58c45.333 0 68 11.667 68 35c0 22 -11.833 43.5 -35.5 64.5s-46.834 31.5 -69.501 31.5c-28 0 -42 -24.333 -42 -73z" />
    <glyph glyph-name="glyph1393" unicode="&#x68a;" 
d="M1229 1l-189.001 -1c-100.667 0 -176 58 -226 174c-13.333 -34 -42.833 -65.333 -88.5 -94s-99.834 -43 -162.501 -43c-100 0 -169.833 16.333 -209.5 49s-59.834 82 -60.501 148c0.666992 27.333 10.834 63 30.501 107s38.5 66 56.5 66c20 0 31.333 -24.333 34 -73
c2.66699 -48 56.334 -72 161.001 -72c73.333 0.666992 124.833 8.33398 154.5 23.001s44.5 40.667 44.5 78c0 57.333 -8 140.166 -24 248.499s-29.333 173.833 -40 196.5l172 229c10 -90 23 -256.667 39 -500c0.666992 -66 5.33398 -142.667 14.001 -230
c22 -54.667 63 -82 123 -82h171v-224zM797.999 -378l-153 -154l-154 154l154 153z" />
    <glyph glyph-name="glyph1395" unicode="&#x68b;" 
d="M1229 1l-189.001 -1c-100.667 0 -176 58 -226 174c-13.333 -34 -42.833 -65.333 -88.5 -94s-99.834 -43 -162.501 -43c-100 0 -169.833 16.333 -209.5 49s-59.834 82 -60.501 148c0.666992 27.333 10.834 63 30.501 107s38.5 66 56.5 66c20 0 31.333 -24.333 34 -73
c2.66699 -48 56.334 -72 161.001 -72c73.333 0.666992 124.833 8.33398 154.5 23.001s44.5 40.667 44.5 78c0 57.333 -8 140.166 -24 248.499s-29.333 173.833 -40 196.5l172 229c10 -90 23 -256.667 39 -500c0.666992 -66 5.33398 -142.667 14.001 -230
c22 -54.667 63 -82 123 -82h171v-224zM1050 1230c0 -125.333 -86.002 -187.999 -258.002 -187.999h-231c-55.333 0 -91.666 38 -108.999 114h112c32 30 48 70.333 48 121c0 169.333 -11.667 273.333 -35 312l64 104l88 -90c-28.667 -33.333 -42 -90.333 -40 -171l2 -70
c0.666992 -18.667 -4.66602 -60.334 -15.999 -125.001c92.667 113.333 174 170 244 170c87.333 0 131 -59 131 -177zM969.997 1208c0 23.333 -7.33203 44 -21.999 62s-33.334 27 -56.001 27c-25.333 0 -55 -13 -89 -39c-13.333 -10 -53.333 -44 -120 -102h199
c58.667 0 88 17.333 88 52zM797.998 -377.999l-153 -154l-154 154l154 153z" />
    <glyph glyph-name="uni068C" unicode="&#x68c;" arabic-form="isolated" 
d="M611 678l28.001 244.998c119.333 -19.333 219.833 -92.666 301.5 -219.999s122.5 -247.333 122.5 -360c0 -124 -28.833 -214 -86.5 -270s-152.167 -84 -283.5 -84c-213.333 0 -320 67 -320 201c0 26.667 10 62.167 30 106.5s39 66.5 57 66.5
c19.333 0 30.666 -24.333 33.999 -73c1.33301 -25.333 15.333 -43.666 42 -54.999s79.667 -17 159 -17c163.333 0 245 18.667 245 56c0 80.667 -33.833 165.167 -101.5 253.5s-143.5 138.5 -227.5 150.5zM931.001 1230l-155 -157l-141 136l-153 -148l-154 154l156 156
l139 -141l154 154z" />
    <glyph glyph-name="uni068D" unicode="&#x68d;" arabic-form="isolated" 
d="M611 678l28.001 244.998c119.333 -19.333 219.833 -92.666 301.5 -219.999s122.5 -247.333 122.5 -360c0 -124 -28.833 -214 -86.5 -270s-152.167 -84 -283.5 -84c-213.333 0 -320 67 -320 201c0 26.667 10 62.167 30 106.5s39 66.5 57 66.5
c19.333 0 30.666 -24.333 33.999 -73c1.33301 -25.333 15.333 -43.666 42 -54.999s79.667 -17 159 -17c163.333 0 245 18.667 245 56c0 80.667 -33.833 165.167 -101.5 253.5s-143.5 138.5 -227.5 150.5zM991.001 -384.002l-155 -157l-141 136l-153 -148l-154 154l156 156
l139 -141l154 154z" />
    <glyph glyph-name="uni068E" unicode="&#x68e;" arabic-form="isolated" 
d="M611 678l28.001 244.998c119.333 -19.333 219.833 -92.666 301.5 -219.999s122.5 -247.333 122.5 -360c0 -124 -28.833 -214 -86.5 -270s-152.167 -84 -283.5 -84c-213.333 0 -320 67 -320 201c0 26.667 10 62.167 30 106.5s39 66.5 57 66.5
c19.333 0 30.666 -24.333 33.999 -73c1.33301 -25.333 15.333 -43.666 42 -54.999s79.667 -17 159 -17c163.333 0 245 18.667 245 56c0 80.667 -33.833 165.167 -101.5 253.5s-143.5 138.5 -227.5 150.5zM773.001 1526l-156 -154l-153 154l153 153zM913.001 1249l-154 -157
l-141 141l-154 -154l-153 154l156 156l138 -140l154 153z" />
    <glyph glyph-name="glyph1403" unicode="&#x68f;" 
d="M1229 1l-189.001 -1c-100.667 0 -176 58 -226 174c-13.333 -34 -42.833 -65.333 -88.5 -94s-99.834 -43 -162.501 -43c-100 0 -169.833 16.333 -209.5 49s-59.834 82 -60.501 148c0.666992 27.333 10.834 63 30.501 107s38.5 66 56.5 66c20 0 31.333 -24.333 34 -73
c2.66699 -48 56.334 -72 161.001 -72c73.333 0.666992 124.833 8.33398 154.5 23.001s44.5 40.667 44.5 78c0 57.333 -8 140.166 -24 248.499s-29.333 173.833 -40 196.5l172 229c10 -90 23 -256.667 39 -500c0.666992 -66 5.33398 -142.667 14.001 -230
c22 -54.667 63 -82 123 -82h171v-224zM960.999 1477l-119 -136l-121 115l-106 -108l-119 122l115 133l118 -126l108 119zM845.999 1253l-116 -132l-118 132l118 116z" />
    <glyph glyph-name="glyph1405" unicode="&#x690;" 
d="M1229 1l-189.001 -1c-100.667 0 -176 58 -226 174c-13.333 -34 -42.833 -65.333 -88.5 -94s-99.834 -43 -162.501 -43c-100 0 -169.833 16.333 -209.5 49s-59.834 82 -60.501 148c0.666992 27.333 10.834 63 30.501 107s38.5 66 56.5 66c20 0 31.333 -24.333 34 -73
c2.66699 -48 56.334 -72 161.001 -72c73.333 0.666992 124.833 8.33398 154.5 23.001s44.5 40.667 44.5 78c0 57.333 -8 140.166 -24 248.499s-29.333 173.833 -40 196.5l172 229c10 -90 23 -256.667 39 -500c0.666992 -66 5.33398 -142.667 14.001 -230
c22 -54.667 63 -82 123 -82h171v-224zM993.999 1240l-110 -111l-101 102l-108 -110l-110 111l96 96l-105 106l110 109l100 -99l109 107l110 -109l-97 -97zM869.999 1336l-96 97l-95 -96l96 -95z" />
    <glyph glyph-name="uni0691" unicode="&#x691;" arabic-form="isolated" 
d="M708 534l101.999 273c159.333 -153.333 239 -345.333 239 -576c0 -146.667 -44.167 -291.667 -132.5 -435s-198.166 -215 -329.499 -215c-56 0 -145.167 22.5 -267.5 67.5s-183.5 82.833 -183.5 113.5c0 21.333 16.667 32 50 32c21.333 0 51.333 -4.66699 90 -14
c38 -10 83.333 -15 136 -15c112 0 224.5 47.333 337.5 142s169.5 176 169.5 244c0 128 -70.333 255.667 -211 383zM989.999 1100c0 -125.333 -86.002 -187.999 -258.002 -187.999h-231c-55.333 0 -91.666 38 -108.999 114h112c32 30 48 70.333 48 121
c0 169.333 -11.667 273.333 -35 312l64 104l88 -90c-28.667 -33.333 -42 -90.333 -40 -171l2 -70c0.666992 -18.667 -4.66602 -60.334 -15.999 -125.001c92.667 113.333 174 170 244 170c87.333 0 131 -59 131 -177zM909.997 1078c0 23.333 -7.33203 44 -21.999 62
s-33.334 27 -56.001 27c-25.333 0 -55 -13 -89 -39c-13.333 -10 -53.333 -44 -120 -102h199c58.667 0 88 17.333 88 52z" />
    <glyph glyph-name="glyph1409" unicode="&#x692;" 
d="M1229 225l-0.00292969 -225h-90c-43.333 0 -82.5 10.167 -117.5 30.5s-58.167 46.166 -69.5 77.499c-23.333 -150.667 -74.166 -276.5 -152.499 -377.5s-173.833 -151.5 -286.5 -151.5c-55.333 0 -137.666 22.333 -246.999 67s-164 82.667 -164 114
c0 21.333 16.667 32 50 32c4.66699 0 27.334 -4.66699 68.001 -14c40.667 -8.66699 86.667 -13 138 -13c111.333 0 223 47.333 335 142s168 176.334 168 245.001c0 128.667 -55 252.334 -165 371.001l137 270c33.333 -60 61.333 -122.667 84 -188s37.5 -134 44.5 -206
s22.5 -118.833 46.5 -140.5s67.667 -32.834 131 -33.501h90zM896.997 1359c-0.666992 -2 -23.667 -34.667 -69 -98l-107 -149l-108 149c-44.667 62 -67.334 94.667 -68.001 98c-2.66699 12.667 10 22.334 38 29.001s45.333 6 52 -2c2 -2 18 -25.667 48 -71l38 -59l38 59
c13.333 21.333 29 45 47 71c6.66699 8 24.334 8.66699 53.001 2c28 -6.66699 40.667 -16.334 38 -29.001z" />
    <glyph glyph-name="glyph1411" unicode="&#x693;" 
d="M1229 225l-0.00292969 -225h-90c-43.333 0 -82.5 10.167 -117.5 30.5s-58.167 46.166 -69.5 77.499c-23.333 -150.667 -74.166 -276.5 -152.499 -377.5s-173.833 -151.5 -286.5 -151.5c-55.333 0 -137.666 22.333 -246.999 67s-164 82.667 -164 114
c0 21.333 16.667 32 50 32c4.66699 0 27.334 -4.66699 68.001 -14c40.667 -8.66699 86.667 -13 138 -13c111.333 0 223 47.333 335 142s168 176.334 168 245.001c0 128.667 -55 252.334 -165 371.001l137 270c33.333 -60 61.333 -122.667 84 -188s37.5 -134 44.5 -206
s22.5 -118.833 46.5 -140.5s67.667 -32.834 131 -33.501h90zM778.997 -279c0 52.667 13.832 97.832 41.499 135.499s64.834 56.5 111.501 56.5c41.333 0 74.5 -15.667 99.5 -47s37.5 -69.666 37.5 -114.999s-18 -85 -54 -119s-76.667 -51 -122 -51
c-36 0 -64 14.167 -84 42.5s-30 60.833 -30 97.5zM842.996 -249.002c0 -38.667 26.334 -58 79.001 -58c45.333 0 68 11.667 68 35c0 22 -11.833 43.5 -35.5 64.5s-46.834 31.5 -69.501 31.5c-28 0 -42 -24.333 -42 -73z" />
    <glyph glyph-name="glyph1413" unicode="&#x694;" 
d="M1229 225l-0.00292969 -225h-90c-43.333 0 -82.5 10.167 -117.5 30.5s-58.167 46.166 -69.5 77.499c-23.333 -150.667 -74.166 -276.5 -152.499 -377.5s-173.833 -151.5 -286.5 -151.5c-55.333 0 -137.666 22.333 -246.999 67s-164 82.667 -164 114
c0 21.333 16.667 32 50 32c4.66699 0 27.334 -4.66699 68.001 -14c40.667 -8.66699 86.667 -13 138 -13c111.333 0 223 47.333 335 142s168 176.334 168 245.001c0 128.667 -55 252.334 -165 371.001l137 270c33.333 -60 61.333 -122.667 84 -188s37.5 -134 44.5 -206
s22.5 -118.833 46.5 -140.5s67.667 -32.834 131 -33.501h90zM1228 -265l-153 -154l-154 154l154 153z" />
    <glyph glyph-name="glyph1415" unicode="&#x695;" 
d="M1229 225l-0.00292969 -225h-90c-43.333 0 -82.5 10.167 -117.5 30.5s-58.167 46.166 -69.5 77.499c-23.333 -150.667 -74.166 -276.5 -152.499 -377.5s-173.833 -151.5 -286.5 -151.5c-55.333 0 -137.666 22.333 -246.999 67s-164 82.667 -164 114
c0 21.333 16.667 32 50 32c4.66699 0 27.334 -4.66699 68.001 -14c40.667 -8.66699 86.667 -13 138 -13c111.333 0 223 47.333 335 142s168 176.334 168 245.001c0 128.667 -55 252.334 -165 371.001l137 270c33.333 -60 61.333 -122.667 84 -188s37.5 -134 44.5 -206
s22.5 -118.833 46.5 -140.5s67.667 -32.834 131 -33.501h90zM1225 -321c-0.666992 -2 -23.667 -34.667 -69 -98l-107 -149l-108 149c-44.667 62 -67.334 94.667 -68.001 98c-2.66699 12.667 10 22.334 38 29.001s45.333 6 52 -2c2 -2 18 -25.667 48 -71l38 -59l38 59
c13.333 21.333 29 45 47 71c6.66699 8 24.334 8.66699 53.001 2c28 -6.66699 40.667 -16.334 38 -29.001z" />
    <glyph glyph-name="glyph1417" unicode="&#x696;" 
d="M1229 225l-0.00292969 -225h-90c-43.333 0 -82.5 10.167 -117.5 30.5s-58.167 46.166 -69.5 77.499c-23.333 -150.667 -74.166 -276.5 -152.499 -377.5s-173.833 -151.5 -286.5 -151.5c-55.333 0 -137.666 22.333 -246.999 67s-164 82.667 -164 114
c0 21.333 16.667 32 50 32c4.66699 0 27.334 -4.66699 68.001 -14c40.667 -8.66699 86.667 -13 138 -13c111.333 0 223 47.333 335 142s168 176.334 168 245.001c0 128.667 -55 252.334 -165 371.001l137 270c33.333 -60 61.333 -122.667 84 -188s37.5 -134 44.5 -206
s22.5 -118.833 46.5 -140.5s67.667 -32.834 131 -33.501h90zM1228 -265l-153 -154l-154 154l154 153zM757.997 130l-153 -154l-154 154l154 153z" />
    <glyph glyph-name="glyph1419" unicode="&#x697;" 
d="M1229 225l-0.00292969 -225h-90c-43.333 0 -82.5 10.167 -117.5 30.5s-58.167 46.166 -69.5 77.499c-23.333 -150.667 -74.166 -276.5 -152.499 -377.5s-173.833 -151.5 -286.5 -151.5c-55.333 0 -137.666 22.333 -246.999 67s-164 82.667 -164 114
c0 21.333 16.667 32 50 32c4.66699 0 27.334 -4.66699 68.001 -14c40.667 -8.66699 86.667 -13 138 -13c111.333 0 223 47.333 335 142s168 176.334 168 245.001c0 128.667 -55 252.334 -165 371.001l137 270c33.333 -60 61.333 -122.667 84 -188s37.5 -134 44.5 -206
s22.5 -118.833 46.5 -140.5s67.667 -32.834 131 -33.501h90zM950.997 1130l-155 -157l-141 136l-153 -148l-154 154l156 156l139 -141l154 154z" />
    <glyph glyph-name="afii57508" unicode="&#x698;" arabic-form="isolated" 
d="M708 534l101.999 273c159.333 -153.333 239 -345.333 239 -576c0 -146.667 -44.167 -291.667 -132.5 -435s-198.166 -215 -329.499 -215c-56 0 -145.167 22.5 -267.5 67.5s-183.5 82.833 -183.5 113.5c0 21.333 16.667 32 50 32c21.333 0 51.333 -4.66699 90 -14
c38 -10 83.333 -15 136 -15c112 0 224.5 47.333 337.5 142s169.5 176 169.5 244c0 128 -70.333 255.667 -211 383zM946.999 1381l-156 -154l-153 154l153 153zM1087 1104l-154 -157l-141 141l-154 -154l-153 154l156 156l138 -140l154 153z" />
    <glyph glyph-name="glyph1421" unicode="&#x699;" 
d="M1229 225l-0.00292969 -225h-90c-43.333 0 -82.5 10.167 -117.5 30.5s-58.167 46.166 -69.5 77.499c-23.333 -150.667 -74.166 -276.5 -152.499 -377.5s-173.833 -151.5 -286.5 -151.5c-55.333 0 -137.666 22.333 -246.999 67s-164 82.667 -164 114
c0 21.333 16.667 32 50 32c4.66699 0 27.334 -4.66699 68.001 -14c40.667 -8.66699 86.667 -13 138 -13c111.333 0 223 47.333 335 142s168 176.334 168 245.001c0 128.667 -55 252.334 -165 371.001l137 270c33.333 -60 61.333 -122.667 84 -188s37.5 -134 44.5 -206
s22.5 -118.833 46.5 -140.5s67.667 -32.834 131 -33.501h90zM893.997 1040l-110 -111l-101 102l-108 -110l-110 111l96 96l-105 106l110 109l100 -99l109 107l110 -109l-97 -97zM769.997 1136l-96 97l-95 -96l96 -95z" />
    <glyph glyph-name="glyph1424" unicode="&#x69a;" 
d="M751 48c-43.333 -32 -87.333 -48 -132 -48c-74.667 0 -131.667 20.667 -171 62c-49.333 -41.333 -106.333 -62 -171 -62h-277v225h283c40 0 73.333 43.667 100 131c44 145.333 95.333 218 154 218c36 0 54 -19.333 54 -58c0 -39.333 -9 -86 -27 -140
c-17.333 -53.333 -26 -90.666 -26 -111.999c0 -14.667 3 -25.167 9 -31.5s22 -9.5 48 -9.5c38 0 60.667 19 68 57c38.667 198.667 79.334 298 122.001 298c43.333 0 65 -32.667 65 -98c0 -20.667 -3.33301 -50.334 -10 -89.001c-6.66699 -38 -10 -67.333 -10 -88
c0 -26.667 5.66699 -47 17 -61s38.666 -21 81.999 -21c53.333 0 80 36.333 80 109c0 74 -31.667 164 -95 270l151 210c35.333 -50 62.833 -115 82.5 -195s29.5 -154.667 29.5 -224c0 -122 -25 -217.667 -75 -287s-123.667 -104 -221 -104c-52 0 -95.333 16 -130 48z
M958 1035l-153 -154l-154 154l154 153zM898 -378l-153 -154l-154 154l154 153z" />
    <glyph glyph-name="glyph1425" unicode="&#x69a;" 
d="M1229 225l0.000976562 -225c-120 0 -195.333 54 -226 162c-30.667 -67.333 -62.667 -111.166 -96 -131.499s-74.333 -30.5 -123 -30.5c-51.333 0 -94.666 15.667 -129.999 47c-42.667 -31.333 -86.667 -47 -132 -47c-74 0 -131 20.333 -171 61
c-48 -40.667 -105 -61 -171 -61h-180v225h185c18 0.666992 36.833 14.167 56.5 40.5s34.5 56.166 44.5 89.499c44.667 145.333 96 218 154 218c36 0 54 -19.333 54 -58c0 -39.333 -8.66699 -85.666 -26 -138.999c-18 -54 -27 -91.667 -27 -113
c0 -17.333 3.66699 -28.5 11 -33.5s22.666 -7.5 45.999 -7.5c38 0 60.667 19 68 57c38.667 198.667 79.334 298 122.001 298c43.333 0 65 -32.667 65 -98c0 -20.667 -3.33301 -50 -10 -88c-6.66699 -38.667 -10 -68.334 -10 -89.001c0 -26 5.66699 -46.167 17 -60.5
s38.666 -21.5 81.999 -21.5c53.333 0 80 36.333 80 109c0 88 -24 178.667 -72 272l133 205c24.667 -57.333 45 -128 61 -212s24 -152.667 24 -206s14.167 -93.833 42.5 -121.5s71.166 -41.5 128.499 -41.5zM858.001 1035l-153 -154l-154 154l154 153zM798.001 -378
l-153 -154l-154 154l154 153z" />
    <glyph glyph-name="glyph1423" unicode="&#x69a;" 
d="M1229 225v-224.998c-70.667 0 -123 16 -157 48c-44 -30.667 -99 -46 -165 -46c-57.333 0 -98.333 18.667 -123 56c-21.333 -40 -57.333 -60 -108 -60c-34.667 0 -62 11.333 -82 34c0 -117.333 -27.333 -214 -82 -290s-132.334 -114 -233.001 -114
c-186 0 -279 152 -279 456c0 69.333 23.833 174.333 71.5 315s93.5 211 137.5 211c20 0 30 -18 30 -54c0 -28.667 -20.667 -90 -62 -184c-36 -82 -54 -181 -54 -297c0 -68.667 15 -123.334 45 -164.001s71 -61 123 -61c76 0 126.667 17.333 152 52s38 82.667 38 144
c0 84 -22 177 -66 279c24.667 122.667 41.334 227 50.001 313c68 -81.333 111.333 -217 130 -407c16 -15.333 36 -23 60 -23c32 0 57.667 51.333 77 154c16.667 86.667 33.167 145 49.5 175s38.833 45 67.5 45s43 -31.667 43 -95c0 -18.667 -3.33301 -48.334 -10 -89.001
s-10 -70.667 -10 -90c0 -62 26.667 -93 80 -93c23.333 0 43 9.5 59 28.5s24 41.833 24 68.5c0 102.667 -23.667 208.667 -71 318l145 202c44.667 -188 67.5 -336.167 68.5 -444.5s18.167 -162.5 51.5 -162.5zM998 1035l-153 -154l-154 154l154 153zM998 -377.998l-153 -154
l-154 154l154 153z" />
    <glyph glyph-name="glyph1428" unicode="&#x69b;" 
d="M751 48c-43.333 -32 -87.333 -48 -132 -48c-74.667 0 -131.667 20.667 -171 62c-49.333 -41.333 -106.333 -62 -171 -62h-277v225h283c40 0 73.333 43.667 100 131c44 145.333 95.333 218 154 218c36 0 54 -19.333 54 -58c0 -39.333 -9 -86 -27 -140
c-17.333 -53.333 -26 -90.666 -26 -111.999c0 -14.667 3 -25.167 9 -31.5s22 -9.5 48 -9.5c38 0 60.667 19 68 57c38.667 198.667 79.334 298 122.001 298c43.333 0 65 -32.667 65 -98c0 -20.667 -3.33301 -50.334 -10 -89.001c-6.66699 -38 -10 -67.333 -10 -88
c0 -26.667 5.66699 -47 17 -61s38.666 -21 81.999 -21c53.333 0 80 36.333 80 109c0 74 -31.667 164 -95 270l151 210c35.333 -50 62.833 -115 82.5 -195s29.5 -154.667 29.5 -224c0 -122 -25 -217.667 -75 -287s-123.667 -104 -221 -104c-52 0 -95.333 16 -130 48z
M961 -258l-119 -136l-121 115l-106 -108l-119 122l115 133l118 -126l108 119zM846 -482l-116 -132l-118 132l118 116z" />
    <glyph glyph-name="glyph1429" unicode="&#x69b;" 
d="M1229 225l0.000976562 -225c-120 0 -195.333 54 -226 162c-30.667 -67.333 -62.667 -111.166 -96 -131.499s-74.333 -30.5 -123 -30.5c-51.333 0 -94.666 15.667 -129.999 47c-42.667 -31.333 -86.667 -47 -132 -47c-74 0 -131 20.333 -171 61
c-48 -40.667 -105 -61 -171 -61h-180v225h185c18 0.666992 36.833 14.167 56.5 40.5s34.5 56.166 44.5 89.499c44.667 145.333 96 218 154 218c36 0 54 -19.333 54 -58c0 -39.333 -8.66699 -85.666 -26 -138.999c-18 -54 -27 -91.667 -27 -113
c0 -17.333 3.66699 -28.5 11 -33.5s22.666 -7.5 45.999 -7.5c38 0 60.667 19 68 57c38.667 198.667 79.334 298 122.001 298c43.333 0 65 -32.667 65 -98c0 -20.667 -3.33301 -50 -10 -88c-6.66699 -38.667 -10 -68.334 -10 -89.001c0 -26 5.66699 -46.167 17 -60.5
s38.666 -21.5 81.999 -21.5c53.333 0 80 36.333 80 109c0 88 -24 178.667 -72 272l133 205c24.667 -57.333 45 -128 61 -212s24 -152.667 24 -206s14.167 -93.833 42.5 -121.5s71.166 -41.5 128.499 -41.5zM861.001 -258l-119 -136l-121 115l-106 -108l-119 122l115 133
l118 -126l108 119zM746.001 -482l-116 -132l-118 132l118 116z" />
    <glyph glyph-name="glyph1427" unicode="&#x69b;" 
d="M1229 225v-224.998c-70.667 0 -123 16 -157 48c-44 -30.667 -99 -46 -165 -46c-57.333 0 -98.333 18.667 -123 56c-21.333 -40 -57.333 -60 -108 -60c-34.667 0 -62 11.333 -82 34c0 -117.333 -27.333 -214 -82 -290s-132.334 -114 -233.001 -114
c-186 0 -279 152 -279 456c0 69.333 23.833 174.333 71.5 315s93.5 211 137.5 211c20 0 30 -18 30 -54c0 -28.667 -20.667 -90 -62 -184c-36 -82 -54 -181 -54 -297c0 -68.667 15 -123.334 45 -164.001s71 -61 123 -61c76 0 126.667 17.333 152 52s38 82.667 38 144
c0 84 -22 177 -66 279c24.667 122.667 41.334 227 50.001 313c68 -81.333 111.333 -217 130 -407c16 -15.333 36 -23 60 -23c32 0 57.667 51.333 77 154c16.667 86.667 33.167 145 49.5 175s38.833 45 67.5 45s43 -31.667 43 -95c0 -18.667 -3.33301 -48.334 -10 -89.001
s-10 -70.667 -10 -90c0 -62 26.667 -93 80 -93c23.333 0 43 9.5 59 28.5s24 41.833 24 68.5c0 102.667 -23.667 208.667 -71 318l145 202c44.667 -188 67.5 -336.167 68.5 -444.5s18.167 -162.5 51.5 -162.5zM1061 -257.998l-119 -136l-121 115l-106 -108l-119 122l115 133
l118 -126l108 119zM946 -481.998l-116 -132l-118 132l118 116z" />
    <glyph glyph-name="glyph1432" unicode="&#x69c;" 
d="M751 48c-43.333 -32 -87.333 -48 -132 -48c-74.667 0 -131.667 20.667 -171 62c-49.333 -41.333 -106.333 -62 -171 -62h-277v225h283c40 0 73.333 43.667 100 131c44 145.333 95.333 218 154 218c36 0 54 -19.333 54 -58c0 -39.333 -9 -86 -27 -140
c-17.333 -53.333 -26 -90.666 -26 -111.999c0 -14.667 3 -25.167 9 -31.5s22 -9.5 48 -9.5c38 0 60.667 19 68 57c38.667 198.667 79.334 298 122.001 298c43.333 0 65 -32.667 65 -98c0 -20.667 -3.33301 -50.334 -10 -89.001c-6.66699 -38 -10 -67.333 -10 -88
c0 -26.667 5.66699 -47 17 -61s38.666 -21 81.999 -21c53.333 0 80 36.333 80 109c0 74 -31.667 164 -95 270l151 210c35.333 -50 62.833 -115 82.5 -195s29.5 -154.667 29.5 -224c0 -122 -25 -217.667 -75 -287s-123.667 -104 -221 -104c-52 0 -95.333 16 -130 48z
M961 -258l-119 -136l-121 115l-106 -108l-119 122l115 133l118 -126l108 119zM846 -482l-116 -132l-118 132l118 116zM873 1426l-156 -154l-153 154l153 153zM1013 1149l-154 -157l-141 141l-154 -154l-153 154l156 156l138 -140l154 153z" />
    <glyph glyph-name="glyph1433" unicode="&#x69c;" 
d="M1229 225l0.000976562 -225c-120 0 -195.333 54 -226 162c-30.667 -67.333 -62.667 -111.166 -96 -131.499s-74.333 -30.5 -123 -30.5c-51.333 0 -94.666 15.667 -129.999 47c-42.667 -31.333 -86.667 -47 -132 -47c-74 0 -131 20.333 -171 61
c-48 -40.667 -105 -61 -171 -61h-180v225h185c18 0.666992 36.833 14.167 56.5 40.5s34.5 56.166 44.5 89.499c44.667 145.333 96 218 154 218c36 0 54 -19.333 54 -58c0 -39.333 -8.66699 -85.666 -26 -138.999c-18 -54 -27 -91.667 -27 -113
c0 -17.333 3.66699 -28.5 11 -33.5s22.666 -7.5 45.999 -7.5c38 0 60.667 19 68 57c38.667 198.667 79.334 298 122.001 298c43.333 0 65 -32.667 65 -98c0 -20.667 -3.33301 -50 -10 -88c-6.66699 -38.667 -10 -68.334 -10 -89.001c0 -26 5.66699 -46.167 17 -60.5
s38.666 -21.5 81.999 -21.5c53.333 0 80 36.333 80 109c0 88 -24 178.667 -72 272l133 205c24.667 -57.333 45 -128 61 -212s24 -152.667 24 -206s14.167 -93.833 42.5 -121.5s71.166 -41.5 128.499 -41.5zM861.001 -258l-119 -136l-121 115l-106 -108l-119 122l115 133
l118 -126l108 119zM746.001 -482l-116 -132l-118 132l118 116zM773.001 1426l-156 -154l-153 154l153 153zM913.001 1149l-154 -157l-141 141l-154 -154l-153 154l156 156l138 -140l154 153z" />
    <glyph glyph-name="glyph1431" unicode="&#x69c;" 
d="M1229 225v-224.998c-70.667 0 -123 16 -157 48c-44 -30.667 -99 -46 -165 -46c-57.333 0 -98.333 18.667 -123 56c-21.333 -40 -57.333 -60 -108 -60c-34.667 0 -62 11.333 -82 34c0 -117.333 -27.333 -214 -82 -290s-132.334 -114 -233.001 -114
c-186 0 -279 152 -279 456c0 69.333 23.833 174.333 71.5 315s93.5 211 137.5 211c20 0 30 -18 30 -54c0 -28.667 -20.667 -90 -62 -184c-36 -82 -54 -181 -54 -297c0 -68.667 15 -123.334 45 -164.001s71 -61 123 -61c76 0 126.667 17.333 152 52s38 82.667 38 144
c0 84 -22 177 -66 279c24.667 122.667 41.334 227 50.001 313c68 -81.333 111.333 -217 130 -407c16 -15.333 36 -23 60 -23c32 0 57.667 51.333 77 154c16.667 86.667 33.167 145 49.5 175s38.833 45 67.5 45s43 -31.667 43 -95c0 -18.667 -3.33301 -48.334 -10 -89.001
s-10 -70.667 -10 -90c0 -62 26.667 -93 80 -93c23.333 0 43 9.5 59 28.5s24 41.833 24 68.5c0 102.667 -23.667 208.667 -71 318l145 202c44.667 -188 67.5 -336.167 68.5 -444.5s18.167 -162.5 51.5 -162.5zM1061 -257.998l-119 -136l-121 115l-106 -108l-119 122l115 133
l118 -126l108 119zM946 -481.998l-116 -132l-118 132l118 116zM873 1426l-156 -154l-153 154l153 153zM1013 1149l-154 -157l-141 141l-154 -154l-153 154l156 156l138 -140l154 153z" />
    <glyph glyph-name="glyph1436" unicode="&#x69d;" 
d="M316 73c-61.333 -48.667 -166.665 -72.999 -315.998 -72.999v225h104c48 0 84.333 24.333 109 73c34.667 99.333 56.5 155.666 65.5 168.999s19.167 23.333 30.5 30s23.666 10 36.999 10c31.333 0 47 -20 47 -60c0 -16 -4 -44 -12 -84
c-7.33301 -40.667 -11 -68.667 -11 -84c0 -47.333 34 -71 102 -71c112.667 213.333 203.167 352.5 271.5 417.5s136.166 97.5 203.499 97.5c158 0 237 -117.667 237 -353c0 -84.667 -18.5 -154.667 -55.5 -210s-92.5 -95.833 -166.5 -121.5s-197.667 -38.5 -371 -38.5
c-137.333 -0 -229 24.333 -275 73zM627.001 225.001h284c85.333 0 128 34.667 128 104c0 113.333 -44.333 170 -133 170c-80.667 0 -173.667 -91.333 -279 -274zM1051 -383.999l-155 -157l-141 136l-153 -148l-154 154l156 156l139 -141l154 154z" />
    <glyph glyph-name="glyph1437" unicode="&#x69d;" 
d="M1144 244c10 -12.667 38.332 -19 84.999 -19v-225c-96 0 -162 32 -198 96c-35.333 -37.333 -82.666 -62.666 -141.999 -75.999s-158.666 -20 -297.999 -20c-137.333 0 -229 24.333 -275 73c-61.333 -48.667 -166.666 -73 -315.999 -73v225h104c48 0 84.333 24.333 109 73
c34.667 99.333 56.5 155.666 65.5 168.999s19.167 23.333 30.5 30s23.666 10 36.999 10c31.333 0 47 -20 47 -60c0 -16 -4 -44 -12 -84c-7.33301 -40.667 -11 -68.667 -11 -84c0 -47.333 34 -71 102 -71c112.667 213.333 203.167 352.5 271.5 417.5
s136.166 97.5 203.499 97.5c79.333 0 139 -31 179 -93s60 -141.667 60 -239c0 -61.333 -14 -110.333 -42 -147zM626.999 225h284c85.333 0 128 34.667 128 104c0 113.333 -44.333 170 -133 170c-80.667 0 -173.667 -91.333 -279 -274zM1051 -384l-155 -157l-141 136
l-153 -148l-154 154l156 156l139 -141l154 154z" />
    <glyph glyph-name="glyph1435" unicode="&#x69d;" 
d="M1139 255c18.667 -20 48.667 -30 90 -30v-225c-70 0 -128.667 30.667 -176 92c-86 -62 -181.333 -93 -286 -93c-94 0 -158.667 12 -194 36c-30 -280.667 -132 -421 -306 -421c-98 0 -166.5 37.833 -205.5 113.5s-58.5 202.167 -58.5 379.5c0 94.667 24.333 202 73 322
s91 180 127 180c26 0 39 -11.333 39 -34c0 -22 -21.333 -88.667 -64 -200c-38 -100 -57 -201 -57 -303c0 -64.667 15.667 -118 47 -160s70.666 -63 117.999 -63c123.333 0 185 65.333 185 196c0 82 -19.667 173.333 -59 274l51 331c73.333 -206 111 -353.333 113 -442
c15.333 0 28 0.666992 38 2c80.667 202.667 146.834 339.5 198.501 410.5s100.5 106.5 146.5 106.5c142.667 0 214 -112 214 -336c0 -70.667 -11.333 -116 -34 -136zM731 226c42 -6 110 -9 204 -9c67.333 0 101 29.333 101 88c0 58 -12.5 104.667 -37.5 140
s-55.167 53 -90.5 53c-56.667 0 -115.667 -90.667 -177 -272zM1151 -384l-155 -157l-141 136l-153 -148l-154 154l156 156l139 -141l154 154z" />
    <glyph glyph-name="glyph1440" unicode="&#x69e;" 
d="M316 73c-61.333 -48.667 -166.665 -72.999 -315.998 -72.999v225h104c48 0 84.333 24.333 109 73c34.667 99.333 56.5 155.666 65.5 168.999s19.167 23.333 30.5 30s23.666 10 36.999 10c31.333 0 47 -20 47 -60c0 -16 -4 -44 -12 -84
c-7.33301 -40.667 -11 -68.667 -11 -84c0 -47.333 34 -71 102 -71c112.667 213.333 203.167 352.5 271.5 417.5s136.166 97.5 203.499 97.5c158 0 237 -117.667 237 -353c0 -84.667 -18.5 -154.667 -55.5 -210s-92.5 -95.833 -166.5 -121.5s-197.667 -38.5 -371 -38.5
c-137.333 -0 -229 24.333 -275 73zM627.001 225.001h284c85.333 0 128 34.667 128 104c0 113.333 -44.333 170 -133 170c-80.667 0 -173.667 -91.333 -279 -274zM973.001 1426l-156 -154l-153 154l153 153zM1113 1149l-154 -157l-141 141l-154 -154l-153 154l156 156
l138 -140l154 153z" />
    <glyph glyph-name="glyph1441" unicode="&#x69e;" 
d="M1144 244c10 -12.667 38.332 -19 84.999 -19v-225c-96 0 -162 32 -198 96c-35.333 -37.333 -82.666 -62.666 -141.999 -75.999s-158.666 -20 -297.999 -20c-137.333 0 -229 24.333 -275 73c-61.333 -48.667 -166.666 -73 -315.999 -73v225h104c48 0 84.333 24.333 109 73
c34.667 99.333 56.5 155.666 65.5 168.999s19.167 23.333 30.5 30s23.666 10 36.999 10c31.333 0 47 -20 47 -60c0 -16 -4 -44 -12 -84c-7.33301 -40.667 -11 -68.667 -11 -84c0 -47.333 34 -71 102 -71c112.667 213.333 203.167 352.5 271.5 417.5
s136.166 97.5 203.499 97.5c79.333 0 139 -31 179 -93s60 -141.667 60 -239c0 -61.333 -14 -110.333 -42 -147zM626.999 225h284c85.333 0 128 34.667 128 104c0 113.333 -44.333 170 -133 170c-80.667 0 -173.667 -91.333 -279 -274zM972.999 1426l-156 -154l-153 154
l153 153zM1113 1149l-154 -157l-141 141l-154 -154l-153 154l156 156l138 -140l154 153z" />
    <glyph glyph-name="glyph1439" unicode="&#x69e;" 
d="M1139 255c18.667 -20 48.667 -30 90 -30v-225c-70 0 -128.667 30.667 -176 92c-86 -62 -181.333 -93 -286 -93c-94 0 -158.667 12 -194 36c-30 -280.667 -132 -421 -306 -421c-98 0 -166.5 37.833 -205.5 113.5s-58.5 202.167 -58.5 379.5c0 94.667 24.333 202 73 322
s91 180 127 180c26 0 39 -11.333 39 -34c0 -22 -21.333 -88.667 -64 -200c-38 -100 -57 -201 -57 -303c0 -64.667 15.667 -118 47 -160s70.666 -63 117.999 -63c123.333 0 185 65.333 185 196c0 82 -19.667 173.333 -59 274l51 331c73.333 -206 111 -353.333 113 -442
c15.333 0 28 0.666992 38 2c80.667 202.667 146.834 339.5 198.501 410.5s100.5 106.5 146.5 106.5c142.667 0 214 -112 214 -336c0 -70.667 -11.333 -116 -34 -136zM731 226c42 -6 110 -9 204 -9c67.333 0 101 29.333 101 88c0 58 -12.5 104.667 -37.5 140
s-55.167 53 -90.5 53c-56.667 0 -115.667 -90.667 -177 -272zM973 1426l-156 -154l-153 154l153 153zM1113 1149l-154 -157l-141 141l-154 -154l-153 154l156 156l138 -140l154 153z" />
    <glyph glyph-name="glyph1443" unicode="&#x69f;" 
d="M1144 243c12 -12 40.332 -17.998 84.999 -17.998v-225c-93.333 0 -159.333 32 -198 96c-64 -64 -183.667 -96 -359 -96h-466c-42.667 0 -83.5 20.667 -122.5 62s-66.833 95.666 -83.5 162.999h221c63.333 60 95 139.667 95 239c0 337.333 -22.667 543.333 -68 618
l126 205l173 -177c-52 -61.333 -78 -174.333 -78 -339l3 -138c0 -44.667 -10.333 -127.334 -31 -248.001c182.667 224 343.334 336 482.001 336c175.333 0 263 -110.667 263 -332c0 -53.333 -14 -102 -42 -146zM455.999 225.002l393.002 0.000976562
c116 0 174 34.333 174 103c0 51.333 -15.5 93.666 -46.5 126.999s-66.833 50 -107.5 50c-24.667 0 -53.834 -8.16699 -87.501 -24.5s-62.834 -34 -87.501 -53s-104 -86.5 -238 -202.5zM1073 1426l-156 -154l-153 154l153 153zM1213 1149l-154 -157l-141 141l-154 -154
l-153 154l156 156l138 -140l154 153z" />
    <glyph glyph-name="glyph1448" unicode="&#x6a0;" 
d="M993 405l-32 -227.998c-54.667 -12.667 -138.667 -35.667 -252 -69c-245.333 -72 -433 -108 -563 -108h-146v225h45c125.333 0 223.333 7.33301 294 22c-55.333 50 -83 90 -83 120c0 94 38 184.833 114 272.5s163.333 131.5 262 131.5c80 0 151.833 -23.833 215.5 -71.5
s95.5 -94.167 95.5 -139.5c0 -30.667 -8.33301 -46 -25 -46c-6.66699 0 -16.667 6 -30 18c-53.333 46.667 -141 70 -263 70c-39.333 0 -85.833 -13.667 -139.5 -41s-80.5 -57.333 -80.5 -90c0 -46.667 26.167 -82.834 78.5 -108.501s114.833 -38.5 187.5 -38.5
c24 0 51.333 2.66699 82 8s110.667 29.666 240 72.999zM713 1426l-156 -154l-153 154l153 153zM853 1149l-154 -157l-141 141l-154 -154l-153 154l156 156l138 -140l154 153z" />
    <glyph glyph-name="glyph1449" unicode="&#x6a0;" 
d="M1229 0l-176.999 0.000976562c-146.667 0 -255.667 89.333 -327 268c-35.333 -18 -75.333 -48.667 -120 -92c-120.667 -117.333 -235.334 -176 -344.001 -176h-261v225h272c32 0 65.833 5.16699 101.5 15.5s123.167 60.166 262.5 149.499c-52 44 -123.333 69.333 -214 76
l85 219c104.667 30 187.667 45 249 45c190.667 0 286 -62.667 286 -188c0 -78.667 -67 -151.334 -201 -218.001c31.333 -39.333 72.5 -65.666 123.5 -78.999s139.167 -20 264.5 -20v-225zM589.001 572.001c65.333 -31.333 123.333 -72.666 174 -123.999
c24 7.33301 50.167 21.166 78.5 41.499s42.5 37.5 42.5 51.5c0 42.667 -43 64 -129 64c-50.667 0 -106 -11 -166 -33zM873.001 1426l-156 -154l-153 154l153 153zM1013 1149l-154 -157l-141 141l-154 -154l-153 154l156 156l138 -140l154 153z" />
    <glyph glyph-name="glyph1447" unicode="&#x6a0;" 
d="M1229 -274c0 -34 -25.999 -80.6641 -77.999 -139.997c-54.667 -63.333 -116.834 -112.5 -186.501 -147.5s-138.167 -52.5 -205.5 -52.5c-109.333 0 -199.333 17 -270 51c-100.667 49.333 -170.834 106.166 -210.501 170.499s-59.5 149.166 -59.5 254.499
c0 78 51.333 176.333 154 295c76 88 158 165.333 246 232c-41.333 43.333 -111.666 68.666 -210.999 75.999l85 219c112.667 30 195.667 45 249 45c137.333 0 226.333 -25.667 267 -77c21.333 -28 32 -64 32 -108c0 -76 -70.667 -149 -212 -219
c24 -39.333 62.667 -65.833 116 -79.5s148 -20.5 284 -20.5v-225h-194c-142.667 -0 -252.667 92.333 -330 277c-72 -51.333 -142 -120.333 -210 -207c-31.333 -46.667 -50.833 -78.834 -58.5 -96.501s-11.5 -44.5 -11.5 -80.5c0 -41.333 19.167 -85.666 57.5 -132.999
s83.166 -80.666 134.499 -99.999c56 -21.333 109 -32 159 -32c62.667 0 114.834 6.16699 156.501 18.5s123.167 40.166 244.5 83.499c15.333 5.33301 27.833 8 37.5 8s14.5 -4 14.5 -12zM884.001 542.003c0 42.667 -43.001 64.001 -129.001 64.001
c-47.333 0 -102.666 -11.333 -165.999 -34c70 -36 128 -77 174 -123c25.333 8 51.833 22.167 79.5 42.5s41.5 37.166 41.5 50.499zM873 1426l-156 -154l-153 154l153 153zM1013 1149l-154 -157l-141 141l-154 -154l-153 154l156 156l138 -140l154 153z" />
    <glyph glyph-name="glyph1456" unicode="&#x6a2;" 
d="M0 0v225.003h783c68 0 120.167 2.66699 156.5 8s66.166 18.333 89.499 39s35 48.667 35 84c-55.333 -22.667 -99 -34 -131 -34c-51.333 0 -101.166 12.167 -149.499 36.5s-72.5 57.166 -72.5 98.499c0 87.333 26 183.666 78 288.999s112.333 158 181 158
c69.333 0 127 -52.833 173 -158.5s69 -207.167 69 -304.5c0 -168.667 -29.5 -284.334 -88.5 -347.001s-173.5 -94 -343.5 -94h-780zM1020 540.003c-4 37.333 -14.333 73 -31 107s-34 51 -52 51c-22 0 -41.5 -19.833 -58.5 -59.5s-25.5 -75.167 -25.5 -106.5
c0 -18.667 20.667 -28 62 -28c30.667 0 65.667 12 105 36zM1122 -377.997l-153 -154l-154 154l154 153z" />
    <glyph glyph-name="glyph1457" unicode="&#x6a2;" 
d="M1229 0c-64.667 0 -116.498 5.83203 -155.498 17.499s-74.833 37.5 -107.5 77.5c-92.667 -63.333 -234.667 -95 -426 -95h-540v225h353c232.667 0 384 7.33301 454 22c-68.667 85.333 -103 157.333 -103 216s35.333 131.334 106 218.001s136 130 196 130
c45.333 0 84.166 -25.5 116.499 -76.5s48.5 -102.5 48.5 -154.5c0 -141.333 -24 -252 -72 -332c13.333 -15.333 56.666 -23 129.999 -23v-225zM969.002 325.999c26.667 39.333 43.333 72.5 50 99.5s10 63.167 10 108.5c0 24 -7.83301 45 -23.5 63s-35.167 27 -58.5 27
c-24 0 -45.667 -11.667 -65 -35s-29 -47.333 -29 -72c0 -50 38.667 -113.667 116 -191zM1116 -378.001l-153 -154l-154 154l154 153z" />
    <glyph glyph-name="glyph1455" unicode="&#x6a2;" 
d="M1229 0c-62 0 -111.832 5.66602 -149.499 16.999s-73.5 38 -107.5 80c-59.333 -41.333 -121.333 -73.333 -186 -96s-160 -34 -286 -34c-151.333 0 -257.333 9.16699 -318 27.5s-106.167 47.333 -136.5 87s-45.5 89.834 -45.5 150.501c0 52 19.333 123.5 58 214.5
s78.667 136.5 120 136.5c28.667 0 43 -14 43 -42c0 -14 -10 -45.333 -30 -94c-19.333 -49.333 -29 -86.333 -29 -111c0 -47.333 26 -83 78 -107s147 -36 285 -36c136.667 0 232.667 19 288 57c-72.667 79.333 -109 141.333 -109 186c0 59.333 36.5 137 109.5 233
s139.167 144 198.5 144c46 0 85 -25.5 117 -76.5s48 -102.167 48 -153.5c0 -141.333 -24 -252 -72 -332c15.333 -17.333 56.666 -26 123.999 -26v-225zM1036 535.999c0 24 -8 45.001 -24 63.001s-35.667 27 -59 27c-24 0 -45.5 -11.5 -64.5 -34.5s-28.5 -46.833 -28.5 -71.5
c0 -50.667 38.333 -114.334 115 -191.001c40.667 60 61 129 61 207zM1119 -378l-153 -154l-154 154l154 153z" />
    <glyph glyph-name="glyph1460" unicode="&#x6a3;" 
d="M0 0v225.003h783c68 0 120.167 2.66699 156.5 8s66.166 18.333 89.499 39s35 48.667 35 84c-55.333 -22.667 -99 -34 -131 -34c-51.333 0 -101.166 12.167 -149.499 36.5s-72.5 57.166 -72.5 98.499c0 87.333 26 183.666 78 288.999s112.333 158 181 158
c69.333 0 127 -52.833 173 -158.5s69 -207.167 69 -304.5c0 -168.667 -29.5 -284.334 -88.5 -347.001s-173.5 -94 -343.5 -94h-780zM1020 540.003c-4 37.333 -14.333 73 -31 107s-34 51 -52 51c-22 0 -41.5 -19.833 -58.5 -59.5s-25.5 -75.167 -25.5 -106.5
c0 -18.667 20.667 -28 62 -28c30.667 0 65.667 12 105 36zM1122 1239l-153 -154l-154 154l154 153zM1122 -377.997l-153 -154l-154 154l154 153z" />
    <glyph glyph-name="glyph1461" unicode="&#x6a3;" 
d="M1229 0c-64.667 0 -116.498 5.83203 -155.498 17.499s-74.833 37.5 -107.5 77.5c-92.667 -63.333 -234.667 -95 -426 -95h-540v225h353c232.667 0 384 7.33301 454 22c-68.667 85.333 -103 157.333 -103 216s35.333 131.334 106 218.001s136 130 196 130
c45.333 0 84.166 -25.5 116.499 -76.5s48.5 -102.5 48.5 -154.5c0 -141.333 -24 -252 -72 -332c13.333 -15.333 56.666 -23 129.999 -23v-225zM969.002 325.999c26.667 39.333 43.333 72.5 50 99.5s10 63.167 10 108.5c0 24 -7.83301 45 -23.5 63s-35.167 27 -58.5 27
c-24 0 -45.667 -11.667 -65 -35s-29 -47.333 -29 -72c0 -50 38.667 -113.667 116 -191zM1116 1150l-153 -154l-154 154l154 153zM1116 -378.001l-153 -154l-154 154l154 153z" />
    <glyph glyph-name="glyph1459" unicode="&#x6a3;" 
d="M1229 0c-62 0 -111.832 5.66602 -149.499 16.999s-73.5 38 -107.5 80c-59.333 -41.333 -121.333 -73.333 -186 -96s-160 -34 -286 -34c-151.333 0 -257.333 9.16699 -318 27.5s-106.167 47.333 -136.5 87s-45.5 89.834 -45.5 150.501c0 52 19.333 123.5 58 214.5
s78.667 136.5 120 136.5c28.667 0 43 -14 43 -42c0 -14 -10 -45.333 -30 -94c-19.333 -49.333 -29 -86.333 -29 -111c0 -47.333 26 -83 78 -107s147 -36 285 -36c136.667 0 232.667 19 288 57c-72.667 79.333 -109 141.333 -109 186c0 59.333 36.5 137 109.5 233
s139.167 144 198.5 144c46 0 85 -25.5 117 -76.5s48 -102.167 48 -153.5c0 -141.333 -24 -252 -72 -332c15.333 -17.333 56.666 -26 123.999 -26v-225zM1036 535.999c0 24 -8 45.001 -24 63.001s-35.667 27 -59 27c-24 0 -45.5 -11.5 -64.5 -34.5s-28.5 -46.833 -28.5 -71.5
c0 -50.667 38.333 -114.334 115 -191.001c40.667 60 61 129 61 207zM1149 1109l-153 -154l-154 154l154 153zM738.001 -378l-153 -154l-154 154l154 153z" />
    <glyph glyph-name="afii57505" unicode="&#x6a4;" arabic-form="isolated" 
d="M1069 359c-38.667 -20 -83.333 -30.0029 -134 -30.0029c-54 0 -103.5 12.833 -148.5 38.5s-67.5 59.5 -67.5 101.5c0 88 25.5 183.667 76.5 287s110.5 155 178.5 155c69.333 0 127 -52.667 173 -158s69 -206.666 69 -303.999c0 -104 -12.333 -189.667 -37 -257
s-66.667 -116.166 -126 -146.499s-178 -45.5 -356 -45.5h-191c-126 0 -223.333 8.5 -292 25.5s-120.667 45.5 -156 85.5s-53 91.667 -53 155c0 54.667 19 126.667 57 216s78.333 134 121 134c25.333 0 38 -10.667 38 -32c0 -14 -11.667 -46.667 -35 -98
s-35 -89.666 -35 -114.999c0 -46.667 23.333 -82.667 70 -108s152.667 -38 318 -38h184c139.333 0 229.5 6.33301 270.5 19s66.167 51 75.5 115zM1028 545.997c-4 37.333 -14.499 73 -31.499 107s-34.5 51 -52.5 51c-22 0 -41.333 -19.667 -58 -59s-25 -75 -25 -107
c0 -18.667 20.333 -28 61 -28c37.333 0 72.666 12 105.999 36zM1081 1468l-156 -154l-153 154l153 153zM1221 1191l-154 -157l-141 141l-154 -154l-153 154l156 156l138 -140l154 153z" />
    <glyph glyph-name="glyph1464" unicode="&#x6a5;" 
d="M0 0v225.003h783c68 0 120.167 2.66699 156.5 8s66.166 18.333 89.499 39s35 48.667 35 84c-55.333 -22.667 -99 -34 -131 -34c-51.333 0 -101.166 12.167 -149.499 36.5s-72.5 57.166 -72.5 98.499c0 87.333 26 183.666 78 288.999s112.333 158 181 158
c69.333 0 127 -52.833 173 -158.5s69 -207.167 69 -304.5c0 -168.667 -29.5 -284.334 -88.5 -347.001s-173.5 -94 -343.5 -94h-780zM1020 540.003c-4 37.333 -14.333 73 -31 107s-34 51 -52 51c-22 0 -41.5 -19.833 -58.5 -59.5s-25.5 -75.167 -25.5 -106.5
c0 -18.667 20.667 -28 62 -28c30.667 0 65.667 12 105 36zM1061 -257.997l-119 -136l-121 115l-106 -108l-119 122l115 133l118 -126l108 119zM946 -481.997l-116 -132l-118 132l118 116z" />
    <glyph glyph-name="glyph1465" unicode="&#x6a5;" 
d="M1229 0c-64.667 0 -116.498 5.83203 -155.498 17.499s-74.833 37.5 -107.5 77.5c-92.667 -63.333 -234.667 -95 -426 -95h-540v225h353c232.667 0 384 7.33301 454 22c-68.667 85.333 -103 157.333 -103 216s35.333 131.334 106 218.001s136 130 196 130
c45.333 0 84.166 -25.5 116.499 -76.5s48.5 -102.5 48.5 -154.5c0 -141.333 -24 -252 -72 -332c13.333 -15.333 56.666 -23 129.999 -23v-225zM969.002 325.999c26.667 39.333 43.333 72.5 50 99.5s10 63.167 10 108.5c0 24 -7.83301 45 -23.5 63s-35.167 27 -58.5 27
c-24 0 -45.667 -11.667 -65 -35s-29 -47.333 -29 -72c0 -50 38.667 -113.667 116 -191zM1061 -258.001l-119 -136l-121 115l-106 -108l-119 122l115 133l118 -126l108 119zM946.001 -482.001l-116 -132l-118 132l118 116z" />
    <glyph glyph-name="glyph1463" unicode="&#x6a5;" 
d="M1229 0c-62 0 -111.832 5.66602 -149.499 16.999s-73.5 38 -107.5 80c-59.333 -41.333 -121.333 -73.333 -186 -96s-160 -34 -286 -34c-151.333 0 -257.333 9.16699 -318 27.5s-106.167 47.333 -136.5 87s-45.5 89.834 -45.5 150.501c0 52 19.333 123.5 58 214.5
s78.667 136.5 120 136.5c28.667 0 43 -14 43 -42c0 -14 -10 -45.333 -30 -94c-19.333 -49.333 -29 -86.333 -29 -111c0 -47.333 26 -83 78 -107s147 -36 285 -36c136.667 0 232.667 19 288 57c-72.667 79.333 -109 141.333 -109 186c0 59.333 36.5 137 109.5 233
s139.167 144 198.5 144c46 0 85 -25.5 117 -76.5s48 -102.167 48 -153.5c0 -141.333 -24 -252 -72 -332c15.333 -17.333 56.666 -26 123.999 -26v-225zM1036 535.999c0 24 -8 45.001 -24 63.001s-35.667 27 -59 27c-24 0 -45.5 -11.5 -64.5 -34.5s-28.5 -46.833 -28.5 -71.5
c0 -50.667 38.333 -114.334 115 -191.001c40.667 60 61 129 61 207zM801.001 -258l-119 -136l-121 115l-106 -108l-119 122l115 133l118 -126l108 119zM686.001 -482l-116 -132l-118 132l118 116z" />
    <glyph glyph-name="uni06A6" unicode="&#x6a6;" arabic-form="isolated" 
d="M1069 359c-38.667 -20 -83.333 -30.0029 -134 -30.0029c-54 0 -103.5 12.833 -148.5 38.5s-67.5 59.5 -67.5 101.5c0 88 25.5 183.667 76.5 287s110.5 155 178.5 155c69.333 0 127 -52.667 173 -158s69 -206.666 69 -303.999c0 -104 -12.333 -189.667 -37 -257
s-66.667 -116.166 -126 -146.499s-178 -45.5 -356 -45.5h-191c-126 0 -223.333 8.5 -292 25.5s-120.667 45.5 -156 85.5s-53 91.667 -53 155c0 54.667 19 126.667 57 216s78.333 134 121 134c25.333 0 38 -10.667 38 -32c0 -14 -11.667 -46.667 -35 -98
s-35 -89.666 -35 -114.999c0 -46.667 23.333 -82.667 70 -108s152.667 -38 318 -38h184c139.333 0 229.5 6.33301 270.5 19s66.167 51 75.5 115zM1028 545.997c-4 37.333 -14.499 73 -31.499 107s-34.5 51 -52.5 51c-22 0 -41.333 -19.667 -58 -59s-25 -75 -25 -107
c0 -18.667 20.333 -28 61 -28c37.333 0 72.666 12 105.999 36zM1194 1140l-110 -111l-101 102l-108 -110l-110 111l96 96l-105 106l110 109l100 -99l109 107l110 -109l-97 -97zM1070 1236l-96 97l-95 -96l96 -95z" />
    <glyph glyph-name="glyph1473" unicode="&#x6a7;" 
d="M1229 0l-55.001 0.000976562c-16.667 -109.333 -81.5 -196.166 -194.5 -260.499s-235.167 -96.5 -366.5 -96.5c-100 0 -185.333 15.167 -256 45.5s-124 73.666 -160 129.999s-54 125.833 -54 208.5c0 50 18.333 122.667 55 218s70 143 100 143c24.667 0 37 -17 37 -51
c0 -28 -8 -69 -24 -123c-16 -54.667 -24 -95 -24 -121c0 -67.333 28.333 -119.833 85 -157.5s132.334 -56.5 227.001 -56.5h34c92.667 0 170.167 4.83301 232.5 14.5s106.333 22.167 132 37.5s40 26.666 43 33.999s4.5 19 4.5 35c-228.667 0 -343 52 -343 156
c0 90.667 25.667 198.667 77 324s110 188 176 188c65.333 0 116.833 -39.667 154.5 -119s59.167 -187.333 64.5 -324h55v-225zM1030 225.001c0 54.667 -7.66895 107.668 -23.002 159.001s-36.666 77 -63.999 77c-23.333 0 -43.166 -23.833 -59.499 -71.5
s-24.5 -89.834 -24.5 -126.501c0 -29.333 32 -44 96 -44c24.667 0 49.667 2 75 6zM1106 1130l-153 -154l-154 154l154 153z" />
    <glyph glyph-name="glyph1475" unicode="&#x6a8;" 
d="M1229 0l-55.001 0.000976562c-16.667 -109.333 -81.5 -196.166 -194.5 -260.499s-235.167 -96.5 -366.5 -96.5c-100 0 -185.333 15.167 -256 45.5s-124 73.666 -160 129.999s-54 125.833 -54 208.5c0 50 18.333 122.667 55 218s70 143 100 143c24.667 0 37 -17 37 -51
c0 -28 -8 -69 -24 -123c-16 -54.667 -24 -95 -24 -121c0 -67.333 28.333 -119.833 85 -157.5s132.334 -56.5 227.001 -56.5h34c92.667 0 170.167 4.83301 232.5 14.5s106.333 22.167 132 37.5s40 26.666 43 33.999s4.5 19 4.5 35c-228.667 0 -343 52 -343 156
c0 90.667 25.667 198.667 77 324s110 188 176 188c65.333 0 116.833 -39.667 154.5 -119s59.167 -187.333 64.5 -324h55v-225zM1030 225.001c0 54.667 -7.66895 107.668 -23.002 159.001s-36.666 77 -63.999 77c-23.333 0 -43.166 -23.833 -59.499 -71.5
s-24.5 -89.834 -24.5 -126.501c0 -29.333 32 -44 96 -44c24.667 0 49.667 2 75 6zM1013 1426l-156 -154l-153 154l153 153zM1153 1149l-154 -157l-141 141l-154 -154l-153 154l156 156l138 -140l154 153z" />
    <glyph glyph-name="afii57567" unicode="&#x6a9;" arabic-form="isolated" 
d="M1216 1256l-57 -224.001c-274 -101.333 -411 -171.666 -411 -210.999c0 -12 8.33301 -25.333 25 -40c129.333 -112 212.5 -188.5 249.5 -229.5s63.833 -86 80.5 -135s25 -103.167 25 -162.5c0 -82 -26.333 -147.167 -79 -195.5s-181 -72.5 -385 -72.5
c-290 0 -473.167 23.667 -549.5 71s-114.5 115.666 -114.5 204.999c0 54.667 20.5 127 61.5 217s84.5 135 130.5 135c18.667 0 28 -11.667 28 -35c0 -18.667 -12.333 -53.334 -37 -104.001c-24 -51.333 -36 -89.333 -36 -114c0 -46.667 22.333 -82.5 67 -107.5
s149.334 -37.5 314.001 -37.5c215.333 0 348.666 3.33301 399.999 10s77 18 77 34c0 29.333 -12 57.833 -36 85.5s-81.333 74.834 -172 141.501c-168 124.667 -252 221.334 -252 290.001c0 162 223.667 321.667 671 479z" />
    <glyph glyph-name="glyph1478" unicode="&#x6aa;" 
d="M1196 295c0 -128 -90.3311 -214.001 -270.998 -258.001c-100.667 -24.667 -251.334 -37 -452.001 -37h-473v225h469c287.333 0 470.666 11 549.999 33c38 10.667 57 31.334 57 62.001c0 31.333 -43.667 47 -131 47c-33.333 0 -99.333 -3.66699 -198 -11l-46 -3
c-180.667 -13.333 -315 -20 -403 -20c-90 0 -135 52 -135 156c0 64 31.167 137.833 93.5 221.5s147.166 165.834 254.499 246.501l-17 -213c-68 -50.667 -105.667 -79.667 -113 -87c-50 -44.667 -75 -84.334 -75 -119.001c0 -13.333 10 -20 30 -20h16
c6 0.666992 10.333 1 13 1s118.667 7 348 21c109.333 6.66699 200.333 10 273 10c60.667 0 109.334 -19 146.001 -57c42.667 -44.667 64 -110.667 64 -198z" />
    <glyph glyph-name="glyph1479" unicode="&#x6aa;" 
d="M1229 0c-64 0 -120 19.666 -168 58.999c-90.667 -39.333 -286.667 -59 -588 -59h-473v225h469c287.333 0 470.666 11 549.999 33c38 10.667 57 31.334 57 62.001c0 31.333 -43.667 47 -131 47c-33.333 0 -99.666 -3.66699 -198.999 -11l-45 -3
c-180.667 -13.333 -315 -20 -403 -20c-90 0 -135 52 -135 156c0 64 31.167 137.833 93.5 221.5s147.166 165.834 254.499 246.501l-17 -213c-68 -50.667 -105.667 -79.667 -113 -87c-50 -44.667 -75 -84.334 -75 -119.001c0 -13.333 10 -20 30 -20h16
c6 0.666992 10.333 1 13 1s118.667 7 348 21c109.333 6.66699 200.333 10 273 10c60.667 0 109.334 -19 146.001 -57c42.667 -44.667 64 -110.667 64 -198c0 -24 -1.66699 -45.667 -5 -65c13.333 -3.33301 26 -5 38 -5v-225z" />
    <glyph glyph-name="glyph1477" unicode="&#x6aa;" 
d="M1229 0c-64 0 -119.999 19.666 -167.999 58.999c-50.667 -24 -123 -41 -217 -51c-113.333 -12 -237 -18 -371 -18c-114.667 0 -230 3.33301 -346 10l-122 237l7 11c131.333 -21.333 283.666 -32 456.999 -32c266 0 449.333 14 550 42c38 10.667 57 31.334 57 62.001
c0 31.333 -43.667 47 -131 47c-33.333 0 -99.333 -3.66699 -198 -11l-46 -3c-180.667 -13.333 -315 -20 -403 -20c-90 0 -135 52 -135 156c0 64 31.167 137.833 93.5 221.5s147.166 165.834 254.499 246.501l-17 -213c-68 -50.667 -105.667 -79.667 -113 -87
c-50 -44.667 -75 -84.334 -75 -119.001c0 -13.333 10 -20 30 -20h16c6 0.666992 10.333 1 13 1s118.667 7 348 21c109.333 6.66699 200.333 10 273 10c60.667 0 109.334 -19 146.001 -57c42.667 -44.667 64 -110.667 64 -198c0 -24 -1.66699 -45.667 -5 -65
c13.333 -3.33301 26 -5 38 -5v-225z" />
    <glyph glyph-name="glyph1482" unicode="&#x6ab;" 
d="M765 225c87.333 0 131.001 12.3311 131.001 36.998c0 44.667 -38.333 100.667 -115 168l-181 150c-52 42.667 -89.333 80 -112 112s-34 60 -34 84c0 82 55.167 163.833 165.5 245.5s313.5 176.834 609.5 285.501l-100 -245c-122 -47.333 -231.167 -94.5 -327.5 -141.5
s-144.5 -78.167 -144.5 -93.5c0 -18.667 38 -58.667 114 -120c88.667 -71.333 156 -139.5 202 -204.5s69 -137.5 69 -217.5c0 -115.333 -20.333 -191.666 -61 -228.999s-114.334 -56 -221.001 -56h-760v225h765zM859.001 889.998c0 52.667 13.832 97.832 41.499 135.499
s64.834 56.5 111.501 56.5c41.333 0 74.5 -15.667 99.5 -47s37.5 -69.666 37.5 -114.999s-18 -85 -54 -119s-76.667 -51 -122 -51c-36 0 -64 14.167 -84 42.5s-30 60.833 -30 97.5zM923 919.996c0 -38.667 26.334 -58 79.001 -58c45.333 0 68 11.667 68 35
c0 22 -11.833 43.5 -35.5 64.5s-46.834 31.5 -69.501 31.5c-28 0 -42 -24.333 -42 -73z" />
    <glyph glyph-name="glyph1483" unicode="&#x6ab;" 
d="M574 226c86.667 0 129.998 10.668 129.998 32.001c0 60.667 -73.5 146.167 -220.5 256.5s-220.833 196.166 -221.5 257.499c0 82 55.167 164 165.5 246s313.5 177 609.5 285l-100 -245c-314.667 -121.333 -472 -199.666 -472 -234.999c0 -11.333 3.5 -22.5 10.5 -33.5
s38.5 -41.5 94.5 -91.5s128.667 -119.333 218 -208c32 -44.667 83 -104.334 153 -179.001c52 -40 93.667 -64.333 125 -73s85.666 -13 162.999 -13v-225c-151.333 -0 -256.666 18.833 -315.999 56.5s-102 85.5 -128 143.5c-11.333 -59.333 -38.166 -107.5 -80.499 -144.5
s-96.166 -55.5 -161.499 -55.5h-543v225zM648.998 880.001c0 52.667 13.832 97.832 41.499 135.499s64.834 56.5 111.501 56.5c41.333 0 74.5 -15.667 99.5 -47s37.5 -69.666 37.5 -114.999s-18 -85 -54 -119s-76.667 -51 -122 -51c-36 0 -64 14.167 -84 42.5
s-30 60.833 -30 97.5zM712.997 909.999c0 -38.667 26.334 -58 79.001 -58c45.333 0 68 11.667 68 35c0 22 -11.833 43.5 -35.5 64.5s-46.834 31.5 -69.501 31.5c-28 0 -42 -24.333 -42 -73z" />
    <glyph glyph-name="glyph1486" unicode="&#x6ac;" 
d="M765 225c87.333 0 131.001 12.3311 131.001 36.998c0 44.667 -38.333 100.667 -115 168l-181 150c-52 42.667 -89.333 80 -112 112s-34 60 -34 84c0 82 55.167 163.833 165.5 245.5s313.5 176.834 609.5 285.501l-100 -245c-122 -47.333 -231.167 -94.5 -327.5 -141.5
s-144.5 -78.167 -144.5 -93.5c0 -18.667 38 -58.667 114 -120c88.667 -71.333 156 -139.5 202 -204.5s69 -137.5 69 -217.5c0 -115.333 -20.333 -191.666 -61 -228.999s-114.334 -56 -221.001 -56h-760v225h765zM998.001 1405l-153 -154l-154 154l154 153z" />
    <glyph glyph-name="glyph1487" unicode="&#x6ac;" 
d="M574 226c86.667 0 129.998 10.668 129.998 32.001c0 60.667 -73.5 146.167 -220.5 256.5s-220.833 196.166 -221.5 257.499c0 82 55.167 164 165.5 246s313.5 177 609.5 285l-100 -245c-314.667 -121.333 -472 -199.666 -472 -234.999c0 -11.333 3.5 -22.5 10.5 -33.5
s38.5 -41.5 94.5 -91.5s128.667 -119.333 218 -208c32 -44.667 83 -104.334 153 -179.001c52 -40 93.667 -64.333 125 -73s85.666 -13 162.999 -13v-225c-151.333 -0 -256.666 18.833 -315.999 56.5s-102 85.5 -128 143.5c-11.333 -59.333 -38.166 -107.5 -80.499 -144.5
s-96.166 -55.5 -161.499 -55.5h-543v225zM797.998 1405l-153 -154l-154 154l154 153z" />
    <glyph glyph-name="glyph1485" unicode="&#x6ac;" 
d="M1102 1134c-32.667 -54.667 -49.0029 -116 -49.0029 -184c0 -66 3.66699 -165 11 -297c6.66699 -132 10 -231 10 -297c0 -34.667 13.5 -65 40.5 -91s65.167 -39.333 114.5 -40v-225c-99.333 0 -163.666 50 -192.999 150
c-26.667 -74.667 -72.167 -124.334 -136.5 -149.001s-180.833 -37 -349.5 -37c-224.667 0 -371.167 23.5 -439.5 70.5s-102.5 114.167 -102.5 201.5c0 36.667 10.333 80.5 31 131.5s41.667 76.5 63 76.5c22.667 0 34 -11.667 34 -35c0 -6 -1.33301 -17.333 -4 -34
c-2 -16.667 -3 -28.667 -3 -36c0 -45.333 28.833 -80.166 86.5 -104.499s188.5 -36.5 392.5 -36.5c221.333 0 332 33.333 332 100c0 117.333 -12.667 264.333 -38 441s-57 290.667 -95 342c20.667 45.333 60.334 117.333 119.001 216
c46.667 -58 105.334 -112.333 176.001 -163zM542.997 838c-6 -52 -19.001 -87.334 -39.001 -106.001c-8 8.66699 -19.333 13 -34 13c-12 0 -25.667 -4.16699 -41 -12.5s-23 -18.5 -23 -30.5c0 -8 15 -13.667 45 -17c56 -6.66699 91.833 -17.834 107.5 -33.501
s23.5 -35.167 23.5 -58.5c0 -28 -12 -63.167 -36 -105.5s-63.333 -63.833 -118 -64.5c-24 0.666992 -55.167 4.83398 -93.5 12.501s-57.5 16.5 -57.5 26.5c0 11.333 36.667 25 110 41c74 16 111 28.333 111 37c0 2 -27 8 -81 18s-81 33.333 -81 70
c0 34.667 16.5 82.334 49.5 143.001s66.833 91 101.5 91c26.667 0 45.334 -8 56.001 -24zM977.996 1505l-153 -154l-154 154l154 153z" />
    <glyph glyph-name="uni06AD" unicode="&#x6ad;" arabic-form="isolated" 
d="M1146 1137c-32.667 -55.333 -49.001 -116.667 -49.001 -184c0 -66 3.33301 -165 10 -297c7.33301 -132 11 -231 11 -297c0 -88 -13.5 -160.5 -40.5 -217.5s-71.667 -100.833 -134 -131.5s-193.5 -46 -393.5 -46c-224.667 0 -371.167 23.5 -439.5 70.5
s-102.5 114.167 -102.5 201.5c0 36.667 10.333 80.5 31 131.5s41.667 76.5 63 76.5c22.667 0 34 -11.667 34 -35c0 -6 -1.33301 -17.333 -4 -34c-2 -16.667 -3 -28.667 -3 -36c0 -45.333 28.833 -80.166 86.5 -104.499s188.5 -36.5 392.5 -36.5
c250.667 0 376 34.333 376 103c0 116 -12.833 262.667 -38.5 440s-57.167 291.666 -94.5 342.999c20 45.333 59.667 117.333 119 216c46.667 -58 105.334 -112.333 176.001 -163zM583.999 887.999c-6 -52 -19.001 -87.3359 -39.001 -106.003c-8 8.66699 -19.333 13 -34 13
c-12.667 0 -26.5 -4.33301 -41.5 -13s-22.5 -18.667 -22.5 -30c0 -8 15 -14 45 -18c58 -6.66699 94.333 -18.167 109 -34.5s22 -35.166 22 -56.499c0 -28 -12 -63.333 -36 -106s-63.333 -64 -118 -64c-23.333 0 -54.333 3.83301 -93 11.5s-58 16.834 -58 27.501
c0 11.333 36.667 25 110 41c74 16 111 28.333 111 37c0 2 -27 8 -81 18s-81 33.333 -81 70c0 34.667 16.5 82.334 49.5 143.001s66.833 91 101.5 91c26.667 0 45.334 -8 56.001 -24zM1036 1615l-78 -78l-78 78l78 78zM1107 1475l-78 -79l-71 71l-78 -78l-77 78l79 79l69 -71
l78 78z" />
    <glyph glyph-name="glyph1494" unicode="&#x6ae;" 
d="M765 225c87.333 0 131.001 12.3311 131.001 36.998c0 44.667 -38.333 100.667 -115 168l-181 150c-52 42.667 -89.333 80 -112 112s-34 60 -34 84c0 82 55.167 163.833 165.5 245.5s313.5 176.834 609.5 285.501l-100 -245c-122 -47.333 -231.167 -94.5 -327.5 -141.5
s-144.5 -78.167 -144.5 -93.5c0 -18.667 38 -58.667 114 -120c88.667 -71.333 156 -139.5 202 -204.5s69 -137.5 69 -217.5c0 -115.333 -20.333 -191.666 -61 -228.999s-114.334 -56 -221.001 -56h-760v225h765zM801.001 -258.002l-119 -136l-121 115l-106 -108l-119 122
l115 133l118 -126l108 119zM686.001 -482.002l-116 -132l-118 132l118 116z" />
    <glyph glyph-name="glyph1495" unicode="&#x6ae;" 
d="M574 226c86.667 0 129.998 10.668 129.998 32.001c0 60.667 -73.5 146.167 -220.5 256.5s-220.833 196.166 -221.5 257.499c0 82 55.167 164 165.5 246s313.5 177 609.5 285l-100 -245c-314.667 -121.333 -472 -199.666 -472 -234.999c0 -11.333 3.5 -22.5 10.5 -33.5
s38.5 -41.5 94.5 -91.5s128.667 -119.333 218 -208c32 -44.667 83 -104.334 153 -179.001c52 -40 93.667 -64.333 125 -73s85.666 -13 162.999 -13v-225c-151.333 -0 -256.666 18.833 -315.999 56.5s-102 85.5 -128 143.5c-11.333 -59.333 -38.166 -107.5 -80.499 -144.5
s-96.166 -55.5 -161.499 -55.5h-543v225zM500.998 -257.999l-119 -136l-121 115l-106 -108l-119 122l115 133l118 -126l108 119zM385.998 -481.999l-116 -132l-118 132l118 116z" />
    <glyph glyph-name="glyph1493" unicode="&#x6ae;" 
d="M1102 1134c-32.667 -54.667 -49.0029 -116 -49.0029 -184c0 -66 3.66699 -165 11 -297c6.66699 -132 10 -231 10 -297c0 -34.667 13.5 -65 40.5 -91s65.167 -39.333 114.5 -40v-225c-99.333 0 -163.666 50 -192.999 150
c-26.667 -74.667 -72.167 -124.334 -136.5 -149.001s-180.833 -37 -349.5 -37c-224.667 0 -371.167 23.5 -439.5 70.5s-102.5 114.167 -102.5 201.5c0 36.667 10.333 80.5 31 131.5s41.667 76.5 63 76.5c22.667 0 34 -11.667 34 -35c0 -6 -1.33301 -17.333 -4 -34
c-2 -16.667 -3 -28.667 -3 -36c0 -45.333 28.833 -80.166 86.5 -104.499s188.5 -36.5 392.5 -36.5c221.333 0 332 33.333 332 100c0 117.333 -12.667 264.333 -38 441s-57 290.667 -95 342c20.667 45.333 60.334 117.333 119.001 216
c46.667 -58 105.334 -112.333 176.001 -163zM542.997 838c-6 -52 -19.001 -87.334 -39.001 -106.001c-8 8.66699 -19.333 13 -34 13c-12 0 -25.667 -4.16699 -41 -12.5s-23 -18.5 -23 -30.5c0 -8 15 -13.667 45 -17c56 -6.66699 91.833 -17.834 107.5 -33.501
s23.5 -35.167 23.5 -58.5c0 -28 -12 -63.167 -36 -105.5s-63.333 -63.833 -118 -64.5c-24 0.666992 -55.167 4.83398 -93.5 12.501s-57.5 16.5 -57.5 26.5c0 11.333 36.667 25 110 41c74 16 111 28.333 111 37c0 2 -27 8 -81 18s-81 33.333 -81 70
c0 34.667 16.5 82.334 49.5 143.001s66.833 91 101.5 91c26.667 0 45.334 -8 56.001 -24zM780.996 -258.001l-119 -136l-121 115l-106 -108l-119 122l115 133l118 -126l108 119zM665.996 -482.001l-116 -132l-118 132l118 116z" />
    <glyph glyph-name="afii57509" unicode="&#x6af;" arabic-form="isolated" 
d="M1227 1349l-22.999 -126c-162.667 -54 -380.334 -155 -653.001 -303l34 142c220 114 434 209.667 642 287zM1229 1140l-67.002 -196.999c-333.333 -116.667 -500 -185.667 -500 -207c0 -8 9.66699 -16.667 29 -26c156.667 -74 257 -140.833 301 -200.5
s66 -145.5 66 -257.5c0 -81.333 -26.333 -146.333 -79 -195s-181 -72.667 -385 -72c-137.333 -0.666992 -250.666 4.16602 -339.999 14.499s-153.5 36.5 -192.5 78.5s-58.5 99.667 -58.5 173c0 54.667 20.5 127 61.5 217s84.5 135 130.5 135c18.667 0 28 -11.667 28 -35
c0 -18.667 -12.333 -53.667 -37 -105c-24 -51.333 -36 -89 -36 -113c0 -36 9 -64.667 27 -86s46.667 -35 86 -41s104.333 -9 195 -9c219.333 0 353.833 3.66699 403.5 11s74.167 18.333 73.5 33c0.666992 30 -11.666 59.5 -36.999 88.5s-82.666 68.833 -171.999 119.5
c-94.667 54 -153.834 95 -177.501 123s-35.834 56.333 -36.501 85c0 52 14.5 96.5 43.5 133.5s103.333 84.667 223 143s269.834 121.5 450.501 189.5z" />
    <glyph glyph-name="glyph1498" unicode="&#x6b0;" 
d="M1228 1358l-47.999 -131.999c-160.667 -54 -392 -162.667 -694 -326l33 142c239.333 123.333 475.666 228.666 708.999 315.999zM1224 1150l-87 -206.998c-334 -117.333 -501 -187.333 -501 -210c0 -4.66699 20.333 -17.334 61 -38.001
c82 -40.667 147.667 -78.834 197 -114.501s84.833 -80.5 106.5 -134.5s32.5 -118.667 32.5 -194c0 -54.667 -9.5 -100.167 -28.5 -136.5s-50 -64.5 -93 -84.5s-132.5 -30 -268.5 -30l-643 -1v225h470c144.667 0 251.5 1.33301 320.5 4s106.833 6 113.5 10s10 9.66699 10 17
c0 26 -8.33301 51.333 -25 76s-35 44.167 -55 58.5s-98.667 61.166 -236 140.499c-74 47.333 -111 95 -111 143c0 52.667 15.333 97.834 46 135.501s109 87 235 148s278 125.167 456 192.5zM849.001 770.003c0 52.667 13.832 97.832 41.499 135.499
s64.834 56.5 111.501 56.5c41.333 0 74.5 -15.667 99.5 -47s37.5 -69.666 37.5 -114.999s-18 -85 -54 -119s-76.667 -51 -122 -51c-36 0 -64 14.167 -84 42.5s-30 60.833 -30 97.5zM913 800.001c0 -38.667 26.334 -58 79.001 -58c45.333 0 68 11.667 68 35
c0 22 -11.833 43.5 -35.5 64.5s-46.834 31.5 -69.501 31.5c-28 0 -42 -24.333 -42 -73z" />
    <glyph glyph-name="glyph1499" unicode="&#x6b0;" 
d="M1031 1362l-48.001 -132c-161.333 -53.333 -392.666 -162 -693.999 -326l33 142c238.667 124 475 229.333 709 316zM728.999 538l0.00292969 2.00195c21.333 -20 56.333 -59 105 -117c50 -60.667 92.667 -103.167 128 -127.5s65.666 -42.166 90.999 -53.499
s84 -17 176 -17v-225c-150.667 0 -255.834 18.833 -315.501 56.5s-102.5 85.5 -128.5 143.5c-11.333 -58.667 -38 -106.667 -80 -144s-96 -56 -162 -56h-543v225l574 1c86.667 0 130 10.667 130 32c0 28.667 -14.5 60.167 -43.5 94.5s-92.167 78.166 -189.5 131.499
c-90 49.333 -145.5 87.166 -166.5 113.499s-31.5 52.166 -31.5 77.499c0 52.667 15.167 97.834 45.5 135.501s109.166 87.334 236.499 149.001s279 125.5 455 191.5l-87 -207c-334 -116.667 -501 -186.667 -501 -210c0 -4.66699 20.333 -17.334 61 -38.001
c124.667 -62.667 206.667 -115.334 246 -158.001zM639.002 770.002c0 52.667 13.832 97.832 41.499 135.499s64.834 56.5 111.501 56.5c41.333 0 74.5 -15.667 99.5 -47s37.5 -69.666 37.5 -114.999s-18 -85 -54 -119s-76.667 -51 -122 -51c-36 0 -64 14.167 -84 42.5
s-30 60.833 -30 97.5zM703.001 800c0 -38.667 26.334 -58 79.001 -58c45.333 0 68 11.667 68 35c0 22 -11.833 43.5 -35.5 64.5s-46.834 31.5 -69.501 31.5c-28 0 -42 -24.333 -42 -73z" />
    <glyph glyph-name="glyph1497" unicode="&#x6b0;" 
d="M1225 1357l-48.001 -131.999c-161.333 -54 -392.666 -162.667 -693.999 -326l33 142c238.667 123.333 475 228.666 709 315.999zM948.999 540.001c68.667 -63.333 138.333 -150.328 209 -260.995c20 -32.667 43.667 -50.667 71 -54v-225c-85.333 0 -160 66.667 -224 200
c-8.66699 -50.667 -28.667 -92.334 -60 -125.001s-72.666 -55.834 -123.999 -69.501s-148 -20.5 -290 -20.5c-219.333 0 -362.666 21.833 -429.999 65.5s-101 114.167 -101 211.5c0 54.667 20.5 127 61.5 217s84.5 135 130.5 135c18.667 0 28 -11.667 28 -35
c0 -18.667 -12.333 -53.334 -37 -104.001c-24 -51.333 -36 -89.333 -36 -114c0 -46.667 22.333 -82.5 67 -107.5s149.334 -37.5 314.001 -37.5c179.333 0 290.333 2.5 333 7.5s64 17.833 64 38.5c0 27.333 -14.333 57.666 -43 90.999s-92.334 77 -191.001 131
c-88 48 -143 85.5 -165 112.5s-33 53.167 -33 78.5c0 52.667 15.167 97.834 45.5 135.501s110.666 88 240.999 151s279.833 126.167 448.5 189.5l-85 -207c-334 -116.667 -501 -186.667 -501 -210c0 -4.66699 20.333 -17.334 61 -38.001
c125.333 -62.667 207.666 -115.334 246.999 -158.001zM848.998 770.006c0 52.667 13.832 97.832 41.499 135.499s64.834 56.5 111.501 56.5c41.333 0 74.5 -15.667 99.5 -47s37.5 -69.666 37.5 -114.999s-18 -85 -54 -119s-76.667 -51 -122 -51c-36 0 -64 14.167 -84 42.5
s-30 60.833 -30 97.5zM912.997 800.004c0 -38.667 26.334 -58 79.001 -58c45.333 0 68 11.667 68 35c0 22 -11.833 43.5 -35.5 64.5s-46.834 31.5 -69.501 31.5c-28 0 -42 -24.333 -42 -73z" />
    <glyph glyph-name="uni06B1" unicode="&#x6b1;" arabic-form="isolated" 
d="M1227 1349l-22.999 -126c-162.667 -54 -380.334 -155 -653.001 -303l34 142c220 114 434 209.667 642 287zM1229 1140l-67.002 -196.999c-333.333 -116.667 -500 -185.667 -500 -207c0 -8 9.66699 -16.667 29 -26c156.667 -74 257 -140.833 301 -200.5
s66 -145.5 66 -257.5c0 -81.333 -26.333 -146.333 -79 -195s-181 -72.667 -385 -72c-137.333 -0.666992 -250.666 4.16602 -339.999 14.499s-153.5 36.5 -192.5 78.5s-58.5 99.667 -58.5 173c0 54.667 20.5 127 61.5 217s84.5 135 130.5 135c18.667 0 28 -11.667 28 -35
c0 -18.667 -12.333 -53.667 -37 -105c-24 -51.333 -36 -89 -36 -113c0 -36 9 -64.667 27 -86s46.667 -35 86 -41s104.333 -9 195 -9c219.333 0 353.833 3.66699 403.5 11s74.167 18.333 73.5 33c0.666992 30 -11.666 59.5 -36.999 88.5s-82.666 68.833 -171.999 119.5
c-94.667 54 -153.834 95 -177.501 123s-35.834 56.333 -36.501 85c0 52 14.5 96.5 43.5 133.5s103.333 84.667 223 143s269.834 121.5 450.501 189.5zM1091 1430l-155 -157l-141 136l-153 -148l-154 154l156 156l139 -141l154 154z" />
    <glyph glyph-name="glyph1506" unicode="&#x6b2;" 
d="M1228 1358l-47.999 -131.999c-160.667 -54 -392 -162.667 -694 -326l33 142c239.333 123.333 475.666 228.666 708.999 315.999zM1224 1150l-87 -206.998c-334 -117.333 -501 -187.333 -501 -210c0 -4.66699 20.333 -17.334 61 -38.001
c82 -40.667 147.667 -78.834 197 -114.501s84.833 -80.5 106.5 -134.5s32.5 -118.667 32.5 -194c0 -54.667 -9.5 -100.167 -28.5 -136.5s-50 -64.5 -93 -84.5s-132.5 -30 -268.5 -30l-643 -1v225h470c144.667 0 251.5 1.33301 320.5 4s106.833 6 113.5 10s10 9.66699 10 17
c0 26 -8.33301 51.333 -25 76s-35 44.167 -55 58.5s-98.667 61.166 -236 140.499c-74 47.333 -111 95 -111 143c0 52.667 15.333 97.834 46 135.501s109 87 235 148s278 125.167 456 192.5zM991.001 -383.997l-155 -157l-141 136l-153 -148l-154 154l156 156l139 -141
l154 154z" />
    <glyph glyph-name="glyph1507" unicode="&#x6b2;" 
d="M1031 1362l-48.001 -132c-161.333 -53.333 -392.666 -162 -693.999 -326l33 142c238.667 124 475 229.333 709 316zM728.999 538l0.00292969 2.00195c21.333 -20 56.333 -59 105 -117c50 -60.667 92.667 -103.167 128 -127.5s65.666 -42.166 90.999 -53.499
s84 -17 176 -17v-225c-150.667 0 -255.834 18.833 -315.501 56.5s-102.5 85.5 -128.5 143.5c-11.333 -58.667 -38 -106.667 -80 -144s-96 -56 -162 -56h-543v225l574 1c86.667 0 130 10.667 130 32c0 28.667 -14.5 60.167 -43.5 94.5s-92.167 78.166 -189.5 131.499
c-90 49.333 -145.5 87.166 -166.5 113.499s-31.5 52.166 -31.5 77.499c0 52.667 15.167 97.834 45.5 135.501s109.166 87.334 236.499 149.001s279 125.5 455 191.5l-87 -207c-334 -116.667 -501 -186.667 -501 -210c0 -4.66699 20.333 -17.334 61 -38.001
c124.667 -62.667 206.667 -115.334 246 -158.001zM731.002 -383.998l-155 -157l-141 136l-153 -148l-154 154l156 156l139 -141l154 154z" />
    <glyph glyph-name="glyph1505" unicode="&#x6b2;" 
d="M1225 1357l-48.001 -131.999c-161.333 -54 -392.666 -162.667 -693.999 -326l33 142c238.667 123.333 475 228.666 709 315.999zM948.999 540.001c68.667 -63.333 138.333 -150.328 209 -260.995c20 -32.667 43.667 -50.667 71 -54v-225c-85.333 0 -160 66.667 -224 200
c-8.66699 -50.667 -28.667 -92.334 -60 -125.001s-72.666 -55.834 -123.999 -69.501s-148 -20.5 -290 -20.5c-219.333 0 -362.666 21.833 -429.999 65.5s-101 114.167 -101 211.5c0 54.667 20.5 127 61.5 217s84.5 135 130.5 135c18.667 0 28 -11.667 28 -35
c0 -18.667 -12.333 -53.334 -37 -104.001c-24 -51.333 -36 -89.333 -36 -114c0 -46.667 22.333 -82.5 67 -107.5s149.334 -37.5 314.001 -37.5c179.333 0 290.333 2.5 333 7.5s64 17.833 64 38.5c0 27.333 -14.333 57.666 -43 90.999s-92.334 77 -191.001 131
c-88 48 -143 85.5 -165 112.5s-33 53.167 -33 78.5c0 52.667 15.167 97.834 45.5 135.501s110.666 88 240.999 151s279.833 126.167 448.5 189.5l-85 -207c-334 -116.667 -501 -186.667 -501 -210c0 -4.66699 20.333 -17.334 61 -38.001
c125.333 -62.667 207.666 -115.334 246.999 -158.001zM790.998 -383.994l-155 -157l-141 136l-153 -148l-154 154l156 156l139 -141l154 154z" />
    <glyph glyph-name="uni06B3" unicode="&#x6b3;" arabic-form="isolated" 
d="M1227 1349l-22.999 -126c-162.667 -54 -380.334 -155 -653.001 -303l34 142c220 114 434 209.667 642 287zM1229 1140l-67.002 -196.999c-333.333 -116.667 -500 -185.667 -500 -207c0 -8 9.66699 -16.667 29 -26c156.667 -74 257 -140.833 301 -200.5
s66 -145.5 66 -257.5c0 -81.333 -26.333 -146.333 -79 -195s-181 -72.667 -385 -72c-137.333 -0.666992 -250.666 4.16602 -339.999 14.499s-153.5 36.5 -192.5 78.5s-58.5 99.667 -58.5 173c0 54.667 20.5 127 61.5 217s84.5 135 130.5 135c18.667 0 28 -11.667 28 -35
c0 -18.667 -12.333 -53.667 -37 -105c-24 -51.333 -36 -89 -36 -113c0 -36 9 -64.667 27 -86s46.667 -35 86 -41s104.333 -9 195 -9c219.333 0 353.833 3.66699 403.5 11s74.167 18.333 73.5 33c0.666992 30 -11.666 59.5 -36.999 88.5s-82.666 68.833 -171.999 119.5
c-94.667 54 -153.834 95 -177.501 123s-35.834 56.333 -36.501 85c0 52 14.5 96.5 43.5 133.5s103.333 84.667 223 143s269.834 121.5 450.501 189.5zM687.999 -503.999l-111 -110l-109 110l99 100l-107 109l109 110l111 -110l-102 -101z" />
    <glyph glyph-name="glyph1514" unicode="&#x6b4;" 
d="M1228 1358l-47.999 -131.999c-160.667 -54 -392 -162.667 -694 -326l33 142c239.333 123.333 475.666 228.666 708.999 315.999zM1224 1150l-87 -206.998c-334 -117.333 -501 -187.333 -501 -210c0 -4.66699 20.333 -17.334 61 -38.001
c82 -40.667 147.667 -78.834 197 -114.501s84.833 -80.5 106.5 -134.5s32.5 -118.667 32.5 -194c0 -54.667 -9.5 -100.167 -28.5 -136.5s-50 -64.5 -93 -84.5s-132.5 -30 -268.5 -30l-643 -1v225h470c144.667 0 251.5 1.33301 320.5 4s106.833 6 113.5 10s10 9.66699 10 17
c0 26 -8.33301 51.333 -25 76s-35 44.167 -55 58.5s-98.667 61.166 -236 140.499c-74 47.333 -111 95 -111 143c0 52.667 15.333 97.834 46 135.501s109 87 235 148s278 125.167 456 192.5zM896.001 1515l-78 -78l-78 78l78 78zM967.001 1375l-78 -79l-71 71l-78 -78l-77 78
l79 79l69 -71l78 78z" />
    <glyph glyph-name="glyph1515" unicode="&#x6b4;" 
d="M1031 1362l-48.001 -132c-161.333 -53.333 -392.666 -162 -693.999 -326l33 142c238.667 124 475 229.333 709 316zM728.999 538l0.00292969 2.00195c21.333 -20 56.333 -59 105 -117c50 -60.667 92.667 -103.167 128 -127.5s65.666 -42.166 90.999 -53.499
s84 -17 176 -17v-225c-150.667 0 -255.834 18.833 -315.501 56.5s-102.5 85.5 -128.5 143.5c-11.333 -58.667 -38 -106.667 -80 -144s-96 -56 -162 -56h-543v225l574 1c86.667 0 130 10.667 130 32c0 28.667 -14.5 60.167 -43.5 94.5s-92.167 78.166 -189.5 131.499
c-90 49.333 -145.5 87.166 -166.5 113.499s-31.5 52.166 -31.5 77.499c0 52.667 15.167 97.834 45.5 135.501s109.166 87.334 236.499 149.001s279 125.5 455 191.5l-87 -207c-334 -116.667 -501 -186.667 -501 -210c0 -4.66699 20.333 -17.334 61 -38.001
c124.667 -62.667 206.667 -115.334 246 -158.001zM736.002 1515l-78 -78l-78 78l78 78zM807.002 1375l-78 -79l-71 71l-78 -78l-77 78l79 79l69 -71l78 78z" />
    <glyph glyph-name="glyph1513" unicode="&#x6b4;" 
d="M1225 1357l-48.001 -131.999c-161.333 -54 -392.666 -162.667 -693.999 -326l33 142c238.667 123.333 475 228.666 709 315.999zM948.999 540.001c68.667 -63.333 138.333 -150.328 209 -260.995c20 -32.667 43.667 -50.667 71 -54v-225c-85.333 0 -160 66.667 -224 200
c-8.66699 -50.667 -28.667 -92.334 -60 -125.001s-72.666 -55.834 -123.999 -69.501s-148 -20.5 -290 -20.5c-219.333 0 -362.666 21.833 -429.999 65.5s-101 114.167 -101 211.5c0 54.667 20.5 127 61.5 217s84.5 135 130.5 135c18.667 0 28 -11.667 28 -35
c0 -18.667 -12.333 -53.334 -37 -104.001c-24 -51.333 -36 -89.333 -36 -114c0 -46.667 22.333 -82.5 67 -107.5s149.334 -37.5 314.001 -37.5c179.333 0 290.333 2.5 333 7.5s64 17.833 64 38.5c0 27.333 -14.333 57.666 -43 90.999s-92.334 77 -191.001 131
c-88 48 -143 85.5 -165 112.5s-33 53.167 -33 78.5c0 52.667 15.167 97.834 45.5 135.501s110.666 88 240.999 151s279.833 126.167 448.5 189.5l-85 -207c-334 -116.667 -501 -186.667 -501 -210c0 -4.66699 20.333 -17.334 61 -38.001
c125.333 -62.667 207.666 -115.334 246.999 -158.001zM895.998 1515.01l-78 -78l-78 78l78 78zM966.998 1375.01l-78 -79l-71 71l-78 -78l-77 78l79 79l69 -71l78 78z" />
    <glyph glyph-name="glyph1518" unicode="&#x6b5;" 
d="M1202 1102l-79 -124.998c44.667 -338 67 -587.333 67 -748c0 -126.667 -99.667 -203 -299 -229h-891v225l954 1c51.333 -1.33301 77 17.667 77 57c0 148.667 -11.333 304 -34 466s-53 278 -91 348c40 69.333 91.333 143.666 154 222.999
c46 -96.667 93.333 -169.334 142 -218.001zM1197 1639c-0.666992 -2 -23.667 -34.667 -69 -98l-107 -149l-108 149c-44.667 62 -67.334 94.667 -68.001 98c-2.66699 12.667 10 22.334 38 29.001s45.333 6 52 -2c2 -2 18 -25.667 48 -71l38 -59l38 59
c13.333 21.333 29 45 47 71c6.66699 8 24.334 8.66699 53.001 2c28 -6.66699 40.667 -16.334 38 -29.001z" />
    <glyph glyph-name="glyph1519" unicode="&#x6b5;" 
d="M1229 0l-112.997 0.000976562c-98 0 -172.833 16.167 -224.5 48.5s-91.834 83.5 -120.501 153.5c-23.333 -62.667 -59.333 -112 -108 -148s-103.334 -54 -164.001 -54h-499v225h502c30.667 0 55.667 7.33301 75 22s33.166 36.167 41.499 64.5s12.5 81.833 12.5 160.5
c0 335.333 -24.667 538.666 -74 609.999c28.667 42.667 82 114 160 214c61.333 -97.333 92 -227.333 92 -390c0 -24 -0.666992 -60.667 -2 -110s-2 -86.333 -2 -111c0.666992 -154 13.5 -269.167 38.5 -345.5s72.833 -114.5 143.5 -114.5h242v-225zM837.003 1639
c-0.666992 -2 -23.667 -34.667 -69 -98l-107 -149l-108 149c-44.667 62 -67.334 94.667 -68.001 98c-2.66699 12.667 10 22.334 38 29.001s45.333 6 52 -2c2 -2 18 -25.667 48 -71l38 -59l38 59c13.333 21.333 29 45 47 71c6.66699 8 24.334 8.66699 53.001 2
c28 -6.66699 40.667 -16.334 38 -29.001z" />
    <glyph glyph-name="glyph1517" unicode="&#x6b5;" 
d="M1023 1114c-52 -75.333 -77.999 -128.333 -77.999 -159c0 -106.667 5.5 -228.5 16.5 -365.5s19.333 -223 25 -258s28.667 -61.5 69 -79.5s98.166 -27 173.499 -27v-225c-112.667 0 -192.334 52.667 -239.001 158c2.66699 -23.333 4 -46 4 -68
c0 -274 -197.667 -411 -593 -411c-105.333 0 -192.166 24.5 -260.499 73.5s-102.5 118.5 -102.5 208.5c0 48 17.5 119.5 52.5 214.5s69.5 142.5 103.5 142.5c26.667 0 40 -13.333 40 -40c0 -17.333 -9 -51.333 -27 -102c-17.333 -50 -26 -86.333 -26 -109
c0 -43.333 19.5 -79.333 58.5 -108s85.5 -43 139.5 -43c322.667 0 484 45 484 135c0 128 -17.5 320.167 -52.5 576.5s-70.167 397.833 -105.5 424.5c33.333 70 75 149.333 125 238c68.667 -76 133 -134.667 193 -176zM997.001 1639c-0.666992 -2 -23.667 -34.667 -69 -98
l-107 -149l-108 149c-44.667 62 -67.334 94.667 -68.001 98c-2.66699 12.667 10 22.334 38 29.001s45.333 6 52 -2c2 -2 18 -25.667 48 -71l38 -59l38 59c13.333 21.333 29 45 47 71c6.66699 8 24.334 8.66699 53.001 2c28 -6.66699 40.667 -16.334 38 -29.001z" />
    <glyph glyph-name="glyph1522" unicode="&#x6b6;" 
d="M1202 1102l-79 -124.998c44.667 -338 67 -587.333 67 -748c0 -126.667 -99.667 -203 -299 -229h-891v225l954 1c51.333 -1.33301 77 17.667 77 57c0 148.667 -11.333 304 -34 466s-53 278 -91 348c40 69.333 91.333 143.666 154 222.999
c46 -96.667 93.333 -169.334 142 -218.001zM1158 1535l-153 -154l-154 154l154 153z" />
    <glyph glyph-name="glyph1523" unicode="&#x6b6;" 
d="M1229 0l-112.997 0.000976562c-98 0 -172.833 16.167 -224.5 48.5s-91.834 83.5 -120.501 153.5c-23.333 -62.667 -59.333 -112 -108 -148s-103.334 -54 -164.001 -54h-499v225h502c30.667 0 55.667 7.33301 75 22s33.166 36.167 41.499 64.5s12.5 81.833 12.5 160.5
c0 335.333 -24.667 538.666 -74 609.999c28.667 42.667 82 114 160 214c61.333 -97.333 92 -227.333 92 -390c0 -24 -0.666992 -60.667 -2 -110s-2 -86.333 -2 -111c0.666992 -154 13.5 -269.167 38.5 -345.5s72.833 -114.5 143.5 -114.5h242v-225zM798.003 1535l-153 -154
l-154 154l154 153z" />
    <glyph glyph-name="glyph1521" unicode="&#x6b6;" 
d="M1023 1114c-52 -75.333 -77.999 -128.333 -77.999 -159c0 -106.667 5.5 -228.5 16.5 -365.5s19.333 -223 25 -258s28.667 -61.5 69 -79.5s98.166 -27 173.499 -27v-225c-112.667 0 -192.334 52.667 -239.001 158c2.66699 -23.333 4 -46 4 -68
c0 -274 -197.667 -411 -593 -411c-105.333 0 -192.166 24.5 -260.499 73.5s-102.5 118.5 -102.5 208.5c0 48 17.5 119.5 52.5 214.5s69.5 142.5 103.5 142.5c26.667 0 40 -13.333 40 -40c0 -17.333 -9 -51.333 -27 -102c-17.333 -50 -26 -86.333 -26 -109
c0 -43.333 19.5 -79.333 58.5 -108s85.5 -43 139.5 -43c322.667 0 484 45 484 135c0 128 -17.5 320.167 -52.5 576.5s-70.167 397.833 -105.5 424.5c33.333 70 75 149.333 125 238c68.667 -76 133 -134.667 193 -176zM998.001 1535l-153 -154l-154 154l154 153z" />
    <glyph glyph-name="glyph1526" unicode="&#x6b7;" 
d="M1202 1102l-79 -124.998c44.667 -338 67 -587.333 67 -748c0 -126.667 -99.667 -203 -299 -229h-891v225l954 1c51.333 -1.33301 77 17.667 77 57c0 148.667 -11.333 304 -34 466s-53 278 -91 348c40 69.333 91.333 143.666 154 222.999
c46 -96.667 93.333 -169.334 142 -218.001zM1096 1615l-78 -78l-78 78l78 78zM1167 1475l-78 -79l-71 71l-78 -78l-77 78l79 79l69 -71l78 78z" />
    <glyph glyph-name="glyph1527" unicode="&#x6b7;" 
d="M1229 0l-112.997 0.000976562c-98 0 -172.833 16.167 -224.5 48.5s-91.834 83.5 -120.501 153.5c-23.333 -62.667 -59.333 -112 -108 -148s-103.334 -54 -164.001 -54h-499v225h502c30.667 0 55.667 7.33301 75 22s33.166 36.167 41.499 64.5s12.5 81.833 12.5 160.5
c0 335.333 -24.667 538.666 -74 609.999c28.667 42.667 82 114 160 214c61.333 -97.333 92 -227.333 92 -390c0 -24 -0.666992 -60.667 -2 -110s-2 -86.333 -2 -111c0.666992 -154 13.5 -269.167 38.5 -345.5s72.833 -114.5 143.5 -114.5h242v-225zM736.003 1615l-78 -78
l-78 78l78 78zM807.003 1475l-78 -79l-71 71l-78 -78l-77 78l79 79l69 -71l78 78z" />
    <glyph glyph-name="glyph1525" unicode="&#x6b7;" 
d="M1023 1114c-52 -75.333 -77.999 -128.333 -77.999 -159c0 -106.667 5.5 -228.5 16.5 -365.5s19.333 -223 25 -258s28.667 -61.5 69 -79.5s98.166 -27 173.499 -27v-225c-112.667 0 -192.334 52.667 -239.001 158c2.66699 -23.333 4 -46 4 -68
c0 -274 -197.667 -411 -593 -411c-105.333 0 -192.166 24.5 -260.499 73.5s-102.5 118.5 -102.5 208.5c0 48 17.5 119.5 52.5 214.5s69.5 142.5 103.5 142.5c26.667 0 40 -13.333 40 -40c0 -17.333 -9 -51.333 -27 -102c-17.333 -50 -26 -86.333 -26 -109
c0 -43.333 19.5 -79.333 58.5 -108s85.5 -43 139.5 -43c322.667 0 484 45 484 135c0 128 -17.5 320.167 -52.5 576.5s-70.167 397.833 -105.5 424.5c33.333 70 75 149.333 125 238c68.667 -76 133 -134.667 193 -176zM896.001 1615l-78 -78l-78 78l78 78zM967.001 1475
l-78 -79l-71 71l-78 -78l-77 78l79 79l69 -71l78 78z" />
    <glyph glyph-name="glyph1530" unicode="&#x6b8;" 
d="M1202 1102l-79 -124.998c44.667 -338 67 -587.333 67 -748c0 -126.667 -99.667 -203 -299 -229h-891v225l954 1c51.333 -1.33301 77 17.667 77 57c0 148.667 -11.333 304 -34 466s-53 278 -91 348c40 69.333 91.333 143.666 154 222.999
c46 -96.667 93.333 -169.334 142 -218.001zM801 -257.998l-119 -136l-121 115l-106 -108l-119 122l115 133l118 -126l108 119zM686 -481.998l-116 -132l-118 132l118 116z" />
    <glyph glyph-name="glyph1531" unicode="&#x6b8;" 
d="M1229 0l-112.997 0.000976562c-98 0 -172.833 16.167 -224.5 48.5s-91.834 83.5 -120.501 153.5c-23.333 -62.667 -59.333 -112 -108 -148s-103.334 -54 -164.001 -54h-499v225h502c30.667 0 55.667 7.33301 75 22s33.166 36.167 41.499 64.5s12.5 81.833 12.5 160.5
c0 335.333 -24.667 538.666 -74 609.999c28.667 42.667 82 114 160 214c61.333 -97.333 92 -227.333 92 -390c0 -24 -0.666992 -60.667 -2 -110s-2 -86.333 -2 -111c0.666992 -154 13.5 -269.167 38.5 -345.5s72.833 -114.5 143.5 -114.5h242v-225zM941.003 -257.999
l-119 -136l-121 115l-106 -108l-119 122l115 133l118 -126l108 119zM826.003 -481.999l-116 -132l-118 132l118 116z" />
    <glyph glyph-name="glyph1529" unicode="&#x6b8;" 
d="M1023 1114c-52 -75.333 -77.999 -128.333 -77.999 -159c0 -106.667 5.5 -228.5 16.5 -365.5s19.333 -223 25 -258s28.667 -61.5 69 -79.5s98.166 -27 173.499 -27v-225c-112.667 0 -192.334 52.667 -239.001 158c2.66699 -23.333 4 -46 4 -68
c0 -274 -197.667 -411 -593 -411c-105.333 0 -192.166 24.5 -260.499 73.5s-102.5 118.5 -102.5 208.5c0 48 17.5 119.5 52.5 214.5s69.5 142.5 103.5 142.5c26.667 0 40 -13.333 40 -40c0 -17.333 -9 -51.333 -27 -102c-17.333 -50 -26 -86.333 -26 -109
c0 -43.333 19.5 -79.333 58.5 -108s85.5 -43 139.5 -43c322.667 0 484 45 484 135c0 128 -17.5 320.167 -52.5 576.5s-70.167 397.833 -105.5 424.5c33.333 70 75 149.333 125 238c68.667 -76 133 -134.667 193 -176zM457.001 -439l-78 -60l-80 61l80 59l70 -49l79 57
l80 -59l-80 -61zM533.001 -541l-80 -60l-80 60l80 59z" />
    <glyph glyph-name="glyph1534" unicode="&#x6b9;" 
d="M0 0l-0.000976562 224.999h860c20.667 0 46.834 4.83301 78.501 14.5s47.5 20.834 47.5 33.501c0 105.333 -37.667 199.333 -113 282l117 289c68.667 -102.667 115.167 -186.667 139.5 -252s36.5 -137 36.5 -215c0 -72 -26 -152.833 -78 -242.5
s-113.667 -134.5 -185 -134.5h-903zM1086 1173l-153 -154l-154 154l154 153zM1122 -378.001l-153 -154l-154 154l154 153z" />
    <glyph glyph-name="glyph1535" unicode="&#x6b9;" 
d="M1229 0l-80.998 0.000976562c-124 0 -209.333 12.833 -256 38.5s-88.667 76.5 -126 152.5c-74.667 -127.333 -149 -191 -223 -191h-543v225h532c80 0 120 34.667 120 104c0 65.333 -22 150.333 -66 255l153 269c56 -176.667 90.333 -327.334 103 -452.001
c4 -41.333 10.333 -70.5 19 -87.5s20.667 -31.5 36 -43.5s33.666 -21.667 54.999 -29s40.166 -11.833 56.499 -13.5s89.833 -2.5 220.5 -2.5v-225zM815.002 1140l-153 -154l-154 154l154 153zM858.002 -377.999l-153 -154l-154 154l154 153z" />
    <glyph glyph-name="glyph1533" unicode="&#x6b9;" 
d="M1229 225l0.00195312 -225.001c-38.667 0 -70.334 10.833 -95.001 32.5s-45.667 54.5 -63 98.5c-28 -288 -214 -432 -558 -432c-119.333 0 -220.333 26.833 -303 80.5s-124 137.167 -124 250.5c0 86.667 26.833 201.334 80.5 344.001s111.167 214 172.5 214
c25.333 0 38 -13.667 38 -41c0 -10.667 -19.333 -67 -58 -169c-39.333 -101.333 -59 -190.666 -59 -267.999c0 -54.667 28.167 -96.167 84.5 -124.5s116.166 -42.5 179.499 -42.5c103.333 0 196.5 9 279.5 27s124.5 59.667 124.5 125c0 103.333 -39.333 218.333 -118 345
l111 354c30 -46.667 57.667 -108.834 83 -186.501s41.333 -142.167 48 -193.5c8.66699 -99.333 67.667 -162.333 177 -189zM738.002 1090l-153 -154l-154 154l154 153zM698.002 -460.001l-153 -154l-154 154l154 153z" />
    <glyph glyph-name="uni06BA" unicode="&#x6ba;" arabic-form="isolated" 
d="M852 397l113 352.001c47.333 -88.667 85 -186.334 113 -293.001s42 -194.334 42 -263.001c0 -188 -48.833 -333 -146.5 -435s-237.167 -153 -418.5 -153c-84 0 -158.5 17 -223.5 51s-115.167 78.833 -150.5 134.5s-53 120.834 -53 195.501
c0 87.333 26.667 202.333 80 345s111 214 173 214c25.333 0 38 -13.667 38 -41c0 -11.333 -19.667 -68 -59 -170c-38.667 -101.333 -58 -190.333 -58 -267c0 -55.333 28 -105.5 84 -150.5s116 -67.5 180 -67.5c104.667 0 198.167 17.5 280.5 52.5s123.5 85.167 123.5 150.5
c0 102.667 -39.333 217.667 -118 345z" />
    <glyph glyph-name="uni06BB" unicode="&#x6bb;" arabic-form="isolated" 
d="M852 397l113 352.001c47.333 -88.667 85 -186.334 113 -293.001s42 -194.334 42 -263.001c0 -188 -48.833 -333 -146.5 -435s-237.167 -153 -418.5 -153c-84 0 -158.5 17 -223.5 51s-115.167 78.833 -150.5 134.5s-53 120.834 -53 195.501
c0 87.333 26.667 202.333 80 345s111 214 173 214c25.333 0 38 -13.667 38 -41c0 -11.333 -19.667 -68 -59 -170c-38.667 -101.333 -58 -190.333 -58 -267c0 -55.333 28 -105.5 84 -150.5s116 -67.5 180 -67.5c104.667 0 198.167 17.5 280.5 52.5s123.5 85.167 123.5 150.5
c0 102.667 -39.333 217.667 -118 345zM990 1130c0 -125.333 -86.002 -187.999 -258.002 -187.999h-231c-55.333 0 -91.666 38 -108.999 114h112c32 30 48 70.333 48 121c0 169.333 -11.667 273.333 -35 312l64 104l88 -90c-28.667 -33.333 -42 -90.333 -40 -171l2 -70
c0.666992 -18.667 -4.66602 -60.334 -15.999 -125.001c92.667 113.333 174 170 244 170c87.333 0 131 -59 131 -177zM909.998 1108c0 23.333 -7.33203 44 -21.999 62s-33.334 27 -56.001 27c-25.333 0 -55 -13 -89 -39c-13.333 -10 -53.333 -44 -120 -102h199
c58.667 0 88 17.333 88 52z" />
    <glyph glyph-name="glyph1546" unicode="&#x6bc;" 
d="M0 0l-0.000976562 224.999h860c20.667 0 46.834 4.83301 78.501 14.5s47.5 20.834 47.5 33.501c0 105.333 -37.667 199.333 -113 282l117 289c68.667 -102.667 115.167 -186.667 139.5 -252s36.5 -137 36.5 -215c0 -72 -26 -152.833 -78 -242.5
s-113.667 -134.5 -185 -134.5h-903zM1086 1173l-153 -154l-154 154l154 153zM788.999 -103.001c0 52.667 13.832 97.832 41.499 135.499s64.834 56.5 111.501 56.5c41.333 0 74.5 -15.667 99.5 -47s37.5 -69.666 37.5 -114.999s-18 -85 -54 -119s-76.667 -51 -122 -51
c-36 0 -64 14.167 -84 42.5s-30 60.833 -30 97.5zM852.998 -73.0029c0 -38.667 26.334 -58 79.001 -58c45.333 0 68 11.667 68 35c0 22 -11.833 43.5 -35.5 64.5s-46.834 31.5 -69.501 31.5c-28 0 -42 -24.333 -42 -73z" />
    <glyph glyph-name="glyph1547" unicode="&#x6bc;" 
d="M1229 0l-80.998 0.000976562c-124 0 -209.333 12.833 -256 38.5s-88.667 76.5 -126 152.5c-74.667 -127.333 -149 -191 -223 -191h-543v225h532c80 0 120 34.667 120 104c0 65.333 -22 150.333 -66 255l153 269c56 -176.667 90.333 -327.334 103 -452.001
c4 -41.333 10.333 -70.5 19 -87.5s20.667 -31.5 36 -43.5s33.666 -21.667 54.999 -29s40.166 -11.833 56.499 -13.5s89.833 -2.5 220.5 -2.5v-225zM815.002 1140l-153 -154l-154 154l154 153zM469.002 -102.999c0 52.667 13.832 97.832 41.499 135.499
s64.834 56.5 111.501 56.5c41.333 0 74.5 -15.667 99.5 -47s37.5 -69.666 37.5 -114.999s-18 -85 -54 -119s-76.667 -51 -122 -51c-36 0 -64 14.167 -84 42.5s-30 60.833 -30 97.5zM533.001 -73.001c0 -38.667 26.334 -58 79.001 -58c45.333 0 68 11.667 68 35
c0 22 -11.833 43.5 -35.5 64.5s-46.834 31.5 -69.501 31.5c-28 0 -42 -24.333 -42 -73z" />
    <glyph glyph-name="glyph1545" unicode="&#x6bc;" 
d="M1229 225l0.00195312 -225.001c-38.667 0 -70.334 10.833 -95.001 32.5s-45.667 54.5 -63 98.5c-28 -288 -214 -432 -558 -432c-119.333 0 -220.333 26.833 -303 80.5s-124 137.167 -124 250.5c0 86.667 26.833 201.334 80.5 344.001s111.167 214 172.5 214
c25.333 0 38 -13.667 38 -41c0 -10.667 -19.333 -67 -58 -169c-39.333 -101.333 -59 -190.666 -59 -267.999c0 -54.667 28.167 -96.167 84.5 -124.5s116.166 -42.5 179.499 -42.5c103.333 0 196.5 9 279.5 27s124.5 59.667 124.5 125c0 103.333 -39.333 218.333 -118 345
l111 354c30 -46.667 57.667 -108.834 83 -186.501s41.333 -142.167 48 -193.5c8.66699 -99.333 67.667 -162.333 177 -189zM798.002 1075l-153 -154l-154 154l154 153zM469.002 -404.001c0 52.667 13.832 97.832 41.499 135.499s64.834 56.5 111.501 56.5
c41.333 0 74.5 -15.667 99.5 -47s37.5 -69.666 37.5 -114.999s-18 -85 -54 -119s-76.667 -51 -122 -51c-36 0 -64 14.167 -84 42.5s-30 60.833 -30 97.5zM533.001 -374.003c0 -38.667 26.334 -58 79.001 -58c45.333 0 68 11.667 68 35c0 22 -11.833 43.5 -35.5 64.5
s-46.834 31.5 -69.501 31.5c-28 0 -42 -24.333 -42 -73z" />
    <glyph glyph-name="glyph1549" unicode="&#x6bd;" 
d="M1229 225l0.00195312 -225c-38.667 0 -70.334 7 -95.001 21s-45.667 37.333 -63 70c-28 -348 -214 -522 -558 -522c-119.333 0 -220.333 35.167 -303 105.5s-124 162.166 -124 275.499c0 86.667 26.833 201.334 80.5 344.001s111.167 214 172.5 214
c25.333 0 38 -13.667 38 -41c0 -10.667 -19.333 -67 -58 -169c-39.333 -101.333 -59 -190.666 -59 -267.999c0 -54.667 28.167 -104.5 84.5 -149.5s116.166 -67.5 179.499 -67.5c103.333 0 196.5 17.333 279.5 52s124.5 84.667 124.5 150
c0 103.333 -39.333 218.333 -118 345l111 354c30 -46.667 57.667 -108.834 83 -186.501s41.333 -142.167 48 -193.5c8.66699 -72.667 67.667 -109 177 -109zM773.002 1426l-156 -154l-153 154l153 153zM913.002 1149l-154 -157l-141 141l-154 -154l-153 154l156 156
l138 -140l154 153z" />
    <glyph glyph-name="afii57470" unicode="&#x647;" arabic-form="initial" 
d="M807 -16c-57.333 32.667 -135.331 73.333 -233.998 122c-82.667 -70.667 -189.334 -106 -320.001 -106h-253v225c163.333 0 274.666 9 333.999 27c0 94 46 195.333 138 304c-38 16 -71 24 -99 24c8 30 19.833 64 35.5 102s34.167 61.833 55.5 71.5s49.333 14.5 84 14.5
c107.333 0 200.333 -53.833 279 -161.5s118 -217.167 118 -328.5c0 -70.667 -46 -168.667 -138 -294zM481.002 313.999c18 -4.66699 35.999 -9.66797 53.999 -15.001c70.667 76 106 137.333 106 184c0 18 -1.66699 30 -5 36s-13.666 9 -30.999 9
c-20 0 -49 -24.167 -87 -72.5s-57 -81.166 -57 -98.499c0 -22 6.66699 -36.333 20 -43zM719.001 466.998c0 -78.667 -20.999 -149.333 -62.999 -212c55.333 -16.667 105.666 -36 150.999 -58c5.33301 14 8 37 8 69c0 75.333 -32 142.333 -96 201z" />
    <glyph glyph-name="glyph1554" unicode="&#x6bf;" 
d="M1229 500l-81 -223.999c-148.667 0 -247 -6 -295 -18s-118.667 -48.667 -212 -110c-150.667 -98.667 -299.334 -148 -446.001 -148h-195v225h295c84.667 0 205.334 40.333 362.001 121c66.667 34 122 56.333 166 67c-118 94 -219.333 141 -304 141
c-33.333 0 -71 -22 -113 -66c-17.333 -18 -30.666 -27 -39.999 -27c-27.333 0 -41 24 -41 72c0 59.333 27.167 111.5 81.5 156.5s110.166 67.5 167.499 67.5c34.667 0 69 -7.33301 103 -22s95.333 -53.334 184 -116.001c70 -49.333 132.5 -81.5 187.5 -96.5
s115.167 -22.5 180.5 -22.5zM825 -257.999l-119 -136l-121 115l-106 -108l-119 122l115 133l118 -126l108 119zM710 -481.999l-116 -132l-118 132l118 116zM1060 1075l-153 -154l-154 154l154 153z" />
    <glyph glyph-name="glyph1555" unicode="&#x6bf;" 
d="M1229 0l-342.001 0.00292969c-129.333 0 -194 78.333 -194 235c0 20.667 4 45.667 12 75c-30 -15.333 -62 -41.333 -96 -78c-146 -154.667 -266.667 -232 -362 -232h-247v225c37.333 -1.33301 69 -2 95 -2c147.333 0 277 35.333 389 106
c72 45.333 135.333 78.666 190 99.999c-46 27.333 -101.333 53.833 -166 79.5s-109 38.5 -133 38.5c-44.667 0 -82.667 -20.333 -114 -61c-14 -18.667 -25.333 -28 -34 -28c-32 0 -48 25 -48 75c0 61.333 27.833 115.166 83.5 161.499s111.834 69.5 168.501 69.5
c59.333 0 123.333 -19.333 192 -58c108.667 -61.333 191.667 -102.5 249 -123.5s138 -31.5 242 -31.5l-106 -219c-45.333 10.667 -99 16 -161 16c-3.33301 -15.333 -5 -32.333 -5 -51c0 -26.667 10.167 -45.334 30.5 -56.001s57.5 -16 111.5 -16h245v-225zM719.999 -257.997
l-119 -136l-121 115l-106 -108l-119 122l115 133l118 -126l108 119zM604.999 -481.997l-116 -132l-118 132l118 116zM797.999 1130l-153 -154l-154 154l154 153z" />
    <glyph glyph-name="glyph1553" unicode="&#x6bf;" 
d="M1227 0l-351.001 0.00292969c-122 0 -183 69.333 -183 208c0 22.667 1.66699 50.334 5 83.001c-74 -28 -150.333 -80 -229 -156c-95.333 -92.667 -143 -181.334 -143 -266.001c0 -86.667 34 -157.334 102 -212.001c64 -52 143.333 -78 238 -78
c155.333 0 304.666 50.667 447.999 152c7.33301 5.33301 19.333 8 36 8c10.667 0 16 -5 16 -15c0.666992 -33.333 -24.333 -77.333 -75 -132c-56.667 -61.333 -124.667 -110.333 -204 -147c-86 -39.333 -167 -59 -243 -59c-139.333 0 -255.666 46.667 -348.999 140
c-90 89.333 -135 195.666 -135 318.999c0 181.333 165 376 495 584c-134.667 75.333 -226.667 113 -276 113c-29.333 0 -61.833 -13.833 -97.5 -41.5s-55.167 -41.5 -58.5 -41.5c-23.333 0 -35 25.667 -35 77c0 54 25.667 105.667 77 155s104 74 158 74
c37.333 0 74.333 -6.83301 111 -20.5s98.334 -44.834 185.001 -93.501c119.333 -66.667 250.333 -100 393 -100l-106 -219c-52 10.667 -104.667 16 -158 16c-4.66699 -11.333 -7 -26.333 -7 -45c0 -52 45 -78 135 -78h251v-225zM820.999 -47.9971l-119 -136l-121 115
l-106 -108l-119 122l115 133l118 -126l108 119zM705.999 -271.997l-116 -132l-118 132l118 116zM884.999 1064l-153 -154l-154 154l154 153z" />
    <glyph glyph-name="uni06C0" unicode="&#x6c0;" arabic-form="isolated" 
d="M561 574c-19.333 4 -32 6 -38 6c-9.33301 0 -19 -1.33301 -29 -4c27.333 144.667 80 217 158 217c86.667 0 161.5 -39.5 224.5 -118.5s94.5 -163.5 94.5 -253.5c0 -119.333 -25.167 -219.333 -75.5 -300s-122.5 -121 -216.5 -121c-69.333 0 -123 23 -161 69
s-57 106.333 -57 181c0 83.333 33.333 191.333 100 324zM666 543c-16 -12.667 -33.335 -37.8359 -52.002 -75.5029s-28 -64.5 -28 -80.5c0 -57.333 11.833 -103.166 35.5 -137.499s55.834 -51.5 96.501 -51.5c28.667 0 56.167 9.33301 82.5 28s39.5 45.334 39.5 80.001
c0 58.667 -11.667 106.334 -35 143.001s-69.666 68 -138.999 94zM522.998 1171l12.999 72c34 22.667 58.667 44 74 64c-63.333 20 -95 53.667 -95 101c0 44 14.833 86.667 44.5 128s64.834 62 105.501 62c67.333 0 101 -29.667 101 -89c0 -16 -6.66699 -37.667 -20 -65
c-54 39.333 -96.333 59 -127 59c-21.333 0 -32 -9.66699 -32 -29c0 -24 13.833 -45 41.5 -63s56.5 -27 86.5 -27c33.333 0 72 10.667 116 32v-114z" />
    <glyph glyph-name="uni06C1" unicode="&#x6c1;" arabic-form="final" 
d="M1229 0h-180.001c-56 0 -117.833 29.5 -185.5 88.5s-107.167 88.5 -118.5 88.5c-36.667 0 -78.667 -65.333 -126 -196c-54.667 -150.667 -92 -240.667 -112 -270c-7.33301 -10 -58.666 -21 -153.999 -33l176 479c63.333 162 138 243 224 243
c26.667 0 77 -29.167 151 -87.5s135 -87.5 183 -87.5h142v-225z" />
    <glyph glyph-name="glyph1567" unicode="&#x6c4;" 
d="M1229 225l0.00195312 -224.999h-210c-28.667 -118 -79.5 -214.167 -152.5 -288.5s-158.5 -111.5 -256.5 -111.5c-40.667 0 -118.667 19.333 -234 58s-173 71.667 -173 99c0 22.667 19.667 34 59 34c12 0 34.667 -3.33301 68 -10c33.333 -7.33301 69.666 -11 108.999 -11
c75.333 0 165.5 25 270.5 75s161.833 104 170.5 162c-38 -4 -59.667 -6 -65 -6c-97.333 0 -163.833 15.333 -199.5 46s-53.5 76.667 -53.5 138c0 88 25.333 194.167 76 318.5s110 186.5 178 186.5c62.667 0 113.167 -42.333 151.5 -127s61.166 -197.334 68.499 -338.001h193
zM876.002 231.001c0 52.667 -6.5 107.333 -19.5 164s-30.5 85 -52.5 85c-16.667 0 -34.5 -21.833 -53.5 -65.5s-28.5 -83.167 -28.5 -118.5c0 -31.333 5.5 -51 16.5 -59s37.833 -12 80.5 -12c22 0 41 2 57 6zM369.002 -190c0 52.667 13.832 97.832 41.499 135.499
s64.834 56.5 111.501 56.5c41.333 0 74.5 -15.667 99.5 -47s37.5 -69.666 37.5 -114.999s-18 -85 -54 -119s-76.667 -51 -122 -51c-36 0 -64 14.167 -84 42.5s-30 60.833 -30 97.5zM433.001 -160.002c0 -38.667 26.334 -58 79.001 -58c45.333 0 68 11.667 68 35
c0 22 -11.833 43.5 -35.5 64.5s-46.834 31.5 -69.501 31.5c-28 0 -42 -24.333 -42 -73z" />
    <glyph glyph-name="uni06C5" unicode="&#x6c5;" arabic-form="isolated" 
d="M1034 145c0 -132.667 -37.3369 -253.332 -112.004 -361.999c-83.333 -122 -188.666 -183 -315.999 -183c-44 0 -120 18.667 -228 56c-119.333 40.667 -179 75.667 -179 105c0 20 19.667 30 59 30c18 0 46.333 -3.5 85 -10.5s69.334 -10.5 92.001 -10.5
c79.333 0 170 25 272 75l11 5c-26 -6.66699 -51.667 -10 -77 -10c-15.333 0 -43.5 10 -84.5 30s-71.5 30 -91.5 30c-22 0 -45.167 -10 -69.5 -30s-37.166 -30 -38.499 -30c-2.66699 1.33301 -4 5.33301 -4 12c0 39.333 14.833 72.333 44.5 99s64.5 40 104.5 40
c16 0 48.5 -9.5 97.5 -28.5s87.833 -28.5 116.5 -28.5c50.667 0 98.334 9.33301 143.001 28c9.33301 14.667 15.333 31 18 49c-19.333 -3.33301 -41 -5 -65 -5c-82.667 0 -142 9.66699 -178 29c-50.667 26 -76 76 -76 150c0 85.333 22.333 182.666 67 291.999
c54 132 116.667 198 188 198c85.333 0 147 -72 185 -216c24 -91.333 36 -196 36 -314zM871.996 215.002c0 44 -4.66699 90.667 -14 140c-13.333 72.667 -32.666 109 -57.999 109c-20.667 0 -40.334 -26 -59.001 -78c-15.333 -44 -23 -79.667 -23 -107
c0 -33.333 8 -54 24 -62c10 -5.33301 34.333 -8 73 -8c24 0 43 2 57 6z" />
    <glyph glyph-name="uni06C6" unicode="&#x6c6;" arabic-form="isolated" 
d="M877 11c-19.333 -3.33301 -41.001 -4.99902 -65.001 -4.99902c-102.667 0 -170.667 14.833 -204 44.5s-50 74.5 -50 134.5c0 86 25.333 189.167 76 309.5s110.334 180.5 179.001 180.5c70 0 124.333 -49.667 163 -149s58 -226.333 58 -381
c0 -134.667 -40.333 -259.167 -121 -373.5s-183 -171.5 -307 -171.5c-42.667 0 -121.167 19.5 -235.5 58.5s-171.5 73.167 -171.5 102.5c0 13.333 4.66699 21.666 14 24.999s24.333 5 45 5c15.333 0 38.333 -3.33301 69 -10c30 -7.33301 66 -11 108 -11
c77.333 0 167.833 24.833 271.5 74.5s160.5 105.167 170.5 166.5zM871.999 215.001c0 52.667 -6.5 107.333 -19.5 164s-30.5 85 -52.5 85c-18.667 0 -37 -23 -55 -69s-27 -84.667 -27 -116s5.33301 -50.833 16 -58.5s37.667 -11.5 81 -11.5c24 0 43 2 57 6zM936.999 1159
c-0.666992 -2 -23.667 -34.667 -69 -98l-107 -149l-108 149c-44.667 62 -67.334 94.667 -68.001 98c-2.66699 12.667 10 22.334 38 29.001s45.333 6 52 -2c2 -2 18 -25.667 48 -71l38 -59l38 59c13.333 21.333 29 45 47 71c6.66699 8 24.334 8.66699 53.001 2
c28 -6.66699 40.667 -16.334 38 -29.001z" />
    <glyph glyph-name="uni06C7" unicode="&#x6c7;" arabic-form="isolated" 
d="M877 11c-19.333 -3.33301 -41.001 -4.99902 -65.001 -4.99902c-102.667 0 -170.667 14.833 -204 44.5s-50 74.5 -50 134.5c0 86 25.333 189.167 76 309.5s110.334 180.5 179.001 180.5c70 0 124.333 -49.667 163 -149s58 -226.333 58 -381
c0 -134.667 -40.333 -259.167 -121 -373.5s-183 -171.5 -307 -171.5c-42.667 0 -121.167 19.5 -235.5 58.5s-171.5 73.167 -171.5 102.5c0 13.333 4.66699 21.666 14 24.999s24.333 5 45 5c15.333 0 38.333 -3.33301 69 -10c30 -7.33301 66 -11 108 -11
c77.333 0 167.833 24.833 271.5 74.5s160.5 105.167 170.5 166.5zM871.999 215.001c0 52.667 -6.5 107.333 -19.5 164s-30.5 85 -52.5 85c-18.667 0 -37 -23 -55 -69s-27 -84.667 -27 -116s5.33301 -50.833 16 -58.5s37.667 -11.5 81 -11.5c24 0 43 2 57 6zM800.999 1130
c-85.333 -96 -153.333 -144 -204 -144c-12 0 -26.333 4 -43 12s-25 17 -25 27c0 5.33301 5.33301 10.333 16 15c82 32.667 148.667 72.667 200 120c-61.333 44.667 -92 83 -92 115c0 32.667 15.667 69.834 47 111.501s67.333 62.5 108 62.5c29.333 0 53 -10.833 71 -32.5
s27 -49.167 27 -82.5c0 -34.667 -12 -72 -36 -112c33.333 -12.667 50 -34.334 50 -65.001v-59c-32 0 -71.667 10.667 -119 32zM816.999 1243c10 12 15 30 15 54c0 47.333 -23 71 -69 71c-20.667 0 -31 -16 -31 -48c0 -27.333 28.333 -53 85 -77z" />
    <glyph glyph-name="uni06C8" unicode="&#x6c8;" arabic-form="isolated" 
d="M877 11c-19.333 -3.33301 -41.001 -4.99902 -65.001 -4.99902c-102.667 0 -170.667 14.833 -204 44.5s-50 74.5 -50 134.5c0 86 25.333 189.167 76 309.5s110.334 180.5 179.001 180.5c70 0 124.333 -49.667 163 -149s58 -226.333 58 -381
c0 -134.667 -40.333 -259.167 -121 -373.5s-183 -171.5 -307 -171.5c-42.667 0 -121.167 19.5 -235.5 58.5s-171.5 73.167 -171.5 102.5c0 13.333 4.66699 21.666 14 24.999s24.333 5 45 5c15.333 0 38.333 -3.33301 69 -10c30 -7.33301 66 -11 108 -11
c77.333 0 167.833 24.833 271.5 74.5s160.5 105.167 170.5 166.5zM871.999 215.001c0 52.667 -6.5 107.333 -19.5 164s-30.5 85 -52.5 85c-18.667 0 -37 -23 -55 -69s-27 -84.667 -27 -116s5.33301 -50.833 16 -58.5s37.667 -11.5 81 -11.5c24 0 43 2 57 6zM730.999 974
c0 47.333 -4 124.335 -12 231.002c-10 127.333 -15 227.666 -15 300.999l91 145l-3 -141c0 -62.667 1.33301 -111.334 4 -146.001c3.33301 -54 5 -102.667 5 -146c0 -30 -7.66699 -75.833 -23 -137.5s-31 -97.167 -47 -106.5z" />
    <glyph glyph-name="uni06C9" unicode="&#x6c9;" arabic-form="isolated" 
d="M877 11c-19.333 -3.33301 -41.001 -4.99902 -65.001 -4.99902c-102.667 0 -170.667 14.833 -204 44.5s-50 74.5 -50 134.5c0 86 25.333 189.167 76 309.5s110.334 180.5 179.001 180.5c70 0 124.333 -49.667 163 -149s58 -226.333 58 -381
c0 -134.667 -40.333 -259.167 -121 -373.5s-183 -171.5 -307 -171.5c-42.667 0 -121.167 19.5 -235.5 58.5s-171.5 73.167 -171.5 102.5c0 13.333 4.66699 21.666 14 24.999s24.333 5 45 5c15.333 0 38.333 -3.33301 69 -10c30 -7.33301 66 -11 108 -11
c77.333 0 167.833 24.833 271.5 74.5s160.5 105.167 170.5 166.5zM871.999 215.001c0 52.667 -6.5 107.333 -19.5 164s-30.5 85 -52.5 85c-18.667 0 -37 -23 -55 -69s-27 -84.667 -27 -116s5.33301 -50.833 16 -58.5s37.667 -11.5 81 -11.5c24 0 43 2 57 6zM956.999 946
c2.66699 -12.667 -10.001 -22.333 -38.001 -29c-28.667 -6.66699 -45.667 -5.66699 -51 3c-8.66699 9.33301 -25 32.666 -49 69.999l-38 59l-38 -59l-48 -71c-6.66699 -8 -24 -8.66699 -52 -2s-40.667 16.334 -38 29.001c0.666992 3.33301 23.334 36 68.001 98l108 149
l107 -149z" />
    <glyph glyph-name="glyph1579" unicode="&#x6ca;" 
d="M1229 225l0.00195312 -224.999h-210c-28.667 -118 -79.5 -214.167 -152.5 -288.5s-158.5 -111.5 -256.5 -111.5c-40.667 0 -118.667 19.333 -234 58s-173 71.667 -173 99c0 22.667 19.667 34 59 34c12 0 34.667 -3.33301 68 -10c33.333 -7.33301 69.666 -11 108.999 -11
c75.333 0 165.5 25 270.5 75s161.833 104 170.5 162c-38 -4 -59.667 -6 -65 -6c-97.333 0 -163.833 15.333 -199.5 46s-53.5 76.667 -53.5 138c0 88 25.333 194.167 76 318.5s110 186.5 178 186.5c62.667 0 113.167 -42.333 151.5 -127s61.166 -197.334 68.499 -338.001h193
zM876.002 231.001c0 52.667 -6.5 107.333 -19.5 164s-30.5 85 -52.5 85c-16.667 0 -34.5 -21.833 -53.5 -65.5s-28.5 -83.167 -28.5 -118.5c0 -31.333 5.5 -51 16.5 -59s37.833 -12 80.5 -12c22 0 41 2 57 6zM1071 1030l-155 -157l-141 136l-153 -148l-154 154l156 156
l139 -141l154 154z" />
    <glyph glyph-name="uni06CB" unicode="&#x6cb;" arabic-form="isolated" 
d="M877 11c-19.333 -3.33301 -41.001 -4.99902 -65.001 -4.99902c-102.667 0 -170.667 14.833 -204 44.5s-50 74.5 -50 134.5c0 86 25.333 189.167 76 309.5s110.334 180.5 179.001 180.5c70 0 124.333 -49.667 163 -149s58 -226.333 58 -381
c0 -134.667 -40.333 -259.167 -121 -373.5s-183 -171.5 -307 -171.5c-42.667 0 -121.167 19.5 -235.5 58.5s-171.5 73.167 -171.5 102.5c0 13.333 4.66699 21.666 14 24.999s24.333 5 45 5c15.333 0 38.333 -3.33301 69 -10c30 -7.33301 66 -11 108 -11
c77.333 0 167.833 24.833 271.5 74.5s160.5 105.167 170.5 166.5zM871.999 215.001c0 52.667 -6.5 107.333 -19.5 164s-30.5 85 -52.5 85c-18.667 0 -37 -23 -55 -69s-27 -84.667 -27 -116s5.33301 -50.833 16 -58.5s37.667 -11.5 81 -11.5c24 0 43 2 57 6zM892.999 1426
l-156 -154l-153 154l153 153zM1033 1149l-154 -157l-141 141l-154 -154l-153 154l156 156l138 -140l154 153z" />
    <glyph glyph-name="afii57555" unicode="&#x6cc;" arabic-form="isolated" 
d="M987 504c-30.667 34 -63.333 50.999 -98 50.999c-30 0 -76 -17.167 -138 -51.5s-93 -58.833 -93 -73.5c0 -10 40.333 -20.333 121 -31c109.333 -14.667 181.5 -39.167 216.5 -73.5s52.5 -78.833 52.5 -133.5c0 -44 -21.667 -110 -65 -198s-113.833 -149.5 -211.5 -184.5
s-191.5 -52.5 -281.5 -52.5c-290 0 -435 111.333 -435 334c0 40.667 22.167 117.5 66.5 230.5s81.5 169.5 111.5 169.5c16.667 0 28.167 -2.5 34.5 -7.5s9.5 -17.833 9.5 -38.5c0 -21.333 -11.333 -62.666 -34 -123.999c-22 -61.333 -33 -107.666 -33 -138.999
c0 -64.667 22.833 -112.334 68.5 -143.001s124.5 -46 236.5 -46c104.667 0 197.834 10.5 279.501 31.5s122.5 50.833 122.5 89.5c0 15.333 -7.33301 26.666 -22 33.999s-54 15.333 -118 24c-79.333 11.333 -138.333 27.833 -177 49.5s-58 55.834 -58 102.501
c0 102 40.667 201.833 122 299.5s172 146.5 272 146.5c31.333 0 59.666 -9.83301 84.999 -29.5s38 -46.167 38 -79.5c0 -72.667 -24 -125 -72 -157z" />
    <glyph glyph-name="glyph1583" unicode="&#x6cd;" 
d="M1229 0c-31.333 0 -69.332 2.00195 -113.999 6.00195s-86.334 6 -125.001 6c-107.333 0 -169.333 -3.33301 -186 -10c4 -14 40.667 -27.333 110 -40c110.667 -20.667 166 -57 166 -109c0 -130.667 -57.167 -234 -171.5 -310s-236.833 -114 -367.5 -114
c-140 0 -241 33.333 -303 100c-58 63.333 -87 163.333 -87 300c0 36.667 9 81.667 27 135c15.333 47.333 31.333 84.333 48 111c-126 -54 -193 -81 -201 -81c-13.333 0 -20 14.667 -20 44c0 28.667 4.66699 45.334 14 50.001c14.667 8 67 31 157 69
c92.667 38.667 141.667 58 147 58c30.667 0 46 -16 46 -48c0 -24.667 -11.167 -66.834 -33.5 -126.501s-33.5 -105.167 -33.5 -136.5c0 -78.667 19.667 -135.334 59 -170.001c42.667 -38 115 -57 217 -57c62 0 136.667 6.66699 224 20s131 31 131 53
c0 15.333 -38.667 29.666 -116 42.999c-100.667 17.333 -151 55.666 -151 114.999c0 96.667 34 174.334 102 233.001c64 56 145 84 243 84h218v-225z" />
    <glyph glyph-name="glyph1586" unicode="&#x6ce;" 
d="M0 0l-0.000976562 224.999h860c20.667 0 46.834 4.83301 78.501 14.5s47.5 20.834 47.5 33.501c0 105.333 -37.667 199.333 -113 282l117 289c68.667 -102.667 115.167 -186.667 139.5 -252s36.5 -137 36.5 -215c0 -72 -26 -152.833 -78 -242.5
s-113.667 -134.5 -185 -134.5h-903zM1180 -231.001l-155 -157l-141 136l-153 -148l-154 154l156 156l139 -141l154 154zM1157 1259c-0.666992 -2 -23.667 -34.667 -69 -98l-107 -149l-108 149c-44.667 62 -67.334 94.667 -68.001 98c-2.66699 12.667 10 22.334 38 29.001
s45.333 6 52 -2c2 -2 18 -25.667 48 -71l38 -59l38 59c13.333 21.333 29 45 47 71c6.66699 8 24.334 8.66699 53.001 2c28 -6.66699 40.667 -16.334 38 -29.001z" />
    <glyph glyph-name="glyph1585" unicode="&#x6ce;" 
d="M1229 0c-44.667 0 -89.332 2.00293 -133.999 6.00293s-86.334 6 -125.001 6c-107.333 0 -169.333 -3.33301 -186 -10c4 -14 40.667 -27.333 110 -40c110.667 -20.667 166 -57 166 -109c0 -130.667 -57.167 -234 -171.5 -310s-246.833 -114 -397.5 -114
c-286.667 0 -430 133.333 -430 400c0 40 23.5 112.5 70.5 217.5s87.167 157.5 120.5 157.5c15.333 0 25.833 -3.33301 31.5 -10s8.5 -19.667 8.5 -39c0 -18.667 -13.333 -56.334 -40 -113.001s-40 -102.667 -40 -138c0 -151.333 105.333 -227 316 -227
c82 0 166.667 6.66699 254 20s131 31 131 53c0 15.333 -38.667 29.666 -116 42.999c-100.667 17.333 -151 55.666 -151 114.999c0 95.333 33 172 99 230s148 87 246 87h238v-225zM697.002 759.003c-0.666992 -2 -23.667 -34.667 -69 -98l-107 -149l-108 149
c-44.667 62 -67.334 94.667 -68.001 98c-2.66699 12.667 10 22.334 38 29.001s45.333 6 52 -2c2 -2 18 -25.667 48 -71l38 -59l38 59c13.333 21.333 29 45 47 71c6.66699 8 24.334 8.66699 53.001 2c28 -6.66699 40.667 -16.334 38 -29.001z" />
    <glyph glyph-name="glyph1589" unicode="&#x6cf;" 
d="M1229 225l0.00195312 -224.999h-210c-28.667 -118 -79.5 -214.167 -152.5 -288.5s-158.5 -111.5 -256.5 -111.5c-40.667 0 -118.667 19.333 -234 58s-173 71.667 -173 99c0 22.667 19.667 34 59 34c12 0 34.667 -3.33301 68 -10c33.333 -7.33301 69.666 -11 108.999 -11
c75.333 0 165.5 25 270.5 75s161.833 104 170.5 162c-38 -4 -59.667 -6 -65 -6c-97.333 0 -163.833 15.333 -199.5 46s-53.5 76.667 -53.5 138c0 88 25.333 194.167 76 318.5s110 186.5 178 186.5c62.667 0 113.167 -42.333 151.5 -127s61.166 -197.334 68.499 -338.001h193
zM876.002 231.001c0 52.667 -6.5 107.333 -19.5 164s-30.5 85 -52.5 85c-16.667 0 -34.5 -21.833 -53.5 -65.5s-28.5 -83.167 -28.5 -118.5c0 -31.333 5.5 -51 16.5 -59s37.833 -12 80.5 -12c22 0 41 2 57 6zM918.002 1130l-153 -154l-154 154l154 153z" />
    <glyph glyph-name="uni06D0" unicode="&#x6d0;" arabic-form="isolated" 
d="M987 504c-30.667 34 -63.333 50.999 -98 50.999c-30 0 -76 -17.167 -138 -51.5s-93 -58.833 -93 -73.5c0 -10 40.333 -20.333 121 -31c109.333 -14.667 181.5 -39.167 216.5 -73.5s52.5 -78.833 52.5 -133.5c0 -44 -21.667 -110 -65 -198s-113.833 -149.5 -211.5 -184.5
s-191.5 -52.5 -281.5 -52.5c-290 0 -435 111.333 -435 334c0 40.667 22.167 117.5 66.5 230.5s81.5 169.5 111.5 169.5c16.667 0 28.167 -2.5 34.5 -7.5s9.5 -17.833 9.5 -38.5c0 -21.333 -11.333 -62.666 -34 -123.999c-22 -61.333 -33 -107.666 -33 -138.999
c0 -64.667 22.833 -112.334 68.5 -143.001s124.5 -46 236.5 -46c104.667 0 197.834 10.5 279.501 31.5s122.5 50.833 122.5 89.5c0 15.333 -7.33301 26.666 -22 33.999s-54 15.333 -118 24c-79.333 11.333 -138.333 27.833 -177 49.5s-58 55.834 -58 102.501
c0 102 40.667 201.833 122 299.5s172 146.5 272 146.5c31.333 0 59.666 -9.83301 84.999 -29.5s38 -46.167 38 -79.5c0 -72.667 -24 -125 -72 -157zM598.001 -501.001l-81 -60l-79 60l69 50l-77 59l79 60l81 -60l-72 -51z" />
    <glyph glyph-name="glyph1595" unicode="&#x6d1;" 
d="M1229 0c-44.667 0 -89.332 2.00195 -133.999 6.00195c-10.667 0.666992 -41.667 5 -93 13c-44.667 6.66699 -74 10 -88 10c-87.333 0 -131 -9 -131 -27c0 -13.333 37 -26.666 111 -39.999c94 -17.333 141 -45.333 141 -84c0 -22 -12.333 -48.333 -37 -79
s-50 -52.667 -76 -66c-100 -53.333 -218.667 -80 -356 -80c-144 0 -268.333 35 -373 105c-64 42.667 -96 96.667 -96 162c0 31.333 16.667 84.333 50 159c37.333 83.333 72 125 104 125c26.667 0 40 -16.333 40 -49c0 -18 -10.667 -46.667 -32 -86s-32 -76.333 -32 -111
c0 -30.667 22.333 -56.334 67 -77.001c50 -22.667 129.667 -35.667 239 -39c14.667 0 53.667 0.333008 117 1c38.667 1.33301 74.167 4 106.5 8s66.833 8.66699 103.5 14c30 5.33301 45 12.666 45 21.999c0 6 -6.66699 10.333 -20 13c-39.333 10 -64.666 16.667 -75.999 20
c-98 30 -147 60.667 -147 92c0 27.333 3 46.666 9 57.999c7.33301 14.667 26.666 36 57.999 64c69.333 60.667 156.666 91 261.999 91h238v-225zM557.002 -448.998l-78 -60l-80 61l80 59l70 -49l79 57l80 -59l-80 -61zM633.002 -550.998l-80 -60l-80 60l80 59z" />
    <glyph glyph-name="uni06D2" unicode="&#x6d2;" arabic-form="isolated" 
d="M1227 -185c-24.667 -82 -44.002 -133.666 -58.002 -154.999c-31.333 -46.667 -81 -70 -149 -70h-707c-88.667 0 -149.667 30.667 -183 92c-26.667 48 -40 125.667 -40 233c0 99.333 64 178 192 236c35.333 15.333 87 40.333 155 75c20.667 12 55.334 64 104.001 156
c44.667 84 80.334 126 107.001 126c42.667 0 61.667 -94.333 57 -283c-14.667 71.333 -36.667 107 -66 107c-24 0 -48.333 -39.667 -73 -119c-27.333 -86.667 -50.333 -135.334 -69 -146.001l-148 -67c-68 -32.667 -108.667 -53.334 -122 -62.001
c-22.667 -15.333 -34 -33.666 -34 -54.999c0 -36.667 34.333 -57 103 -61c84.667 -4.66699 159.667 -7 225 -7h706z" />
    <glyph glyph-name="uni06D3" unicode="&#x6d3;" arabic-form="isolated" 
d="M1227 -185c-24.667 -82 -44.002 -133.666 -58.002 -154.999c-31.333 -46.667 -81 -70 -149 -70h-707c-88.667 0 -149.667 30.667 -183 92c-26.667 48 -40 125.667 -40 233c0 99.333 64 178 192 236c35.333 15.333 87 40.333 155 75c20.667 12 55.334 64 104.001 156
c44.667 84 80.334 126 107.001 126c42.667 0 61.667 -94.333 57 -283c-14.667 71.333 -36.667 107 -66 107c-24 0 -48.333 -39.667 -73 -119c-27.333 -86.667 -50.333 -135.334 -69 -146.001l-148 -67c-68 -32.667 -108.667 -53.334 -122 -62.001
c-22.667 -15.333 -34 -33.666 -34 -54.999c0 -36.667 34.333 -57 103 -61c84.667 -4.66699 159.667 -7 225 -7h706zM157.998 571.001l12.999 72c34 22.667 58.667 44 74 64c-63.333 20 -95 53.667 -95 101c0 44 14.833 86.667 44.5 128s64.834 62 105.501 62
c67.333 0 101 -29.667 101 -89c0 -16 -6.66699 -37.667 -20 -65c-54 39.333 -96.333 59 -127 59c-21.333 0 -32 -9.66699 -32 -29c0 -24 13.833 -45 41.5 -63s56.5 -27 86.5 -27c33.333 0 72 10.667 116 32v-114z" />
    <glyph glyph-name="glyph2840" unicode="&#x6ee;" 
d="M1229 1l-189.001 -1c-100.667 0 -176 58 -226 174c-13.333 -34 -42.833 -65.333 -88.5 -94s-99.834 -43 -162.501 -43c-100 0 -169.833 16.333 -209.5 49s-59.834 82 -60.501 148c0.666992 27.333 10.834 63 30.501 107s38.5 66 56.5 66c20 0 31.333 -24.333 34 -73
c2.66699 -48 56.334 -72 161.001 -72c73.333 0.666992 124.833 8.33398 154.5 23.001s44.5 40.667 44.5 78c0 57.333 -8 140.166 -24 248.499s-29.333 173.833 -40 196.5l172 229c10 -90 23 -256.667 39 -500c0.666992 -66 5.33398 -142.667 14.001 -230
c22 -54.667 63 -82 123 -82h171v-224zM976.999 1190c2.66699 -12.667 -10.001 -22.333 -38.001 -29c-28.667 -6.66699 -45.667 -5.66699 -51 3c-8.66699 9.33301 -25 32.666 -49 69.999l-38 59l-38 -59l-48 -71c-6.66699 -8 -24 -8.66699 -52 -2s-40.667 16.334 -38 29.001
c0.666992 3.33301 23.334 36 68.001 98l108 149l107 -149z" />
    <glyph glyph-name="glyph2842" unicode="&#x6ef;" 
d="M1229 225l-0.00292969 -225h-90c-43.333 0 -82.5 10.167 -117.5 30.5s-58.167 46.166 -69.5 77.499c-23.333 -150.667 -74.166 -276.5 -152.499 -377.5s-173.833 -151.5 -286.5 -151.5c-55.333 0 -137.666 22.333 -246.999 67s-164 82.667 -164 114
c0 21.333 16.667 32 50 32c4.66699 0 27.334 -4.66699 68.001 -14c40.667 -8.66699 86.667 -13 138 -13c111.333 0 223 47.333 335 142s168 176.334 168 245.001c0 128.667 -55 252.334 -165 371.001l137 270c33.333 -60 61.333 -122.667 84 -188s37.5 -134 44.5 -206
s22.5 -118.833 46.5 -140.5s67.667 -32.834 131 -33.501h90zM879.997 986c2.66699 -12.667 -10.001 -22.333 -38.001 -29c-28.667 -6.66699 -45.667 -5.66699 -51 3c-8.66699 9.33301 -25 32.666 -49 69.999l-38 59l-38 -59l-48 -71c-6.66699 -8 -24 -8.66699 -52 -2
s-40.667 16.334 -38 29.001c0.666992 3.33301 23.334 36 68.001 98l108 149l107 -149z" />
    <glyph glyph-name="glyph1627" unicode="&#x6fa;" 
d="M751 48c-43.333 -32 -87.333 -48 -132 -48c-74.667 0 -131.667 20.667 -171 62c-49.333 -41.333 -106.333 -62 -171 -62h-277v225h283c40 0 73.333 43.667 100 131c44 145.333 95.333 218 154 218c36 0 54 -19.333 54 -58c0 -39.333 -9 -86 -27 -140
c-17.333 -53.333 -26 -90.666 -26 -111.999c0 -14.667 3 -25.167 9 -31.5s22 -9.5 48 -9.5c38 0 60.667 19 68 57c38.667 198.667 79.334 298 122.001 298c43.333 0 65 -32.667 65 -98c0 -20.667 -3.33301 -50.334 -10 -89.001c-6.66699 -38 -10 -67.333 -10 -88
c0 -26.667 5.66699 -47 17 -61s38.666 -21 81.999 -21c53.333 0 80 36.333 80 109c0 74 -31.667 164 -95 270l151 210c35.333 -50 62.833 -115 82.5 -195s29.5 -154.667 29.5 -224c0 -122 -25 -217.667 -75 -287s-123.667 -104 -221 -104c-52 0 -95.333 16 -130 48z
M898 -378l-153 -154l-154 154l154 153zM873 1426l-156 -154l-153 154l153 153zM1013 1149l-154 -157l-141 141l-154 -154l-153 154l156 156l138 -140l154 153z" />
    <glyph glyph-name="glyph1628" unicode="&#x6fa;" 
d="M1229 225l0.000976562 -225c-120 0 -195.333 54 -226 162c-30.667 -67.333 -62.667 -111.166 -96 -131.499s-74.333 -30.5 -123 -30.5c-51.333 0 -94.666 15.667 -129.999 47c-42.667 -31.333 -86.667 -47 -132 -47c-74 0 -131 20.333 -171 61
c-48 -40.667 -105 -61 -171 -61h-180v225h185c18 0.666992 36.833 14.167 56.5 40.5s34.5 56.166 44.5 89.499c44.667 145.333 96 218 154 218c36 0 54 -19.333 54 -58c0 -39.333 -8.66699 -85.666 -26 -138.999c-18 -54 -27 -91.667 -27 -113
c0 -17.333 3.66699 -28.5 11 -33.5s22.666 -7.5 45.999 -7.5c38 0 60.667 19 68 57c38.667 198.667 79.334 298 122.001 298c43.333 0 65 -32.667 65 -98c0 -20.667 -3.33301 -50 -10 -88c-6.66699 -38.667 -10 -68.334 -10 -89.001c0 -26 5.66699 -46.167 17 -60.5
s38.666 -21.5 81.999 -21.5c53.333 0 80 36.333 80 109c0 88 -24 178.667 -72 272l133 205c24.667 -57.333 45 -128 61 -212s24 -152.667 24 -206s14.167 -93.833 42.5 -121.5s71.166 -41.5 128.499 -41.5zM798.001 -378l-153 -154l-154 154l154 153zM773.001 1426
l-156 -154l-153 154l153 153zM913.001 1149l-154 -157l-141 141l-154 -154l-153 154l156 156l138 -140l154 153z" />
    <glyph glyph-name="glyph1626" unicode="&#x6fa;" 
d="M1229 225v-224.998c-70.667 0 -123 16 -157 48c-44 -30.667 -99 -46 -165 -46c-57.333 0 -98.333 18.667 -123 56c-21.333 -40 -57.333 -60 -108 -60c-34.667 0 -62 11.333 -82 34c0 -117.333 -27.333 -214 -82 -290s-132.334 -114 -233.001 -114
c-186 0 -279 152 -279 456c0 69.333 23.833 174.333 71.5 315s93.5 211 137.5 211c20 0 30 -18 30 -54c0 -28.667 -20.667 -90 -62 -184c-36 -82 -54 -181 -54 -297c0 -68.667 15 -123.334 45 -164.001s71 -61 123 -61c76 0 126.667 17.333 152 52s38 82.667 38 144
c0 84 -22 177 -66 279c24.667 122.667 41.334 227 50.001 313c68 -81.333 111.333 -217 130 -407c16 -15.333 36 -23 60 -23c32 0 57.667 51.333 77 154c16.667 86.667 33.167 145 49.5 175s38.833 45 67.5 45s43 -31.667 43 -95c0 -18.667 -3.33301 -48.334 -10 -89.001
s-10 -70.667 -10 -90c0 -62 26.667 -93 80 -93c23.333 0 43 9.5 59 28.5s24 41.833 24 68.5c0 102.667 -23.667 208.667 -71 318l145 202c44.667 -188 67.5 -336.167 68.5 -444.5s18.167 -162.5 51.5 -162.5zM998 -377.998l-153 -154l-154 154l154 153zM873 1426l-156 -154
l-153 154l153 153zM1013 1149l-154 -157l-141 141l-154 -154l-153 154l156 156l138 -140l154 153z" />
    <glyph glyph-name="glyph1631" unicode="&#x6fb;" 
d="M316 73c-61.333 -48.667 -166.665 -72.999 -315.998 -72.999v225h104c48 0 84.333 24.333 109 73c34.667 99.333 56.5 155.666 65.5 168.999s19.167 23.333 30.5 30s23.666 10 36.999 10c31.333 0 47 -20 47 -60c0 -16 -4 -44 -12 -84
c-7.33301 -40.667 -11 -68.667 -11 -84c0 -47.333 34 -71 102 -71c112.667 213.333 203.167 352.5 271.5 417.5s136.166 97.5 203.499 97.5c158 0 237 -117.667 237 -353c0 -84.667 -18.5 -154.667 -55.5 -210s-92.5 -95.833 -166.5 -121.5s-197.667 -38.5 -371 -38.5
c-137.333 -0 -229 24.333 -275 73zM627.001 225.001h284c85.333 0 128 34.667 128 104c0 113.333 -44.333 170 -133 170c-80.667 0 -173.667 -91.333 -279 -274zM949.001 1042l-153 -154l-154 154l154 153zM949.001 -377.999l-153 -154l-154 154l154 153z" />
    <glyph glyph-name="glyph1632" unicode="&#x6fb;" 
d="M1144 244c10 -12.667 38.332 -19 84.999 -19v-225c-96 0 -162 32 -198 96c-35.333 -37.333 -82.666 -62.666 -141.999 -75.999s-158.666 -20 -297.999 -20c-137.333 0 -229 24.333 -275 73c-61.333 -48.667 -166.666 -73 -315.999 -73v225h104c48 0 84.333 24.333 109 73
c34.667 99.333 56.5 155.666 65.5 168.999s19.167 23.333 30.5 30s23.666 10 36.999 10c31.333 0 47 -20 47 -60c0 -16 -4 -44 -12 -84c-7.33301 -40.667 -11 -68.667 -11 -84c0 -47.333 34 -71 102 -71c112.667 213.333 203.167 352.5 271.5 417.5
s136.166 97.5 203.499 97.5c79.333 0 139 -31 179 -93s60 -141.667 60 -239c0 -61.333 -14 -110.333 -42 -147zM626.999 225h284c85.333 0 128 34.667 128 104c0 113.333 -44.333 170 -133 170c-80.667 0 -173.667 -91.333 -279 -274zM948.999 1042l-153 -154l-154 154
l154 153zM948.999 -378l-153 -154l-154 154l154 153z" />
    <glyph glyph-name="glyph1630" unicode="&#x6fb;" 
d="M1139 255c18.667 -20 48.667 -30 90 -30v-225c-70 0 -128.667 30.667 -176 92c-86 -62 -181.333 -93 -286 -93c-94 0 -158.667 12 -194 36c-30 -280.667 -132 -421 -306 -421c-98 0 -166.5 37.833 -205.5 113.5s-58.5 202.167 -58.5 379.5c0 94.667 24.333 202 73 322
s91 180 127 180c26 0 39 -11.333 39 -34c0 -22 -21.333 -88.667 -64 -200c-38 -100 -57 -201 -57 -303c0 -64.667 15.667 -118 47 -160s70.666 -63 117.999 -63c123.333 0 185 65.333 185 196c0 82 -19.667 173.333 -59 274l51 331c73.333 -206 111 -353.333 113 -442
c15.333 0 28 0.666992 38 2c80.667 202.667 146.834 339.5 198.501 410.5s100.5 106.5 146.5 106.5c142.667 0 214 -112 214 -336c0 -70.667 -11.333 -116 -34 -136zM731 226c42 -6 110 -9 204 -9c67.333 0 101 29.333 101 88c0 58 -12.5 104.667 -37.5 140
s-55.167 53 -90.5 53c-56.667 0 -115.667 -90.667 -177 -272zM1052 1035l-153 -154l-154 154l154 153zM1052 -378l-153 -154l-154 154l154 153z" />
    <glyph glyph-name="glyph1635" unicode="&#x6fc;" 
d="M993 405l-32 -227.998c-54.667 -12.667 -138.667 -35.667 -252 -69c-245.333 -72 -433 -108 -563 -108h-146v225h45c125.333 0 223.333 7.33301 294 22c-55.333 50 -83 90 -83 120c0 94 38 184.833 114 272.5s163.333 131.5 262 131.5c80 0 151.833 -23.833 215.5 -71.5
s95.5 -94.167 95.5 -139.5c0 -30.667 -8.33301 -46 -25 -46c-6.66699 0 -16.667 6 -30 18c-53.333 46.667 -141 70 -263 70c-39.333 0 -85.833 -13.667 -139.5 -41s-80.5 -57.333 -80.5 -90c0 -46.667 26.167 -82.834 78.5 -108.501s114.833 -38.5 187.5 -38.5
c24 0 51.333 2.66699 82 8s110.667 29.666 240 72.999zM696 1186l-153 -154l-154 154l154 153zM798 -377.998l-153 -154l-154 154l154 153z" />
    <glyph glyph-name="glyph1636" unicode="&#x6fc;" 
d="M1229 0l-176.999 0.000976562c-146.667 0 -255.667 89.333 -327 268c-35.333 -18 -75.333 -48.667 -120 -92c-120.667 -117.333 -235.334 -176 -344.001 -176h-261v225h272c32 0 65.833 5.16699 101.5 15.5s123.167 60.166 262.5 149.499c-52 44 -123.333 69.333 -214 76
l85 219c104.667 30 187.667 45 249 45c190.667 0 286 -62.667 286 -188c0 -78.667 -67 -151.334 -201 -218.001c31.333 -39.333 72.5 -65.666 123.5 -78.999s139.167 -20 264.5 -20v-225zM589.001 572.001c65.333 -31.333 123.333 -72.666 174 -123.999
c24 7.33301 50.167 21.166 78.5 41.499s42.5 37.5 42.5 51.5c0 42.667 -43 64 -129 64c-50.667 0 -106 -11 -166 -33zM921.001 1180l-153 -154l-154 154l154 153zM858.001 -377.999l-153 -154l-154 154l154 153z" />
    <glyph glyph-name="glyph1634" unicode="&#x6fc;" 
d="M1229 -274c0 -34 -25.999 -80.6641 -77.999 -139.997c-54.667 -63.333 -116.834 -112.5 -186.501 -147.5s-138.167 -52.5 -205.5 -52.5c-109.333 0 -199.333 17 -270 51c-100.667 49.333 -170.834 106.166 -210.501 170.499s-59.5 149.166 -59.5 254.499
c0 78 51.333 176.333 154 295c76 88 158 165.333 246 232c-41.333 43.333 -111.666 68.666 -210.999 75.999l85 219c112.667 30 195.667 45 249 45c137.333 0 226.333 -25.667 267 -77c21.333 -28 32 -64 32 -108c0 -76 -70.667 -149 -212 -219
c24 -39.333 62.667 -65.833 116 -79.5s148 -20.5 284 -20.5v-225h-194c-142.667 -0 -252.667 92.333 -330 277c-72 -51.333 -142 -120.333 -210 -207c-31.333 -46.667 -50.833 -78.834 -58.5 -96.501s-11.5 -44.5 -11.5 -80.5c0 -41.333 19.167 -85.666 57.5 -132.999
s83.166 -80.666 134.499 -99.999c56 -21.333 109 -32 159 -32c62.667 0 114.834 6.16699 156.501 18.5s123.167 40.166 244.5 83.499c15.333 5.33301 27.833 8 37.5 8s14.5 -4 14.5 -12zM884.001 542.003c0 42.667 -43.001 64.001 -129.001 64.001
c-47.333 0 -102.666 -11.333 -165.999 -34c70 -36 128 -77 174 -123c25.333 8 51.833 22.167 79.5 42.5s41.5 37.166 41.5 50.499zM925 1179l-153 -154l-154 154l154 153zM868 -155.996l-153 -154l-154 154l154 153z" />
    <glyph glyph-name="glyph2843" unicode="&#x6ff;" 
d="M807 -16c-57.333 32.667 -135.331 73.333 -233.998 122c-82.667 -70.667 -189.334 -106 -320.001 -106h-253v225c163.333 0 274.666 9 333.999 27c0 94 46 195.333 138 304c-38 16 -71 24 -99 24c8 30 19.833 64 35.5 102s34.167 61.833 55.5 71.5s49.333 14.5 84 14.5
c107.333 0 200.333 -53.833 279 -161.5s118 -217.167 118 -328.5c0 -70.667 -46 -168.667 -138 -294zM481.002 313.999c18 -4.66699 35.999 -9.66797 53.999 -15.001c70.667 76 106 137.333 106 184c0 18 -1.66699 30 -5 36s-13.666 9 -30.999 9
c-20 0 -49 -24.167 -87 -72.5s-57 -81.166 -57 -98.499c0 -22 6.66699 -36.333 20 -43zM719.001 466.998c0 -78.667 -20.999 -149.333 -62.999 -212c55.333 -16.667 105.666 -36 150.999 -58c5.33301 14 8 37 8 69c0 75.333 -32 142.333 -96 201zM737.002 985.999
c2.66699 -12.667 -10.001 -22.333 -38.001 -29c-28.667 -6.66699 -45.667 -5.66699 -51 3c-8.66699 9.33301 -25 32.666 -49 69.999l-38 59l-38 -59l-48 -71c-6.66699 -8 -24 -8.66699 -52 -2s-40.667 16.334 -38 29.001c0.666992 3.33301 23.334 36 68.001 98l108 149
l107 -149z" />
    <glyph glyph-name="glyph2846" unicode="&#x6ff;" 
d="M1229 0c-145.333 0 -264.665 -8.33398 -357.998 -25.001c18.667 -24 28 -50 28 -78c0 -70.667 -23.5 -142 -70.5 -214s-104.833 -108 -173.5 -108c-65.333 0 -117.333 31.667 -156 95s-58.334 141 -59.001 233l-114 -29c4.66699 50.667 12.667 95.334 24 134.001
c-36.667 -5.33301 -82.334 -8 -137.001 -8h-213v225c301.333 0 458 7.33301 470 22c68 124 143.167 238.833 225.5 344.5s145.833 158.5 190.5 158.5c86.667 0 130 -56.667 130 -170c0 -196 -52.667 -322 -158 -378c50 15.333 108 23 174 23h197v-225zM603.001 231.999
c48.667 6.66699 110.001 42.168 184.001 106.501s111 119.166 111 164.499c0 35.333 -12.333 53 -37 53c-20.667 0 -40.834 -5.66699 -60.501 -17s-39 -28.333 -58 -51s-33.167 -43 -42.5 -61zM572.002 32c-10 -46 -15 -86.999 -15 -122.999c0 -100.667 38 -151 114 -151
c67.333 0 101 34.333 101 103c0 31.333 -21 66.666 -63 105.999s-87.667 61 -137 65zM997.002 986.001c2.66699 -12.667 -10.001 -22.333 -38.001 -29c-28.667 -6.66699 -45.667 -5.66699 -51 3c-8.66699 9.33301 -25 32.666 -49 69.999l-38 59l-38 -59l-48 -71
c-6.66699 -8 -24 -8.66699 -52 -2s-40.667 16.334 -38 29.001c0.666992 3.33301 23.334 36 68.001 98l108 149l107 -149z" />
    <glyph glyph-name="glyph2844" unicode="&#x6ff;" 
d="M1229 0c-145.333 0 -264.665 -8.33398 -357.998 -25.001c18.667 -24 28 -50 28 -78c0 -70.667 -23.5 -142 -70.5 -214s-104.833 -108 -173.5 -108c-65.333 0 -117.333 31.667 -156 95s-58.334 141 -59.001 233l-114 -29c4.66699 50.667 12.667 95.334 24 134.001
c-36.667 -5.33301 -82.334 -8 -137.001 -8h-213v225c301.333 0 458 7.33301 470 22c68 124 143.167 238.833 225.5 344.5s145.833 158.5 190.5 158.5c86.667 0 130 -56.667 130 -170c0 -196 -52.667 -322 -158 -378c50 15.333 108 23 174 23h197v-225zM603.001 231.999
c48.667 6.66699 110.001 42.168 184.001 106.501s111 119.166 111 164.499c0 35.333 -12.333 53 -37 53c-20.667 0 -40.834 -5.66699 -60.501 -17s-39 -28.333 -58 -51s-33.167 -43 -42.5 -61zM572.002 32c-10 -46 -15 -86.999 -15 -122.999c0 -100.667 38 -151 114 -151
c67.333 0 101 34.333 101 103c0 31.333 -21 66.666 -63 105.999s-87.667 61 -137 65zM997.002 986.001c2.66699 -12.667 -10.001 -22.333 -38.001 -29c-28.667 -6.66699 -45.667 -5.66699 -51 3c-8.66699 9.33301 -25 32.666 -49 69.999l-38 59l-38 -59l-48 -71
c-6.66699 -8 -24 -8.66699 -52 -2s-40.667 16.334 -38 29.001c0.666992 3.33301 23.334 36 68.001 98l108 149l107 -149z" />
    <glyph glyph-name="afii52258" unicode="&#x671;" arabic-form="final" 
d="M483 1482c82 128.667 152.334 193 211.001 193c22 0 40.833 -12.167 56.5 -36.5s23.5 -52.833 23.5 -85.5c0 -78 -20.833 -128.333 -62.5 -151s-136.5 -34 -284.5 -34c-16 0 -32 -18.667 -48 -56c-6.66699 -16.667 -14.334 -25 -23.001 -25c-18 0 -27 20 -27 60
c0 88.667 51.333 133.667 154 135zM534.001 1482c94 0 149.167 1.33301 165.5 4s24.5 12.667 24.5 30c0 43.333 -17.333 65 -52 65c-38 0 -84 -33 -138 -99zM1229 0h-425.999c-97.333 0 -164 8 -200 24c-40.667 17.333 -70.834 55.5 -90.501 114.5
s-29.5 141.833 -29.5 248.5c0 41.333 2 99.833 6 175.5s6 123.5 6 143.5c0 143.333 -12 267.666 -36 372.999l157 205c40.667 -142.667 61 -294 61 -454c0 -47.333 -2.33301 -123.166 -7 -227.499s-7 -185.5 -7 -243.5c0 -54 3.66699 -89.333 11 -106
c8 -18.667 25.333 -28 52 -28h503v-225z" />
    <glyph glyph-name="uniFB53" unicode="&#x67b;" arabic-form="final" 
d="M1229 225l0.000976562 -224.999c-123.333 0 -200.333 58.667 -231 176c-10.667 -32.667 -32.334 -65 -65.001 -97s-65 -53 -97 -63s-77.667 -15 -137 -15h-264c-290 0 -435 85 -435 255c-0 51.333 21.833 124 65.5 218s83.167 141 118.5 141c24.667 0 37 -13.333 37 -40
c0 -13.333 -11 -45 -33 -95c-21.333 -50 -32 -85.667 -32 -107c0 -98.667 104 -148 312 -148h295c94.667 0 142 29 142 87c0 96.667 -22.333 190.667 -67 282l130 219c59.333 -196.667 89.333 -333.334 90 -410.001s16.667 -125.5 48 -146.5s72.333 -31.5 123 -31.5z
M668.001 -503.999l-111 -110l-109 110l99 100l-107 109l109 110l111 -110l-102 -101z" />
    <glyph glyph-name="uniFB54" unicode="&#x67b;" arabic-form="initial" 
d="M0 0l-0.000976562 224.999h860c20.667 0 46.834 4.83301 78.501 14.5s47.5 20.834 47.5 33.501c0 105.333 -37.667 199.333 -113 282l117 289c68.667 -102.667 115.167 -186.667 139.5 -252s36.5 -137 36.5 -215c0 -72 -26 -152.833 -78 -242.5
s-113.667 -134.5 -185 -134.5h-903zM1088 -504.001l-111 -110l-109 110l99 100l-107 109l109 110l111 -110l-102 -101z" />
    <glyph glyph-name="uniFB55" unicode="&#x67b;" arabic-form="medial" 
d="M1229 0l-80.998 0.000976562c-124 0 -209.333 12.833 -256 38.5s-88.667 76.5 -126 152.5c-74.667 -127.333 -149 -191 -223 -191h-543v225h532c80 0 120 34.667 120 104c0 65.333 -22 150.333 -66 255l153 269c56 -176.667 90.333 -327.334 103 -452.001
c4 -41.333 10.333 -70.5 19 -87.5s20.667 -31.5 36 -43.5s33.666 -21.667 54.999 -29s40.166 -11.833 56.499 -13.5s89.833 -2.5 220.5 -2.5v-225zM888.002 -503.999l-111 -110l-109 110l99 100l-107 109l109 110l111 -110l-102 -101z" />
    <glyph glyph-name="afii62958" unicode="&#x67e;" arabic-form="final" 
d="M1229 225l0.000976562 -224.999c-123.333 0 -200.333 58.667 -231 176c-10.667 -32.667 -32.334 -65 -65.001 -97s-65 -53 -97 -63s-77.667 -15 -137 -15h-264c-290 0 -435 85 -435 255c-0 51.333 21.833 124 65.5 218s83.167 141 118.5 141c24.667 0 37 -13.333 37 -40
c0 -13.333 -11 -45 -33 -95c-21.333 -50 -32 -85.667 -32 -107c0 -98.667 104 -148 312 -148h295c94.667 0 142 29 142 87c0 96.667 -22.333 190.667 -67 282l130 219c59.333 -196.667 89.333 -333.334 90 -410.001s16.667 -125.5 48 -146.5s72.333 -31.5 123 -31.5z
M755.001 -257.999l-119 -136l-121 115l-106 -108l-119 122l115 133l118 -126l108 119zM640.001 -481.999l-116 -132l-118 132l118 116z" />
    <glyph glyph-name="afii62956" unicode="&#x67e;" arabic-form="initial" 
d="M0 0l-0.000976562 224.999h860c20.667 0 46.834 4.83301 78.501 14.5s47.5 20.834 47.5 33.501c0 105.333 -37.667 199.333 -113 282l117 289c68.667 -102.667 115.167 -186.667 139.5 -252s36.5 -137 36.5 -215c0 -72 -26 -152.833 -78 -242.5
s-113.667 -134.5 -185 -134.5h-903zM1048 -258.001l-119 -136l-121 115l-106 -108l-119 122l115 133l118 -126l108 119zM932.999 -482.001l-116 -132l-118 132l118 116z" />
    <glyph glyph-name="afii52957" unicode="&#x67e;" arabic-form="medial" 
d="M1229 0l-80.998 0.000976562c-124 0 -209.333 12.833 -256 38.5s-88.667 76.5 -126 152.5c-74.667 -127.333 -149 -191 -223 -191h-543v225h532c80 0 120 34.667 120 104c0 65.333 -22 150.333 -66 255l153 269c56 -176.667 90.333 -327.334 103 -452.001
c4 -41.333 10.333 -70.5 19 -87.5s20.667 -31.5 36 -43.5s33.666 -21.667 54.999 -29s40.166 -11.833 56.499 -13.5s89.833 -2.5 220.5 -2.5v-225zM964.002 -233.999l-119 -136l-121 115l-106 -108l-119 122l115 133l118 -126l108 119zM849.002 -457.999l-116 -132l-118 132
l118 116z" />
    <glyph glyph-name="uniFB5B" unicode="&#x680;" arabic-form="final" 
d="M1229 225l0.000976562 -224.999c-123.333 0 -200.333 58.667 -231 176c-10.667 -32.667 -32.334 -65 -65.001 -97s-65 -53 -97 -63s-77.667 -15 -137 -15h-264c-290 0 -435 85 -435 255c-0 51.333 21.833 124 65.5 218s83.167 141 118.5 141c24.667 0 37 -13.333 37 -40
c0 -13.333 -11 -45 -33 -95c-21.333 -50 -32 -85.667 -32 -107c0 -98.667 104 -148 312 -148h295c94.667 0 142 29 142 87c0 96.667 -22.333 190.667 -67 282l130 219c59.333 -196.667 89.333 -333.334 90 -410.001s16.667 -125.5 48 -146.5s72.333 -31.5 123 -31.5z
M774.001 -494.999l-110 -111l-101 102l-108 -110l-110 111l96 96l-105 106l110 109l100 -99l109 107l110 -109l-97 -97zM650.001 -398.999l-96 97l-95 -96l96 -95z" />
    <glyph glyph-name="uniFB5C" unicode="&#x680;" arabic-form="initial" 
d="M0 0l-0.000976562 224.999h860c20.667 0 46.834 4.83301 78.501 14.5s47.5 20.834 47.5 33.501c0 105.333 -37.667 199.333 -113 282l117 289c68.667 -102.667 115.167 -186.667 139.5 -252s36.5 -137 36.5 -215c0 -72 -26 -152.833 -78 -242.5
s-113.667 -134.5 -185 -134.5h-903zM1194 -495.001l-110 -111l-101 102l-108 -110l-110 111l96 96l-105 106l110 109l100 -99l109 107l110 -109l-97 -97zM1070 -399.001l-96 97l-95 -96l96 -95z" />
    <glyph glyph-name="uniFB5D" unicode="&#x680;" arabic-form="medial" 
d="M1229 0l-80.998 0.000976562c-124 0 -209.333 12.833 -256 38.5s-88.667 76.5 -126 152.5c-74.667 -127.333 -149 -191 -223 -191h-543v225h532c80 0 120 34.667 120 104c0 65.333 -22 150.333 -66 255l153 269c56 -176.667 90.333 -327.334 103 -452.001
c4 -41.333 10.333 -70.5 19 -87.5s20.667 -31.5 36 -43.5s33.666 -21.667 54.999 -29s40.166 -11.833 56.499 -13.5s89.833 -2.5 220.5 -2.5v-225zM994.002 -494.999l-110 -111l-101 102l-108 -110l-110 111l96 96l-105 106l110 109l100 -99l109 107l110 -109l-97 -97z
M870.002 -398.999l-96 97l-95 -96l96 -95z" />
    <glyph glyph-name="uniFB5F" unicode="&#x67a;" arabic-form="final" 
d="M1229 225l0.000976562 -224.999c-123.333 0 -200.333 58.667 -231 176c-10.667 -32.667 -32.334 -65 -65.001 -97s-65 -53 -97 -63s-77.667 -15 -137 -15h-264c-290 0 -435 85 -435 255c-0 51.333 21.833 124 65.5 218s83.167 141 118.5 141c24.667 0 37 -13.333 37 -40
c0 -13.333 -11 -45 -33 -95c-21.333 -50 -32 -85.667 -32 -107c0 -98.667 104 -148 312 -148h295c94.667 0 142 29 142 87c0 96.667 -22.333 190.667 -67 282l130 219c59.333 -196.667 89.333 -333.334 90 -410.001s16.667 -125.5 48 -146.5s72.333 -31.5 123 -31.5z
M668.001 871.001l-111 -110l-109 110l99 100l-107 109l109 110l111 -110l-102 -101z" />
    <glyph glyph-name="uniFB60" unicode="&#x67a;" arabic-form="initial" 
d="M0 0l-0.000976562 224.999h860c20.667 0 46.834 4.83301 78.501 14.5s47.5 20.834 47.5 33.501c0 105.333 -37.667 199.333 -113 282l117 289c68.667 -102.667 115.167 -186.667 139.5 -252s36.5 -137 36.5 -215c0 -72 -26 -152.833 -78 -242.5
s-113.667 -134.5 -185 -134.5h-903zM1088 1072l-111 -110l-109 110l99 100l-107 109l109 110l111 -110l-102 -101z" />
    <glyph glyph-name="uniFB61" unicode="&#x67a;" arabic-form="medial" 
d="M1229 0l-80.998 0.000976562c-124 0 -209.333 12.833 -256 38.5s-88.667 76.5 -126 152.5c-74.667 -127.333 -149 -191 -223 -191h-543v225h532c80 0 120 34.667 120 104c0 65.333 -22 150.333 -66 255l153 269c56 -176.667 90.333 -327.334 103 -452.001
c4 -41.333 10.333 -70.5 19 -87.5s20.667 -31.5 36 -43.5s33.666 -21.667 54.999 -29s40.166 -11.833 56.499 -13.5s89.833 -2.5 220.5 -2.5v-225zM788.002 1072l-111 -110l-109 110l99 100l-107 109l109 110l111 -110l-102 -101z" />
    <glyph glyph-name="uniFB63" unicode="&#x67f;" arabic-form="final" 
d="M1229 225l0.000976562 -224.999c-123.333 0 -200.333 58.667 -231 176c-10.667 -32.667 -32.334 -65 -65.001 -97s-65 -53 -97 -63s-77.667 -15 -137 -15h-264c-290 0 -435 85 -435 255c-0 51.333 21.833 124 65.5 218s83.167 141 118.5 141c24.667 0 37 -13.333 37 -40
c0 -13.333 -11 -45 -33 -95c-21.333 -50 -32 -85.667 -32 -107c0 -98.667 104 -148 312 -148h295c94.667 0 142 29 142 87c0 96.667 -22.333 190.667 -67 282l130 219c59.333 -196.667 89.333 -333.334 90 -410.001s16.667 -125.5 48 -146.5s72.333 -31.5 123 -31.5z
M774.001 882.001l-110 -111l-101 102l-108 -110l-110 111l96 96l-105 106l110 109l100 -99l109 107l110 -109l-97 -97zM650.001 978.001l-96 97l-95 -96l96 -95z" />
    <glyph glyph-name="uniFB64" unicode="&#x67f;" arabic-form="initial" 
d="M0 0l-0.000976562 224.999h860c20.667 0 46.834 4.83301 78.501 14.5s47.5 20.834 47.5 33.501c0 105.333 -37.667 199.333 -113 282l117 289c68.667 -102.667 115.167 -186.667 139.5 -252s36.5 -137 36.5 -215c0 -72 -26 -152.833 -78 -242.5
s-113.667 -134.5 -185 -134.5h-903zM1194 1054l-110 -111l-101 102l-108 -110l-110 111l96 96l-105 106l110 109l100 -99l109 107l110 -109l-97 -97zM1070 1150l-96 97l-95 -96l96 -95z" />
    <glyph glyph-name="uniFB65" unicode="&#x67f;" arabic-form="medial" 
d="M1229 0l-80.998 0.000976562c-124 0 -209.333 12.833 -256 38.5s-88.667 76.5 -126 152.5c-74.667 -127.333 -149 -191 -223 -191h-543v225h532c80 0 120 34.667 120 104c0 65.333 -22 150.333 -66 255l153 269c56 -176.667 90.333 -327.334 103 -452.001
c4 -41.333 10.333 -70.5 19 -87.5s20.667 -31.5 36 -43.5s33.666 -21.667 54.999 -29s40.166 -11.833 56.499 -13.5s89.833 -2.5 220.5 -2.5v-225zM894.002 1054l-110 -111l-101 102l-108 -110l-110 111l96 96l-105 106l110 109l100 -99l109 107l110 -109l-97 -97z
M770.002 1150l-96 97l-95 -96l96 -95z" />
    </font>
</defs>
</svg>
