<svg class="svg-icon" style="width: 1em; height: 1em;vertical-align: middle;fill: currentColor;overflow: hidden;" viewBox="0 0 1024 1024" version="1.1" xmlns="http://www.w3.org/2000/svg"><path d="M324.266667 647.68a42.666667 42.666667 0 0 0-60.586667 60.586667l45.226667 45.226666a42.666667 42.666667 0 0 0 60.586666 0 42.666667 42.666667 0 0 0 0-60.586666z m-161.706667-230.4l-45.226667 45.226667a38.826667 38.826667 0 0 0-8.106666 11.093333 42.666667 42.666667 0 0 0-11.52 68.693333l45.226666 45.226667a42.666667 42.666667 0 0 0 60.586667 0 42.666667 42.666667 0 0 0 0-60.586667L188.16 512l34.56-34.56a42.666667 42.666667 0 0 0-60.16-60.16z m178.773333 33.706667a42.666667 42.666667 0 0 0-42.666666 42.666666v64a42.666667 42.666667 0 0 0 85.333333 0v-64a42.666667 42.666667 0 0 0-42.666667-42.666666z m584.96 30.72l-213.333333-213.333334a42.666667 42.666667 0 0 0-46.506667-8.96A42.666667 42.666667 0 0 0 640 298.666667v426.666666a42.666667 42.666667 0 0 0 26.453333 39.253334 35.84 35.84 0 0 0 16.213334 3.413333 42.666667 42.666667 0 0 0 30.293333-12.373333l213.333333-213.333334a42.666667 42.666667 0 0 0 0-60.586666zM725.333333 622.506667V401.493333L835.84 512zM512 85.333333a42.666667 42.666667 0 0 0-42.666667 42.666667v768a42.666667 42.666667 0 0 0 85.333334 0V128a42.666667 42.666667 0 0 0-42.666667-42.666667zM357.546667 259.413333a42.666667 42.666667 0 0 0-46.506667 8.96L283.306667 298.666667a42.666667 42.666667 0 0 0 0 60.16 42.666667 42.666667 0 0 0 29.866666 12.8 42.666667 42.666667 0 0 0 19.2-4.693334A42.666667 42.666667 0 0 0 384 322.986667V298.666667a42.666667 42.666667 0 0 0-26.453333-39.253334z"  /></svg>