<svg class="svg-icon" style="width: 1em; height: 1em;vertical-align: middle;fill: currentColor;overflow: hidden;" viewBox="0 0 1024 1024" version="1.1" xmlns="http://www.w3.org/2000/svg"><path d="M896 469.333333H128a42.666667 42.666667 0 0 0 0 85.333334h768a42.666667 42.666667 0 0 0 0-85.333334zM466.346667 384h64a42.666667 42.666667 0 0 0 0-85.333333h-64a42.666667 42.666667 0 0 0 0 85.333333z m192-42.666667a42.666667 42.666667 0 0 0 42.666666 42.666667H725.333333a42.666667 42.666667 0 0 0 39.253334-26.453333 42.666667 42.666667 0 0 0-8.96-46.506667l-28.16-27.733333a42.666667 42.666667 0 0 0-60.16 0 42.666667 42.666667 0 0 0-8.106667 49.066666 63.573333 63.573333 0 0 0-0.853333 8.96z m-161.28-137.813333l14.933333-15.36 34.56 34.56a42.666667 42.666667 0 0 0 60.16 0 42.666667 42.666667 0 0 0 0-60.16l-45.226667-45.226667a38.826667 38.826667 0 0 0-11.093333-8.106666 42.666667 42.666667 0 0 0-68.693333-11.52l-45.226667 45.226666a42.666667 42.666667 0 0 0 60.586667 60.586667zM725.333333 640H298.666667a42.666667 42.666667 0 0 0-39.253334 26.453333 42.666667 42.666667 0 0 0 8.96 46.506667l213.333334 213.333333a42.666667 42.666667 0 0 0 60.586666 0l213.333334-213.333333a42.666667 42.666667 0 0 0 8.96-46.506667A42.666667 42.666667 0 0 0 725.333333 640z m-213.333333 195.84L401.493333 725.333333h221.013334zM300.8 384a42.666667 42.666667 0 0 0 30.293333-12.373333L376.32 324.266667A42.666667 42.666667 0 0 0 315.733333 263.68L270.506667 308.906667a42.666667 42.666667 0 0 0 0 60.586666 42.666667 42.666667 0 0 0 30.293333 14.506667z"  /></svg>