<svg class="svg-icon" style="width: 1em; height: 1em;vertical-align: middle;fill: currentColor;overflow: hidden;" viewBox="0 0 1024 1024" version="1.1" xmlns="http://www.w3.org/2000/svg"><path d="M409.6 512 256 358.4l0 102.4L51.2 460.8l0 102.4 204.8 0 0 102.4L409.6 512zM768 665.6l0-102.4 204.8 0L972.8 460.8l-204.8 0L768 358.4l-153.6 153.6L768 665.6zM512 921.6c28.3136 0 51.2-2.5088 51.2-30.72L563.2 133.12C563.2 104.8064 540.3136 102.4 512 102.4 483.7376 102.4 460.8 104.8064 460.8 133.12L460.8 890.88C460.8 919.0912 483.7376 921.6 512 921.6z"  /></svg>